<?xml version="1.0" encoding="utf-8"?>
<!-- Generator: Adobe Illustrator 24.0.1, SVG Export Plug-In . SVG Version: 6.00 Build 0)  -->
<svg version="1.1"
	 id="layer1" inkscape:version="0.48.2 r9819" sodipodi:docname="black.svg" xmlns:cc="http://creativecommons.org/ns#" xmlns:dc="http://purl.org/dc/elements/1.1/" xmlns:inkscape="http://www.inkscape.org/namespaces/inkscape" xmlns:rdf="http://www.w3.org/1999/02/22-rdf-syntax-ns#" xmlns:sodipodi="http://sodipodi.sourceforge.net/DTD/sodipodi-0.dtd" xmlns:svg="http://www.w3.org/2000/svg"
	 xmlns="http://www.w3.org/2000/svg" xmlns:xlink="http://www.w3.org/1999/xlink" x="0px" y="0px" viewBox="0 0 32 32"
	 style="enable-background:new 0 0 32 32;" xml:space="preserve">
<style type="text/css">
	.st0{display:none;fill:#FFFFFF;}
	.st1{fill:#FFFFFF;}
</style>
<rect x="0" y="0" class="st0" width="32" height="32"/>
<rect id="s3" x="14" y="11" class="st1" width="4" height="10"/>
<g id="s2" inkscape:connector-curvature="0" sodipodi:nodetypes="cccc">
	<polygon points="10.5,13.8 16,6.5 21.5,13.8 	"/>
	<path class="st1" d="M11.5,13.3l4.5-6l4.5,6H11.5 M9.5,14.3h2h9h2l-1.2-1.6l-4.5-6L16,5.6l-0.8,1.1l-4.5,6L9.5,14.3L9.5,14.3z"/>
</g>
<g id="s2_1_" inkscape:connector-curvature="0" sodipodi:nodetypes="cccc">
	<polygon points="16,25.4 10.5,18.1 21.5,18.1 	"/>
	<path class="st1" d="M11.5,18.6h9l-4.5,6L11.5,18.6 M9.5,17.6l1.2,1.6l4.5,6l0.8,1.1l0.8-1.1l4.5-6l1.2-1.6h-2h-9H9.5L9.5,17.6z"/>
</g>
<rect id="s0" x="15" y="11" width="2" height="10"/>
</svg>
