<?xml version="1.0" encoding="UTF-8" standalone="no"?>
<!-- Created with Inkscape (http://www.inkscape.org/) -->

<svg
   xmlns:dc="http://purl.org/dc/elements/1.1/"
   xmlns:cc="http://creativecommons.org/ns#"
   xmlns:rdf="http://www.w3.org/1999/02/22-rdf-syntax-ns#"
   xmlns:svg="http://www.w3.org/2000/svg"
   xmlns="http://www.w3.org/2000/svg"
   xmlns:sodipodi="http://sodipodi.sourceforge.net/DTD/sodipodi-0.dtd"
   xmlns:inkscape="http://www.inkscape.org/namespaces/inkscape"
   width="32px"
   height="32px"
   id="svg2985"
   version="1.1"
   inkscape:version="0.48.2 r9819"
   sodipodi:docname="resize_all.svg">
  <defs
     id="defs2987">
    <filter
       inkscape:collect="always"
       id="filter9638"
       x="-0.10832481"
       width="1.2166496"
       y="-0.10767713"
       height="1.2153543">
      <feGaussianBlur
         inkscape:collect="always"
         stdDeviation="0.93796873"
         id="feGaussianBlur9640" />
    </filter>
  </defs>
  <sodipodi:namedview
     id="base"
     pagecolor="#ffffff"
     bordercolor="#666666"
     borderopacity="1.0"
     inkscape:pageopacity="0.0"
     inkscape:pageshadow="2"
     inkscape:zoom="32"
     inkscape:cx="14.296514"
     inkscape:cy="20.092363"
     inkscape:current-layer="layer1"
     showgrid="true"
     inkscape:grid-bbox="true"
     inkscape:document-units="px"
     inkscape:window-width="1894"
     inkscape:window-height="1435"
     inkscape:window-x="307"
     inkscape:window-y="0"
     inkscape:window-maximized="0"
     inkscape:snap-global="false">
    <inkscape:grid
       type="xygrid"
       id="grid7730" />
  </sodipodi:namedview>
  <metadata
     id="metadata2990">
    <rdf:RDF>
      <cc:Work
         rdf:about="">
        <dc:format>image/svg+xml</dc:format>
        <dc:type
           rdf:resource="http://purl.org/dc/dcmitype/StillImage" />
        <dc:title></dc:title>
      </cc:Work>
    </rdf:RDF>
  </metadata>
  <g
     id="layer1"
     inkscape:label="Layer 1"
     inkscape:groupmode="layer">
    <path
       style="font-size:medium;font-style:normal;font-variant:normal;font-weight:normal;font-stretch:normal;text-indent:0;text-align:start;text-decoration:none;line-height:normal;letter-spacing:normal;word-spacing:normal;text-transform:none;direction:ltr;block-progression:tb;writing-mode:lr-tb;text-anchor:start;baseline-shift:baseline;color:#000000;fill:#000000;fill-opacity:0.50196078;fill-rule:nonzero;stroke:none;stroke-width:2;marker:none;visibility:visible;display:inline;overflow:visible;filter:url(#filter9638);enable-background:accumulate;font-family:Sans;-inkscape-font-specification:Sans"
       d="M 12.555837,1.7840097 2.149587,12.159009 9.855473,19.892081 c 0.911362,0.931926 1.834024,1.852886 2.731614,2.798178 l 10.34375,-10.53125 z m 1.5,5.8437501 c 0.989583,0 1.979167,0 2.96875,0 0,1.0104167 0,2.0208333 0,3.0312502 -0.989583,0 -1.979167,0 -2.96875,0 0,-1.0104169 0,-2.0208335 0,-3.0312502 z m -6.0625,0.03125 c 1.020833,0 2.041667,0 3.0625,0 0,1 0,2 0,3.0000002 -1.020833,0 -2.041667,0 -3.0625,0 0,-1.0000002 0,-2.0000002 0,-3.0000002 z m 6.0625,5.9374992 c 1,0 2,0 3,0 0,1.020833 0,2.041667 0,3.0625 -1,0 -2,0 -3,0 0,-1.020833 0,-2.041667 0,-3.0625 z m -6.03125,0.0625 c 1,0 2,0 3,0 0,0.979167 0,1.958333 0,2.9375 -1,0 -2,0 -3,0 0,-0.979167 0,-1.958333 0,-2.9375 z"
       id="path9631"
       inkscape:connector-curvature="0"
       sodipodi:nodetypes="cccccccccccccccccccccccccc"
       transform="matrix(0.70710678,0.70710678,-0.70710678,0.70710678,12.419654,-5.3768453)" />
    <path
       sodipodi:nodetypes="ccccccccccccccccccccccccc"
       inkscape:connector-curvature="0"
       id="path9629"
       d="m 12.323487,10.375572 3.53125,-3.53125 -2.09375,-2.0937503 4.890625,0 0,4.828125 -2.046875,-2.0468747 -3.5625,3.5625 3.515624,3.515625 2.125001,-2.125 0,4.9375 -4.921875,0 2.132813,-2.132813 -3.523438,-3.523437 -3.5624998,3.5625 2.0624998,2.0625 -4.9531254,0.140625 0.0625,-5.09375 2.1249997,2.124999 3.4999995,-3.499999 -3.5468746,-3.546875 -2.0781246,2.0781246 -3e-7,-4.8749996 4.8593755,0 -2.0859378,2.0859376 z"
       style="fill:none;stroke:#ffffff;stroke-width:2;stroke-linecap:butt;stroke-linejoin:round;stroke-miterlimit:4;stroke-opacity:1;stroke-dasharray:none" />
    <path
       style="fill:#000000;fill-opacity:1;stroke:none"
       d="m 12.323487,10.375572 3.53125,-3.53125 -2.09375,-2.0937503 4.890625,0 0,4.828125 -2.046875,-2.0468747 -3.5625,3.5625 3.515624,3.515625 2.125001,-2.125 0,4.9375 -4.921875,0 2.132813,-2.132813 -3.523438,-3.523437 -3.5624998,3.5625 2.0624998,2.0625 -4.9531254,0.140625 0.0625,-5.09375 2.1249997,2.124999 3.4999995,-3.499999 -3.5468746,-3.546875 -2.0781246,2.0781246 -3e-7,-4.8749996 4.8593755,0 -2.0859378,2.0859376 z"
       id="path9627"
       inkscape:connector-curvature="0"
       sodipodi:nodetypes="ccccccccccccccccccccccccc" />
  </g>
</svg>
