<?xml version="1.0" encoding="utf-8"?>
<!-- Generator: Adobe Illustrator 24.0.1, SVG Export Plug-In . SVG Version: 6.00 Build 0)  -->
<svg version="1.1"
	 id="layer1" inkscape:version="0.48.2 r9819" sodipodi:docname="black.svg" xmlns:cc="http://creativecommons.org/ns#" xmlns:dc="http://purl.org/dc/elements/1.1/" xmlns:inkscape="http://www.inkscape.org/namespaces/inkscape" xmlns:rdf="http://www.w3.org/1999/02/22-rdf-syntax-ns#" xmlns:sodipodi="http://sodipodi.sourceforge.net/DTD/sodipodi-0.dtd" xmlns:svg="http://www.w3.org/2000/svg"
	 xmlns="http://www.w3.org/2000/svg" xmlns:xlink="http://www.w3.org/1999/xlink" x="0px" y="0px" viewBox="0 0 32 32"
	 style="enable-background:new 0 0 32 32;" xml:space="preserve">
<style type="text/css">
	.st0{display:none;fill:#FFFFFF;}
	.st1{fill:#FFFFFF;}
</style>
<rect x="0" y="0" class="st0" width="32" height="32"/>
<rect id="s3" x="11" y="14" class="st1" width="10" height="4"/>
<g id="s2" inkscape:connector-curvature="0" sodipodi:nodetypes="cccc">
	<polygon points="18.1,10.5 25.4,16 18.1,21.5 	"/>
	<path class="st1" d="M18.6,11.5l6,4.5l-6,4.5V11.5 M17.6,9.5v2v9v2l1.6-1.2l6-4.5l1.1-0.8l-1.1-0.8l-6-4.5L17.6,9.5L17.6,9.5z"/>
</g>
<g id="s2_1_" inkscape:connector-curvature="0" sodipodi:nodetypes="cccc">
	<polygon points="6.5,16 13.9,10.5 13.9,21.5 	"/>
	<path class="st1" d="M13.4,11.5v9l-6-4.5L13.4,11.5 M14.4,9.5l-1.6,1.2l-6,4.5L5.7,16l1.1,0.8l6,4.5l1.6,1.2v-2v-9V9.5L14.4,9.5z"
		/>
</g>
<rect id="s0" x="11" y="15" width="10" height="2"/>
</svg>
