<?xml version="1.0" encoding="utf-8"?>
<!-- Generator: Adobe Illustrator 24.0.1, SVG Export Plug-In . SVG Version: 6.00 Build 0)  -->
<svg version="1.1"
	 id="layer1" inkscape:version="0.48.2 r9819" sodipodi:docname="black.svg" xmlns:cc="http://creativecommons.org/ns#" xmlns:dc="http://purl.org/dc/elements/1.1/" xmlns:inkscape="http://www.inkscape.org/namespaces/inkscape" xmlns:rdf="http://www.w3.org/1999/02/22-rdf-syntax-ns#" xmlns:sodipodi="http://sodipodi.sourceforge.net/DTD/sodipodi-0.dtd" xmlns:svg="http://www.w3.org/2000/svg"
	 xmlns="http://www.w3.org/2000/svg" xmlns:xlink="http://www.w3.org/1999/xlink" x="0px" y="0px" viewBox="0 0 32 32"
	 style="enable-background:new 0 0 32 32;" xml:space="preserve">
<style type="text/css">
	.st0{display:none;fill:#FFFFFF;}
	.st1{fill:#FFFFFF;}
</style>
<rect x="0" y="0" transform="matrix(-3.071796e-07 -1 1 -3.071796e-07 4.912720e-06 32)" class="st0" width="32" height="32"/>
<rect id="s3" x="19" y="12" transform="matrix(-3.071796e-07 -1 1 -3.071796e-07 5 37)" class="st1" width="4" height="8"/>
<g id="s2" inkscape:connector-curvature="0" sodipodi:nodetypes="cccc">
	<polygon points="22.5,10.5 29.8,16 22.5,21.5 	"/>
	<path class="st1" d="M23,11.5l6,4.5l-6,4.5V11.5 M22,9.5v2v9v2l1.6-1.2l6-4.5l1.1-0.8l-1.1-0.8l-6-4.5L22,9.5L22,9.5z"/>
</g>
<g id="s1">
	<rect x="16.5" y="9.5" width="3" height="13"/>
	<path class="st1" d="M19,10v12h-2V10H19 M20,9h-1h-2h-1v1v12v1h1h2h1v-1V10V9L20,9z"/>
</g>
<rect id="s0" x="17" y="15" width="8" height="2"/>
</svg>
