<?xml version="1.0" encoding="UTF-8" standalone="no"?>
<!-- Created with Inkscape (http://www.inkscape.org/) -->

<svg
   xmlns:dc="http://purl.org/dc/elements/1.1/"
   xmlns:cc="http://creativecommons.org/ns#"
   xmlns:rdf="http://www.w3.org/1999/02/22-rdf-syntax-ns#"
   xmlns:svg="http://www.w3.org/2000/svg"
   xmlns="http://www.w3.org/2000/svg"
   xmlns:sodipodi="http://sodipodi.sourceforge.net/DTD/sodipodi-0.dtd"
   xmlns:inkscape="http://www.inkscape.org/namespaces/inkscape"
   width="32px"
   height="32px"
   id="svg2985"
   version="1.1"
   inkscape:version="0.48.2 r9819"
   sodipodi:docname="point.svg">
  <defs
     id="defs2987">
    <filter
       inkscape:collect="always"
       id="filter9638"
       x="-0.10832481"
       width="1.2166496"
       y="-0.10767713"
       height="1.2153543">
      <feGaussianBlur
         inkscape:collect="always"
         stdDeviation="0.93796873"
         id="feGaussianBlur9640" />
    </filter>
  </defs>
  <sodipodi:namedview
     id="base"
     pagecolor="#ffffff"
     bordercolor="#666666"
     borderopacity="1.0"
     inkscape:pageopacity="0.0"
     inkscape:pageshadow="2"
     inkscape:zoom="32"
     inkscape:cx="14.296514"
     inkscape:cy="20.092363"
     inkscape:current-layer="layer1"
     showgrid="true"
     inkscape:grid-bbox="true"
     inkscape:document-units="px"
     inkscape:window-width="1894"
     inkscape:window-height="1435"
     inkscape:window-x="307"
     inkscape:window-y="0"
     inkscape:window-maximized="0"
     inkscape:snap-global="false">
    <inkscape:grid
       type="xygrid"
       id="grid7730" />
  </sodipodi:namedview>
  <metadata
     id="metadata2990">
    <rdf:RDF>
      <cc:Work
         rdf:about="">
        <dc:format>image/svg+xml</dc:format>
        <dc:type
           rdf:resource="http://purl.org/dc/dcmitype/StillImage" />
        <dc:title></dc:title>
      </cc:Work>
    </rdf:RDF>
  </metadata>
  <g
     id="layer1"
     inkscape:label="Layer 1"
     inkscape:groupmode="layer">
    <path
       style="font-size:medium;font-style:normal;font-variant:normal;font-weight:normal;font-stretch:normal;text-indent:0;text-align:start;text-decoration:none;line-height:normal;letter-spacing:normal;word-spacing:normal;text-transform:none;direction:ltr;block-progression:tb;writing-mode:lr-tb;text-anchor:start;baseline-shift:baseline;color:#000000;fill:#000000;fill-opacity:0.50196078;fill-rule:nonzero;stroke:none;stroke-width:2;marker:none;visibility:visible;display:inline;overflow:visible;filter:url(#filter9638);enable-background:accumulate;font-family:Sans;-inkscape-font-specification:Sans"
       d="M 12.555837,1.7840097 2.149587,12.159009 9.855473,19.892081 c 0.911362,0.931926 1.834024,1.852886 2.731614,2.798178 l 10.34375,-10.53125 z m 1.5,5.8437501 c 0.989583,0 1.979167,0 2.96875,0 0,1.0104167 0,2.0208333 0,3.0312502 -0.989583,0 -1.979167,0 -2.96875,0 0,-1.0104169 0,-2.0208335 0,-3.0312502 z m -6.0625,0.03125 c 1.020833,0 2.041667,0 3.0625,0 0,1 0,2 0,3.0000002 -1.020833,0 -2.041667,0 -3.0625,0 0,-1.0000002 0,-2.0000002 0,-3.0000002 z m 6.0625,5.9374992 c 1,0 2,0 3,0 0,1.020833 0,2.041667 0,3.0625 -1,0 -2,0 -3,0 0,-1.020833 0,-2.041667 0,-3.0625 z m -6.03125,0.0625 c 1,0 2,0 3,0 0,0.979167 0,1.958333 0,2.9375 -1,0 -2,0 -3,0 0,-0.979167 0,-1.958333 0,-2.9375 z"
       id="path9631"
       inkscape:connector-curvature="0"
       sodipodi:nodetypes="cccccccccccccccccccccccccc" />
    <path
       sodipodi:nodetypes="ccccccccccccccccccccccccc"
       inkscape:connector-curvature="0"
       id="path9629"
       d="m 11.070641,11.074059 0,-4.993942 -2.9610101,0 3.4581941,-3.4581941 3.414,3.4139999 -2.894718,0 0,5.0381362 4.971844,0 0,-3.0052042 3.49134,3.4913402 -3.480291,3.480291 0,-3.016253 -4.982893,0 0,5.038136 2.916815,0 -3.402951,3.601826 -3.5576313,-3.64602 3.0052033,0 0,-4.949747 -5.0160383,0 0,2.938912 -3.4471455,-3.447145 3.4360972,-3.4360972 0,2.9499612 z"
       style="fill:none;stroke:#ffffff;stroke-width:2;stroke-linecap:butt;stroke-linejoin:round;stroke-miterlimit:4;stroke-opacity:1;stroke-dasharray:none;fill-opacity:1" />
    <path
       style="fill:#000000;stroke:none;stroke-width:1;stroke-linecap:butt;stroke-linejoin:miter;stroke-miterlimit:4;stroke-opacity:1;stroke-dasharray:none;fill-opacity:1"
       d="m 11.070641,11.074059 0,-4.993942 -2.9610101,0 3.4581941,-3.4581941 3.414,3.4139999 -2.894718,0 0,5.0381362 4.971844,0 0,-3.0052042 3.49134,3.4913402 -3.480291,3.480291 0,-3.016253 -4.982893,0 0,5.038136 2.916815,0 -3.402951,3.601826 -3.5576313,-3.64602 3.0052033,0 0,-4.949747 -5.0160383,0 0,2.938912 -3.4471455,-3.447145 3.4360972,-3.4360972 0,2.9499612 z"
       id="path9627"
       inkscape:connector-curvature="0"
       sodipodi:nodetypes="ccccccccccccccccccccccccc" />
  </g>
</svg>
