<?xml version="1.0" encoding="utf-8"?>
<!-- Generator: Adobe Illustrator 24.0.1, SVG Export Plug-In . SVG Version: 6.00 Build 0)  -->
<svg version="1.1"
	 id="layer1" inkscape:version="0.48.2 r9819" sodipodi:docname="black.svg" xmlns:cc="http://creativecommons.org/ns#" xmlns:dc="http://purl.org/dc/elements/1.1/" xmlns:inkscape="http://www.inkscape.org/namespaces/inkscape" xmlns:rdf="http://www.w3.org/1999/02/22-rdf-syntax-ns#" xmlns:sodipodi="http://sodipodi.sourceforge.net/DTD/sodipodi-0.dtd" xmlns:svg="http://www.w3.org/2000/svg"
	 xmlns="http://www.w3.org/2000/svg" xmlns:xlink="http://www.w3.org/1999/xlink" x="0px" y="0px" viewBox="0 0 32 32"
	 style="enable-background:new 0 0 32 32;" xml:space="preserve">
<style type="text/css">
	.st0{display:none;fill:#FFFFFF;}
	.st1{fill:#FFFFFF;}
</style>
<rect x="0" y="0" transform="matrix(3.071796e-07 1 -1 3.071796e-07 32 -4.912720e-06)" class="st0" width="32" height="32"/>
<g>
	<rect id="s3" x="13" y="16" transform="matrix(3.071800e-07 1 -1 3.071800e-07 35 5)" class="st1" width="4" height="8"/>
	<g id="s2" inkscape:connector-curvature="0" sodipodi:nodetypes="cccc">
		<polygon points="5.2,20 12.5,14.5 12.5,25.5 		"/>
		<path class="st1" d="M12,15.5v9L6,20L12,15.5 M13,13.5l-1.6,1.2l-6,4.5L4.3,20l1.1,0.8l6,4.5l1.6,1.2v-2v-9V13.5L13,13.5z"/>
	</g>
	<rect id="s0" x="12" y="19" width="6" height="2"/>
</g>
<g>
	<rect id="s3_1_" x="15" y="8" transform="matrix(-3.071800e-07 1 -1 -3.071800e-07 29 -5)" class="st1" width="4" height="8"/>
	<g id="s2_1_" inkscape:connector-curvature="0" sodipodi:nodetypes="cccc">
		<polygon points="19.5,6.5 26.8,12 19.5,17.5 		"/>
		<path class="st1" d="M20,7.5l6,4.5l-6,4.5V7.5 M19,5.5v2v9v2l1.6-1.2l6-4.5l1.1-0.8l-1.1-0.8l-6-4.5L19,5.5L19,5.5z"/>
	</g>
	<rect id="s0_1_" x="14" y="11" width="6" height="2"/>
</g>
</svg>
