<?xml version="1.0" encoding="utf-8"?>
<!-- Generator: Adobe Illustrator 24.0.1, SVG Export Plug-In . SVG Version: 6.00 Build 0)  -->
<svg version="1.1"
	 id="layer1" inkscape:version="0.48.2 r9819" sodipodi:docname="black.svg" xmlns:cc="http://creativecommons.org/ns#" xmlns:dc="http://purl.org/dc/elements/1.1/" xmlns:inkscape="http://www.inkscape.org/namespaces/inkscape" xmlns:rdf="http://www.w3.org/1999/02/22-rdf-syntax-ns#" xmlns:sodipodi="http://sodipodi.sourceforge.net/DTD/sodipodi-0.dtd" xmlns:svg="http://www.w3.org/2000/svg"
	 xmlns="http://www.w3.org/2000/svg" xmlns:xlink="http://www.w3.org/1999/xlink" x="0px" y="0px" viewBox="0 0 32 32"
	 style="enable-background:new 0 0 32 32;" xml:space="preserve">
<style type="text/css">
	.st0{display:none;fill:#FFFFFF;}
	.st1{fill:#FFFFFF;}
</style>
<rect x="0" y="0" transform="matrix(-1 3.071796e-07 -3.071796e-07 -1 32 32)" class="st0" width="32" height="32"/>
<g>
	<rect id="s3" x="10" y="11" transform="matrix(-1 3.071800e-07 -3.071800e-07 -1 24 30)" class="st1" width="4" height="8"/>
	<g id="s2" inkscape:connector-curvature="0" sodipodi:nodetypes="cccc">
		<polygon points="6.5,12.5 12,5.2 17.5,12.5 		"/>
		<path class="st1" d="M12,6l4.5,6h-9L12,6 M12,4.3l-0.8,1.1l-4.5,6L5.5,13h2h9h2l-1.2-1.6l-4.5-6L12,4.3L12,4.3z"/>
	</g>
	<rect id="s0" x="11" y="12" width="2" height="6"/>
</g>
<g>
	<rect id="s3_1_" x="18" y="13" transform="matrix(-1 -3.071800e-07 3.071800e-07 -1 40 34)" class="st1" width="4" height="8"/>
	<g id="s2_1_" inkscape:connector-curvature="0" sodipodi:nodetypes="cccc">
		<polygon points="14.5,19.5 25.5,19.5 20,26.8 		"/>
		<path class="st1" d="M24.5,20L20,26l-4.5-6H24.5 M26.5,19h-2h-9h-2l1.2,1.6l4.5,6l0.8,1.1l0.8-1.1l4.5-6L26.5,19L26.5,19z"/>
	</g>
	<rect id="s0_1_" x="19" y="14" width="2" height="6"/>
</g>
</svg>
