<?xml version="1.0" encoding="utf-8"?>
<!-- Generator: Adobe Illustrator 28.2.0, SVG Export Plug-In . SVG Version: 6.00 Build 0)  -->
<svg version="1.1" id="Layer_1" xmlns="http://www.w3.org/2000/svg" xmlns:xlink="http://www.w3.org/1999/xlink" x="0px" y="0px"
	 viewBox="0 0 64 64" style="enable-background:new 0 0 64 64;" xml:space="preserve">
<style type="text/css">
	.st0{fill:#BFBFBF;}
</style>
<g>
	<path class="st0" d="M16.4,20.1c-1,0.2-1,0.4-1,5.9v5.7h1.8c2.4,0,4.8-1,5.7-2.4c0.8-1.2,1-5.7,0.2-7.3
		C22.2,20.3,19.2,19.5,16.4,20.1z"/>
	<path class="st0" d="M36,4.1c-0.2-0.1-1.1,0.1-2.1,0.3c-0.9,0.2-8,1.5-15.8,3L4.1,10L4,32v22l13.6,2.6c7.5,1.4,14.7,2.8,16,3
		c1.3,0.2,2.4,0.5,2.5,0.5c0.1,0,0.2-12.6,0.2-28C36.3,9.8,36.2,4.1,36,4.1z M31.3,30.8c-2.4,4.8-6.3,7.3-12.1,7.7l-3.8,0.2V51h-2.4
		c-1.4,0-2.8-0.2-3.4-0.2l-1-0.2V14.5l2-0.2c1-0.2,3.2-0.4,4.6-0.8c4.8-0.6,9.9-0.4,11.9,0.6c2.2,1,4,3.2,4.8,6.1
		C32.7,22.5,32.3,28.8,31.3,30.8z"/>
</g>
<path class="st0" d="M37.8,16.4h16.8V30c0,0,3.2-0.1,3.2,0c-0.1,0.3-5.6,6.6-5.8,6.6s-5.9-6.3-5.9-6.5c0-0.1,3.3-0.1,3.3-0.1v-8.3
	H37.8v17.9l5.4-5.6l6.3,6.6l-6.3,6.6l-5.4-5.6v11.3H60V11.8H37.8V16.4z"/>
</svg>
