<?xml version="1.0" encoding="utf-8"?>
<!-- Generator: Adobe Illustrator 28.2.0, SVG Export Plug-In . SVG Version: 6.00 Build 0)  -->
<svg version="1.1" id="Layer_1" xmlns="http://www.w3.org/2000/svg" xmlns:xlink="http://www.w3.org/1999/xlink" x="0px" y="0px"
	 viewBox="0 0 32 32" style="enable-background:new 0 0 32 32;" xml:space="preserve">
<style type="text/css">
	.st0{fill:#FFBFBF;}
</style>
<g>
	<path class="st0" d="M10,14.2c-0.5-0.4-1.3-0.6-2.3-0.6h-2v5h2c1,0,1.8-0.2,2.3-0.7s0.8-1.1,0.8-2C10.8,15.1,10.5,14.6,10,14.2z"/>
	<path class="st0" d="M29,8H17l-4-4H3C1.3,4,0,5.3,0,7v18c0,1.7,1.3,3,3,3h26c1.7,0,3-1.3,3-3V11C32,9.3,30.7,8,29,8z M11.4,19.1
		c-0.9,0.7-2.1,1.1-3.8,1.1H5.7v3.6H3.8V12h1.6h0.3h1.9c1.7,0,2.9,0.3,3.8,1c0.9,0.7,1.3,1.6,1.3,2.9C12.7,17.3,12.3,18.4,11.4,19.1
		z"/>
</g>
</svg>
