<?xml version="1.0" encoding="utf-8"?>
<!-- Generator: Adobe Illustrator 28.2.0, SVG Export Plug-In . SVG Version: 6.00 Build 0)  -->
<svg version="1.1" id="Layer_1" xmlns="http://www.w3.org/2000/svg" xmlns:xlink="http://www.w3.org/1999/xlink" x="0px" y="0px"
	 viewBox="0 0 32 32" style="enable-background:new 0 0 32 32;" xml:space="preserve">
<style type="text/css">
	.st0{fill:#BFFFBF;}
</style>
<g>
	<path class="st0" d="M29,8H17l-4-4H3C1.3,4,0,5.3,0,7v18c0,1.7,1.3,3,3,3h26c1.7,0,3-1.3,3-3V11C32,9.3,30.7,8,29,8z M10.7,23.8
		l-2.4-4.5c-0.1,0-0.1,0-0.2,0H5.5v4.5H3.6V12h1.5h0.4h2.6c1.4,0,2.5,0.3,3.2,0.9c0.8,0.6,1.1,1.5,1.1,2.6c0,1.2-0.4,2.1-1.1,2.8
		c-0.3,0.3-0.7,0.5-1.1,0.6l2.8,4.9H10.7z"/>
	<path class="st0" d="M9.8,17.2c0.4-0.4,0.6-0.8,0.6-1.5s-0.2-1.2-0.6-1.6c-0.4-0.4-1-0.6-1.7-0.6H5.5v4.2h2.6
		C8.8,17.7,9.4,17.5,9.8,17.2z"/>
</g>
</svg>
