<?xml version="1.0" encoding="utf-8"?>
<!-- Generator: Adobe Illustrator 28.2.0, SVG Export Plug-In . SVG Version: 6.00 Build 0)  -->
<svg version="1.1" id="Layer_1" xmlns="http://www.w3.org/2000/svg" xmlns:xlink="http://www.w3.org/1999/xlink" x="0px" y="0px"
	 viewBox="0 0 64 64" style="enable-background:new 0 0 64 64;" xml:space="preserve">
<style type="text/css">
	.st0{fill:#BFBFBF;}
</style>
<path class="st0" d="M4.3,15C4,17.3,4,17.5,4,23.4C4.1,27.7,4.2,35.2,4.2,49c0,0.2,0.1,4.4,7.1,6.8c0.8,0.3,9,3.5,9.4,3.7
	c0.1,0,0.2,0.1,0.3,0.1c0.4,0,0.8-0.2,1-0.6c0.2-0.4,0.1-1-0.3-1.3c-0.1-0.1-2.1-1.8-2.1-4.7c0-1-0.1-41.2-0.1-41.6
	c0,0,0.6-3.3,2.3-4.9C22.1,6,22.2,5.4,22,5c-0.3-0.4-0.8-0.6-1.2-0.5l-10,4.3C10,9,4.8,11.3,4.3,15z M30.9,4c-3.9,0-7.1,3.3-7.1,7.3
	v41.4c0,4,3.2,7.3,7.1,7.3h21.9c3.9,0,7.2-3.3,7.2-7.3V11.3c0-4-3.2-7.3-7.2-7.3L30.9,4z M43.1,51c-2.4,0-4.3-2-4.3-4.4
	s1.9-4.4,4.3-4.4s4.3,2,4.3,4.4C47.4,49,45.4,51,43.1,51L43.1,51z M29.5,31.9v-8h24.9v8c0,1.9-1.3,3.4-3,3.4H32.5
	C30.8,35.2,29.5,33.7,29.5,31.9L29.5,31.9z M29.5,21.7v-8c0-1.9,1.3-3.4,3-3.4h18.9c1.7,0,3,1.5,3,3.4v8H29.5z"/>
</svg>
