<?xml version="1.0" encoding="utf-8"?>
<!-- Generator: Adobe Illustrator 28.2.0, SVG Export Plug-In . SVG Version: 6.00 Build 0)  -->
<svg version="1.1" id="Layer_1" xmlns="http://www.w3.org/2000/svg" xmlns:xlink="http://www.w3.org/1999/xlink" x="0px" y="0px"
	 viewBox="0 0 64 64" style="enable-background:new 0 0 64 64;" xml:space="preserve">
<style type="text/css">
	.st0{fill:#BFBFFF;}
</style>
<path class="st0" d="M60,19.5L32,4L4,19.5v25L32,60c0,0,22.1-12,28-15.5C59.9,43.7,60,19.5,60,19.5z M32,11.4l6,3.3L18.4,25.6
	l-6-3.3L32,11.4z M28.5,50.6h-0.1L11,40.8V29.3l17.5,9.8V50.6z M25.4,29.6l19.5-10.7l6.6,3.7L32,33.4L25.4,29.6z M35.5,50.6V39.1
	L53,29.3v11.4L35.5,50.6z"/>
</svg>
