<?xml version="1.0" encoding="utf-8"?>
<!-- Generator: Adobe Illustrator 28.2.0, SVG Export Plug-In . SVG Version: 6.00 Build 0)  -->
<svg version="1.1" id="Layer_1" xmlns="http://www.w3.org/2000/svg" xmlns:xlink="http://www.w3.org/1999/xlink" x="0px" y="0px"
	 viewBox="0 0 64 64" style="enable-background:new 0 0 64 64;" xml:space="preserve">
<style type="text/css">
	.st0{fill:#BFBFBF;}
</style>
<g>
	<path class="st0" d="M62,43.6c0-0.7-0.3-1.7-1.3-2.3l0,0l-5.4-2.9c-0.1-0.1-0.2-0.1-0.3-0.1h-0.1c-0.1,0-0.2,0-0.3,0.1l-3.7,2.2
		c0,0-0.1,0.1-0.1,0.1c-0.1,0.1-0.2,0.2-0.2,0.3c0,0.1,0,0.1,0,0.2v0c0.1,0.2,0.2,0.3,0.3,0.4l2.4,1.3c0.4,0.2,0.5,0.6,0.3,1
		c-0.1,0.1-0.2,0.2-0.3,0.3l-21,12c-0.2,0.1-0.5,0.1-0.7,0l-21-11.4c-0.4-0.2-0.5-0.6-0.3-1c0.1-0.1,0.2-0.2,0.3-0.3l2.6-1.6
		c0.1,0,0.1-0.1,0.1-0.1c0.3-0.2,0.2-0.4,0.2-0.4s0-0.3-0.2-0.5c0,0,0,0-0.1,0l-3.7-2.1c-0.1-0.1-0.2-0.1-0.4-0.1H9.2
		c-0.1,0-0.2,0-0.3,0.1l-5.5,3c-1.2,0.7-1.7,2.3-1,3.5c0.2,0.5,0.6,0.8,1,1.1l27.6,15.3c0.3,0.2,0.7,0.3,1.1,0.2h0
		c0.4,0,0.8,0,1-0.2c0,0,0.1-0.1,0.1-0.1l27.5-15.8C61.5,45.5,62,44.6,62,43.6C62,43.6,62,43.7,62,43.6z"/>
	<path class="st0" d="M3.3,34l27.6,15.3c0.3,0.2,0.7,0.3,1.1,0.2h0c0.4,0,0.8,0,1-0.2c0,0,0.1-0.1,0.1-0.1l27.5-15.8
		c0.8-0.4,1.3-1.3,1.3-2.2c0-0.1,0,0,0-0.1c0-0.7-0.3-1.7-1.3-2.3l0,0L55.3,26C55.2,26,55.1,26,55,26h-0.1c-0.1,0-0.2,0-0.3,0.1
		l-3.7,2.2c0,0-0.1,0.1-0.1,0.1c-0.1,0.1-0.2,0.2-0.2,0.3c0,0.1,0,0.1,0,0.2v0c0.1,0.2,0.2,0.3,0.3,0.4l2.4,1.3
		c0.4,0.2,0.5,0.6,0.3,1c-0.1,0.1-0.2,0.2-0.3,0.3l-21,12c-0.2,0.1-0.5,0.1-0.7,0l-21-11.4c-0.4-0.2-0.5-0.6-0.3-1
		c0.1-0.1,0.2-0.2,0.3-0.3l2.6-1.6c0.1,0,0.1-0.1,0.1-0.1c0.3-0.2,0.2-0.4,0.2-0.4s0-0.3-0.2-0.5c0,0,0,0-0.1,0l-3.7-2.1
		c-0.1-0.1-0.2-0.1-0.4-0.1H9.2c-0.1,0-0.2,0-0.3,0.1l-5.5,3c-1.2,0.7-1.7,2.3-1,3.5C2.5,33.4,2.9,33.8,3.3,34z"/>
	<path class="st0" d="M3.1,21.4L3.1,21.4L30.6,37c0.3,0.2,0.7,0.3,1.1,0.2c0.4,0,0.9,0,1.1-0.2l27.7-15.6c1.2-0.7,1.7-2.3,1-3.5
		c-0.2-0.5-0.6-0.8-1-1.1L33.3,2.3c-0.7-0.5-1.5-0.5-2.2,0L3.4,16.8c-0.8,0.4-1.3,1.3-1.3,2.3C1.8,20,2.5,20.9,3.1,21.4z"/>
</g>
</svg>
