<?xml version="1.0" encoding="utf-8"?>
<!-- Generator: Adobe Illustrator 28.2.0, SVG Export Plug-In . SVG Version: 6.00 Build 0)  -->
<svg version="1.1" id="图层_1" xmlns="http://www.w3.org/2000/svg" xmlns:xlink="http://www.w3.org/1999/xlink" x="0px" y="0px"
	 viewBox="0 0 64 64" style="enable-background:new 0 0 64 64;" xml:space="preserve">
<style type="text/css">
	.st0{fill:#BFBFBF;}
	.st1{fill:#BFFFBF;}
</style>
<path class="st0" d="M32,48c0-8.8,7.2-16,16-16c4.8,0,9.1,2.1,12,5.4v-22H35.5l-7-7.4H4v48h30.2C32.8,53.6,32,50.9,32,48z"/>
<path class="st1" d="M48,33c-8.3,0-15,6.7-15,15s6.7,15,15,15s15-6.7,15-15S56.3,33,48,33z M49.4,60.7h-2.9l-8.3-21.5h3.1l5.6,15.6
	c0.4,1.2,0.8,2.4,1.1,3.5c0.3-1.2,0.7-2.3,1.2-3.5L55,39.2h2.9L49.4,60.7z"/>
</svg>
