<?xml version="1.0" encoding="utf-8"?>
<!-- Generator: Adobe Illustrator 22.0.0, SVG Export Plug-In . SVG Version: 6.00 Build 0)  -->
<svg version="1.1" id="layer" xmlns="http://www.w3.org/2000/svg" xmlns:xlink="http://www.w3.org/1999/xlink" x="0px" y="0px"
	 viewBox="0 0 64 64" style="enable-background:new 0 0 64 64;" xml:space="preserve">
<style type="text/css">
	.st0{fill:#FFFFFF;}
	.st1{fill:#2F2F2F;}
</style>
<path id="frame" class="st0" d="M8,13v38c0,2.8,2.2,5,5,5h38c2.8,0,5-2.2,5-5V13c0-2.8-2.2-5-5-5H13C10.2,8,8,10.2,8,13z M13.1,45.9
	V18.1c0-2.8,2.2-5,5-5h27.7c2.8,0,5,2.2,5,5v27.8c0,2.8-2.2,5-5,5H18.1C15.3,50.9,13.1,48.7,13.1,45.9z"/>
<rect id="in" x="13.1" y="13.1" class="st1" width="37.7" height="37.8"/>
<polygon id="main" class="st0" points="44,18.3 29,33.5 20,24.3 14,30.4 29,45.7 50,24.4 "/>
</svg>
