<?xml version="1.0" encoding="utf-8"?>
<!-- Generator: Adobe Illustrator 29.1.0, SVG Export Plug-In . SVG Version: 9.03 Build 55587)  -->
<svg version="1.0" id="Layer_1" xmlns="http://www.w3.org/2000/svg" xmlns:xlink="http://www.w3.org/1999/xlink" x="0px" y="0px"
	 viewBox="0 0 64 64" style="enable-background:new 0 0 64 64;" xml:space="preserve">
<style type="text/css">
	.st0{display:none;fill:#5F5F5F;}
	.st1{fill:#BFBFBF;}
</style>
<rect x="4" y="4" class="st0" width="56" height="56"/>
<path class="st1" d="M58.6,13.6l-8.2-8.2c-0.8-0.8-2-0.8-2.8,0L32,21L16.4,5.4c-0.8-0.8-2-0.8-2.8,0l-8.2,8.2c-0.8,0.8-0.8,2,0,2.8
	L21,32L5.4,47.6c-0.8,0.8-0.8,2,0,2.8l8.2,8.2c0.8,0.8,2,0.8,2.8,0L32,43l15.6,15.6c0.8,0.8,2,0.8,2.8,0l8.2-8.2
	c0.8-0.8,0.8-2,0-2.8L43,32l15.6-15.6C59.4,15.6,59.4,14.4,58.6,13.6z"/>
</svg>
