<?xml version="1.0" encoding="utf-8"?>
<!-- Generator: Adobe Illustrator 22.0.0, SVG Export Plug-In . SVG Version: 6.00 Build 0)  -->
<svg version="1.1" id="图层_1" xmlns="http://www.w3.org/2000/svg" xmlns:xlink="http://www.w3.org/1999/xlink" x="0px" y="0px"
	 viewBox="0 0 64 64" style="enable-background:new 0 0 64 64;" xml:space="preserve">
<style type="text/css">
	.st0{fill:#FFFFFF;}
</style>
<path class="st0" d="M19.4,9.5c-1.9,2-1.9,5.2,0,7.2L34.3,32L19.5,47.3c-1.9,2-1.9,5.2,0,7.2c1.9,2,5,2,6.9,0l18.2-18.8l0,0l0,0
	c0.9-0.9,1.4-2.2,1.4-3.5c0,0,0,0,0-0.1c0,0,0,0,0-0.1c0-1.3-0.5-2.6-1.4-3.5l0,0l0,0L26.4,9.6C24.5,7.5,21.4,7.5,19.4,9.5z"/>
</svg>
