<?xml version="1.0" encoding="utf-8"?>
<!-- Generator: Adobe Illustrator 22.0.0, SVG Export Plug-In . SVG Version: 6.00 Build 0)  -->
<svg version="1.1" id="图层_1" xmlns="http://www.w3.org/2000/svg" xmlns:xlink="http://www.w3.org/1999/xlink" x="0px" y="0px"
	 viewBox="0 0 64 64" style="enable-background:new 0 0 64 64;" xml:space="preserve">
<style type="text/css">
	.st0{fill:#BFBFBF;}
</style>
<path class="st0" d="M44.6,54.5c1.9-2,1.9-5.2,0-7.2L29.7,32l14.8-15.3c1.9-2,1.9-5.2,0-7.2c-1.9-2-5-2-6.9,0L19.4,28.3l0,0l0,0
	c-0.9,0.9-1.4,2.2-1.4,3.5c0,0,0,0,0,0.1c0,0,0,0,0,0.1c0,1.3,0.5,2.6,1.4,3.5l0,0l0,0l18.2,18.8C39.5,56.5,42.6,56.5,44.6,54.5z"/>
</svg>
