<?xml version="1.0" encoding="utf-8"?>
<!-- Generator: Adobe Illustrator 24.0.1, SVG Export Plug-In . SVG Version: 6.00 Build 0)  -->
<svg version="1.1" id="layer" xmlns="http://www.w3.org/2000/svg" xmlns:xlink="http://www.w3.org/1999/xlink" x="0px" y="0px"
	 viewBox="0 0 24 24" style="enable-background:new 0 0 24 24;" xml:space="preserve">
<style type="text/css">
	.st0{fill:#FFFFFF;}
	.st1{fill:#2F2F2F;}
</style>
<path id="frame" class="st0" d="M2,4.1v15.8C2,21.1,2.9,22,4.1,22h15.8c1.2,0,2.1-0.9,2.1-2.1V4.1C22,2.9,21.1,2,19.9,2H4.1
	C2.9,2,2,2.9,2,4.1z M4.1,17.8V6.2C4.1,5,5,4.1,6.2,4.1h11.5c1.2,0,2.1,0.9,2.1,2.1v11.6c0,1.2-0.9,2.1-2.1,2.1H6.2
	C5,19.9,4.1,19,4.1,17.8z"/>
<rect id="in" x="4.1" y="4.1" class="st1" width="15.7" height="15.8"/>
</svg>
