<?xml version="1.0" encoding="utf-8"?>
<!-- Generator: Adobe Illustrator 24.0.1, SVG Export Plug-In . SVG Version: 6.00 Build 0)  -->
<svg version="1.1" id="layer" xmlns="http://www.w3.org/2000/svg" xmlns:xlink="http://www.w3.org/1999/xlink" x="0px" y="0px"
	 viewBox="0 0 16 16" style="enable-background:new 0 0 16 16;" xml:space="preserve">
<style type="text/css">
	.st0{fill:#BFBFBF;}
	.st1{fill:#2F2F2F;}
</style>
<path id="frame" class="st0" d="M2,3.3v9.5C2,13.5,2.5,14,3.3,14h9.5c0.7,0,1.3-0.5,1.3-1.3V3.3C14,2.5,13.5,2,12.7,2H3.3
	C2.5,2,2,2.5,2,3.3z M3.3,11.5v-7c0-0.7,0.5-1.3,1.3-1.3h6.9c0.7,0,1.3,0.5,1.3,1.3v7c0,0.7-0.5,1.3-1.3,1.3H4.5
	C3.8,12.7,3.3,12.2,3.3,11.5z"/>
<rect id="in" x="3.3" y="3.3" class="st1" width="9.4" height="9.5"/>
</svg>
