<?xml version="1.0" encoding="utf-8"?>
<!-- Generator: Adobe Illustrator 22.0.0, SVG Export Plug-In . SVG Version: 6.00 Build 0)  -->
<svg version="1.1" id="图层_1" xmlns="http://www.w3.org/2000/svg" xmlns:xlink="http://www.w3.org/1999/xlink" x="0px" y="0px"
	 viewBox="0 0 64 64" style="enable-background:new 0 0 64 64;" xml:space="preserve">
<style type="text/css">
	.st0{fill:#BFBFBF;}
</style>
<path class="st0" d="M54.5,19.4c-2-1.9-5.2-1.9-7.2,0L32,34.3L16.7,19.5c-2-1.9-5.2-1.9-7.2,0c-2,1.9-2,5,0,6.9l18.8,18.2l0,0l0,0
	c0.9,0.9,2.2,1.4,3.5,1.4c0,0,0,0,0.1,0c0,0,0,0,0.1,0c1.3,0,2.6-0.5,3.5-1.4l0,0l0,0l18.8-18.2C56.5,24.5,56.5,21.4,54.5,19.4z"/>
</svg>
