<?xml version="1.0" encoding="utf-8"?>
<!-- Generator: Adobe Illustrator 18.0.0, SVG Export Plug-In . SVG Version: 6.00 Build 0)  -->
<!DOCTYPE svg PUBLIC "-//W3C//DTD SVG 1.1//EN" "http://www.w3.org/Graphics/SVG/1.1/DTD/svg11.dtd">
<svg version="1.1" id="Layer_1" xmlns="http://www.w3.org/2000/svg" xmlns:xlink="http://www.w3.org/1999/xlink" x="0px" y="0px"
	 viewBox="0 0 40 40" enable-background="new 0 0 40 40" xml:space="preserve">
<g>
	<path fill-rule="evenodd" clip-rule="evenodd" fill="#AE9DD9" d="M19.5,35.6c-0.8,0-1.5-0.7-1.5-1.5V22.2l-7.4,4.4
		c-0.2,0.1-0.4,0.2-0.6,0.2c-0.5,0-1-0.3-1.2-0.7c-0.4-0.7-0.1-1.6,0.6-2l7.7-4.4l-7.7-4.4C9,15,8.7,14.7,8.6,14.3
		c-0.1-0.4,0-0.8,0.2-1.1c0.3-0.5,0.8-0.7,1.3-0.7c0.3,0,0.3,0.1,0.5,0.2L18,17V5.2c0-0.8,0.7-1.5,1.5-1.5S21,4.3,21,5.2V17l7.9-4.4
		c0.2-0.1,0.6-0.2,0.9-0.2c0.5,0,1.1,0.3,1.4,0.7c0.2,0.3,0.3,0.8,0.2,1.1c-0.1,0.4-0.3,0.7-0.7,0.9L23,19.6l7.7,4.4
		c0.7,0.4,1,1.3,0.6,2c-0.3,0.5-0.8,0.7-1.3,0.7l0,0c-0.3,0-0.8-0.1-1-0.2L21,22.2v11.9C21,34.9,20.3,35.6,19.5,35.6z"/>
	<path fill="#3A3A3A" d="M20,4.2c0.5,0,1,0.4,1,1v12.7l8.4-4.9c0.2-0.1,0.3-0.1,0.5-0.1c0.3,0,0.7,0.2,0.9,0.5
		c0.3,0.5,0.1,1.1-0.4,1.4L22,19.6l8.4,4.9c0.5,0.3,0.6,0.9,0.4,1.4c-0.2,0.3-0.5,0.5-0.9,0.5c-0.2,0-0.3,0-0.5-0.1L21,21.4v12.7
		c0,0.5-0.5,1-1,1c-0.6,0-1-0.5-1-1V21.4l-8.4,4.9c-0.2,0.1-0.3,0.1-0.5,0.1c-0.3,0-0.7-0.2-0.9-0.5c-0.3-0.5-0.1-1.1,0.4-1.4
		l8.4-4.9l-8.4-4.9c-0.5-0.3-0.6-0.9-0.4-1.4c0.2-0.3,0.5-0.5,0.9-0.5c0.2,0,0.3,0,0.5,0.1l8.4,4.9V5.2C19,4.6,19.4,4.2,20,4.2
		 M20,3.2c-1.1,0-2,0.9-2,2v11l-6.9-4c-0.3-0.2-0.6-0.3-1-0.3c-0.7,0-1.4,0.4-1.7,1c-0.6,1-0.2,2.2,0.7,2.7l6.9,4l-6.9,4
		c-1,0.6-1.3,1.8-0.7,2.7c0.4,0.6,1,1,1.7,1c0.3,0,0.7-0.1,1-0.3l6.9-4v11c0,1.1,0.9,2,2,2s2-0.9,2-2v-11l6.9,4
		c0.3,0.2,0.6,0.3,1,0.3c0.7,0,1.4-0.4,1.7-1c0.6-1,0.2-2.2-0.7-2.7l-6.9-4l6.9-4c1-0.6,1.3-1.8,0.7-2.7c-0.4-0.6-1-1-1.7-1
		c-0.3,0-0.7,0.1-1,0.3l-6.9,4v-11C22,4.1,21.1,3.2,20,3.2L20,3.2z"/>
</g>
</svg>
