<?xml version="1.0" encoding="utf-8"?>
<!-- Generator: Adobe Illustrator 28.2.0, SVG Export Plug-In . SVG Version: 6.00 Build 0)  -->
<svg version="1.1" id="Layer_1" xmlns="http://www.w3.org/2000/svg" xmlns:xlink="http://www.w3.org/1999/xlink" x="0px" y="0px"
	 viewBox="0 0 64 64" style="enable-background:new 0 0 64 64;" xml:space="preserve">
<style type="text/css">
	.st0{fill:#1F1F1F;}
</style>
<g>
	<polygon class="st0" points="58.1,38.5 46.7,26.5 17.3,26.5 5.9,38.5 4.4,36.4 16.4,23.8 47.6,23.8 59.6,36.4 	"/>
</g>
<g>
	<path class="st0" d="M56.5,60h-49C5.6,60,4,58.2,4,55.9V36.1h18.7v1.4c0,3.4,2.4,6.1,5.2,6.1h8.2c2.9,0,5.2-2.8,5.2-6.1v-1.4H60
		v19.8C60,58.2,58.4,60,56.5,60z M6.3,38.8v17.1c0,0.8,0.5,1.4,1.2,1.4h49c0.6,0,1.2-0.6,1.2-1.4V38.8H43.6
		c-0.6,4.2-3.7,7.5-7.5,7.5h-8.2c-3.8,0-6.9-3.3-7.5-7.5H6.3z"/>
</g>
<g>
	<polygon class="st0" points="20.7,5.3 24.8,12.8 22.8,14.3 18.8,6.8 	"/>
</g>
<g>
	<polygon class="st0" points="43.8,5.3 45.8,6.8 41.7,14.3 39.8,12.8 	"/>
</g>
<g>
	<rect x="30.8" y="4" class="st0" width="2.3" height="8.9"/>
</g>
</svg>
