<?xml version="1.0" encoding="utf-8"?>
<!-- Generator: Adobe Illustrator 28.2.0, SVG Export Plug-In . SVG Version: 6.00 Build 0)  -->
<svg version="1.1" id="Layer_1" xmlns="http://www.w3.org/2000/svg" xmlns:xlink="http://www.w3.org/1999/xlink" x="0px" y="0px"
	 viewBox="0 0 64 64" style="enable-background:new 0 0 64 64;" xml:space="preserve">
<style type="text/css">
	.st0{fill:#1F1F1F;}
</style>
<path class="st0" d="M2,8v48h60V8H2z M50,16c2.2,0,4,1.8,4,4s-1.8,4-4,4s-4-1.8-4-4S47.8,16,50,16z M56,50H8V33.4
	c0-0.3,0.1-0.6,0.3-0.7L20,22c0.4-0.4,1-0.3,1.4,0l15.8,15.8c0.4,0.4,1,0.4,1.4,0l0.1-0.1l4.8-5.8c0.3-0.4,0.9-0.5,1.3-0.2l10.8,6.6
	c0.3,0.2,0.5,0.5,0.5,0.9V50z"/>
</svg>
