<?xml version="1.0" encoding="utf-8"?>
<!-- Generator: Adobe Illustrator 28.2.0, SVG Export Plug-In . SVG Version: 6.00 Build 0)  -->
<svg version="1.1" id="Layer_1" xmlns="http://www.w3.org/2000/svg" xmlns:xlink="http://www.w3.org/1999/xlink" x="0px" y="0px"
	 viewBox="0 0 64 64" style="enable-background:new 0 0 64 64;" xml:space="preserve">
<style type="text/css">
	.st0{fill:#1F1F1F;}
	.st1{fill:#1F1F1F;}
</style>
<path class="st0" d="M43.6,20.1c0,2.5,2,4.5,4.4,4.5s4.4-2,4.4-4.5s-2-4.5-4.4-4.5S43.6,17.6,43.6,20.1z"/>
<path class="st1" d="M61.5,6.9c-0.3-0.4-0.8-0.6-1.3-0.7l-27.6-2C32,4.1,31.3,4.4,31,4.9l-5.6,7.2c-0.6,0.8-0.6,1.8,0,2.6l8.8,10.6
	l-8.9,12.2l2.2-10.8c0.1-0.7-0.1-1.5-0.7-2l-11.6-9.7l4.8-7.8c0.6-0.9,0.3-2.2-0.6-2.8C19.2,4.1,18.7,4,18.3,4l-14.5,1
	C2.7,5.1,1.9,6.1,2,7.2c0,0,0,0,0,0L5.4,57c0.1,1.1,1,1.9,2.1,1.9c0,0,0,0,0,0L18.1,58c1.1-0.1,1.9-1,1.8-2.1
	c-0.1-1.1-1-1.9-2.1-1.8l-8.7,0.7L8.7,49l7.6-0.8c1.1-0.1,1.8-1.1,1.7-2.2c0,0,0,0,0,0c-0.1-1.1-1.1-1.9-2.1-1.8L8.4,45L6,8.9
	l8.8-0.6l-3.7,6c-0.5,0.9-0.3,2,0.4,2.6l12,10.1L20,44.4c-0.1,0.3,0,0.6,0,0.9c0,0.2,0,0.5,0.1,0.7l3.1,9.6c0.2,0.8,0.9,1.3,1.7,1.4
	l31.6,3c1.1,0.1,2-0.7,2.1-1.8c0,0,0,0,0,0L62,8.3C62,7.8,61.9,7.3,61.5,6.9z M55.5,46.3l-25-2.5c-1-0.1-2,0.7-2.1,1.7
	c0,0,0,0,0,0.1c-0.1,1.1,0.7,2.1,1.7,2.2c0,0,0,0,0,0l25.1,2.5l-0.4,5.6l-28.4-2.7l-2.4-7.4l14.2-19.4c0.6-0.7,0.5-1.8-0.1-2.5
	l-8.8-10.6l3.9-5.1L58,10C58,10,55.5,46.3,55.5,46.3z"/>
</svg>
