<?xml version="1.0" encoding="utf-8"?>
<!-- Generator: Adobe Illustrator 22.0.0, SVG Export Plug-In . SVG Version: 6.00 Build 0)  -->
<svg version="1.1" id="图层_1" xmlns="http://www.w3.org/2000/svg" xmlns:xlink="http://www.w3.org/1999/xlink" x="0px" y="0px"
	 viewBox="0 0 64 64" style="enable-background:new 0 0 64 64;" xml:space="preserve">
<style type="text/css">
	.st0{fill:#1f1f1f;}
</style>
<path class="st0" d="M32,4C16.5,4,4,16.5,4,32s12.5,28,28,28s28-12.5,28-28S47.5,4,32,4z M22.1,47.6L15,49l1.4-7.1l1.4-7.1l5.7,5.7
	l5.7,5.7L22.1,47.6z M30.6,44.7L19.3,33.4l17-17l11.3,11.3L30.6,44.7z M51.8,23.5L49,26.3L37.7,15l2.8-2.8c1.6-1.6,4.1-1.6,5.7,0
	l5.7,5.7C53.4,19.4,53.4,22,51.8,23.5z"/>
</svg>
