<?xml version="1.0" encoding="utf-8"?>
<!-- Generator: Adobe Illustrator 28.2.0, SVG Export Plug-In . SVG Version: 6.00 Build 0)  -->
<svg version="1.1" id="Layer_1" xmlns="http://www.w3.org/2000/svg" xmlns:xlink="http://www.w3.org/1999/xlink" x="0px" y="0px"
	 viewBox="0 0 64 64" style="enable-background:new 0 0 64 64;" xml:space="preserve">
<style type="text/css">
	.st0{fill:#1F1F1F;}
</style>
<path class="st0" d="M2,55.9v-48h60v48H2z M24.3,23.2v17.2c5.6-2.9,11-5.7,16.7-8.7C35.3,28.8,30,26,24.3,23.2z M9.3,11.7v4.5h11.9
	v-4.5H9.3L9.3,11.7z M54.9,16.3v-4.5h-12v4.5H54.9z M9.2,52h12v-4.5h-12C9.2,47.5,9.2,52,9.2,52z M54.9,47.5H43V52h11.9V47.5
	L54.9,47.5z M26,16.3h11.8v-4.5H26V16.3L26,16.3z M26.1,52H38v-4.5H26.1V52L26.1,52z"/>
</svg>
