<?xml version="1.0" encoding="utf-8"?>
<!-- Generator: Adobe Illustrator 29.1.0, SVG Export Plug-In . SVG Version: 9.03 Build 55587)  -->
<svg version="1.0" id="_图层_1" xmlns="http://www.w3.org/2000/svg" xmlns:xlink="http://www.w3.org/1999/xlink" x="0px" y="0px"
	 viewBox="0 0 64 64" style="enable-background:new 0 0 64 64;" xml:space="preserve">
<style type="text/css">
	.st0{fill:#7FFF7F;}
	.st1{fill:#1F1F1F;}
	.st2{fill:#1F1F1F;stroke:#1F1F1F;stroke-miterlimit:10;}
	.st3{fill:#00FFFF;stroke:#1F1F1F;stroke-width:2;stroke-miterlimit:10;}
	.st4{fill:#FFFF00;stroke:#1F1F1F;stroke-width:2;stroke-miterlimit:10;}
</style>
<g>
	<path class="st0" d="M21.8,1h20.4C53.7,1,63,10.3,63,21.8v20.4C63,53.7,53.7,63,42.2,63H21.8C10.3,63,1,53.7,1,42.2V21.8
		C1,10.3,10.3,1,21.8,1z"/>
	<path class="st1" d="M42.2,2C53.1,2,62,10.9,62,21.8v20.4C62,53.1,53.1,62,42.2,62H21.8C10.9,62,2,53.1,2,42.2V21.8
		C2,10.9,10.9,2,21.8,2H42.2 M42.2,0H21.8C9.8,0,0,9.8,0,21.8v20.4C0,54.2,9.8,64,21.8,64h20.4c12,0,21.8-9.8,21.8-21.8V21.8
		C64,9.8,54.2,0,42.2,0L42.2,0z"/>
</g>
<path class="st2" d="M48.6,33.9L55,42h-4.2c-0.1,4.8-1.8,8.7-5.4,11.6c-2.6,2-5.5,2.6-8.6,2.4v-5.6c0.5,0,1,0,1.5,0
	c0.6,0,1.1,0,1.7-0.2c2-0.5,3.6-1.7,4.8-3.6c0.8-1.4,1.2-2.9,1.2-4.6h-3.8C44.4,39.3,46.5,36.6,48.6,33.9L48.6,33.9L48.6,33.9z"/>
<path class="st3" d="M28.8,34.9c0.6,0,1.2,0.1,1.6,0.6c0.6,0.5,0.8,1.1,0.9,1.9v16c0,0.9-0.3,1.7-0.9,2.2c-0.4,0.3-1,0.5-1.5,0.5
	H12.8c-1.2,0-2.1-0.7-2.4-2c-0.1-0.2-0.1-0.5-0.1-0.8V37.6c0-1.3,0.6-2.3,1.8-2.6c0.2-0.1,0.5-0.1,0.8-0.1H28.8z"/>
<path class="st2" d="M27.2,8.1v5.6h-0.3c-0.9,0-1.8,0-2.6,0.1c-1.3,0.2-2.6,0.9-3.5,1.9c-1.3,1.2-2.1,2.8-2.4,4.6
	c-0.1,0.6-0.2,1.1-0.2,1.7H22c-2.1,2.7-4.3,5.5-6.4,8.2c-2.1-2.7-4.3-5.4-6.4-8.1h4.2c0.1-4.6,1.7-8.4,5-11.3
	C20.8,8.5,23.9,7.8,27.2,8.1z"/>
<path class="st4" d="M50.1,8c1,0,1.8,0.4,2.3,1.5c0.2,0.4,0.2,0.8,0.2,1.2c0,5.3,0,10.6,0,15.9c0,1.3-0.7,2.2-1.8,2.5
	c-0.2,0.1-0.5,0.1-0.8,0.1H34c-0.6,0-1.1-0.1-1.6-0.5c-0.6-0.5-1-1.3-1-2.1v-16c0-1.3,0.7-2.2,1.8-2.5C33.5,8,33.8,8,34,8H50.1
	L50.1,8z"/>
</svg>
