<?xml version="1.0" encoding="utf-8"?>
<!-- Generator: Adobe Illustrator 29.1.0, SVG Export Plug-In . SVG Version: 9.03 Build 55587)  -->
<svg version="1.0" id="_图层_1" xmlns="http://www.w3.org/2000/svg" xmlns:xlink="http://www.w3.org/1999/xlink" x="0px" y="0px"
	 viewBox="0 0 64 64" style="enable-background:new 0 0 64 64;" xml:space="preserve">
<style type="text/css">
	.st0{fill:#7FFFFF;}
	.st1{fill:#1F1F1F;}
</style>
<g>
	<path class="st0" d="M21.8,1h20.4C53.7,1,63,10.3,63,21.8v20.4C63,53.7,53.7,63,42.2,63H21.8C10.3,63,1,53.7,1,42.2V21.8
		C1,10.3,10.3,1,21.8,1z"/>
	<path class="st1" d="M42.2,2C53.1,2,62,10.9,62,21.8v20.4C62,53.1,53.1,62,42.2,62H21.8C10.9,62,2,53.1,2,42.2V21.8
		C2,10.9,10.9,2,21.8,2H42.2 M42.2,0H21.8C9.8,0,0,9.8,0,21.8v20.4C0,54.2,9.8,64,21.8,64h20.4c12,0,21.8-9.8,21.8-21.8V21.8
		C64,9.8,54.2,0,42.2,0L42.2,0z"/>
</g>
<g>
	<path class="st1" d="M46.9,14.1c-0.1,0-0.5,0-0.6,0h-3.1v3.2L43,17.5h3.1c1.7,0,3.2,0.7,4.4,1.9c1.2,1.3,1.9,2.8,1.9,4.5
		c0,3.5-2.8,6.5-6.2,6.5v-3.2L41.5,32l4.7,4.8v-3.3c0,0,0.2,0,0.4,0c5,0,9.2-4.1,9.5-9.4C56.1,18.7,52,14.3,46.9,14.1z"/>
	<path class="st1" d="M17.8,46.6c-1.7,0-3.2-0.7-4.4-1.9c-1.2-1.3-1.9-2.8-1.9-4.6s0.7-3.3,1.9-4.6c1.1-1.1,2.6-1.9,4.2-1.9
		c0,0,0.1,0,0.2,0H21v-3.2h-3.1c0,0-0.2,0-0.4,0c-5,0-9.2,4.1-9.5,9.3c-0.1,5.4,4,9.8,9.1,10l0.1-0.1h0.6V53l4.7-4.8l-4.7-4.8V46.6z
		"/>
	<path class="st1" d="M35.2,11h-6.4c-2.6,0-4.6,2.4-4.6,5.1c0,2.5,2,4.5,4.6,4.6h6.4c2.5,0,4.7-2.1,4.7-4.8S37.8,11,35.2,11z
		 M35.1,18.3h-6.2c-1.2,0-2.2-1.1-2.2-2.4c0-1.4,1-2.6,2.2-2.6h6.2c1.2,0,2.3,1.2,2.3,2.5C37.4,17.1,36.3,18.3,35.1,18.3z"/>
	<path class="st1" d="M35.2,27.2h-6.4c-2.6,0-4.7,2.1-4.7,4.8c0,2.7,2.2,4.8,4.7,4.8h6.4c2.6,0,4.7-2.1,4.7-4.8
		C39.9,29.3,37.8,27.2,35.2,27.2z M35.2,34.5h-6.4c-1.2,0-2.3-1.2-2.3-2.5c0-1.3,1-2.5,2.3-2.5h6.4c1.2,0,2.3,1.2,2.3,2.5
		C37.5,33.3,36.6,34.5,35.2,34.5z"/>
	<path class="st1" d="M35.2,43.3h-6.4c-2.5,0-4.7,2.1-4.7,4.8c0,2.7,2.2,4.8,4.7,4.8h6.4c2.6,0,4.7-2.1,4.7-4.8
		C39.9,45.4,37.8,43.3,35.2,43.3z M35.2,50.6h-6.4c-1.2,0-2.3-1.2-2.3-2.5c0-1.3,1.1-2.5,2.3-2.5h6.4c1.3,0,2.3,1.1,2.3,2.5
		C37.5,49.6,36.6,50.6,35.2,50.6z"/>
</g>
</svg>
