<?xml version="1.0" encoding="utf-8"?>
<!-- Generator: Adobe Illustrator 29.1.0, SVG Export Plug-In . SVG Version: 9.03 Build 55587)  -->
<svg version="1.0" id="Layer_1" xmlns="http://www.w3.org/2000/svg" xmlns:xlink="http://www.w3.org/1999/xlink" x="0px" y="0px"
	 viewBox="0 0 64 64" style="enable-background:new 0 0 64 64;" xml:space="preserve">
<style type="text/css">
	.st0{fill:#BFFFBF;}
	.st1{fill:#1F1F1F;}
</style>
<g>
	<path class="st0" d="M29.2,30.5c-1.3,0-2.3-1.1-2.3-2.4s1-2.3,2.3-2.3h5.3c1.3,0,2.3,1.1,2.3,2.4c-0.1,1.3-1.1,2.3-2.3,2.3H29.2z"
		/>
	<path class="st1" d="M34.5,26.8c0.7,0,1.3,0.6,1.3,1.4c0,0.7-0.6,1.3-1.3,1.3h-5.3c-0.7,0-1.3-0.6-1.3-1.4s0.6-1.3,1.3-1.3H34.5
		 M34.5,24.8h-5.3c-1.8,0-3.3,1.5-3.3,3.3s1.5,3.4,3.3,3.4h5.3c1.7,0,3.1-1.4,3.3-3.1l0,0v-0.2C37.8,26.3,36.3,24.8,34.5,24.8
		C34.5,24.8,34.5,24.8,34.5,24.8z"/>
</g>
<g>
	<path class="st0" d="M29.2,44.2c-1.3,0-2.3-1.1-2.3-2.4s1-2.3,2.3-2.3h5.3c1.3,0,2.3,1.1,2.3,2.4c-0.1,1.3-1.1,2.3-2.3,2.3H29.2z"
		/>
	<path class="st1" d="M34.5,40.5c0.7,0,1.3,0.6,1.3,1.4c0,0.7-0.6,1.3-1.3,1.3h-5.3c-0.7,0-1.3-0.6-1.3-1.4s0.6-1.3,1.3-1.3H34.5
		 M34.5,38.5h-5.3c-1.8,0-3.3,1.5-3.3,3.3s1.5,3.4,3.3,3.4h5.3c1.7,0,3.1-1.4,3.3-3.1l0,0v-0.2C37.8,40,36.3,38.5,34.5,38.5
		L34.5,38.5z"/>
</g>
<g>
	<path class="st0" d="M29.2,16.9c-1.2,0-2.3-1.1-2.3-2.4s1-2.4,2.3-2.4h5.3c1.2,0,2.3,1.1,2.3,2.4s-1,2.4-2.3,2.4H29.2z"/>
	<path class="st1" d="M34.5,13.2c0.7,0,1.3,0.6,1.3,1.4S35.2,16,34.5,16h-5.3c-0.7,0-1.3-0.6-1.3-1.4s0.6-1.4,1.3-1.4H34.5
		 M34.5,11.2h-5.3c-1.8,0-3.3,1.5-3.3,3.4s1.5,3.4,3.3,3.4h5.3c1.8,0,3.3-1.5,3.3-3.4S36.3,11.2,34.5,11.2
		C34.5,11.2,34.5,11.2,34.5,11.2z"/>
</g>
<g>
	<path class="st0" d="M13.4,60c-1.8-0.2-2.9-1.5-2.9-3.1s1.3-2.8,2.9-2.8h15.5V52H8.7c-0.2,0-0.5,0-0.7,0c-1.2,0-2.5-0.2-3.7-0.6
		H4.2l0,0c-1.9-1.2-3-3.3-3-5.5V11.7C1.1,10,1.5,8.2,2.4,6.8c0.7-1.2,2-2.3,3.6-2.9h0.2h50.6c3,0,5.7,2.1,6.3,5.1l0,0v36.7
		c0.1,2.7-1.8,5.3-4.5,6.1h-0.1H35.4v2.1h15.3c1.6,0,2.9,1.2,2.9,2.8s-1.3,3-2.8,3.1l0,0H13.6L13.4,60z M29.2,38.8
		c-1.6,0-2.9,1.4-2.9,3.1s1.3,3.1,2.9,3.1h5.3c1.6,0,2.9-1.4,2.9-3.1s-1.3-3.1-2.9-3.1H29.2z M21,42.2v1.3l1.5-1.6L21,40.3v1.3h-1
		c-1.7,0-3.2-0.6-4.4-1.9c-1.2-1.3-1.9-2.9-1.9-4.6s0.6-3.3,1.8-4.6c1.2-1.2,2.7-1.9,4.2-1.9s0.2,0,0.3,0h1.6v-0.7h-1.9
		c-3.7,0-6.7,3.1-6.9,6.9c-0.1,4,2.9,7.3,6.6,7.4h0.5L21,42.2L21,42.2z M29.2,25.1c-1.6,0-2.9,1.4-2.9,3.1s1.3,3.1,2.9,3.1h5.3
		c1.6,0,2.9-1.4,2.9-3.1s-1.3-3.1-2.9-3.1H29.2z M42.6,29.8v-1.3h1.3c3.7,0,6.7-3,6.9-7c0.1-4-2.9-7.3-6.6-7.4l0,0h-0.1h-1.9v0.7
		h1.6c1.7,0,3.2,0.7,4.4,2s1.8,2.9,1.8,4.5c0,3.6-2.8,6.5-6.2,6.5h-1v-1.3l-1.6,1.6l1.5,1.6L42.6,29.8z M29.2,11.4
		c-1.6,0-2.8,1.5-2.8,3.2c0,1.6,1.3,2.9,2.8,2.9h5.2c1.6,0,2.9-1.4,2.9-3.1s-1.3-3.1-2.9-3.1h-5.2V11.4z"/>
	<path class="st1" d="M56.6,5c2.6,0,4.8,1.8,5.4,4.3v36.5c0.1,2.4-1.5,4.5-3.7,5.2h-24v4.1h16.3c1.1,0,1.9,0.8,1.9,1.8
		s-0.9,2-1.9,2.1H13.4c-1.2-0.1-1.9-1-1.9-2.1s0.9-1.8,1.9-1.8h16.5V51H8.7c-0.2,0-0.5,0-0.7,0c-1.2,0-2.3-0.2-3.4-0.6
		C3,49.4,2,47.6,2,45.8V11.7c-0.1-1.5,0.2-3,1.1-4.3c0.6-1.1,1.8-2,3.1-2.5h50.4 M29.2,18.6h5.3c2.1,0,3.9-1.8,3.9-4.1
		s-1.8-4.1-3.9-4.1h-5.3c-2.2,0-3.8,2-3.8,4.3C25.4,16.8,27.1,18.5,29.2,18.6 M41,15.9h2.6c1.4,0,2.7,0.6,3.7,1.6
		c1,1.1,1.6,2.4,1.6,3.8c0,3-2.3,5.5-5.2,5.5v-2.7l-4,4.1l3.9,4.1v-2.8c0,0,0.2,0,0.3,0c4.2,0,7.7-3.5,7.9-8
		c0.1-4.6-3.3-8.3-7.6-8.5c-0.1,0-0.4,0-0.5,0h-2.6v2.7 M29.2,32.3h5.3c2.2,0,3.9-1.8,3.9-4.1s-1.8-4.1-3.9-4.1h-5.3
		c-2.2,0-3.9,1.8-3.9,4.1S27.1,32.3,29.2,32.3 M19.5,43.2H20V46l3.9-4.1L20,37.8v2.8c-1.4,0-2.7-0.6-3.7-1.6c-1-1.1-1.6-2.4-1.6-3.9
		s0.6-2.8,1.6-3.9c0.9-0.9,2.2-1.6,3.5-1.6c0,0,0.1,0,0.2,0h2.6v-2.7H20c0,0-0.2,0-0.3,0c-4.2,0-7.7,3.5-7.9,7.9
		c-0.1,4.6,3.3,8.3,7.6,8.5 M29.2,46h5.3c2.2,0,3.9-1.8,3.9-4.1s-1.8-4.1-3.9-4.1h-5.3c-2.1,0-3.9,1.8-3.9,4.1S27.1,46,29.2,46
		 M56.6,3H5.5C3.7,3.7,2.2,4.9,1.4,6.4c-1,1.5-1.5,3.4-1.4,5.4v34c0,2.5,1.3,4.9,3.5,6.3h0.2c0,0.1,0.2,0.2,0.2,0.2
		c1.3,0.5,2.7,0.7,4,0.7s0.5,0,0.8,0h19.1H13.3c-2.2,0-3.9,1.7-3.9,3.8s1.6,3.9,3.7,4.1l0,0l0,0h37.4c2.1-0.2,3.7-2.1,3.7-4.1
		S52.4,53,50.3,53H36h22h0.6c3.1-1,5.3-4,5.2-7.2v-37c-0.8-3.4-3.9-5.9-7.4-5.9l0,0L56.6,3z M29.2,12.4h5.2c1,0,1.9,1,1.9,2.1
		s-0.9,2.1-1.9,2.1h-5.2c-1,0-1.8-0.9-1.8-2C27.4,13.4,28.2,12.4,29.2,12.4C29.2,12.4,29.2,12.4,29.2,12.4z M29.2,30.3
		c-1,0-1.9-1-1.9-2.1s0.8-2.1,1.9-2.1h5.3c1,0,1.9,1,1.9,2.1s-0.8,2.1-1.9,2.1H29.2z M29.2,44c-1,0-1.9-1-1.9-2.1s0.9-2.1,1.9-2.1
		h5.3c1.1,0,1.9,0.9,1.9,2.1S35.6,44,34.5,44H29.2z"/>
</g>
</svg>
