<?xml version="1.0" encoding="utf-8"?>
<!-- Generator: Adobe Illustrator 29.1.0, SVG Export Plug-In . SVG Version: 9.03 Build 55587)  -->
<svg version="1.0" id="_图层_1" xmlns="http://www.w3.org/2000/svg" xmlns:xlink="http://www.w3.org/1999/xlink" x="0px" y="0px"
	 viewBox="0 0 64 64" style="enable-background:new 0 0 64 64;" xml:space="preserve">
<style type="text/css">
	.st0{fill:#FF7FFF;}
	.st1{fill:#1F1F1F;}
</style>
<g>
	<path class="st0" d="M21.8,1h20.4C53.7,1,63,10.3,63,21.8v20.4C63,53.7,53.7,63,42.2,63H21.8C10.3,63,1,53.7,1,42.2V21.8
		C1,10.3,10.3,1,21.8,1z"/>
	<path class="st1" d="M42.2,2C53.1,2,62,10.9,62,21.8v20.4C62,53.1,53.1,62,42.2,62H21.8C10.9,62,2,53.1,2,42.2V21.8
		C2,10.9,10.9,2,21.8,2H42.2 M42.2,0H21.8C9.8,0,0,9.8,0,21.8v20.4C0,54.2,9.8,64,21.8,64h20.4c12,0,21.8-9.8,21.8-21.8V21.8
		C64,9.8,54.2,0,42.2,0L42.2,0z"/>
</g>
<g>
	<path d="M40.2,24.2h-6.1c-1,0-1.8,0.9-1.8,1.9c0,1.1,0.8,1.9,1.8,1.9h6.1c1,0,1.8-0.9,1.8-1.9C42,25.1,41.2,24.2,40.2,24.2z"/>
	<path d="M52.3,8H11.8C9.8,8,8,9.8,8,12v12.4c0,2.2,1.8,4,3.8,4H15v23.7c0,2.1,1.7,3.9,3.7,3.9h26.8c2,0,3.5-1.7,3.5-3.9V28.5h3.3
		c2.1,0,3.7-1.8,3.7-4V12C56,9.8,54.4,8,52.3,8z M37.8,11.9L37.8,11.9c-0.7,2.7-3,4.6-5.7,4.6s-5-1.9-5.7-4.6H37.8z M52.4,24.4
		L52.4,24.4c0,0.1,0,0.2-0.1,0.2h-5.1c-1,0-1.9,0.9-1.9,1.9v25.7H18.6V26.5c0-1.1-0.8-1.9-1.8-1.9h-5c-0.1,0-0.2-0.1-0.2-0.2V12
		c0-0.1,0.1-0.1,0.2-0.1h10.7c0.8,4.8,4.7,8.5,9.5,8.5s8.7-3.6,9.5-8.5h10.8c0.1,0,0.1,0.1,0.1,0.1L52.4,24.4z"/>
</g>
</svg>
