<?xml version="1.0" encoding="utf-8"?>
<!-- Generator: Adobe Illustrator 29.1.0, SVG Export Plug-In . SVG Version: 9.03 Build 55587)  -->
<svg version="1.0" id="图层_1" xmlns="http://www.w3.org/2000/svg" xmlns:xlink="http://www.w3.org/1999/xlink" x="0px" y="0px"
	 viewBox="0 0 64 64" style="enable-background:new 0 0 64 64;" xml:space="preserve">
<style type="text/css">
	.st0{fill:#7F7FFF;}
</style>
<path class="st0" d="M62,32c0,16.6-13.4,30-30,30S2,48.6,2,32C2,16.1,14.4,3,30.3,2.1C30.8,2,31.4,2,32,2h1.3v26.2
	c1.6,0.5,2.7,2.1,2.8,3.8c0,2.2-1.8,4-4,4c-2.2,0-4-1.8-4-4c0-1.5,0.9-2.9,2.2-3.6V17.1C22,17.9,16,25.3,16.8,33.5
	c0.8,8.2,8.2,14.3,16.4,13.4s14.3-8.2,13.4-16.4c-0.3-3.4-1.8-6.6-4.2-9l10.7-10.7C58.8,16.4,62,24,62,32z"/>
</svg>
