<?xml version="1.0" encoding="utf-8"?>
<!-- Generator: Adobe Illustrator 29.1.0, SVG Export Plug-In . SVG Version: 9.03 Build 55587)  -->
<svg version="1.0" id="_图层_1" xmlns="http://www.w3.org/2000/svg" xmlns:xlink="http://www.w3.org/1999/xlink" x="0px" y="0px"
	 viewBox="0 0 64 64" style="enable-background:new 0 0 64 64;" xml:space="preserve">
<style type="text/css">
	.st0{fill:#7F7FFF;}
	.st1{fill:#1F1F1F;}
</style>
<g>
	<path class="st0" d="M21.8,1h20.4C53.7,1,63,10.3,63,21.8v20.4C63,53.7,53.7,63,42.2,63H21.8C10.3,63,1,53.7,1,42.2V21.8
		C1,10.3,10.3,1,21.8,1z"/>
	<path d="M42.2,2C53.1,2,62,10.9,62,21.8v20.4C62,53.1,53.1,62,42.2,62H21.8C10.9,62,2,53.1,2,42.2V21.8C2,10.9,10.9,2,21.8,2
		L42.2,2 M42.2,0H21.8C9.8,0,0,9.8,0,21.8v20.4C0,54.2,9.8,64,21.8,64h20.4c12,0,21.8-9.8,21.8-21.8V21.8C64,9.8,54.2,0,42.2,0
		L42.2,0z"/>
</g>
<path class="st1" d="M26.9,32l-5.6-5.6c-4.9,2.1-10.5-0.2-12.6-5.1s0.2-10.5,5.1-12.6s10.5,0.2,12.6,5.1c1,2.4,1,5.1,0,7.5l5.6,5.6
	l15.3-15.3c1.9-1.9,4.9-1.9,6.8,0l0,0l1.7,1.7L26.5,42.6c2.1,4.9-0.2,10.5-5.1,12.6S10.9,55,8.8,50.1S9,39.6,13.9,37.5
	c2.4-1,5.1-1,7.5,0l5.6-5.6l0,0L26.9,32z M17.6,22.4c2.7,0,4.8-2.1,4.8-4.8s-2.1-4.8-4.8-4.8l0,0c-2.7,0-4.8,2.1-4.8,4.8
	S14.9,22.4,17.6,22.4z M17.6,51.2c2.7,0,4.8-2.1,4.8-4.8s-2.1-4.8-4.8-4.8s-4.8,2.1-4.8,4.8S14.9,51.2,17.6,51.2z M40.5,35.4
	l15.3,15.3l-1.7,1.7c-1.9,1.9-4.9,1.9-6.8,0l0,0L35.4,40.5L40.5,35.4L40.5,35.4z M41.6,29.6h4.8v4.8h-4.8
	C41.6,34.4,41.6,29.6,41.6,29.6z M51.2,29.6H56v4.8h-4.8C51.2,34.4,51.2,29.6,51.2,29.6z M17.6,29.6h4.8v4.8h-4.8
	C17.6,34.4,17.6,29.6,17.6,29.6z M8,29.6h4.8v4.8H8C8,34.4,8,29.6,8,29.6z"/>
</svg>
