<?xml version="1.0" encoding="utf-8"?>
<!-- Generator: Adobe Illustrator 28.2.0, SVG Export Plug-In . SVG Version: 6.00 Build 0)  -->
<svg version="1.1" id="Layer_1" xmlns="http://www.w3.org/2000/svg" xmlns:xlink="http://www.w3.org/1999/xlink" x="0px" y="0px"
	 viewBox="0 0 64 64" style="enable-background:new 0 0 64 64;" xml:space="preserve">
<style type="text/css">
	.st0{fill:#5F5FFF;}
	.st1{fill:#7F7FFF;}
	.st2{fill:#BFBFBF;}
</style>
<path class="st0" d="M58.7,2H5.3C3.4,2,2,3.4,2,5.3v7.6h60V5.3C62,3.4,60.6,2,58.7,2z M12.6,9.1c0,0.7-0.4,1.1-1.1,1.1H8.1
	C7.4,10.2,7,9.7,7,9.1V5.8c0-0.7,0.4-1.1,1.1-1.1h3.3c0.7,0,1.1,0.4,1.1,1.1L12.6,9.1L12.6,9.1z M23.7,9.1c0,0.7-0.4,1.1-1.1,1.1
	h-3.3c-0.7,0-1.1-0.4-1.1-1.1V5.8c0-0.7,0.4-1.1,1.1-1.1h3.3c0.7,0,1.1,0.4,1.1,1.1V9.1z M34.8,9.1c0,0.7-0.4,1.1-1.1,1.1h-3.3
	c-0.7,0-1.1-0.4-1.1-1.1V5.8c0-0.7,0.4-1.1,1.1-1.1h3.3c0.7,0,1.1,0.4,1.1,1.1V9.1z M45.9,9.1c0,0.7-0.4,1.1-1.1,1.1h-3.3
	c-0.7,0-1.1-0.4-1.1-1.1V5.8c0-0.7,0.4-1.1,1.1-1.1h3.3c0.7,0,1.1,0.4,1.1,1.1V9.1z M57,9.1c0,0.7-0.4,1.1-1.1,1.1h-3.3
	c-0.7,0-1.1-0.4-1.1-1.1V5.8c0-0.7,0.4-1.1,1.1-1.1h3.3c0.7,0,1.1,0.4,1.1,1.1V9.1z"/>
<path class="st0" d="M2,40.2v7.6c0,1.9,1.4,3.3,3.3,3.3h53.3c1.9,0,3.3-1.4,3.3-3.3v-7.6H2z M12.6,47.3c0,0.7-0.4,1.1-1.1,1.1H8.1
	C7.4,48.4,7,48,7,47.3V44c0-0.7,0.4-1.1,1.1-1.1h3.3c0.7,0,1.1,0.4,1.1,1.1L12.6,47.3L12.6,47.3z M23.7,47.3c0,0.7-0.4,1.1-1.1,1.1
	h-3.3c-0.7,0-1.1-0.4-1.1-1.1V44c0-0.7,0.4-1.1,1.1-1.1h3.3c0.7,0,1.1,0.4,1.1,1.1V47.3z M34.8,47.3c0,0.7-0.4,1.1-1.1,1.1h-3.3
	c-0.7,0-1.1-0.4-1.1-1.1V44c0-0.7,0.4-1.1,1.1-1.1h3.3c0.7,0,1.1,0.4,1.1,1.1V47.3z M45.9,47.3c0,0.7-0.4,1.1-1.1,1.1h-3.3
	c-0.7,0-1.1-0.4-1.1-1.1V44c0-0.7,0.4-1.1,1.1-1.1h3.3c0.7,0,1.1,0.4,1.1,1.1V47.3z M57,47.3c0,0.7-0.4,1.1-1.1,1.1h-3.3
	c-0.7,0-1.1-0.4-1.1-1.1V44c0-0.7,0.4-1.1,1.1-1.1h3.3c0.7,0,1.1,0.4,1.1,1.1V47.3z"/>
<rect x="2" y="12.9" class="st1" width="60" height="27.3"/>
<path class="st2" d="M59.4,52.2c-1.6-3.6-5.8-5.3-9.4-3.8l-3-7l0.8-1.8L46,38.9l0,0l1.8,0.8l8.3-19.6c0.9-2.2-0.1-4.8-2.4-5.7
	l-2-0.9l-8.6,20.3l-8.6-20.3l-2,0.9c-2.3,0.9-3.3,3.5-2.4,5.7l8.3,19.6l1.8-0.8l0,0l-1.8,0.7l0.8,1.8l-3,7c-3.7-1.5-7.9,0.2-9.4,3.8
	s0.2,7.7,3.9,9.3c3.7,1.5,7.9-0.2,9.4-3.8l3-7.1l3,7.1c1.6,3.6,5.8,5.3,9.4,3.8C59.2,59.9,61,55.8,59.4,52.2z M37.1,56.4
	c-0.8,2-3.1,2.8-5.1,2.1c-2-0.9-3-3.2-2.1-5c0.8-2,3.1-2.8,5.1-2.1S37.9,54.5,37.1,56.4z M43.1,37.6L43.1,37.6L43.1,37.6L43.1,37.6
	L43.1,37.6z M54.2,58.4c-2,0.8-4.2-0.1-5.1-2.1c-0.8-2,0.1-4.1,2.1-5c2-0.8,4.2,0.1,5.1,2.1C57.2,55.3,56.2,57.6,54.2,58.4z"/>
</svg>
