<?xml version="1.0" encoding="utf-8"?>
<!-- Generator: Adobe Illustrator 29.1.0, SVG Export Plug-In . SVG Version: 9.03 Build 55587)  -->
<svg version="1.0" id="_图层_1" xmlns="http://www.w3.org/2000/svg" xmlns:xlink="http://www.w3.org/1999/xlink" x="0px" y="0px"
	 viewBox="0 0 64 64" style="enable-background:new 0 0 64 64;" xml:space="preserve">
<style type="text/css">
	.st0{fill:#FFFF3F;}
	.st1{fill:#1F1F1F;}
</style>
<g>
	<path class="st0" d="M21.8,1h20.4C53.7,1,63,10.3,63,21.8v20.4C63,53.7,53.7,63,42.2,63H21.8C10.3,63,1,53.7,1,42.2V21.8
		C1,10.3,10.3,1,21.8,1z"/>
	<path d="M42.2,2C53.1,2,62,10.9,62,21.8v20.4C62,53.1,53.1,62,42.2,62H21.8C10.9,62,2,53.1,2,42.2V21.8C2,10.9,10.9,2,21.8,2H42.2
		 M42.2,0H21.8C9.8,0,0,9.8,0,21.8v20.4C0,54.2,9.8,64,21.8,64h20.4c12,0,21.8-9.8,21.8-21.8V21.8C64,9.8,54.2,0,42.2,0L42.2,0z"/>
</g>
<g>
	<path class="st1" d="M31.2,15.5c1.2,2.8,4.5,4.1,7.3,2.9c2.9-1.1,4.2-4.3,3-7.1c-1.2-2.8-4.5-4.1-7.3-2.9
		C31.4,9.6,30,12.7,31.2,15.5C31.2,15.5,31.2,15.5,31.2,15.5z"/>
	<path class="st1" d="M54,28.7l-0.3-2.1c-0.2-1-1.1-1.6-2.1-1.5L43,26.3c-0.2-0.3-0.5-0.9-1-1.8c-1.2-1.7-3.5-4-10-5.1
		c-6.5-1.1-10.7,3.4-10.7,3.4c-0.1,0.1-0.2,0.2-0.3,0.3l-6.1,9.3c-0.6,0.8-0.3,1.9,0.6,2.4l1.9,1.2c0.9,0.5,2,0.3,2.5-0.5l5.9-9
		c2.3-0.1,1.2,1.8,1.2,1.8l-5.3,15.8c0,0-0.6,0-0.9,0L14.2,41c-1.2-0.6-2.7-0.1-3.2,1.1l-0.8,1.5c-0.6,1.2-0.1,2.6,1.1,3.1L22,51.7
		c0.8,0.4,1.7,0.3,2.4-0.1c0.2,0.3,0.6-0.3,0.6-0.3c2-2.1,4-5.3,5.8-8.6c0,0.1,0,0.2,0,0.2c3.3-0.2,5,0.5,5.9,1.2l2.8,9.8
		c0.5,1.6,2.1,2.5,3.7,2l1.2-0.3c1.6-0.4,2.6-2,2.1-3.6l0,0l-2.8-9.9c-0.1-0.2-0.2-0.4-0.3-0.6c-0.1-0.7-0.4-1.7-1.3-2.8
		c-1.4-1.8-5.8-2.9-7.9-3c1.8-3.9,2.9-6.9,2.9-6.9c0.6,1.7,2.3,2.6,2.3,2.6c0.4,0.6,1.1,1,1.9,0.9l11.3-1.7
		C53.5,30.5,54.1,29.6,54,28.7z"/>
</g>
</svg>
