<?xml version="1.0" encoding="utf-8"?>
<!-- Generator: Adobe Illustrator 29.1.0, SVG Export Plug-In . SVG Version: 9.03 Build 55587)  -->
<svg version="1.0" id="_图层_1" xmlns="http://www.w3.org/2000/svg" xmlns:xlink="http://www.w3.org/1999/xlink" x="0px" y="0px"
	 viewBox="0 0 64 64" style="enable-background:new 0 0 64 64;" xml:space="preserve">
<style type="text/css">
	.st0{fill:#FF3F3F;}
	.st1{fill:#1F1F1F;}
</style>
<g>
	<path class="st0" d="M21.8,1h20.4C53.7,1,63,10.3,63,21.8v20.4C63,53.7,53.7,63,42.2,63H21.8C10.3,63,1,53.7,1,42.2V21.8
		C1,10.3,10.3,1,21.8,1z"/>
	<path class="st1" d="M42.2,2C53.1,2,62,10.9,62,21.8v20.4C62,53.1,53.1,62,42.2,62H21.8C10.9,62,2,53.1,2,42.2V21.8
		C2,10.9,10.9,2,21.8,2H42.2 M42.2,0H21.8C9.8,0,0,9.8,0,21.8v20.4C0,54.2,9.8,64,21.8,64h20.4c12,0,21.8-9.8,21.8-21.8V21.8
		C64,9.8,54.2,0,42.2,0L42.2,0z"/>
</g>
<path d="M54.7,15.8c0-4-3.4-7.3-7.6-7.3s-7.6,3.3-7.6,7.3c0,2.7,1.5,5,3.8,6.3v6L32,33.6l-11.3-5.5v-6c2.3-1.3,3.8-3.6,3.8-6.3
	c0-4-3.4-7.3-7.6-7.3s-7.6,3.3-7.6,7.3c0,2.7,1.5,5,3.8,6.3v10.5l15.1,7.3v6c-2.3,1.3-3.8,3.6-3.8,6.3c0,4,3.4,7.3,7.6,7.3
	s7.6-3.3,7.6-7.3c0-2.7-1.5-5-3.8-6.3v-6l15.1-7.3V22.1C53.2,20.8,54.7,18.5,54.7,15.8L54.7,15.8z M16.9,11.2c2.6,0,4.7,2,4.7,4.6
	s-2.1,4.6-4.7,4.6s-4.7-2-4.7-4.6S14.3,11.2,16.9,11.2z M32,56.8c-2.6,0-4.7-2-4.7-4.6c0-2.5,2.1-4.6,4.7-4.6s4.7,2,4.7,4.6
	C36.7,54.8,34.6,56.8,32,56.8z M47.1,20.3c-2.6,0-4.7-2-4.7-4.6s2.1-4.6,4.7-4.6s4.7,2,4.7,4.6S49.7,20.3,47.1,20.3z"/>
</svg>
