<?xml version="1.0" encoding="utf-8"?>
<!-- Generator: Adobe Illustrator 29.1.0, SVG Export Plug-In . SVG Version: 9.03 Build 55587)  -->
<svg version="1.0" id="_图层_1" xmlns="http://www.w3.org/2000/svg" xmlns:xlink="http://www.w3.org/1999/xlink" x="0px" y="0px"
	 viewBox="0 0 64 64" style="enable-background:new 0 0 64 64;" xml:space="preserve">
<style type="text/css">
	.st0{fill:#FF7F7F;}
	.st1{fill:#1F1F1F;}
</style>
<g>
	<path class="st0" d="M21.8,1h20.4C53.7,1,63,10.3,63,21.8v20.4C63,53.7,53.7,63,42.2,63H21.8C10.3,63,1,53.7,1,42.2V21.8
		C1,10.3,10.3,1,21.8,1z"/>
	<path class="st1" d="M42.2,2C53.1,2,62,10.9,62,21.8v20.4C62,53.1,53.1,62,42.2,62H21.8C10.9,62,2,53.1,2,42.2V21.8
		C2,10.9,10.9,2,21.8,2H42.2 M42.2,0H21.8C9.8,0,0,9.8,0,21.8v20.4C0,54.2,9.8,64,21.8,64h20.4c12,0,21.8-9.8,21.8-21.8V21.8
		C64,9.8,54.2,0,42.2,0L42.2,0z"/>
</g>
<g>
	<path class="st1" d="M55.3,26.1c-0.5-0.3-0.9-0.3-1.4,0l-8,4.7v-3.3c0-3.3-2.6-5.9-5.9-5.9h-1.4v-3.1c0-2.4-2.6-4.5-5.9-4.5H19.1
		c-0.7,0-1.4,0.7-1.4,1.4c0,0.7,0.7,1.4,1.4,1.4h13.4c1.7,0,3.1,0.9,3.1,1.7v3.1H13.9c-3.3,0-5.9,2.6-5.9,5.9v16.6
		c0,3.3,2.6,5.9,5.9,5.9H40v0c3.3,0,5.9-2.6,5.9-5.9v-2.8l8,4.5c0.2,0,0.3,0.2,0.7,0.2v0c0.3,0,0.5-0.2,0.7,0.2
		c0.3-0.3,0.7-0.7,0.7-1.2V27.3C56,26.8,55.8,26.5,55.3,26.1z M53,42.4l-7.6-4.3c-0.3-0.2-0.6-0.4-0.9-0.4c0,0,0,0,0,0
		c-0.5,0-0.9,0.2-1.2,0.7c-0.1,0.2-0.2,0.4-0.2,0.6c0,0,0,0,0,0.1v5c0,1.7-1.4,3.1-3.1,3.1H13.9c-1.7,0-3.1-1.4-3.1-3.1V27.5
		c0-1.7,1.4-3.1,3.1-3.1H40c1.7,0,3.1,1.4,3.1,3.1v4.7c0,0.1,0,0.3,0.1,0.4c-0.1,0.3-0.1,0.7,0.1,1.1c0.3,0.7,1,0.9,1.7,0.5l8-4.7
		V42.4z"/>
	<path class="st1" d="M15.8,27.7c-1.2,0-2.3,1-2.3,2.2c0,1.2,1,2.3,2.3,2.3c1.2,0,2.3-1,2.3-2.3S17.2,27.7,15.8,27.7z"/>
</g>
</svg>
