<?xml version="1.0" encoding="utf-8"?>
<!-- Generator: Adobe Illustrator 29.1.0, SVG Export Plug-In . SVG Version: 9.03 Build 55587)  -->
<svg version="1.0" id="_图层_1" xmlns="http://www.w3.org/2000/svg" xmlns:xlink="http://www.w3.org/1999/xlink" x="0px" y="0px"
	 viewBox="0 0 64 64" style="enable-background:new 0 0 64 64;" xml:space="preserve">
<style type="text/css">
	.st0{fill:#FF7F3F;}
	.st1{fill:#1F1F1F;}
</style>
<g>
	<path class="st0" d="M21.8,1h20.4C53.7,1,63,10.3,63,21.8v20.4C63,53.7,53.7,63,42.2,63H21.8C10.3,63,1,53.7,1,42.2V21.8
		C1,10.3,10.3,1,21.8,1z"/>
	<path d="M42.2,2C53.1,2,62,10.9,62,21.8v20.4C62,53.1,53.1,62,42.2,62H21.8C10.9,62,2,53.1,2,42.2V21.8C2,10.9,10.9,2,21.8,2H42.2
		 M42.2,0H21.8C9.8,0,0,9.8,0,21.8v20.4C0,54.2,9.8,64,21.8,64h20.4c12,0,21.8-9.8,21.8-21.8V21.8C64,9.8,54.2,0,42.2,0
		C42.2,0,42.2,0,42.2,0z"/>
</g>
<path class="st1" d="M51.6,36l-3.7-16.1c-0.3-0.9-1-1.7-1.9-2l-17-5.2c-0.2,0-0.5-0.1-0.7,0c-0.7,0-1.4,0.3-2,0.7L14.2,24.7
	c-0.7,0.7-1,1.7-0.8,2.6l4,17.3c0.3,0.9,1,1.7,1.9,2l15.8,4.9h0.7c0.7,0,1.4-0.3,2-0.7l13-12.1C51.5,38,51.8,37,51.6,36z M30.8,16.6
	L30.8,16.6l11.6,3.5c0.5,0.1,0.5,0.3,0,0.5L36.3,22c-0.5,0-1.1,0-1.4-0.4L30.6,17C30.2,16.6,30.3,16.4,30.8,16.6z M35,24.5l2.9,12.8
	l0,0c0,0.5-0.2,0.7-0.6,0.6L24.7,34c-0.5,0-0.6-0.5-0.2-0.8l9.6-8.9C34.4,24,34.8,24.1,35,24.5L35,24.5L35,24.5z M17.3,25.9
	l10.2-9.5c0.4-0.3,0.9-0.3,1.2,0l5.1,5.5c0.3,0.3,0.3,0.9,0,1.2l-10.2,9.5c-0.3,0.3-0.9,0.3-1.2,0l-5.1-5.5
	C17,26.7,17,26.2,17.3,25.9z M19.8,41.1L19.8,41.1l-2.7-11.9c0-0.5,0-0.6,0.4-0.2l4.3,4.6c0.3,0.4,0.5,1,0.3,1.5l-1.9,6
	C20.1,41.6,19.9,41.6,19.8,41.1z M34.7,47.9l-13.3-4.1c-0.5,0-0.7-0.6-0.6-1.1l2.3-7.2c0.1-0.5,0.6-0.7,1.1-0.6L37.5,39
	c0.5,0,0.7,0.6,0.6,1.1l-2.3,7.2C35.8,47.8,35.2,48,34.7,47.9z M46.5,38.2l-8.9,8.3c-0.3,0.3-0.5,0.2-0.4-0.3l1.9-6
	c0.2-0.5,0.6-0.9,1.1-1l6.1-1.4C46.8,37.8,46.9,37.8,46.5,38.2z M47.5,36.5L47.5,36.5l-7.3,1.6c-0.5,0-0.9-0.2-1.1-0.6L36,23.9
	c0-0.5,0.2-0.9,0.6-1l7.3-1.6c0.5,0,0.9,0.2,1.1,0.6l3.1,13.6C48.1,35.9,47.9,36.4,47.5,36.5z"/>
</svg>
