<?xml version="1.0" encoding="utf-8"?>
<!-- Generator: Adobe Illustrator 29.1.0, SVG Export Plug-In . SVG Version: 9.03 Build 55587)  -->
<svg version="1.0" id="_图层_1" xmlns="http://www.w3.org/2000/svg" xmlns:xlink="http://www.w3.org/1999/xlink" x="0px" y="0px"
	 viewBox="0 0 64 64" style="enable-background:new 0 0 64 64;" xml:space="preserve">
<style type="text/css">
	.st0{fill:#FF7F3F;}
	.st1{fill:#1F1F1F;}
</style>
<g>
	<path class="st0" d="M21.8,1h20.4C53.7,1,63,10.3,63,21.8v20.4C63,53.7,53.7,63,42.2,63H21.8C10.3,63,1,53.7,1,42.2V21.8
		C1,10.3,10.3,1,21.8,1z"/>
	<path d="M42.2,2C53.1,2,62,10.9,62,21.8v20.4C62,53.1,53.1,62,42.2,62H21.8C10.9,62,2,53.1,2,42.2V21.8C2,10.9,10.9,2,21.8,2H42.2
		 M42.2,0H21.8C9.8,0,0,9.8,0,21.8v20.4C0,54.2,9.8,64,21.8,64h20.4c12,0,21.8-9.8,21.8-21.8V21.8C64,9.8,54.2,0,42.2,0
		C42.2,0,42.2,0,42.2,0z"/>
</g>
<path class="st1" d="M56.4,36.9L51.8,17c-0.4-1.1-1.3-2.1-2.4-2.5L28.1,8.1c-0.3,0-0.6-0.1-0.9,0c-0.9,0-1.8,0.4-2.5,0.9L9.5,23
	c-0.9,0.9-1.3,2.1-1,3.2l5,21.4c0.4,1.1,1.3,2.1,2.4,2.5l19.8,6.1h0.9c0.9,0,1.8-0.4,2.5-0.9l16.3-15C56.3,39.4,56.7,38.2,56.4,36.9
	L56.4,36.9z M30.4,13L30.4,13l14.5,4.3c0.6,0.1,0.6,0.4,0,0.6l-7.6,1.7c-0.6,0-1.4,0-1.8-0.5l-5.4-5.7C29.6,12.9,29.7,12.7,30.4,13
	L30.4,13z M35.6,22.7l3.6,15.8l0,0c0,0.6-0.3,0.9-0.8,0.7l-15.8-4.8c-0.6,0-0.8-0.6-0.3-1l12-11c0.4-0.4,0.9-0.2,1.1,0.2l0,0
	L35.6,22.7z M13.5,24.4l12.8-11.7c0.5-0.4,1.1-0.4,1.5,0l6.4,6.8c0.4,0.4,0.4,1.1,0,1.5L21.4,32.7c-0.4,0.4-1.1,0.4-1.5,0l-6.4-6.8
	C13.1,25.4,13.1,24.8,13.5,24.4z M16.6,43.2L16.6,43.2l-3.4-14.7c0-0.6,0-0.7,0.5-0.2l5.4,5.7c0.4,0.5,0.6,1.2,0.4,1.9l-2.4,7.4
	c-0.1,0.6-0.4,0.6-0.5,0V43.2z M35.3,51.6l-16.7-5.1c-0.6,0-0.9-0.7-0.8-1.4l2.9-8.9c0.1-0.6,0.8-0.9,1.4-0.7l16.7,5.1
	c0.6,0,0.9,0.7,0.8,1.4l-2.9,8.9C36.7,51.5,35.9,51.8,35.3,51.6z M50,39.6L38.9,49.9c-0.4,0.4-0.6,0.2-0.5-0.4l2.4-7.4
	c0.3-0.6,0.8-1.1,1.4-1.2l7.6-1.7c0.6,0,0.8,0,0.3,0.5L50,39.6z M51.3,37.5L51.3,37.5l-9.1,2c-0.6,0-1.1-0.2-1.4-0.7L36.9,22
	c0-0.6,0.3-1.1,0.8-1.2l9.1-2c0.6,0,1.1,0.2,1.4,0.7l3.9,16.8C52.1,36.8,51.8,37.4,51.3,37.5z"/>
</svg>
