<?xml version="1.0" encoding="utf-8"?>
<!-- Generator: Adobe Illustrator 28.2.0, SVG Export Plug-In . SVG Version: 6.00 Build 0)  -->
<svg version="1.1" id="Layer_1" xmlns="http://www.w3.org/2000/svg" xmlns:xlink="http://www.w3.org/1999/xlink" x="0px" y="0px"
	 viewBox="0 0 64 64" style="enable-background:new 0 0 64 64;" xml:space="preserve">
<style type="text/css">
	.st0{fill:#7F7FFF;}
	.st1{fill:#1F1F1F;}
</style>
<g>
	<g>
		<polygon class="st0" points="26,31.9 31.8,28.5 31.8,34.4 26,38.6 		"/>
		<path class="st1" d="M31.2,29.4V34l-4.6,3.5v-5.3L31.2,29.4 M32.3,27.5l-1.7,1L26,31.2l-0.6,0.3v0.7v5.3v2.2l1.8-1.3l4.6-3.5
			l0.4-0.3V34v-4.6V27.5L32.3,27.5z"/>
	</g>
	<g>
		<path class="st0" d="M38.2,31.2C38.1,31.2,38.1,31.2,38.2,31.2l-5.6-3.4c-0.1-0.1-0.3-0.1-0.6-0.1c-0.2,0-0.3,0-0.6,0.1l-5.8,3.5
			l-0.3-0.1L18,26.7l13.9-8.2L46,26.8l-7.6,4.7L38.2,31.2z"/>
		<path class="st1" d="M31.9,19.2l13,7.6l-6.5,4l-0.1-0.1l-5.5-3.2c-0.2-0.1-0.6-0.2-0.8-0.2c-0.2,0-0.6,0.1-0.8,0.2l-5.5,3.2
			c0,0,0,0-0.1,0l-6.4-4L31.9,19.2 M31.9,17.9l-0.6,0.3l-12.8,7.6L17,26.7l1.5,1l6.4,4l0.6,0.3l0.6-0.4l5.5-3.2
			c0.1,0,0.1-0.1,0.2-0.1c0.1,0,0.1,0,0.2,0.1l5.5,3.2l0.6,0.4l0.7-0.3l6.5-4l1.5-1l-1.7-0.9l-13-7.6L31.9,17.9L31.9,17.9z"/>
	</g>
	<g>
		<path class="st0" d="M17.8,43.9l-0.1-16.6l7.7,4.8v6.5c0,0.3,0.2,0.7,0.6,0.9l5.7,3.4v9.1L17.8,43.9z"/>
		<path class="st1" d="M18.2,28.3l6.6,4.1v6.3c0,0.6,0.3,1.1,0.8,1.3l5.5,3.2v7.8l-12.9-7.5V28.3 M17.1,26.3v2l0.1,15.2v0.7l0.6,0.3
			L30.7,52l1.7,1v-2v-7.8v-0.7l-0.6-0.3l-5.5-3.2c-0.1-0.1-0.2-0.2-0.2-0.4v-6.3v-0.7l-0.6-0.3l-6.6-4.1L17.1,26.3L17.1,26.3z"/>
	</g>
	<g>
		<polygon class="st0" points="32.2,34.2 32.2,28.5 38,31.9 38,38.6 		"/>
		<path class="st1" d="M32.8,29.4l4.6,2.7v5.3l-4.6-3.5V29.4 M31.7,27.5v1.9V34v0.6l0.4,0.3l4.6,3.5l1.8,1.3v-2.2v-5.3v-0.7L38,31.2
			l-4.6-2.7L31.7,27.5L31.7,27.5z"/>
	</g>
	<g>
		<path class="st0" d="M32.3,42.9l5.7-3.4c0.3-0.2,0.6-0.6,0.6-0.9v-6.5l7.7-4.8v16.5l-14,8.3V42.9z"/>
		<path class="st1" d="M45.7,28.4v15L32.9,51v-7.8l5.5-3.2c0.4-0.3,0.8-0.8,0.8-1.3v-6.2L45.7,28.4 M46.8,26.4l-1.7,1l-6.6,4.1
			L38,31.9v0.7v6.2c0,0.2-0.1,0.3-0.2,0.4l-5.5,3.2l-0.6,0.3v0.4V51v1.9l1.7-1l13-7.6l0.6-0.3v-0.7v-15L46.8,26.4L46.8,26.4z"/>
	</g>
	<g>
		<polygon class="st0" points="26.3,38.9 32,34.7 37.7,38.9 32,42.3 		"/>
		<path class="st1" d="M32,35.4l4.7,3.6L32,41.7l-4.7-2.8L32,35.4 M32,33.9l-0.7,0.4l-4.7,3.6l-1.3,1l1.4,0.9l4.7,2.8L32,43l0.6-0.3
			l4.7-2.8l1.4-0.9l-1.3-1l-4.7-3.6L32,33.9L32,33.9z"/>
	</g>
	<g>
		<path class="st0" d="M0.6,59.4V4.6h27.8l7.7,8.3h27.4v46.6H0.6z M32,18c-0.2,0-0.3,0-0.6,0.1l-13.8,8.2c-0.3,0.2-0.6,0.6-0.6,0.9
			v16.2c0,0.3,0.2,0.8,0.6,0.9l13.8,8.2c0.1,0.1,0.3,0.1,0.6,0.1c0.2,0,0.3,0,0.6-0.1l13.8-8.1c0.3-0.2,0.6-0.6,0.6-0.9V27.2
			c0-0.3-0.2-0.8-0.6-0.9l-13.8-8.2C32.3,18,32.2,18,32,18z"/>
		<path class="st1" d="M28.1,5.1l7.7,8.3h27v45.5H1.1V5.1H28.1 M32,53.3L32,53.3c0.3,0,0.6-0.1,0.8-0.2l13.8-8.2
			c0.6-0.3,0.8-0.8,0.8-1.5V27.2c0-0.6-0.3-1.1-0.8-1.5l-13.8-8.2c-0.2,0-0.4-0.1-0.8-0.1c-0.3,0-0.6,0.1-0.8,0.2l-13.8,8.2
			c-0.6,0.3-0.8,0.8-0.8,1.5v16.2c0,0.6,0.3,1.1,0.8,1.5l13.8,8.2C31.4,53.2,31.7,53.3,32,53.3 M28.6,4h-0.4h-27H0v1.1v53.8V60h1.1
			h61.8H64v-1.1V13.4v-1.1h-1.1H36.3l-7.4-8L28.6,4L28.6,4z M32,53.3v-1.1c-0.1,0-0.2,0-0.2-0.1L18,43.9c-0.1-0.1-0.2-0.2-0.2-0.4
			V27.2c0-0.2,0.1-0.3,0.2-0.4l13.8-8.2c0.1,0,0.1-0.1,0.2-0.1c0.1,0,0.2,0,0.2,0.1L46,26.7c0.1,0.1,0.2,0.2,0.2,0.4v16.2
			c0,0.2-0.1,0.3-0.2,0.4L32.2,52c0,0.1-0.1,0.1-0.2,0.1V53.3L32,53.3z"/>
	</g>
</g>
</svg>
