<?xml version="1.0" encoding="utf-8"?>
<!-- Generator: Adobe Illustrator 29.1.0, SVG Export Plug-In . SVG Version: 9.03 Build 55587)  -->
<svg version="1.0" id="Layer_1" xmlns="http://www.w3.org/2000/svg" xmlns:xlink="http://www.w3.org/1999/xlink" x="0px" y="0px"
	 viewBox="0 0 64 64" style="enable-background:new 0 0 64 64;" xml:space="preserve">
<style type="text/css">
	.st0{fill:#1F1F1F;}
	.st1{fill:#7F7FFF;}
</style>
<rect x="15.2" y="17.8" class="st0" width="34.3" height="34.3"/>
<polygon class="st1" points="26.4,31.9 31.8,28.9 31.8,34.1 26.4,37.9 "/>
<path class="st1" d="M37.8,31.3C37.8,31.3,37.8,31.3,37.8,31.3l-5.2-3c0,0-0.3,0-0.6,0s-0.3,0-0.6,0L26,31.4h-0.3l-6.8-4.1l13-7.3
	l13.2,7.4L38,31.6L37.8,31.3z"/>
<path class="st1" d="M18.7,42.6V27.8l7.1,4.3v5.8c0,0.3,0.2,0.6,0.6,0.8l5.3,3v8.1C31.7,49.8,18.7,42.6,18.7,42.6z"/>
<polygon class="st1" points="32.2,34 32.2,28.9 37.6,31.9 37.6,37.9 "/>
<path class="st1" d="M32.3,41.7l5.3-3c0.3-0.2,0.6-0.5,0.6-0.8v-5.8l7.2-4.3v14.7l-13.1,7.4C32.3,49.9,32.3,41.7,32.3,41.7z"/>
<g>
	<path class="st1" d="M1.6,57.6V6.5h27.5l7.2,7.4h26.3v43.6L1.6,57.6L1.6,57.6z M32,49.4c0,0,0.1,0,0.2,0L45,42.2l0,0V27.9
		l-12.9-7.3c0,0,0,0-0.2,0s-0.1,0-0.2,0l-12.8,7.3l0,0v14.2l12.9,7.3c0,0,0,0,0.1,0H32z"/>
	<path class="st0" d="M28.6,7.5l7.2,7.4h25.7v41.6H2.6v-49h26.1 M32,50.4c0.2,0,0.3,0,0.6,0l12.9-7.2c0.3-0.2,0.6-0.5,0.6-0.8V27.8
		c0-0.3-0.2-0.7-0.6-0.8l-12.9-7.3c-0.3,0-0.4,0-0.6,0s-0.3,0-0.6,0L18.5,27c-0.3,0.2-0.6,0.5-0.6,0.8v14.5c0,0.3,0.2,0.7,0.6,0.8
		l12.9,7.3C31.4,50.4,31.7,50.4,32,50.4 M29.5,5.5H0.6v50.9l0,0v2.1h63V12.9H36.8l-6.6-6.8L29.5,5.5L29.5,5.5L29.5,5.5z M19.9,28.4
		L32,21.6l12.1,6.8v13.2L32,48.3l-12.1-6.8L19.9,28.4C19.9,28.4,19.9,28.4,19.9,28.4z"/>
</g>
</svg>
