<?xml version="1.0" encoding="utf-8"?>
<!-- Generator: Adobe Illustrator 22.0.0, SVG Export Plug-In . SVG Version: 6.00 Build 0)  -->
<svg version="1.1" id="图层_1" xmlns="http://www.w3.org/2000/svg" xmlns:xlink="http://www.w3.org/1999/xlink" x="0px" y="0px"
	 viewBox="0 0 64 64" style="enable-background:new 0 0 64 64;" xml:space="preserve">
<style type="text/css">
	.st0{fill:#BFBFBF;}
</style>
<path class="st0" d="M9.6,4h44.8C57.5,4,60,6.5,60,9.6v44.8c0,3.1-2.5,5.6-5.6,5.6H9.6C6.5,60,4,57.5,4,54.4V9.6C4,6.5,6.5,4,9.6,4z
	 M28.9,28.9H13.1c-1.7,0-3.1,1.4-3.1,3.1s1.4,3.1,3.1,3.1h15.7v15.7c0,1.7,1.4,3.1,3.1,3.1s3.1-1.4,3.1-3.1V35.1h15.7
	c1.7,0,3.1-1.4,3.1-3.1c0-1.7-1.4-3.1-3.1-3.1H35.1V13.1c0-1.7-1.4-3.1-3.1-3.1c-1.7,0-3.1,1.4-3.1,3.1V28.9z"/>
</svg>
