<?xml version="1.0" encoding="utf-8"?>
<!-- Generator: Adobe Illustrator 22.0.0, SVG Export Plug-In . SVG Version: 6.00 Build 0)  -->
<svg version="1.1" id="图层_1" xmlns="http://www.w3.org/2000/svg" xmlns:xlink="http://www.w3.org/1999/xlink" x="0px" y="0px"
	 viewBox="0 0 64 64" style="enable-background:new 0 0 64 64;" xml:space="preserve">
<style type="text/css">
	.st0{fill:#FFFFFF;}
</style>
<path class="st0" d="M11,21.7v27.4h42V21.7H41.7l-3.5-6.9H25.8l-3.5,6.9H11z M18,14.9L21.5,8h21l3.5,6.9h14V56H4V14.9H18z M32,37.1
	c1.9,0,3.5-1.5,3.5-3.4c0-1.9-1.6-3.4-3.5-3.4s-3.5,1.5-3.5,3.4C28.5,35.6,30.1,37.1,32,37.1z M32,44c-5.8,0-10.5-4.6-10.5-10.3
	S26.2,23.4,32,23.4S42.5,28,42.5,33.7S37.8,44,32,44z"/>
</svg>
