<?xml version="1.0" encoding="utf-8"?>
<!-- Generator: Adobe Illustrator 22.0.0, SVG Export Plug-In . SVG Version: 6.00 Build 0)  -->
<svg version="1.1" id="图层_1" xmlns="http://www.w3.org/2000/svg" xmlns:xlink="http://www.w3.org/1999/xlink" x="0px" y="0px"
	 viewBox="0 0 64 64" style="enable-background:new 0 0 64 64;" xml:space="preserve">
<style type="text/css">
	.st0{fill:#BFBFBF;}
</style>
<path class="st0" d="M52.6,56V44H56V32c0-2.2-1.8-4-4-4H40V8c0-2.2-1.8-4-4-4h-8c-2.2,0-4,1.8-4,4v20H12c-2.2,0-4,1.8-4,4v12h3v12
	c0,2.2,2,4,4.4,4H57C54.6,60,52.6,58.2,52.6,56z M23,55c0,0.6-0.4,1-1,1s-1-0.4-1-1V45c0-0.6,0.4-1,1-1s1,0.4,1,1V55z M33,55
	c0,0.6-0.4,1-1,1s-1-0.4-1-1V45c0-0.6,0.4-1,1-1s1,0.4,1,1V55z M43,55c0,0.6-0.4,1-1,1s-1-0.4-1-1V45c0-0.6,0.4-1,1-1s1,0.4,1,1V55z
	"/>
</svg>
