<?xml version="1.0" encoding="utf-8"?>
<!-- Generator: Adobe Illustrator 22.0.0, SVG Export Plug-In . SVG Version: 6.00 Build 0)  -->
<svg version="1.1" id="图层_1" xmlns="http://www.w3.org/2000/svg" xmlns:xlink="http://www.w3.org/1999/xlink" x="0px" y="0px"
	 viewBox="0 0 64 64" style="enable-background:new 0 0 64 64;" xml:space="preserve">
<style type="text/css">
	.st0{fill:#5F5F5F;}
</style>
<path class="st0" d="M43.3,32l15.5-15.5c1.6-1.6,1.6-4.1,0-5.7l-5.7-5.7c-1.6-1.6-4.1-1.6-5.7,0L32,20.7L16.5,5.2
	c-1.6-1.6-4.1-1.6-5.7,0l-5.7,5.7c-1.6,1.6-1.6,4.1,0,5.7L20.7,32L5.2,47.5c-1.6,1.6-1.6,4.1,0,5.7l5.7,5.7c1.6,1.6,4.1,1.6,5.7,0
	L32,43.3l15.5,15.5c1.6,1.6,4.1,1.6,5.7,0l5.7-5.7c1.6-1.6,1.6-4.1,0-5.7L43.3,32z"/>
</svg>
