<?xml version="1.0" encoding="utf-8"?>
<!-- Generator: Adobe Illustrator 22.0.0, SVG Export Plug-In . SVG Version: 6.00 Build 0)  -->
<svg version="1.1" id="basic" xmlns="http://www.w3.org/2000/svg" xmlns:xlink="http://www.w3.org/1999/xlink" x="0px" y="0px"
	 viewBox="0 0 64 64" style="enable-background:new 0 0 64 64;" xml:space="preserve">
<style type="text/css">
	.st0{fill:#FFFFFF;}
</style>
<path class="st0" d="M36.2,29.7h18c1.2,0,1.5-1.3,0.6-2.2l-5.7-5.8L59.6,11c0.6-0.6,0.6-1.6,0-2.2l-4.3-4.3C54.7,4,53.7,4,53,4.6
	L42.5,15.1l-6-5.7c-0.9-0.9-2.2-0.6-2.2,0.6v18C34.3,28.7,35.4,29.7,36.2,29.7z M27.8,34.3h-18c-1.2,0-1.5,1.3-0.6,2.2l5.7,5.8
	L4.4,53c-0.6,0.6-0.6,1.6,0,2.2l4.3,4.3c0.6,0.6,1.5,0.6,2.2,0l10.6-10.6l6,5.7c0.8,1.1,2.1,0.7,2.1-0.5V36.3
	C29.7,35.5,28.6,34.3,27.8,34.3z M34.3,36.2v18c0,1.2,1.3,1.5,2.2,0.6l5.8-5.7L53,59.6c0.6,0.6,1.6,0.6,2.2,0l4.3-4.3
	c0.5-0.6,0.5-1.5-0.1-2.2L48.9,42.5l5.7-6c0.9-0.9,0.6-2.2-0.6-2.2h-18C35.3,34.3,34.3,35.4,34.3,36.2z M29.7,27.8v-18
	c0-1.2-1.3-1.5-2.2-0.6l-5.8,5.7L11,4.4c-0.6-0.6-1.6-0.6-2.2,0L4.4,8.8c-0.6,0.6-0.6,1.5,0,2.2l10.6,10.6l-5.7,6
	c-1.1,0.8-0.7,2.1,0.5,2.1h17.9C28.5,29.7,29.7,28.6,29.7,27.8z"/>
</svg>
