<?xml version="1.0" encoding="utf-8"?>
<!-- Generator: Adobe Illustrator 22.0.0, SVG Export Plug-In . SVG Version: 6.00 Build 0)  -->
<svg version="1.1" id="图层_1" xmlns="http://www.w3.org/2000/svg" xmlns:xlink="http://www.w3.org/1999/xlink" x="0px" y="0px"
	 viewBox="0 0 64 64" style="enable-background:new 0 0 64 64;" xml:space="preserve">
<style type="text/css">
	.st0{fill:#FFFFFF;}
</style>
<path class="st0" d="M50.8,26.4H13.2c-0.7,0-1.3,0.4-1.7,1L4.2,40.9c-0.2,0.3-0.2,0.6-0.2,1V58c0,1.1,0.9,2,1.9,2h52.2
	c1.1,0,1.9-0.9,1.9-2V41.8c0-0.3-0.1-0.7-0.2-1l-7.3-13.5C52.1,26.8,51.5,26.4,50.8,26.4z M40.8,41.5c-0.9,0-1.7,0.6-1.9,1.6
	c-0.7,3.3-3.5,5.8-7,5.8s-6.3-2.5-7-5.8c-0.2-0.9-1-1.6-1.9-1.6H10.5c-1.4,0-2.4-1.6-1.7-2.9l4.5-8.8c0.3-0.7,1-1.1,1.7-1.1h34
	c0.7,0,1.4,0.4,1.7,1.1l4.5,8.8c0.7,1.3-0.3,2.9-1.7,2.9H40.8z M48.8,14.1c-0.1-0.1-0.1-0.2-0.2-0.3c-0.5-0.9-1.7-1.3-2.6-0.7
	L39.5,17c-0.9,0.6-1.2,1.8-0.7,2.7c0,0.1,0.1,0.2,0.1,0.2c0.5,1,1.7,1.3,2.6,0.7l6.6-3.9C49,16.3,49.4,15.1,48.8,14.1z M24.5,17
	l-6.6-3.9c-0.9-0.5-2.1-0.2-2.6,0.7c-0.1,0.1-0.1,0.2-0.2,0.3c-0.5,0.9-0.2,2.1,0.7,2.7l6.6,3.9c0.9,0.5,2.1,0.2,2.6-0.7
	c0-0.1,0.1-0.2,0.1-0.2C25.8,18.8,25.5,17.6,24.5,17z M32,15.8h0.1c1.1,0,1.9-0.9,1.9-2V6c0-1.1-0.9-2-1.9-2h-0.3
	c-1,0-1.9,0.9-1.9,2v7.8c0,1.1,0.9,2,1.9,2C31.9,15.8,32,15.8,32,15.8z"/>
</svg>
