<?xml version="1.0" encoding="utf-8"?>
<!-- Generator: Adobe Illustrator 22.0.0, SVG Export Plug-In . SVG Version: 6.00 Build 0)  -->
<svg version="1.1" id="图层_1" xmlns="http://www.w3.org/2000/svg" xmlns:xlink="http://www.w3.org/1999/xlink" x="0px" y="0px"
	 viewBox="0 0 64 64" style="enable-background:new 0 0 64 64;" xml:space="preserve">
<style type="text/css">
	.st0{fill:#FFFFFF;}
</style>
<path class="st0" d="M53.6,9.1c0.8,0,1.3,0.5,1.3,1.3v35.4c0,0.8-0.5,1.3-1.3,1.3h-6.4c-1.4,0-2.5,1.1-2.5,2.5
	c0,1.4,1.2,2.5,2.5,2.5h7.6c2.8,0,5.1-2.3,5.1-5.1V9c0-2.8-2.3-5-5.1-5h-28c-2.8,0-5.1,2.3-5.1,5.1v2.5c0,1.4,1.1,2.5,2.5,2.5
	s2.5-1.1,2.5-2.5l0-1.3c0-0.8,0.5-1.3,1.3-1.3L53.6,9.1z"/>
<path class="st0" d="M4,21.2v34.2C4,57.9,6.4,60,9.2,60H38c2.9,0,5.2-2.1,5.2-4.6V21.2c0-2.5-2.4-4.6-5.2-4.6l-28.8,0
	C6.4,16.6,4,18.7,4,21.2z"/>
</svg>
