<?xml version="1.0" encoding="utf-8"?>
<!-- Generator: Adobe Illustrator 22.0.0, SVG Export Plug-In . SVG Version: 6.00 Build 0)  -->
<svg version="1.1" id="图层_1" xmlns="http://www.w3.org/2000/svg" xmlns:xlink="http://www.w3.org/1999/xlink" x="0px" y="0px"
	 viewBox="0 0 64 64" style="enable-background:new 0 0 64 64;" xml:space="preserve">
<style type="text/css">
	.st0{fill:#FFFF3F;stroke:#FFFF3F;stroke-width:2;stroke-miterlimit:10;}
</style>
<path class="st0" d="M56,22H42V8c0-2.2-1.8-4-4-4H26c-2.2,0-4,1.8-4,4v14H8c-2.2,0-4,1.8-4,4v12c0,2.2,1.8,4,4,4h14v14
	c0,2.2,1.8,4,4,4h12c2.2,0,4-1.8,4-4V42h14c2.2,0,4-1.8,4-4V26C60,23.8,58.2,22,56,22z"/>
</svg>
