<?xml version="1.0" encoding="utf-8"?>
<!-- Generator: Adobe Illustrator 22.0.0, SVG Export Plug-In . SVG Version: 6.00 Build 0)  -->
<svg version="1.1" id="basic" xmlns="http://www.w3.org/2000/svg" xmlns:xlink="http://www.w3.org/1999/xlink" x="0px" y="0px"
	 viewBox="0 0 64 64" style="enable-background:new 0 0 64 64;" xml:space="preserve">
<style type="text/css">
	.st0{fill:#FFFFFF;}
</style>
<path class="st0" d="M32.9,4C16.7,3.5,3.5,16.7,4,32.9C4.5,47.5,16.5,59.5,31.1,60C47.3,60.5,60.5,47.3,60,31.1
	C59.5,16.5,47.5,4.5,32.9,4z M46.1,46.1L46.1,46.1c-1.6,1.6-4.1,1.6-5.7,0L32,37.7l-8.5,8.5c-1.6,1.6-4.1,1.6-5.7,0l0,0
	c-1.6-1.6-1.6-4.1,0-5.7l8.5-8.5l-8.5-8.5c-1.6-1.6-1.6-4.1,0-5.7l0,0c1.6-1.6,4.1-1.6,5.7,0l8.5,8.5l8.5-8.5c1.6-1.6,4.1-1.6,5.7,0
	l0,0c1.6,1.6,1.6,4.1,0,5.7L37.7,32l8.5,8.5C47.7,42,47.7,44.6,46.1,46.1z"/>
</svg>
