<?xml version="1.0" encoding="utf-8"?>
<!-- Generator: Adobe Illustrator 22.0.0, SVG Export Plug-In . SVG Version: 6.00 Build 0)  -->
<svg version="1.1" id="图层_1" xmlns="http://www.w3.org/2000/svg" xmlns:xlink="http://www.w3.org/1999/xlink" x="0px" y="0px"
	 viewBox="0 0 64 64" style="enable-background:new 0 0 64 64;" xml:space="preserve">
<style type="text/css">
	.st0{fill:#7F40FF;stroke:#7F40FF;stroke-width:4;stroke-miterlimit:10;}
</style>
<path class="st0" d="M60,32.4C60,30.5,57.9,4,31.6,4C8.4,4,4,27.7,4,32.6C4,50.3,20.3,53,20.3,53c-0.9,4.7,2.4,8,7.5,5.7
	c4.2,2.9,7.3,0.3,7.3,0.3c3.4,1.9,8.7-0.3,8-5.9C43,52.9,60,49.5,60,32.4L60,32.4z M20.4,39.5c-4.3,0-7.8-4.2-7.8-9.3
	c0-5.2,3.5-9.3,7.8-9.3s7.8,4.2,7.8,9.3S24.6,39.5,20.4,39.5L20.4,39.5z M35.4,44.3c-0.2,3.1-5.6,4.2-6.1,0
	c-0.1-0.9,0.7-4.2,3.1-4.2C34.7,40,35.6,43.3,35.4,44.3L35.4,44.3z M43.6,39.5c-4.3,0-7.8-4.2-7.8-9.3c0-5.2,3.5-9.3,7.8-9.3
	s7.8,4.2,7.8,9.3C51.4,35.3,47.9,39.5,43.6,39.5L43.6,39.5z"/>
</svg>
