<?xml version="1.0" encoding="utf-8"?>
<!-- Generator: Adobe Illustrator 24.0.1, SVG Export Plug-In . SVG Version: 6.00 Build 0)  -->
<svg version="1.1" id="Layer_1" xmlns="http://www.w3.org/2000/svg" xmlns:xlink="http://www.w3.org/1999/xlink" x="0px" y="0px"
	 viewBox="0 0 240 240" style="enable-background:new 0 0 240 240;" xml:space="preserve">
<style type="text/css">
	.st0{fill:#1f1f1f;}
</style>
<g>
	<rect x="63.7" y="208.4" class="st0" width="32.7" height="15.6"/>
	<rect x="16" y="141.8" class="st0" width="15.6" height="32.7"/>
	<rect x="16" y="61.8" class="st0" width="15.6" height="32.7"/>
	<rect x="16" y="101.8" class="st0" width="15.6" height="32.7"/>
	<polygon class="st0" points="183.7,16 183.7,31.6 208.4,31.6 208.4,54.5 224,54.5 224,16 	"/>
	<rect x="142.7" y="16" class="st0" width="33.7" height="15.6"/>
	<rect x="63.7" y="16" class="st0" width="33.7" height="15.6"/>
	<rect x="143.7" y="208.4" class="st0" width="32.7" height="15.6"/>
	<polygon class="st0" points="31.6,181.8 16,181.8 16,224 56.3,224 56.3,208.4 31.6,208.4 	"/>
	<polygon class="st0" points="16,54.5 31.6,54.5 31.6,31.6 56.3,31.6 56.3,16 16,16 	"/>
	<polygon class="st0" points="208.4,208.4 183.7,208.4 183.7,224 224,224 224,181.8 208.4,181.8 	"/>
	<rect x="208.4" y="141.8" class="st0" width="15.6" height="32.7"/>
	<rect x="103.7" y="208.4" class="st0" width="32.7" height="15.6"/>
	<rect x="208.4" y="101.8" class="st0" width="15.6" height="32.7"/>
	<rect x="208.4" y="61.8" class="st0" width="15.6" height="32.7"/>
	<polygon class="st0" points="120,116.5 159.7,65 134,65 134,4 106,4 106,65 80.3,65 	"/>
</g>
</svg>
