<?xml version="1.0" encoding="utf-8"?>
<!-- Generator: Adobe Illustrator 22.0.0, SVG Export Plug-In . SVG Version: 6.00 Build 0)  -->
<svg version="1.1" id="图层_1" xmlns="http://www.w3.org/2000/svg" xmlns:xlink="http://www.w3.org/1999/xlink" x="0px" y="0px"
	 viewBox="0 0 64 64" style="enable-background:new 0 0 64 64;" xml:space="preserve">
<style type="text/css">
	.st0{fill:#FFFFFF;}
</style>
<g>
	<path class="st0" d="M56,26H26c-2.2,0-4,1.8-4,4v4c0,2.2,1.8,4,4,4h30c2.2,0,4-1.8,4-4v-4C60,27.8,58.2,26,56,26z"/>
	<path class="st0" d="M12,26H8c-2.2,0-4,1.8-4,4v4c0,2.2,1.8,4,4,4h4c2.2,0,4-1.8,4-4v-4C16,27.8,14.2,26,12,26z"/>
	<path class="st0" d="M56,8H26c-2.2,0-4,1.8-4,4v4c0,2.2,1.8,4,4,4h30c2.2,0,4-1.8,4-4v-4C60,9.8,58.2,8,56,8z"/>
	<path class="st0" d="M12,8H8c-2.2,0-4,1.8-4,4v4c0,2.2,1.8,4,4,4h4c2.2,0,4-1.8,4-4v-4C16,9.8,14.2,8,12,8z"/>
	<path class="st0" d="M56,44H26c-2.2,0-4,1.8-4,4v4c0,2.2,1.8,4,4,4h30c2.2,0,4-1.8,4-4v-4C60,45.8,58.2,44,56,44z"/>
	<path class="st0" d="M12,44H8c-2.2,0-4,1.8-4,4v4c0,2.2,1.8,4,4,4h4c2.2,0,4-1.8,4-4v-4C16,45.8,14.2,44,12,44z"/>
</g>
</svg>
