<?xml version="1.0" encoding="utf-8"?>
<!-- Generator: Adobe Illustrator 22.0.0, SVG Export Plug-In . SVG Version: 6.00 Build 0)  -->
<svg version="1.1" id="图层_1" xmlns="http://www.w3.org/2000/svg" xmlns:xlink="http://www.w3.org/1999/xlink" x="0px" y="0px"
	 viewBox="0 0 64 64" style="enable-background:new 0 0 64 64;" xml:space="preserve">
<style type="text/css">
	.st0{fill:#FFFFFF;}
</style>
<path class="st0" d="M58.6,4H40.5c-1.2,0-1.5,1.1-0.6,2l5.7,5.7L35.2,22.2c-0.6,0.6-0.6,1.5,0,2.2l4.3,4.3c0.6,0.6,1.5,0.6,2.2,0
	l10.6-10.6l5.7,5.7c0.9,0.9,2,0.6,2-0.6v-18C60,4.6,59.3,4,58.6,4z M5.8,60h18c1.2,0,1.5-1.3,0.6-2.2l-5.7-5.8l10.5-10.6
	c0.6-0.6,0.6-1.6,0-2.2l-4.3-4.3c-0.6-0.6-1.5-0.6-2.2,0L12.1,45.3l-5.8-5.7C5.2,38.7,4,39,4,40.2v18C4,58.9,4.9,60,5.8,60z
	 M60,58.6V40.5c0-1.2-1-1.5-2-0.6l-5.7,5.7L41.8,35.2c-0.6-0.6-1.5-0.6-2.2,0l-4.3,4.3c-0.6,0.6-0.6,1.5,0,2.2l10.6,10.6L40.2,58
	c-0.9,0.9-0.6,2,0.6,2h18C59.4,60,60,59.3,60,58.6z M4,5.8v18c0,1.2,1.3,1.5,2.2,0.6l5.8-5.7l10.6,10.5c0.6,0.6,1.6,0.6,2.2,0
	l4.3-4.3c0.6-0.6,0.6-1.5,0-2.2L18.7,12.1l5.7-5.8C25.4,5.2,25,4,23.8,4h-18C5.1,4,4,4.9,4,5.8z"/>
</svg>
