<?xml version="1.0" encoding="utf-8"?>
<!-- Generator: Adobe Illustrator 22.0.0, SVG Export Plug-In . SVG Version: 6.00 Build 0)  -->
<svg version="1.1" id="图层_1" xmlns="http://www.w3.org/2000/svg" xmlns:xlink="http://www.w3.org/1999/xlink" x="0px" y="0px"
	 viewBox="0 0 64 64" style="enable-background:new 0 0 64 64;" xml:space="preserve">
<style type="text/css">
	.st0{fill:#FFFFFF;}
</style>
<path class="st0" d="M36.2,54.1c7.5-8.8,15-17.6,22.5-26.3c2.7-3.1,0.2-7.6-4.2-7.6h-45c-4.4,0-6.9,4.5-4.2,7.6
	c7.5,8.8,15,17.6,22.5,26.3C29.9,56.6,34.1,56.6,36.2,54.1z M56.5,8.1h-45C9.7,8.1,6,7.6,4.6,9.5c-1.6,2.1,0.1,4.9,2.9,4.9h45
	c1.8,0,5.5,0.5,6.9-1.4C61,10.8,59.3,8.1,56.5,8.1z"/>
</svg>
