<?xml version="1.0" encoding="utf-8"?>
<!-- Generator: Adobe Illustrator 22.0.0, SVG Export Plug-In . SVG Version: 6.00 Build 0)  -->
<svg version="1.1" id="图层_1" xmlns="http://www.w3.org/2000/svg" xmlns:xlink="http://www.w3.org/1999/xlink" x="0px" y="0px"
	 viewBox="0 0 64 64" style="enable-background:new 0 0 64 64;" xml:space="preserve">
<style type="text/css">
	.st0{fill:#FFFFFF;}
</style>
<path class="st0" d="M27.8,9.9c-7.5,8.8-15,17.6-22.5,26.3c-2.7,3.1-0.2,7.6,4.2,7.6h45c4.4,0,6.9-4.5,4.2-7.6
	c-7.5-8.8-15-17.6-22.5-26.3C34.1,7.4,29.9,7.4,27.8,9.9z M7.5,55.9h45c1.8,0,5.5,0.5,6.9-1.4c1.6-2.1-0.1-4.9-2.9-4.9h-45
	c-1.8,0-5.5-0.5-6.9,1.4C3,53.2,4.7,55.9,7.5,55.9z"/>
</svg>
