<?xml version="1.0" encoding="utf-8"?>
<!-- Generator: Adobe Illustrator 22.0.0, SVG Export Plug-In . SVG Version: 6.00 Build 0)  -->
<svg version="1.1" id="layer" xmlns="http://www.w3.org/2000/svg" xmlns:xlink="http://www.w3.org/1999/xlink" x="0px" y="0px"
	 viewBox="0 0 64 64" style="enable-background:new 0 0 64 64;" xml:space="preserve">
<style type="text/css">
	.st0{fill:#2F2F2F;}
	.st1{fill:#7F7F7F;}
</style>
<path id="in" class="st0" d="M8,4h48c2.2,0,4,1.8,4,4v48c0,2.2-1.8,4-4,4H8c-2.2,0-4-1.8-4-4V8C4,5.8,5.8,4,8,4z"/>
<path id="basic_1_" class="st1" d="M56,4H8C5.8,4,4,5.8,4,8v48c0,2.2,1.8,4,4,4h48c2.2,0,4-1.8,4-4V8C60,5.8,58.2,4,56,4z
	 M48.4,10.2L10.2,48.4V10.2H48.4z M15.7,53.8l38.1-38.1v38.1H15.7z"/>
</svg>
