<?xml version="1.0" encoding="utf-8"?>
<!-- Generator: Adobe Illustrator 22.0.0, SVG Export Plug-In . SVG Version: 6.00 Build 0)  -->
<svg version="1.1" id="图层_1" xmlns="http://www.w3.org/2000/svg" xmlns:xlink="http://www.w3.org/1999/xlink" x="0px" y="0px"
    viewBox="0 0 64 64" style="enable-background:new 0 0 64 64;" xml:space="preserve">
<style type="text/css">
   .st0{fill:#FFFFFF;}
   .st1{fill:#000000;}
</style>
<g>
   <path class="st0" d="M 6.0582351,8.7289298 37.841771,1.763805 59.333496,14.902562 56.155142,48.620098 24.977007,61.125661 8.9338887,40.705183 Z" />
   <path class="st1" d="M 37.951172,1.109375 5.3964844,8.2441406 5.4453125,8.7832031 8.3378906,40.943359 24.462891,61.466797 a 0.61603411,0.61603411 0 0 0 0.0625,0.08008 0.61603411,0.61603411 0 0 0 0.0059,0.0059 l 0.248047,0.316407 0.402344,-0.16211 31.552734,-12.65625 3.210937,-34.078125 a 0.61603411,0.61603411 0 0 0 0,-0.002 l 0.03711,-0.392578 -0.310547,-0.189453 -0.01953,-0.01367 a 0.61603411,0.61603411 0 0 0 -0.01758,-0.0098 z M 37.730469,2.4179688 57.814453,14.695312 24.529297,24.189453 7.6816406,9.0625 A 0.61603411,0.61603411 0 0 0 7.6230469,9.0175781 Z M 6.7382812,9.2109375 a 0.61603411,0.61603411 0 0 0 -0.015625,0.029297 l -0.00195,-0.025391 z m 0.044922,0.6875 a 0.61603411,0.61603411 0 0 0 0.074219,0.080078 L 23.761719,25.154297 24.328125,59.302734 9.53125,40.466797 Z m 51.8515628,5.8437505 -3.058594,32.447265 -30,12.03125 -0.582031,-34.882812 z" />
</g>
</svg>
