<?xml version="1.0" encoding="utf-8"?>
<!-- Generator: Adobe Illustrator 22.0.0, SVG Export Plug-In . SVG Version: 6.00 Build 0)  -->
<svg version="1.1" id="图层_1" xmlns="http://www.w3.org/2000/svg" xmlns:xlink="http://www.w3.org/1999/xlink" x="0px" y="0px"
	 viewBox="0 0 64 64" style="enable-background:new 0 0 64 64;" xml:space="preserve">
<style type="text/css">
	.st0{fill:#BFBFBF;}
</style>
<path class="st0" d="M34.8,46h-6c-1,0-1.7-0.7-1.7-1.6v-1.7c0-4.9,3.2-9.3,8-10.9c1.4-0.5,2.7-1.3,3.8-2.4c6-7,0.5-15.4-6.7-15.6
	c-2.6-0.1-5.1,0.8-7,2.6c-1.5,1.4-2.5,3.1-2.7,5.1c-0.1,0.7-0.8,1.3-1.8,1.3h-6c-1.1,0-1.9-0.8-1.8-1.9c0.5-4.4,2.5-8.4,5.7-11.5
	c3.8-3.5,8.7-5.4,13.9-5.2c9.9,0.3,18,8.3,18.3,17.9c0.4,8.1-4.8,15.5-12.5,18.3c-1.1,0.5-1.8,1.3-1.8,2.3v1.7
	C36.7,45.3,35.7,46,34.8,46z M36.7,58.3c0,0.9-0.8,1.7-1.8,1.7h-6c-1,0-1.8-0.8-1.8-1.7v-5.8c0-0.9,0.8-1.7,1.8-1.7h6
	c1,0,1.8,0.8,1.8,1.7V58.3z"/>
</svg>
