<?xml version="1.0" encoding="utf-8"?>
<!-- Generator: Adobe Illustrator 22.0.0, SVG Export Plug-In . SVG Version: 6.00 Build 0)  -->
<svg version="1.1" id="图层_1" xmlns="http://www.w3.org/2000/svg" xmlns:xlink="http://www.w3.org/1999/xlink" x="0px" y="0px"
	 viewBox="0 0 64 64" style="enable-background:new 0 0 64 64;" xml:space="preserve">
<style type="text/css">
	.st0{fill:#606060;}
</style>
<path class="st0" d="M59.8,31.1c-1.7-3.1-4-5.9-6.8-8.1l-9.1,8.1V32c0,5.9-5.3,10.6-11.8,10.6h-1l-5.8,5.2c2.2,0.4,4.4,0.7,6.7,0.7
	c12.2,0,22.7-6.3,27.8-15.5C60.1,32.3,60.1,31.7,59.8,31.1z M56.2,12.4l-2.3-2c-0.6-0.6-1.8-0.5-2.6,0.3l-7.9,7
	c-3.6-1.3-7.4-2-11.5-2C19.8,15.7,9.3,22,4.2,31.1c-0.3,0.6-0.3,1.2,0,1.7c2.4,4.3,5.9,7.9,10.3,10.6l-6.5,5.9
	C7.4,50,7.2,51,7.8,51.6l2.3,2c0.6,0.6,1.8,0.5,2.6-0.3l43.3-38.6C56.7,14,56.9,13,56.2,12.4z M20.2,32c0-5.9,5.3-10.6,11.8-10.6
	c2.2,0,4.1,0.5,5.8,1.3l-3.2,2.9c-0.9-0.2-1.7-0.4-2.6-0.4c-4.2,0-7.5,3-7.5,6.7c0,0.8,0.2,1.5,0.4,2.3l-3.2,2.9
	C20.7,35.7,20.2,33.9,20.2,32z"/>
</svg>
