<?xml version="1.0" encoding="utf-8"?>
<!-- Generator: Adobe Illustrator 22.0.0, SVG Export Plug-In . SVG Version: 6.00 Build 0)  -->
<svg version="1.1" id="图层_1" xmlns="http://www.w3.org/2000/svg" xmlns:xlink="http://www.w3.org/1999/xlink" x="0px" y="0px"
	 viewBox="0 0 64 64" style="enable-background:new 0 0 64 64;" xml:space="preserve">
<style type="text/css">
	.st0{fill:#FFFFFF;}
</style>
<path class="st0" d="M60,32c0,3.8-0.7,7.4-2.2,10.9c-1.5,3.5-3.5,6.4-6,8.9c-2.5,2.5-5.5,4.5-8.9,6C39.4,59.3,35.8,60,32,60
	c-4.2,0-8.2-0.9-11.9-2.6c-3.8-1.8-7-4.2-9.6-7.5c-0.2-0.2-0.2-0.5-0.2-0.8c0-0.3,0.1-0.6,0.3-0.7l5-5c0.2-0.2,0.5-0.3,0.9-0.3
	c0.4,0,0.7,0.2,0.8,0.4c1.8,2.3,3.9,4.1,6.5,5.4c2.6,1.3,5.3,1.9,8.2,1.9c2.5,0,4.9-0.5,7.2-1.5s4.3-2.3,6-4c1.7-1.7,3-3.7,4-6
	c1-2.3,1.5-4.7,1.5-7.2c0-2.5-0.5-4.9-1.5-7.2s-2.3-4.3-4-6c-1.7-1.7-3.7-3-6-4s-4.7-1.5-7.2-1.5c-2.4,0-4.7,0.4-6.9,1.3
	c-2.2,0.9-4.1,2.1-5.8,3.7l5,5c0.8,0.7,0.9,1.6,0.5,2.5c-0.4,1-1.1,1.5-2.2,1.5H6.3c-0.6,0-1.2-0.2-1.6-0.7S4,25.6,4,25V8.7
	c0-1,0.5-1.7,1.5-2.2C6.4,6.1,7.2,6.3,8,7l4.7,4.7c2.6-2.5,5.6-4.4,8.9-5.7S28.4,4,32,4c3.8,0,7.4,0.7,10.9,2.2
	c3.5,1.5,6.4,3.5,8.9,6c2.5,2.5,4.5,5.5,6,8.9S60,28.2,60,32z M36.7,21.5v16.3c0,0.3-0.1,0.6-0.3,0.8c-0.2,0.2-0.5,0.3-0.8,0.3H23.8
	c-0.3,0-0.6-0.1-0.8-0.3c-0.2-0.2-0.3-0.5-0.3-0.8v-2.3c0-0.3,0.1-0.6,0.3-0.8c0.2-0.2,0.5-0.3,0.8-0.3H32V21.5
	c0-0.3,0.1-0.6,0.3-0.8c0.2-0.2,0.5-0.3,0.8-0.3h2.3c0.3,0,0.6,0.1,0.8,0.3C36.6,20.9,36.7,21.2,36.7,21.5z"/>
</svg>
