<?xml version="1.0" encoding="utf-8"?>
<!-- Generator: Adobe Illustrator 22.0.0, SVG Export Plug-In . SVG Version: 6.00 Build 0)  -->
<svg version="1.1" id="图层_1" xmlns="http://www.w3.org/2000/svg" xmlns:xlink="http://www.w3.org/1999/xlink" x="0px" y="0px"
	 viewBox="0 0 64 64" style="enable-background:new 0 0 64 64;" xml:space="preserve">
<style type="text/css">
	.st0{fill:#BFBFBF;}
</style>
<path class="st0" d="M32,4C16.5,4,4,16.5,4,32s12.5,28,28,28s28-12.5,28-28S47.5,4,32,4z M32,51.3c-10.6,0-19.3-8.6-19.3-19.3
	S21.4,12.8,32,12.8S51.3,21.4,51.3,32S42.6,51.3,32,51.3z M36.4,19.9c0,2.4-2,4.4-4.4,4.4s-4.4-2-4.4-4.4s2-4.4,4.4-4.4
	S36.4,17.5,36.4,19.9z M32.5,26.9h-1c-2.1,0-3.9,1.7-3.9,3.9v13.9c0,2.1,1.7,3.9,3.9,3.9h1c2.1,0,3.9-1.7,3.9-3.9V30.8
	C36.4,28.6,34.6,26.9,32.5,26.9z"/>
</svg>
