<?xml version="1.0" encoding="utf-8"?>
<!-- Generator: Adobe Illustrator 22.0.0, SVG Export Plug-In . SVG Version: 6.00 Build 0)  -->
<svg version="1.1" id="图层_1" xmlns="http://www.w3.org/2000/svg" xmlns:xlink="http://www.w3.org/1999/xlink" x="0px" y="0px"
	 viewBox="0 0 64 64" style="enable-background:new 0 0 64 64;" xml:space="preserve">
<style type="text/css">
	.st0{fill:#BFBFBF;}
</style>
<path class="st0" d="M32,4C16.5,4,4,16.5,4,32c0,15.5,12.5,28,28,28c15.5,0,28-12.5,28-28C60,16.5,47.5,4,32,4z M14.5,49.1L18.4,38
	l7.2,7.2C25.6,45.2,14.5,49.1,14.5,49.1z M27,43.7l-7.2-7.2l18.3-18.3l7.2,7.2C45.3,25.4,27,43.7,27,43.7z M48.7,22l-1.9,1.9
	l-7.2-7.2l1.9-1.9c1.1-1.1,2.9-1.1,4,0l3.1,3.1C49.8,19.1,49.8,20.9,48.7,22z"/>
</svg>
