<?xml version="1.0" encoding="utf-8"?>
<!-- Generator: Adobe Illustrator 22.0.0, SVG Export Plug-In . SVG Version: 6.00 Build 0)  -->
<svg version="1.1" id="basic" xmlns="http://www.w3.org/2000/svg" xmlns:xlink="http://www.w3.org/1999/xlink" x="0px" y="0px"
	 viewBox="0 0 64 64" style="enable-background:new 0 0 64 64;" xml:space="preserve">
<style type="text/css">
	.st0{fill:#BFBFBF;}
</style>
<path class="st0" d="M36,56H10c-1.1,0-2-0.9-2-2V10c0-1.1,0.9-2,2-2h34c1.1,0,2,0.9,2,2c0,1.1,0.9,2,2,2s2-0.9,2-2c0-3.3-2.7-6-6-6
	H10c-3.3,0-6,2.7-6,6v44c0,3.3,2.7,6,6,6h26c1.1,0,2-0.9,2-2S37.1,56,36,56z"/>
<path class="st0" d="M32,18c0-1.1-0.9-2-2-2H14c-1.1,0-2,0.9-2,2s0.9,2,2,2h16C31.1,20,32,19.1,32,18z M30,30c0-1.1-0.9-2-2-2H14
	c-1.1,0-2,0.9-2,2s0.9,2,2,2h14C29.1,32,30,31.1,30,30z M14,42c-1.1,0-2,0.9-2,2s0.9,2,2,2h8c1.1,0,2-0.9,2-2s-0.9-2-2-2H14z M54,39
	h-4.1c1.5-4.2,4.1-12,4.1-13c0-5.5-4.5-10-10-10s-10,4.5-10,10c0,1.3,2.5,8.7,4.1,13H34c-3.3,0-6,2.7-6,6v2c0,3.3,2.7,6,6,6h20
	c3.3,0,6-2.7,6-6v-2C60,41.7,57.3,39,54,39z M40.2,32.8C38.9,29.4,38,26.3,38,26c0-3.3,2.7-6,6-6s6,2.7,6,6c0,0.4-3.3,9.9-4.4,13
	h-3.2C41.9,37.7,41,35.3,40.2,32.8z M56,47c0,1.1-0.9,2-2,2H34c-1.1,0-2-0.9-2-2v-2c0-1.1,0.9-2,2-2h20c1.1,0,2,0.9,2,2V47z"/>
</svg>
