<?xml version="1.0" encoding="utf-8"?>
<!-- Generator: Adobe Illustrator 22.0.0, SVG Export Plug-In . SVG Version: 6.00 Build 0)  -->
<svg version="1.1" id="图层_1" xmlns="http://www.w3.org/2000/svg" xmlns:xlink="http://www.w3.org/1999/xlink" x="0px" y="0px"
	 viewBox="0 0 64 64" style="enable-background:new 0 0 64 64;" xml:space="preserve">
<style type="text/css">
	.st0{fill:#BFBFBF;}
</style>
<g>
	<path class="st0" d="M56,4H8C5.8,4,4,5.8,4,8v8c0,2.2,1.8,4,4,4h48c2.2,0,4-1.8,4-4V8C60,5.8,58.2,4,56,4z"/>
	<path class="st0" d="M56,24H28c-2.2,0-4,1.8-4,4v8c0,2.2,1.8,4,4,4h28c2.2,0,4-1.8,4-4v-8C60,25.8,58.2,24,56,24z"/>
	<path class="st0" d="M16,24H8c-2.2,0-4,1.8-4,4v8c0,2.2,1.8,4,4,4h8c2.2,0,4-1.8,4-4v-8C20,25.8,18.2,24,16,24z"/>
	<path class="st0" d="M56,44H28c-2.2,0-4,1.8-4,4v8c0,2.2,1.8,4,4,4h28c2.2,0,4-1.8,4-4v-8C60,45.8,58.2,44,56,44z"/>
	<path class="st0" d="M16,44H8c-2.2,0-4,1.8-4,4v8c0,2.2,1.8,4,4,4h8c2.2,0,4-1.8,4-4v-8C20,45.8,18.2,44,16,44z"/>
</g>
</svg>
