<?xml version="1.0" encoding="utf-8"?>
<!-- Generator: Adobe Illustrator 22.0.0, SVG Export Plug-In . SVG Version: 6.00 Build 0)  -->
<svg version="1.1" id="图层_1" xmlns="http://www.w3.org/2000/svg" xmlns:xlink="http://www.w3.org/1999/xlink" x="0px" y="0px"
	 viewBox="0 0 64 64" style="enable-background:new 0 0 64 64;" xml:space="preserve">
<style type="text/css">
	.st0{fill:#FFFFFF;}
</style>
<path class="st0" d="M27.6,4h8.8C37.8,4,39,5.2,39,6.6V25h9.6c1.9,0,2.9,2.4,1.5,3.7L33.5,45.4c-0.8,0.8-2.2,0.8-3,0L13.9,28.7
	c-1.4-1.4-0.4-3.7,1.5-3.7H25V6.6C25,5.2,26.2,4,27.6,4z M60,45.1v12.3c0,1.5-1.2,2.6-2.6,2.6H6.6C5.2,60,4,58.8,4,57.4V45.1
	c0-1.5,1.2-2.6,2.6-2.6h16l5.4,5.4c2.2,2.2,5.7,2.2,7.9,0l5.4-5.4h16C58.8,42.5,60,43.7,60,45.1z M46.4,54.8c0-1.2-1-2.2-2.2-2.2
	s-2.2,1-2.2,2.2s1,2.2,2.2,2.2S46.4,56,46.4,54.8z M53.4,54.8c0-1.2-1-2.2-2.2-2.2s-2.2,1-2.2,2.2s1,2.2,2.2,2.2S53.4,56,53.4,54.8z
	"/>
</svg>
