<?xml version="1.0" encoding="utf-8"?>
<!-- Generator: Adobe Illustrator 22.0.0, SVG Export Plug-In . SVG Version: 6.00 Build 0)  -->
<svg version="1.1" id="basic" xmlns="http://www.w3.org/2000/svg" xmlns:xlink="http://www.w3.org/1999/xlink" x="0px" y="0px"
	 viewBox="0 0 64 64" style="enable-background:new 0 0 64 64;" xml:space="preserve">
<style type="text/css">
	.st0{fill:#FFFFFF;}
</style>
<path class="st0" d="M48.9,24h-0.2v-4c0-8.9-7.4-16-16.6-16s-16.6,7.2-16.6,16v4h-0.1C10.7,24,7,27.6,7,32v20c0,4.4,3.8,8,8.2,8
	h33.6c4.6,0,8.2-3.6,8.2-8V31.9C57.2,27.5,53.4,24,48.9,24z M23.6,19.9c0-4.4,3.8-8,8.3-8s8.3,3.6,8.3,8v4H23.6V19.9z M48.9,52
	c0,0.1-0.1,0.2-0.2,0.2H15.5c-0.1,0-0.2-0.1-0.2-0.2V32.2c0-0.1,0.1-0.2,0.2-0.2h33.2c0.1,0,0.2,0.1,0.2,0.2V52L48.9,52z"/>
</svg>
