<?xml version="1.0" encoding="utf-8"?>
<!-- Generator: Adobe Illustrator 29.1.0, SVG Export Plug-In . SVG Version: 9.03 Build 55587)  -->
<svg version="1.0" id="Layer_1" opacity="0.5" xmlns="http://www.w3.org/2000/svg" xmlns:xlink="http://www.w3.org/1999/xlink"
	 x="0px" y="0px" viewBox="0 0 64 64" style="enable-background:new 0 0 64 64;" xml:space="preserve">
<style type="text/css">
	.st0{fill:#007FFF;}
</style>
<path class="st0" d="M51.8,28.6V21c0-9.4-8.9-17-19.8-17s-19.8,7.6-19.8,17v7.7H8V60h48V28.6H51.8z M19.7,21
	c0-5.8,5.5-10.6,12.3-10.6S44.3,15.1,44.3,21v7.7H19.7V21L19.7,21z M35.4,51.4h-6.8l1-8.6c-1.3-0.7-2.1-1.9-2.1-3.2
	c0-2.1,2-3.8,4.5-3.8s4.5,1.7,4.5,3.8c0,1.4-0.8,2.6-2.1,3.2L35.4,51.4z"/>
</svg>
