<?xml version="1.0" encoding="utf-8"?>
<!-- Generator: Adobe Illustrator 22.0.0, SVG Export Plug-In . SVG Version: 6.00 Build 0)  -->
<svg version="1.1" id="图层_1" xmlns="http://www.w3.org/2000/svg" xmlns:xlink="http://www.w3.org/1999/xlink" x="0px" y="0px"
	 viewBox="0 0 64 64" style="enable-background:new 0 0 64 64;" xml:space="preserve">
<style type="text/css">
	.st0{fill:#BFBFBF;}
</style>
<path class="st0" d="M56.2,8.3h-48c-2.2,0-4,1.8-4,4V44c0,2.2,1.8,4,4,4H24l8,8l8-8h16.2c2.2,0,4-1.8,4-4V12.3
	C60.2,10,58.4,8.3,56.2,8.3z M50,40H14c-1.1,0-2-0.9-2-2s0.9-2,2-2h36c1.1,0,2,0.9,2,2S51.1,40,50,40z M50,30H14c-1.1,0-2-0.9-2-2
	s0.9-2,2-2h36c1.1,0,2,0.9,2,2S51.1,30,50,30z M50,20H14c-1.1,0-2-0.9-2-2s0.9-2,2-2h36c1.1,0,2,0.9,2,2S51.1,20,50,20z"/>
</svg>
