<?xml version="1.0" encoding="utf-8"?>
<!-- Generator: Adobe Illustrator 22.0.0, SVG Export Plug-In . SVG Version: 6.00 Build 0)  -->
<svg version="1.1" id="layer0" xmlns="http://www.w3.org/2000/svg" xmlns:xlink="http://www.w3.org/1999/xlink" x="0px" y="0px"
	 viewBox="0 0 64 64" style="enable-background:new 0 0 64 64;" xml:space="preserve">
<style type="text/css">
	.st0{fill:#427FFF;}
</style>
<path class="st0" d="m 19.986288,19.232139 -3.81148,16.366068 h 7.650384 z M 15.050556,12 h 9.898888 L 36,51.991057 H 27.910884 L 25.388176,42.107133 H 14.556984 l -2.467868,9.883924 H 4 Z M 60,35.795651 V 51.991057 H 52.93934 V 48.264268 C 52.082028,49.461 50.9821,50.382794 49.639516,51.029678 48.296932,51.67656 46.816876,52 45.199308,52 c -3.08956,0 -5.49566,-0.816678 -7.218372,-2.45006 -1.722712,-1.633379 -2.584056,-3.913609 -2.584056,-6.840759 0,-3.169727 1.027144,-5.510604 3.081456,-7.022694 2.054316,-1.512089 5.232792,-2.268119 9.535528,-2.268119 h 4.925476 v -1.188644 c 0,-1.148218 -0.416516,-2.017456 -1.249564,-2.607736 -0.833048,-0.590281 -2.05834,-0.885418 -3.675912,-0.885418 -1.698448,0 -3.3443,0.214272 -4.937608,0.642836 -1.593308,0.42856 -3.255336,1.111823 -4.986136,2.049801 v -6.0645 c 1.569044,-0.646883 3.162328,-1.123952 4.779896,-1.431223 1.617572,-0.307252 3.332172,-0.460902 5.143848,-0.460902 4.415968,0 7.517612,0.897535 9.305028,2.692639 C 59.106304,27.960324 60,31.170434 60,35.795651 Z m -9.89948,2.741155 c -2.652816,0 -4.504904,0.339605 -5.556328,1.018836 -1.05142,0.679229 -1.57712,1.8436 -1.57712,3.493152 0,1.229077 0.36396,2.207474 1.091852,2.935218 0.727908,0.727747 1.714612,1.091613 2.96014,1.091613 1.87638,0 3.332172,-0.707518 4.36742,-2.122578 1.035244,-1.415055 1.552856,-3.392065 1.552856,-5.931081 v -0.48516 z"/>
</svg>
