<?xml version="1.0" encoding="utf-8"?>
<!-- Generator: Adobe Illustrator 29.1.0, SVG Export Plug-In . SVG Version: 9.03 Build 55587)  -->
<svg version="1.0" id="图层_1" xmlns="http://www.w3.org/2000/svg" xmlns:xlink="http://www.w3.org/1999/xlink" x="0px" y="0px"
	 viewBox="0 0 32 64" style="enable-background:new 0 0 32 64;" xml:space="preserve">
<style type="text/css">
	.st0{fill:#BFBFBF;}
</style>
<path class="st0" d="M9.2,53.3c0-3.7,3-6.8,6.7-6.8s6.8,3,6.8,6.7S19.7,60,16,60l0,0C12.3,60,9.3,57,9.2,53.3L9.2,53.3z M9.2,32
	c0-3.7,3-6.8,6.7-6.8s6.8,3,6.8,6.7s-3,6.8-6.7,6.8l0,0C12.3,38.7,9.3,35.7,9.2,32z M9.2,10.7C9.2,7,12.3,4,16,4s6.8,3,6.8,6.7
	s-3,6.8-6.7,6.8l0,0C12.3,17.5,9.3,14.5,9.2,10.7L9.2,10.7z"/>
</svg>
