<?xml version="1.0" encoding="utf-8"?>
<!-- Generator: Adobe Illustrator 22.0.0, SVG Export Plug-In . SVG Version: 6.00 Build 0)  -->
<svg version="1.1" id="图层_1" xmlns="http://www.w3.org/2000/svg" xmlns:xlink="http://www.w3.org/1999/xlink" x="0px" y="0px"
	 viewBox="0 0 64 64" style="enable-background:new 0 0 64 64;" xml:space="preserve">
<style type="text/css">
	.st0{fill:#FF003F;}
	.st1{fill:#FFFF3F;}
	.st2{fill:#3FFF7F;}
</style>
<path class="st0" d="M9.9,0C15.4,0,20,4.4,20,9.9S15.6,20,10.1,20S0,15.6,0,10.1l0,0C0,4.6,4.4,0.1,9.9,0L9.9,0z"/>
<path class="st1" d="M31.9,0C37.4,0,42,4.4,42,9.9S37.6,20,32.1,20S22,15.6,22,10.1l0,0C22,4.6,26.4,0.1,31.9,0z"/>
<path class="st2" d="M54.1,0C59.6,0,64,4.6,64,10s-4.4,10-9.9,10S44,15.6,44,10.1l0,0C44,4.6,48.4,0.1,54.1,0L54.1,0z"/>
</svg>
