<?xml version="1.0" encoding="utf-8"?>
<!-- Generator: Adobe Illustrator 24.0.1, SVG Export Plug-In . SVG Version: 6.00 Build 0)  -->
<svg version="1.1" id="图层_1" xmlns="http://www.w3.org/2000/svg" xmlns:xlink="http://www.w3.org/1999/xlink" x="0px" y="0px"
	 viewBox="0 0 64 32" style="enable-background:new 0 0 64 32;" xml:space="preserve">
<style type="text/css">
	.st0{fill:#FF003F;}
	.st1{fill:#FFFF3F;}
	.st2{fill:#3FFF7F;}
</style>
<path class="st0" d="M9.9,6C15.4,6,20,10.4,20,15.9S15.6,26,10.1,26S0,21.6,0,16.1l0,0C0,10.6,4.4,6.1,9.9,6L9.9,6z"/>
<path class="st1" d="M31.9,6C37.4,6,42,10.4,42,15.9S37.6,26,32.1,26S22,21.6,22,16.1l0,0C22,10.6,26.4,6.1,31.9,6z"/>
<path class="st2" d="M54.1,6c5.5,0,9.9,4.6,9.9,10s-4.4,10-9.9,10S44,21.6,44,16.1l0,0C44,10.6,48.4,6.1,54.1,6L54.1,6z"/>
</svg>
