<?xml version="1.0" encoding="utf-8"?>
<!-- Generator: Adobe Illustrator 24.0.1, SVG Export Plug-In . SVG Version: 6.00 Build 0)  -->
<svg version="1.1" id="图层_1" xmlns="http://www.w3.org/2000/svg" xmlns:xlink="http://www.w3.org/1999/xlink" x="0px" y="0px"
	 viewBox="0 0 32 64" style="enable-background:new 0 0 32 64;" xml:space="preserve">
<style type="text/css">
	.st0{fill:#FF003F;}
	.st1{fill:#FFFF3F;}
	.st2{fill:#3FFF7F;}
</style>
<path class="st0" d="M26,9.9c0,5.5-4.4,10.1-9.9,10.1S6,15.6,6,10.1S10.4,0,15.9,0l0,0C21.4,0,25.9,4.4,26,9.9L26,9.9z"/>
<path class="st1" d="M26,31.9c0,5.5-4.4,10.1-9.9,10.1S6,37.6,6,32.1S10.4,22,15.9,22l0,0C21.4,22,25.9,26.4,26,31.9z"/>
<path class="st2" d="M26,54.1c0,5.5-4.6,9.9-10,9.9S6,59.6,6,54.1S10.4,44,15.9,44l0,0C21.4,44,25.9,48.4,26,54.1L26,54.1z"/>
</svg>
