<?xml version="1.0" encoding="utf-8"?>
<!-- Generator: Adobe Illustrator 29.1.0, SVG Export Plug-In . SVG Version: 9.03 Build 55587)  -->
<svg version="1.0" id="图层_1" xmlns="http://www.w3.org/2000/svg" xmlns:xlink="http://www.w3.org/1999/xlink" x="0px" y="0px"
	 viewBox="0 0 64 64" style="enable-background:new 0 0 64 64;" xml:space="preserve">
<style type="text/css">
	.st0{fill-rule:evenodd;clip-rule:evenodd;fill:#BFBFBF;}
</style>
<path class="st0" d="M22,8.6V4h-0.5C20,4,18.5,4.3,17,4.9c-1.5,0.6-2.8,1.4-3.9,2.5c-1.1,1-1.9,2.2-2.5,3.5v0
	c-0.5,1.2-0.8,2.5-1,3.9v0c-0.1,1.3-0.2,2.7-0.1,4c0.1,1.4,0.1,2.7,0.1,4.1c0,0.9-0.2,1.8-0.6,2.7v0c-0.7,1.6-2.1,2.9-3.8,3.7
	c-0.9,0.4-1.8,0.5-2.8,0.5H2v4.6h0.4c1,0,1.9,0.2,2.8,0.6l0,0c0.9,0.4,1.6,0.9,2.3,1.5l0,0c0.6,0.6,1.2,1.3,1.5,2.2l0,0
	c0.4,0.8,0.6,1.7,0.6,2.6c0,1.4,0,2.7-0.1,4.1c-0.1,1.4,0,2.7,0.1,4.1v0c0.2,1.3,0.5,2.6,1,3.8v0c0.5,1.3,1.4,2.4,2.5,3.5
	c1.1,1.1,2.4,1.9,3.9,2.5c1.5,0.6,3,0.9,4.5,0.9H22v-4.6h-0.5c-1,0-1.9-0.2-2.8-0.5c-0.8-0.4-1.6-0.9-2.3-1.5
	c-0.6-0.6-1.2-1.4-1.5-2.2c-0.4-0.8-0.6-1.7-0.6-2.7c0-1.1,0-2.1,0.1-3.1c0-1.1,0-2.1,0-3.1c0-1-0.1-2-0.3-3c-0.2-1-0.4-1.9-0.8-2.8
	c-0.8-1.8-2.1-3.3-3.7-4.5c1.6-1.1,2.9-2.7,3.7-4.5c0.4-0.9,0.7-1.8,0.8-2.8c0.2-1,0.3-2,0.3-3c0-1,0-2.1,0-3.1c0-1-0.1-2.1-0.1-3.2
	c0-2.7,1.7-5.2,4.4-6.3c0.9-0.4,1.8-0.6,2.8-0.6H22z M42,55.4V60h0.5c1.6,0,3.1-0.3,4.5-0.9c1.5-0.6,2.8-1.4,3.9-2.5
	c1.1-1.1,1.9-2.2,2.5-3.5v0c0.5-1.2,0.8-2.5,1-3.9v0c0.1-1.3,0.2-2.6,0.1-4c-0.1-1.4-0.1-2.7-0.1-4.1c0-0.9,0.2-1.8,0.6-2.7v0
	c0.7-1.6,2.1-2.9,3.8-3.7c0.9-0.4,1.8-0.5,2.8-0.5H62v-4.6h-0.5c-1,0-1.9-0.2-2.8-0.6l0,0c-0.9-0.3-1.6-0.9-2.3-1.5l0,0
	c-0.7-0.6-1.2-1.4-1.5-2.2l0,0c-0.4-0.8-0.6-1.7-0.6-2.6c0-1.4,0-2.7,0.1-4.1c0.1-1.4,0-2.7-0.1-4.1v0c-0.2-1.3-0.5-2.6-1-3.8v0
	c-0.6-1.3-1.4-2.5-2.5-3.5c-1.1-1.1-2.4-1.9-3.9-2.5C45.6,4.3,44,4,42.4,4H42v4.6h0.5c1,0,1.9,0.2,2.8,0.5c0.9,0.4,1.6,0.9,2.3,1.5
	c0.6,0.6,1.1,1.4,1.5,2.2c0.4,0.8,0.5,1.7,0.5,2.7c0,1.1,0,2.1-0.1,3.1c0,1.1,0,2.1,0,3.1c0,1,0.1,2,0.3,3c0.2,1,0.4,1.9,0.8,2.8
	c0.8,1.8,2.1,3.3,3.7,4.5c-1.6,1.1-2.9,2.7-3.7,4.5c-0.4,0.9-0.7,1.8-0.8,2.8c-0.2,1-0.3,2-0.3,3c0,1,0,2.1,0,3.1
	c0,1,0.1,2.1,0.1,3.2c0,1.8-0.7,3.5-2.1,4.8c-0.7,0.6-1.4,1.1-2.3,1.5c-0.9,0.4-1.8,0.6-2.8,0.6L42,55.4L42,55.4z"/>
</svg>
