<?xml version="1.0" encoding="utf-8"?>
<!-- Generator: Adobe Illustrator 22.0.0, SVG Export Plug-In . SVG Version: 6.00 Build 0)  -->
<svg version="1.1" id="图层_1" xmlns="http://www.w3.org/2000/svg" xmlns:xlink="http://www.w3.org/1999/xlink" x="0px" y="0px"
	 viewBox="0 0 64 64" style="enable-background:new 0 0 64 64;" xml:space="preserve">
<style type="text/css">
	.st0{fill:#FFFFFF;}
</style>
<path class="st0" d="M59.7,6.2c-0.4-0.9-1.1-1.6-1.9-1.9C57.4,4.1,56.9,4,56.4,4h-21c-1.9,0-3.7,1.5-3.8,3.4c-0.1,2,1.5,3.7,3.5,3.7
	h12.8L29.1,29.9c-1.4,1.4-1.4,3.6,0,5l0,0c1.4,1.4,3.6,1.4,5,0l0,0l18.8-18.8v12.8c0,2,1.6,3.6,3.6,3.5c2,0,3.5-1.6,3.6-3.5V7.6
	C60,7.1,59.9,6.6,59.7,6.2z"/>
<path class="st0" d="M12,52V20h7.9c2.3,0,4.1-1.8,4.1-4.1c0-2.4-1.6-3.9-4-3.9H8.6C6.1,12,4,14.1,4,16.6v38.9C4,57.9,6.1,60,8.6,60
	h38.9c2.5,0,4.6-2.1,4.6-4.6V40.1c0-2.3-1.8-4.1-4.1-4.1c-2.4,0-3.9,1.6-3.9,4v12H12"/>
</svg>
