<?xml version="1.0" encoding="utf-8"?>
<!-- Generator: Adobe Illustrator 29.1.0, SVG Export Plug-In . SVG Version: 9.03 Build 55587)  -->
<svg version="1.0" id="图层_1" xmlns="http://www.w3.org/2000/svg" xmlns:xlink="http://www.w3.org/1999/xlink" x="0px" y="0px"
	 viewBox="0 0 64 64" style="enable-background:new 0 0 64 64;" xml:space="preserve">
<style type="text/css">
	.st0{fill:#BFBFBF;}
</style>
<path class="st0" d="M54.5,35.2c0-0.9,0.3-1.8,0.3-3c0-1.2,0-2.1-0.3-3l6.4-5.1c0.6-0.6,0.6-1.2,0.3-1.8l-6.1-10.6
	c-0.3-0.3-0.9-0.6-1.8-0.3l-7.7,3c-1.5-1.2-3.4-2.1-5.2-3l-1.2-7.8C39.5,2.6,38.5,2,37.9,2H25.7c-0.6,0-1.5,0.6-1.5,1.2l-1.2,8.1
	c-1.8,0.6-3.4,1.8-5.2,3l-7.3-3c-0.9-0.3-1.5,0-2.1,0.6L2.1,22.5c-0.3,0.3,0,1.2,0.6,1.8l6.4,4.8c0,0.9-0.3,1.8-0.3,3
	c0,1.2,0,2.1,0.3,3l-6.4,5.1c-0.6,0.6-0.6,1.2-0.3,1.8l6.1,10.6c0.3,0.3,0.9,0.6,1.8,0.3l7.7-3c1.5,1.2,3.4,2.1,5.2,3l1.2,7.8
	c0,0.6,0.6,1.2,1.5,1.2h12.2c0.6,0,1.5-0.6,1.5-1.2L41,53c1.8-0.9,3.7-1.8,5.2-3l7.7,3c0.6,0.3,1.5,0,1.8-0.6l6.1-10.6
	c0.3-0.6,0.3-1.5-0.3-1.8L54.5,35.2z M31.8,42.7c-5.8,0-10.7-4.8-10.7-10.6S26,21.6,31.8,21.6s10.7,4.8,10.7,10.6
	S37.6,42.7,31.8,42.7z"/>
</svg>
