<?xml version="1.0" encoding="utf-8"?>
<!-- Generator: Adobe Illustrator 22.0.0, SVG Export Plug-In . SVG Version: 6.00 Build 0)  -->
<svg version="1.1" id="图层_1" xmlns="http://www.w3.org/2000/svg" xmlns:xlink="http://www.w3.org/1999/xlink" x="0px" y="0px"
	 viewBox="0 0 64 64" style="enable-background:new 0 0 64 64;" xml:space="preserve">
<style type="text/css">
	.st0{fill:#BFBFBF;}
</style>
<path class="st0" d="M32,60C16.5,60,4,47.5,4,32S16.5,4,32,4s28,12.5,28,28S47.5,60,32,60z M32,8.1C18.8,8.1,8.1,18.8,8.1,32
	S18.8,55.9,32,55.9S55.9,45.2,55.9,32S45.2,8.1,32,8.1z M39.6,34.1c1.9-1.2,1.9-3.1,0-4.3L28.1,23c-2-1.2-3.5-0.2-3.5,2v14
	c0,2.2,1.6,3.1,3.5,2L39.6,34.1z"/>
</svg>
