<?xml version="1.0" encoding="utf-8"?>
<!-- Generator: Adobe Illustrator 28.2.0, SVG Export Plug-In . SVG Version: 6.00 Build 0)  -->
<svg version="1.1" id="图层_1" opacity="0.5" xmlns="http://www.w3.org/2000/svg" xmlns:xlink="http://www.w3.org/1999/xlink"
	 x="0px" y="0px" viewBox="0 0 64 64" style="enable-background:new 0 0 64 64;" xml:space="preserve">
<style type="text/css">
	.st0{fill:#FFFFFF;}
</style>
<path class="st0" d="M32,4C16.5,4,4,16.5,4,32s12.5,28,28,28s28-12.5,28-28S47.5,4,32,4z M32,55.9C18.8,55.9,8.1,45.2,8.1,32
	S18.8,8.1,32,8.1S55.9,18.8,55.9,32S45.2,55.9,32,55.9z"/>
<path class="st0" d="M45.7,36c3.6-2.3,3.6-5.9,0-8.2L23.9,14.9c-3.8-2.3-6.6-0.4-6.6,3.8v26.6c0,4.2,3,5.9,6.6,3.8L45.7,36z"/>
</svg>
