<?xml version="1.0" encoding="utf-8"?>
<!-- Generator: Adobe Illustrator 22.0.0, SVG Export Plug-In . SVG Version: 6.00 Build 0)  -->
<svg version="1.1" id="图层_1" xmlns="http://www.w3.org/2000/svg" xmlns:xlink="http://www.w3.org/1999/xlink" x="0px" y="0px"
	 viewBox="0 0 64 64" style="enable-background:new 0 0 64 64;" xml:space="preserve">
<style type="text/css">
	.st0{fill:#FFFFFF;}
</style>
<g>
	<path class="st0" d="M4,56c0,2.2,1.8,4,4,4h48c2.2,0,4-1.8,4-4V24H4V56z"/>
	<path class="st0" d="M56,4H8C5.8,4,4,5.8,4,8v12h56V8C60,5.8,58.2,4,56,4z M16,16H8v-6c0-1.1,0.9-2,2-2h6V16z M55.5,16H20V8h33.5
		c1.1,0,2,0.9,2,2V16z"/>
</g>
</svg>
