<?xml version="1.0" encoding="UTF-8" standalone="no"?>
<svg
   xmlns:dc="http://purl.org/dc/elements/1.1/"
   xmlns:cc="http://creativecommons.org/ns#"
   xmlns:rdf="http://www.w3.org/1999/02/22-rdf-syntax-ns#"
   xmlns:svg="http://www.w3.org/2000/svg"
   xmlns="http://www.w3.org/2000/svg"
   xmlns:sodipodi="http://sodipodi.sourceforge.net/DTD/sodipodi-0.dtd"
   xmlns:inkscape="http://www.inkscape.org/namespaces/inkscape"
   inkscape:version="1.0 (4035a4f, 2020-05-01)"
   sodipodi:docname="python.svg"
   xml:space="preserve"
   style="enable-background:new 0 0 64 64;"
   viewBox="0 0 64 64"
   y="0px"
   x="0px"
   id="layer"
   version="1.1"><metadata
   id="metadata222"><rdf:RDF><cc:Work
       rdf:about=""><dc:format>image/svg+xml</dc:format><dc:type
         rdf:resource="http://purl.org/dc/dcmitype/StillImage" /></cc:Work></rdf:RDF></metadata><defs
   id="defs220" /><sodipodi:namedview
   inkscape:current-layer="g215"
   inkscape:window-maximized="1"
   inkscape:window-y="28"
   inkscape:window-x="1920"
   inkscape:cy="46.52006"
   inkscape:cx="73.348104"
   inkscape:zoom="5.7421875"
   showgrid="false"
   id="namedview218"
   inkscape:window-height="1101"
   inkscape:window-width="1920"
   inkscape:pageshadow="2"
   inkscape:pageopacity="0"
   guidetolerance="10"
   gridtolerance="10"
   objecttolerance="10"
   borderopacity="1"
   bordercolor="#666666"
   pagecolor="#ffffff" />
<style
   id="style209"
   type="text/css">
	.st0{fill:#FFFFFF;}
</style>
<g
   id="g215">
	<path
   style="fill:#ffdf3f;fill-opacity:1"
   id="path211"
   d="m 56,18 h -6 v 12 c 0,2.2 -1.8,4 -4,4 H 20 c -1.1,0 -2,0.9 -2,2 v 10 10 c 0,2.2 1.8,4 4,4 h 20 c 2.2,0 4,-1.8 4,-4 V 50 H 34 c -1.1,0 -2,-0.9 -2,-2 v -2 h 14 10 c 2.2,0 4,-1.8 4,-4 V 22 c 0,-2.2 -1.8,-4 -4,-4 z M 41,53 c 1.1,0 2,0.9 2,2 0,1.1 -0.9,2 -2,2 -1.1,0 -2,-0.9 -2,-2 0,-1.1 0.9,-2 2,-2 z"
   class="st0" />
	<path
   style="fill:#3f7fdf;fill-opacity:1"
   id="path213"
   d="m 18,30 h 26 c 1.1,0 2,-0.9 2,-2 V 18 8 C 46,5.8 44.2,4 42,4 H 22 c -2.2,0 -4,1.8 -4,4 v 6 h 12 c 1.1,0 2,0.9 2,2 v 2 H 18 8 c -2.2,0 -4,1.8 -4,4 v 20 c 0,2.2 1.8,4 4,4 h 6 V 34 c 0,-2.2 1.8,-4 4,-4 z m 5,-19 c -1.1,0 -2,-0.9 -2,-2 0,-1.1 0.9,-2 2,-2 1.1,0 2,0.9 2,2 0,1.1 -0.9,2 -2,2 z"
   class="st0" />
</g>
</svg>
