<?xml version="1.0" encoding="utf-8"?>
<!-- Generator: Adobe Illustrator 22.0.0, SVG Export Plug-In . SVG Version: 6.00 Build 0)  -->
<svg version="1.1" id="图层_1" xmlns="http://www.w3.org/2000/svg" xmlns:xlink="http://www.w3.org/1999/xlink" x="0px" y="0px"
	 viewBox="0 0 64 64" style="enable-background:new 0 0 64 64;" xml:space="preserve">
<style type="text/css">
	.st0{fill:#7F7F7F;}
</style>
<path class="st0" d="M32,8C18.7,8,8,18.7,8,32s10.7,24,24,24s24-10.7,24-24S45.3,8,32,8z M32,13.1c4.4,0,8.4,1.5,11.7,4L17.2,43.7
	c-2.5-3.3-4-7.3-4-11.7C13.1,21.6,21.6,13.1,32,13.1z M32,50.9c-4.1,0-8-1.4-11.1-3.7l26.3-26.3c2.3,3.1,3.7,6.9,3.7,11.1
	C50.9,42.4,42.4,50.9,32,50.9z"/>
</svg>
