<?xml version="1.0" encoding="utf-8"?>
<!-- Generator: Adobe Illustrator 28.2.0, SVG Export Plug-In . SVG Version: 6.00 Build 0)  -->
<svg version="1.1" id="Layer_1" xmlns="http://www.w3.org/2000/svg" xmlns:xlink="http://www.w3.org/1999/xlink" x="0px" y="0px"
	 viewBox="0 0 64 64" style="enable-background:new 0 0 64 64;" xml:space="preserve">
<style type="text/css">
	.st0{fill:#7F7F7F;}
	.st1{fill:#BFBFBF;}
</style>
<path class="st0" d="M60,14.8V9.6c0-2.3-2.8-3.4-4.3-1.8l-5.6,5.7c-4.3-3.1-9.7-5-15.5-5c-9.7,0-18.3,5.2-22.7,11.5
	c-1,1.8,0.3,4.2,2.3,4.2c0.8,0,1.5-0.5,2-1.3c3.3-4.4,9.2-6.5,15.8-6.5c4.6,0,8.9,1,12.2,3.1L38.9,25c-1.5,1.6-0.5,4.4,1.8,4.4h16.8
	c1.5,0,2.5-1,2.5-2.6V14.8L60,14.8z"/>
<path class="st1" d="M51.6,39.8c-1,0-1.8,0.5-2.3,1.3c-3.1,4.4-8.9,6.5-15.5,6.5c-5.1,0-9.9-1.3-13-3.9l4.6-4.7
	c1.3-1.6,0.3-4.4-2-4.4H6.5c-1.5,0-2.5,1-2.5,2.6v17.2c0,2.3,2.8,3.4,4.3,1.8l6.1-6.3c4.3,3.4,10.2,5.5,16.5,5.5
	c9.9,0,18.3-5.2,22.7-11.7C54.9,42.2,53.6,39.8,51.6,39.8L51.6,39.8z"/>
</svg>
