<?xml version="1.0" encoding="utf-8"?>
<!-- Generator: Adobe Illustrator 28.2.0, SVG Export Plug-In . SVG Version: 6.00 Build 0)  -->
<svg version="1.1" id="Layer_1" xmlns="http://www.w3.org/2000/svg" xmlns:xlink="http://www.w3.org/1999/xlink" x="0px" y="0px"
	 viewBox="0 0 64 64" style="enable-background:new 0 0 64 64;" xml:space="preserve">
<style type="text/css">
	.st0{fill:#FF0000;}
	.st1{fill:#202020;}
</style>
<g>
	<path class="st0" d="M6.6,58C4.8,58,3,56.6,3,54.4V37.2c0-2.1,1.4-3.6,3.5-3.6h16.9c1.4,0,2.6,0.8,3.2,2c0.6,1.3,0.5,2.9-0.4,4
		l-3.9,4c2.8,1.9,6.9,3,11.5,3c6.7,0,11.9-2.2,14.7-6.1c0.7-1.1,1.8-1.7,3.1-1.7c1.4,0,2.6,0.8,3.2,2.1c0.5,1.2,0.4,2.5-0.4,3.4
		c-5.1,7.5-14.1,12.1-23.5,12.1c-6,0-11.9-1.9-16.4-5.2L9,56.9C8.4,57.6,7.5,58,6.6,58z M40.7,30.4c-1.4,0-2.6-0.8-3.2-2.1
		c-0.6-1.4-0.3-2.9,0.7-4l4.4-4.6c-2.9-1.5-6.5-2.3-10.6-2.3c-6.7,0-12,2.2-15,6.1c-0.7,1.1-1.7,1.7-2.8,1.7c-1.3,0-2.4-0.7-3.1-1.8
		c-0.7-1.2-0.7-2.7-0.1-3.9c0,0,0-0.1,0.1-0.1c5.1-7.2,14.3-11.9,23.5-11.9c5.4,0,10.9,1.7,15.4,4.7l5-5.1C55.6,6.4,56.5,6,57.4,6
		C59.2,6,61,7.4,61,9.6v17.2c0,2.1-1.4,3.6-3.5,3.6H40.7z"/>
	<path class="st1" d="M57.4,7C58.7,7,60,8,60,9.6v5.2v12c0,1.6-1,2.6-2.5,2.6H40.7c-2.3,0-3.3-2.8-1.8-4.4l5.3-5.5
		c-3.3-2.1-7.6-3.1-12.2-3.1c-6.6,0-12.5,2.1-15.8,6.5c-0.5,0.8-1.2,1.3-2,1.3c-2,0-3.3-2.4-2.3-4.2c4.4-6.3,13-11.5,22.7-11.5
		c5.8,0,11.2,1.9,15.5,5l5.6-5.7C56.2,7.3,56.8,7,57.4,7 M23.4,34.6c2.3,0,3.3,2.8,2,4.4l-4.6,4.7c3.1,2.6,7.9,3.9,13,3.9
		c6.6,0,12.4-2.1,15.5-6.5c0.5-0.8,1.3-1.3,2.3-1.3c2,0,3.3,2.4,2,3.9c-4.4,6.5-12.8,11.7-22.7,11.7c-6.3,0-12.2-2.1-16.5-5.5
		l-6.1,6.3C7.8,56.7,7.2,57,6.6,57C5.3,57,4,56,4,54.4V37.2c0-1.6,1-2.6,2.5-2.6H23.4 M57.4,5c-1.2,0-2.4,0.5-3.2,1.4l-4.4,4.5
		C45.3,8.1,40,6.5,34.6,6.5c-9.5,0-19.1,4.8-24.3,12.4c0,0.1-0.1,0.1-0.1,0.2c-0.8,1.5-0.8,3.3,0.1,4.8c0.9,1.5,2.3,2.3,4,2.3
		c1.4,0,2.8-0.8,3.6-2.2c2.8-3.6,7.8-5.6,14.2-5.6c3.4,0,6.4,0.6,8.9,1.6l-3.5,3.6c-1.3,1.4-1.6,3.4-0.9,5.1
		c0.7,1.7,2.3,2.7,4.1,2.7h16.8c2.6,0,4.5-1.9,4.5-4.6v-12V9.6C62,7.1,60,5,57.4,5L57.4,5z M23.4,32.6H6.5c-2.6,0-4.5,1.9-4.5,4.6
		v17.2C2,56.9,4,59,6.6,59c1.2,0,2.4-0.5,3.2-1.4l4.9-5c4.6,3.1,10.4,4.9,16.3,4.9c9.7,0,19-4.8,24.3-12.5c1-1.2,1.2-2.9,0.5-4.4
		c-0.7-1.6-2.4-2.7-4.1-2.7c-1.6,0-3.1,0.8-4,2.2c-2.6,3.6-7.5,5.6-13.8,5.6c-3.8,0-7.3-0.8-9.9-2.2l2.9-3c0,0,0.1-0.1,0.1-0.1
		c1.1-1.4,1.3-3.4,0.5-5.1C26.7,33.6,25.2,32.6,23.4,32.6L23.4,32.6z"/>
</g>
</svg>
