<?xml version="1.0" encoding="utf-8"?>
<!-- Generator: Adobe Illustrator 22.0.0, SVG Export Plug-In . SVG Version: 6.00 Build 0)  -->
<svg version="1.1" id="图层_1" xmlns="http://www.w3.org/2000/svg" xmlns:xlink="http://www.w3.org/1999/xlink" x="0px" y="0px"
	 viewBox="0 0 64 64" style="enable-background:new 0 0 64 64;" xml:space="preserve">
<style type="text/css">
	.st0{fill:#FFFFFF;}
</style>
<g>
	<path class="st0" d="M16,60h32V4H16V60z M24,20l16,12L24,44V20z"/>
	<path class="st0" d="M4,6v52c0,1.1,0.9,2,2,2h6V4H6C4.9,4,4,4.9,4,6z M10,58H6v-4h4V58z M10,50H6v-4h4V50z M10,42H6v-4h4V42z
		 M10,34H6v-4h4V34z M10,26H6v-4h4V26z M10,18H6v-4h4V18z M10,10H6V6h4V10z"/>
	<path class="st0" d="M58,4h-6v56h6c1.1,0,2-0.9,2-2V6C60,4.9,59.1,4,58,4z M58,58h-4v-4h4V58z M58,50h-4v-4h4V50z M58,42h-4v-4h4
		V42z M58,34h-4v-4h4V34z M58,26h-4v-4h4V26z M58,18h-4v-4h4V18z M58,10h-4V6h4V10z"/>
</g>
</svg>
