<?xml version="1.0" encoding="utf-8"?>
<!-- Generator: Adobe Illustrator 22.0.0, SVG Export Plug-In . SVG Version: 6.00 Build 0)  -->
<svg version="1.1" id="basic" xmlns="http://www.w3.org/2000/svg" xmlns:xlink="http://www.w3.org/1999/xlink" x="0px" y="0px"
	 viewBox="0 0 64 64" style="enable-background:new 0 0 64 64;" xml:space="preserve">
<style type="text/css">
	.st0{fill:#FFFFFF;}
</style>
<path class="st0" d="M10,32c0-12.1,9.9-22,22-22s22,9.9,22,22s-9.9,22-22,22S10,44.1,10,32z M52.7,50.8c4.5-5,7.3-11.6,7.3-18.8
	C60,16.6,47.4,4,32,4S4,16.6,4,32s12.6,28,28,28c6.4,0,12.3-2.2,17.1-5.9l5.1,5.2c0.5,0.5,1.1,0.7,1.7,0.7c0.6,0,1.3-0.2,1.7-0.7
	c1-1,1-2.5,0-3.5C57.7,55.8,52.7,50.8,52.7,50.8z"/>
</svg>
