<?xml version="1.0" encoding="utf-8"?>
<!-- Generator: Adobe Illustrator 22.0.0, SVG Export Plug-In . SVG Version: 6.00 Build 0)  -->
<svg version="1.1" id="图层_1" xmlns="http://www.w3.org/2000/svg" xmlns:xlink="http://www.w3.org/1999/xlink" x="0px" y="0px"
	 viewBox="0 0 64 64" style="enable-background:new 0 0 64 64;" xml:space="preserve">
<style type="text/css">
	.st0{fill:#427FFF;}
</style>
<path class="st0" d="M32,16C19.9,16,9.3,22.5,4,32c5.3,9.5,15.9,16,28,16s22.7-6.5,28-16C54.7,22.5,44.1,16,32,16z M32,42.2
	c-6,0-10.8-4.6-10.8-10.2S26,21.8,32,21.8S42.8,26.3,42.8,32S38,42.2,32,42.2z M26.2,32c0,3,2.6,5.5,5.8,5.5c3.2,0,5.8-2.4,5.8-5.5
	s-2.6-5.5-5.8-5.5C28.8,26.5,26.2,29,26.2,32z"/>
</svg>
