<?xml version="1.0" encoding="utf-8"?>
<!-- Generator: Adobe Illustrator 28.2.0, SVG Export Plug-In . SVG Version: 6.00 Build 0)  -->
<svg version="1.1" id="Layer_1" xmlns="http://www.w3.org/2000/svg" xmlns:xlink="http://www.w3.org/1999/xlink" x="0px" y="0px"
	 viewBox="0 0 64 64" style="enable-background:new 0 0 64 64;" xml:space="preserve">
<style type="text/css">
	.st0{fill:#BFBFBF;}
	.st1{fill:#7F7F7F;}
</style>
<path class="st0" d="M42.3,39.9H24.8c-0.6,0-1.2-0.4-1.4-1l-1.6-4.6c-0.4-1.4-1.8-2.4-3.4-2.4H5.6c-2,0-3.6,1.6-3.6,3.6v22.9
	c0,2,1.6,3.6,3.6,3.6h36.8c2,0,3.6-1.6,3.6-3.6v-15C45.7,41.5,44.1,39.9,42.3,39.9z"/>
<path class="st1" d="M4.2,28.7c0,0.4,0,0.6,0.2,0.8c0.2,0.4,0.4,0.4,0.8,0.4h13.5c2.4,0,4.4,1.6,5.2,3.8l1.2,3.6
	c0.2,0.4,0.6,0.6,1,0.6h16.7c0.2,0,0.4,0,0.6-0.2c0.2-0.2,0.4-0.4,0.4-0.8v-7.6c0-2-1.6-3.6-3.6-3.6H7.4C5.8,25.9,4.4,27.1,4.2,28.7
	L4.2,28.7z"/>
<path class="st1" d="M33.4,4c2.4,0,4.4,1.6,5.2,3.8v0.4l0.6,3.2c0.4,0.2,0.8,0.6,1.2,0.6h18.1c0.2,0,0.4,0,0.6-0.2
	c0.4-0.2,0.6-0.4,0.6-0.8V5.6C59.6,3.6,58,2,56,2H33.4c-0.6,0-1,0.4-1,1S32.8,4,33.4,4z"/>
<path class="st0" d="M58.2,14h-19c-0.6,0-1.2-0.4-1.4-1l-1-4.6C36.2,7,35,6,33.4,6H19.5c-2,0-3.6,1.6-3.6,3.6v13.6
	c0,0.4,0.4,0.8,1,0.8h23.4c3,0,5.6,2.4,5.6,5.6v5.6c0,0.6,0.4,1,1,1h11.5c2,0,3.6-1.6,3.6-3.6v-15C61.6,15.6,60,14,58.2,14L58.2,14z
	"/>
</svg>
