<?xml version="1.0" encoding="utf-8"?>
<!-- Generator: Adobe Illustrator 22.0.0, SVG Export Plug-In . SVG Version: 6.00 Build 0)  -->
<svg version="1.1" id="图层_1" xmlns="http://www.w3.org/2000/svg" xmlns:xlink="http://www.w3.org/1999/xlink" x="0px" y="0px"
	 viewBox="0 0 64 64" style="enable-background:new 0 0 64 64;" xml:space="preserve">
<style type="text/css">
	.st0{fill:#7F7F7F;}
</style>
<path class="st0" d="M12.2,51.8c-10.9-10.9-10.9-28.7,0-39.6s28.7-10.9,39.6,0c10.9,10.9,10.9,28.7,0,39.6
	C40.9,62.7,23.1,62.7,12.2,51.8C12.2,51.8,12.2,51.8,12.2,51.8z M17.9,17.9c-6.7,6.7-7.8,17.2-2.5,25.2L43,15.3
	C35.1,10.1,24.6,11.1,17.9,17.9z M48.7,21L21,48.7c9.2,6.1,21.6,3.6,27.7-5.7C53.1,36.3,53.1,27.7,48.7,21z"/>
</svg>
