<?xml version="1.0" encoding="utf-8"?>
<!-- Generator: Adobe Illustrator 24.0.1, SVG Export Plug-In . SVG Version: 6.00 Build 0)  -->
<svg version="1.1" id="basic" xmlns="http://www.w3.org/2000/svg" xmlns:xlink="http://www.w3.org/1999/xlink" x="0px" y="0px"
	 viewBox="0 0 64 64" style="enable-background:new 0 0 64 64;" xml:space="preserve">
<style type="text/css">
	.st0{fill:#7F7FFF;}
</style>
<path class="st0" d="M48.9,24h-0.2v-4c0-8.9-7.4-16-16.6-16c-9.2,0-16.6,7.2-16.6,16v4h-0.1C10.7,24,7,27.6,7,32v20
	c0,4.4,3.8,8,8.2,8h33.6c4.6,0,8.2-3.6,8.2-8V31.9C57.2,27.5,53.4,24,48.9,24z M40.2,23.9H23.6v-4c0-4.4,3.8-8,8.3-8s8.3,3.6,8.3,8
	V23.9z"/>
</svg>
