<?xml version="1.0" encoding="utf-8"?>
<!-- Generator: Adobe Illustrator 22.0.0, SVG Export Plug-In . SVG Version: 6.00 Build 0)  -->
<svg version="1.1" id="图层_1" xmlns="http://www.w3.org/2000/svg" xmlns:xlink="http://www.w3.org/1999/xlink" x="0px" y="0px"
	 viewBox="0 0 64 64" style="enable-background:new 0 0 64 64;" xml:space="preserve">
<style type="text/css">
	.st0{fill:#FFFFFF;}
</style>
<path class="st0" d="M53,24.8H38.3c-1.5,0-2.7-1.3-2.7-2.8V9.2H16.4V32c0,1.4-1.1,2.6-2.5,2.6s-2.5-1.2-2.5-2.6V6.8
	c0-1.5,1.2-2.8,2.7-2.8h25.9c0.6,0,1.2,0.2,1.7,0.7l15.4,14.6c0.5,0.5,0.8,1.2,0.8,2v36c0,1.5-1.2,2.8-2.7,2.8H35.9
	c-1.4,0-2.5-1.2-2.5-2.6c0-1.4,1.1-2.6,2.5-2.6H53V24.8z M50.1,19.6l-9.4-8.9v8.9H50.1z M30.6,45.9H8.5c-1.4,0-2.5-1.2-2.5-2.6
	c0-1.4,1.1-2.6,2.5-2.6h22.2l-8.9-9.4c-1-1-1-2.7,0-3.7c1-1,2.5-1,3.5,0l13,13.7c1,1.1,1,2.9,0,4l-13,13.7c-1,1-2.5,1-3.5,0
	c-1-1-1-2.7,0-3.7L30.6,45.9z"/>
</svg>
