<?xml version="1.0" encoding="utf-8"?>
<!-- Generator: Adobe Illustrator 22.0.0, SVG Export Plug-In . SVG Version: 6.00 Build 0)  -->
<svg version="1.1" id="图层_1" xmlns="http://www.w3.org/2000/svg" xmlns:xlink="http://www.w3.org/1999/xlink" x="0px" y="0px"
	 viewBox="0 0 64 64" style="enable-background:new 0 0 64 64;" xml:space="preserve">
<style type="text/css">
	.st0{fill:#FFFFFF;}
</style>
<path class="st0" d="M59.8,51.6L50.2,26c-0.6-1.6-2.3-2.4-3.7-1.8c-0.9,0.2-1.7,0.9-2,1.9l-9.6,25.5c-0.6,1.6,0.1,3.5,1.6,4.1
	c1.5,0.7,3.2-0.1,3.8-1.7l1.5-4h11.1l1.5,4c0.6,1.6,2.3,2.4,3.8,1.7C59.7,55.1,60.4,53.3,59.8,51.6z M44.2,43.6l3.2-8.4l3.2,8.4
	H44.2z"/>
<rect x="4" y="8" class="st0" width="56" height="9.5"/>
<rect x="4" y="27.2" class="st0" width="30" height="9.5"/>
<rect x="4.3" y="46.2" class="st0" width="12.7" height="9.5"/>
</svg>
