<?xml version="1.0" encoding="UTF-8" standalone="no"?>
<svg
   xmlns:dc="http://purl.org/dc/elements/1.1/"
   xmlns:cc="http://creativecommons.org/ns#"
   xmlns:rdf="http://www.w3.org/1999/02/22-rdf-syntax-ns#"
   xmlns:svg="http://www.w3.org/2000/svg"
   xmlns="http://www.w3.org/2000/svg"
   xmlns:sodipodi="http://sodipodi.sourceforge.net/DTD/sodipodi-0.dtd"
   xmlns:inkscape="http://www.inkscape.org/namespaces/inkscape"
   height="64"
   width="128"
   version="1.1"
   id="图层_1"
   x="0px"
   y="0px"
   viewBox="0 0 128 64"
   xml:space="preserve"
   sodipodi:docname="swap_h.svg"
   inkscape:version="1.0 (4035a4f, 2020-05-01)"><metadata
   id="metadata135"><rdf:RDF><cc:Work
       rdf:about=""><dc:format>image/svg+xml</dc:format><dc:type
         rdf:resource="http://purl.org/dc/dcmitype/StillImage" /><dc:title></dc:title></cc:Work></rdf:RDF></metadata><defs
   id="defs133" /><sodipodi:namedview
   inkscape:document-rotation="0"
   pagecolor="#ffffff"
   bordercolor="#666666"
   borderopacity="1"
   objecttolerance="10"
   gridtolerance="10"
   guidetolerance="10"
   inkscape:pageopacity="0"
   inkscape:pageshadow="2"
   inkscape:window-width="1920"
   inkscape:window-height="1101"
   id="namedview131"
   showgrid="false"
   inkscape:snap-page="false"
   inkscape:zoom="2.8710938"
   inkscape:cx="-53.718159"
   inkscape:cy="93.37774"
   inkscape:window-x="1920"
   inkscape:window-y="28"
   inkscape:window-maximized="1"
   inkscape:current-layer="图层_1"><inkscape:grid
     type="xygrid"
     id="grid155" /></sodipodi:namedview>
<style
   type="text/css"
   id="style124">
	.st0{fill:#FFFFFF;}
	.st1{fill:#5F5F5F;}
</style>


<path
   id="rect157"
   style="fill:#e6e6e6;stroke-width:1.41421"
   inkscape:highlight-color="4294967295"
   inkscape:label="rect157"
   d="m 120,8 c -5.33333,0 -10.66666,0 -15.99999,0 0,16 0,31.999999 0,48 5.33333,0 10.66666,0 15.99999,0 0,-16.000001 0,-32 0,-48 z M 88.000002,8 c -5.333334,0 -10.666667,0 -16.000001,0 0,16 0,31.999999 0,48 5.333334,0 10.666667,0 16.000001,0 0,-16.000001 0,-32 0,-48 z M 56.000003,8 c -5.333334,0 -10.666666,0 -16,0 0,16 0,31.999999 0,48 5.333334,0 10.666666,0 16,0 0,-16.000001 0,-32 0,-48 z M 24.00001,8 C 18.66667,8 13.33334,8 8,8 c 0,16 0,31.999999 0,48 5.33334,0 10.66667,0 16.00001,0 0,-16.000001 0,-32 0,-48 z" /></svg>
