<?xml version="1.0" encoding="utf-8"?>
<!-- Generator: Adobe Illustrator 22.0.0, SVG Export Plug-In . SVG Version: 6.00 Build 0)  -->
<svg version="1.1" id="图层_1" xmlns="http://www.w3.org/2000/svg" xmlns:xlink="http://www.w3.org/1999/xlink" x="0px" y="0px"
	 viewBox="0 0 64 64" style="enable-background:new 0 0 64 64;" xml:space="preserve">
<style type="text/css">
	.st0{fill:#BFBFBF;}
</style>
<path class="st0" d="M25.2,53.3c0-3.7,3-6.8,6.7-6.8s6.8,3,6.8,6.7S35.7,60,32,60l0,0C28.3,60,25.3,57,25.2,53.3L25.2,53.3z
	 M25.2,32c0-3.7,3-6.8,6.7-6.8s6.8,3,6.8,6.7s-3,6.8-6.7,6.8l0,0C28.3,38.7,25.3,35.7,25.2,32z M25.2,10.7C25.2,7,28.3,4,32,4
	s6.8,3,6.8,6.7s-3,6.8-6.7,6.8l0,0C28.3,17.5,25.3,14.5,25.2,10.7L25.2,10.7z"/>
</svg>
