<?xml version="1.0" encoding="utf-8"?>
<!-- Generator: Adobe Illustrator 22.0.0, SVG Export Plug-In . SVG Version: 6.00 Build 0)  -->
<svg version="1.1" id="图层_1" xmlns="http://www.w3.org/2000/svg" xmlns:xlink="http://www.w3.org/1999/xlink" x="0px" y="0px"
	 viewBox="0 0 64 64" style="enable-background:new 0 0 64 64;" xml:space="preserve">
<style type="text/css">
	.st0{fill:#FFFFFF;}
</style>
<path class="st0" d="M4,31.6V9.2C4,6.4,6.4,4,9.2,4h22.3c1.4,0,2.7,0.6,3.7,1.5l23.2,23.2c2.1,2.1,2.1,5.4,0,7.4L36.1,58.5
	c-2.1,2.1-5.4,2.1-7.4,0L5.5,35.3C4.6,34.3,4,33,4,31.6z M16.2,11c-2.9,0-5.3,2.4-5.3,5.3s2.4,5.3,5.3,5.3s5.3-2.4,5.3-5.3
	S19.1,11,16.2,11z"/>
</svg>
