<?xml version="1.0" encoding="utf-8"?>
<!-- Generator: Adobe Illustrator 22.0.0, SVG Export Plug-In . SVG Version: 6.00 Build 0)  -->
<svg version="1.1" id="basic" xmlns="http://www.w3.org/2000/svg" xmlns:xlink="http://www.w3.org/1999/xlink" x="0px" y="0px"
	 viewBox="0 0 64 64" style="enable-background:new 0 0 64 64;" xml:space="preserve">
<style type="text/css">
	.st0{fill:#FFFFFF;}
</style>
<path class="st0" d="M37.1,55l6.1-4.9l-4.6-2.6L37.1,55z M38.7,47.2l4.6,2.6l6.1-9.9L53,34l-3.5-2l-1.1-0.6L38.7,47.2z M51,28.6
	c-0.7,0.2-1.3,0.6-1.6,1.2l-0.8,1.3l4.6,2.6l0.8-1.3c0.8-1.2,0.4-2.7-0.8-3.5C52.5,28.5,51.8,28.4,51,28.6z M13.9,23.8
	c-1.4,0-2.6,1.1-2.6,2.5s1.2,2.5,2.6,2.5l0,0h24.6c1.4,0,2.6-1.1,2.6-2.5s-1.2-2.5-2.6-2.5l0,0H13.9z M13.9,14.5
	c-1.4,0-2.6,1.1-2.6,2.5s1.2,2.5,2.6,2.5l0,0h24.6c1.4,0,2.6-1.1,2.6-2.5s-1.2-2.5-2.6-2.5l0,0H13.9z M33,42.5H13.4
	c-1.4,0.3-2.3,1.6-2,2.9c0.2,0.9,1,1.6,2,1.8h19.8c1.4-0.3,2.3-1.6,2-2.9c-0.2-0.9-1-1.6-2-1.8H33z M38.3,33.3H13.4
	c-1.2,0.2-2.1,1.2-2,2.4c-0.2,1.2,0.7,2.2,2,2.4h25c1.2-0.2,2.1-1.2,2-2.4c0.2-1.2-0.7-2.3-2-2.5c0,0,0,0,0,0L38.3,33.3z M15.2,4
	h33.7C55,4,60,8.7,60,14.5l0,0v35C60,55.3,55,60,48.9,60c0,0,0,0,0,0H15.2C9,60,4,55.3,4,49.5l0,0v-35C4,8.7,9,4,15.2,4
	C15.1,4,15.2,4,15.2,4z"/>
</svg>
