<?xml version="1.0" encoding="utf-8"?>
<!-- Generator: Adobe Illustrator 28.2.0, SVG Export Plug-In . SVG Version: 6.00 Build 0)  -->
<svg version="1.1" id="Layer_1" xmlns="http://www.w3.org/2000/svg" xmlns:xlink="http://www.w3.org/1999/xlink" x="0px" y="0px"
	 viewBox="0 0 64 64" style="enable-background:new 0 0 64 64;" xml:space="preserve">
<style type="text/css">
	.st0{fill:#BFBFBF;}
</style>
<g>
	<path class="st0" d="M56.5,4.7h-5.4c0,0,0,1.7,0,2.6v5.2c0,2.9-2.4,5.2-5.4,5.2H18.4c-3,0-5.4-2.3-5.4-5.2V7.3c0-1,0-1.7,0-2.6H7.4
		C4.4,4.7,2,7,2,9.9v46.9C2,59.7,4.4,62,7.4,62h49.1c3,0,5.4-2.3,5.4-5.2V9.9C62,7,59.5,4.7,56.5,4.7z M17.1,22.7H33
		c1.2,0,1.9,0.8,1.9,1.9c0,1.1-0.8,1.9-1.9,1.9H17.1c-0.8,0-1.9-0.8-1.9-1.9C15.2,23.4,16.3,22.7,17.1,22.7z M29.1,48.9h-12v0
		c-0.8,0-1.9-0.8-1.9-1.9c0-1.1,0.8-1.9,1.9-1.9h12c1.2,0,1.9,0.8,1.9,1.9C31,48.2,30.3,48.9,29.1,48.9z M44.6,37.7H17.1v0
		c-0.8,0-1.9-0.8-1.9-1.9s1.2-1.9,1.9-1.9H45c0.8,0,1.6,0.7,1.6,1.9C46.5,36.9,45.7,37.7,44.6,37.7z"/>
	<path class="st0" d="M22.1,12.5h20.1c2,0,3.6-1.6,3.6-3.5V5.5c0-0.7-0.2-1.2-0.5-1.8C44.7,2.7,43.5,2,42.2,2H22.1
		c-1.3,0-2.5,0.7-3.1,1.7c-0.3,0.5-0.5,1.1-0.5,1.8V9C18.5,10.9,20.1,12.5,22.1,12.5z"/>
</g>
</svg>
