<?xml version="1.0" encoding="utf-8"?>
<!-- Generator: Adobe Illustrator 24.0.1, SVG Export Plug-In . SVG Version: 6.00 Build 0)  -->
<svg version="1.1" id="Layer_1" xmlns="http://www.w3.org/2000/svg" xmlns:xlink="http://www.w3.org/1999/xlink" x="0px" y="0px"
	 viewBox="0 0 64 64" style="enable-background:new 0 0 64 64;" xml:space="preserve">
<style type="text/css">
	.st0{display:none;fill:#FFFFFF;}
	.st1{fill:#7F7F7F;}
	.st2{fill:#BFBFBF;}
	.st3{fill:#DFDFDF;}
	.st4{display:none;}
	.st5{display:inline;fill:#7F7F7F;}
	.st6{display:inline;fill:#BFBFBF;}
	.st7{display:inline;fill:#DFDFDF;}
	.st8{fill:#FFFFFF;}
</style>
<rect x="4" y="4" class="st0" width="56" height="56"/>
<g>
	<path class="st1" d="M58,60H14c-1.1,0-2-0.9-2-2V4h48v54C60,59.1,59.1,60,58,60z"/>
	<path class="st2" d="M50,52H6c-1.1,0-2-0.9-2-2V12h48v38C52,51.1,51.1,52,50,52z"/>
	<polygon class="st3" points="4,12 12,4 60,4 52,12 	"/>
</g>
<g class="st4">
	<path class="st5" d="M59,60H15c-1.1,0-2-0.9-2-2V4h48v54C61,59.1,60.1,60,59,60z"/>
	<path class="st6" d="M51,52H7c-1.1,0-2-0.9-2-2V12h48v38C53,51.1,52.1,52,51,52z"/>
	<polygon class="st7" points="5,12 13,4 61,4 53,12 	"/>
</g>
<polygon class="st8" points="5,11 4,12 4,13 52,13 52,12 53,11 "/>
<polygon class="st8" points="13,4 12,4 4,12 4,50 5,50 5,12 "/>
</svg>
