<?xml version="1.0" encoding="utf-8"?>
<!-- Generator: Adobe Illustrator 24.0.1, SVG Export Plug-In . SVG Version: 6.00 Build 0)  -->
<svg version="1.1" id="Layer_1" xmlns="http://www.w3.org/2000/svg" xmlns:xlink="http://www.w3.org/1999/xlink" x="0px" y="0px"
	 viewBox="0 0 64 64" style="enable-background:new 0 0 64 64;" xml:space="preserve">
<style type="text/css">
	
		.st0{display:none;fill:#BFBFBF;stroke:#1F1F1F;stroke-width:1.8667;stroke-linecap:round;stroke-linejoin:round;stroke-miterlimit:10;}
	.st1{fill:#6F6F6F;}
	.st2{fill:#BFBFBF;}
	.st3{fill:#DFDFDF;}
	.st4{fill:#7F7F7F;}
	.st5{fill:#FFFFFF;}
</style>
<path class="st0" d="M58.1,20H56V7V6.7V6.3V5.9c0-1-0.8-1.9-1.9-1.9H54c0,0,0,0-0.3,0h-0.3H9.9C9.6,4,9.3,4,9,4
	C7.7,5.4,6.3,6.9,4.9,8.3C4.3,8.6,4,9.2,4,9.9v36.3c0,1,0.8,1.9,1.9,1.9H12v10.1c0,1,0.8,1.9,1.9,1.9h44.3c1,0,1.9-0.8,1.9-1.9V21.9
	C60,20.8,59.2,20,58.1,20z M6,8c0.1,0,0.2,0,0.2,0H6z"/>
<g>
	<path class="st1" d="M58,60H14c-1.1,0-2-0.9-2-2V22c0-1.1,0.9-2,2-2h44c1.1,0,2,0.9,2,2v36C60,59.1,59.1,60,58,60z"/>
	<path class="st2" d="M54,44H10c-1.1,0-2-0.9-2-2V6c0-1.1,0.9-2,2-2h44c1.1,0,2,0.9,2,2v36C55.2,42.8,54.8,43.2,54,44z"/>
	<g>
		<path class="st3" d="M4.5,8.6C6,7.1,7.5,5.5,9,4c14.8,0,29.6,0,44.4,0c0.1,0,0.2,0,0.3,0C54,4,54,4,54,4c0.1,0,0.3,0,0.5,0.1
			c0.3,0.1,0.4,0.2,0.5,0.2c0.2,0.1,0.3,0.2,0.4,0.3c-1.3,1.3-2.7,2.7-4,4c-0.1-0.1-0.2-0.2-0.3-0.3C50.7,8.1,50.3,8,50,8
			c-0.3,0-0.5,0-0.5,0C20.9,8,6.5,8,6.2,8c0,0-0.1,0-0.2,0C5.9,8,5.7,8,5.4,8.1C5.2,8.2,5.1,8.3,5,8.3C4.8,8.4,4.6,8.5,4.5,8.6z"/>
		<path class="st4" d="M51.4,8.6c1.3-1.3,2.7-2.7,4-4c0.1,0.1,0.3,0.3,0.4,0.5c0.1,0.1,0.1,0.3,0.2,0.5c0,0.2,0,0.4,0,0.7
			c0,0,0,0,0,0.3c0,0.1,0,0.2,0,0.3c0,0,0,35.3,0,35.9c-1.5,1.5-3,2.9-4.4,4.4c0.1-0.2,0.2-0.4,0.2-0.5c0.1-0.3,0.2-0.4,0.2-0.5
			c0,0,0-0.1,0-0.3c0-0.1,0-0.2,0-0.3c0,0,0-0.1,0-0.1c0-0.3,0-35.3,0-35.4c0,0,0,0,0,0c0-0.3,0-0.5,0-0.7c0-0.3-0.1-0.4-0.2-0.5
			C51.7,8.8,51.5,8.7,51.4,8.6z"/>
	</g>
	<g>
		<path class="st2" d="M50,48H6c-1.1,0-2-0.9-2-2V10c0-1.1,0.9-2,2-2h44c1.1,0,2,0.9,2,2v36C52,47.1,51.1,48,50,48z"/>
	</g>
</g>
<path class="st5" d="M4,46.6c-0.3,0-0.5-0.2-0.5-0.5V9.9c0-0.3,0.1-1,0.6-1.6C4.8,7.5,5.8,7.5,6,7.5l44,0c0.3,0,0.5,0.2,0.5,0.5
	S50.3,8.5,50,8.5l-44,0c-0.1,0-0.7,0-1.2,0.5C4.5,9.3,4.5,9.7,4.5,9.9v36.3C4.5,46.4,4.3,46.6,4,46.6z"/>
</svg>
