<?xml version="1.0" encoding="utf-8"?>
<!-- Generator: Adobe Illustrator 29.1.0, SVG Export Plug-In . SVG Version: 9.03 Build 55587)  -->
<svg version="1.0" id="图层_1" opacity="0.5" xmlns="http://www.w3.org/2000/svg" xmlns:xlink="http://www.w3.org/1999/xlink"
	 x="0px" y="0px" viewBox="0 0 64 64" style="enable-background:new 0 0 64 64;" xml:space="preserve">
<style type="text/css">
	.st0{fill:#FF0000;}
</style>
<path class="st0" d="M8,56.4c0,3.1,2.7,5.6,6,5.6h36c3.3,0,6-2.5,6-5.6v0V17H8V56.4z M42,26.4c0-1,0.9-1.9,2-1.9c1.1,0,2,0.8,2,1.9
	v26.2c0,1-0.9,1.9-2,1.9c-1.1,0-2-0.8-2-1.9V26.4z M30,26.4c0-1,0.9-1.9,2-1.9c1.1,0,2,0.8,2,1.9v26.2c0,1-0.9,1.9-2,1.9
	c-1.1,0-2-0.8-2-1.9L30,26.4z M18,26.4c0-1,0.9-1.9,2-1.9c1.1,0,2,0.8,2,1.9v26.2c0,1-0.9,1.9-2,1.9c-1.1,0-2-0.8-2-1.9V26.4z
	 M58,5.8H43l-1.2-2.2c-0.5-1-1.5-1.6-2.7-1.6H24.9c-1.1,0-2.2,0.6-2.7,1.6L21,5.8H6c-1.1,0-2,0.8-2,1.9c0,0,0,0,0,0v3.7
	c0,1,0.9,1.9,2,1.9h52c1.1,0,2-0.8,2-1.9c0,0,0,0,0,0V7.6C60,6.6,59.1,5.8,58,5.8L58,5.8z"/>
</svg>
