<?xml version="1.0" encoding="utf-8"?>
<!-- Generator: Adobe Illustrator 22.0.0, SVG Export Plug-In . SVG Version: 6.00 Build 0)  -->
<svg version="1.1" id="图层_1" xmlns="http://www.w3.org/2000/svg" xmlns:xlink="http://www.w3.org/1999/xlink" x="0px" y="0px"
	 viewBox="0 0 64 64" style="enable-background:new 0 0 64 64;" xml:space="preserve">
<style type="text/css">
	.st0{fill:#FFFFFF;}
</style>
<path class="st0" d="M48,24h8c2.2,0,4-1.8,4-4v-8c0-2.2-1.8-4-4-4h-8c-2.2,0-4,1.8-4,4v2H20v-2c0-2.2-1.8-4-4-4H8c-2.2,0-4,1.8-4,4
	v8c0,2.2,1.8,4,4,4h8c2.2,0,4-1.8,4-4v-2c3.3,0.1,5.9,0.9,7.7,2.5c3.1,2.8,3.3,7.5,3.4,12.5c0.2,5.5,0.4,11.1,4.7,14.5
	c2.1,1.6,4.8,2.5,8,2.5c0.1,0,0.2,0,0.3,0v2c0,2.2,1.8,4,4,4h8c2.2,0,4-1.8,4-4v-8c0-2.2-1.8-4-4-4h-8c-2.2,0-4,1.8-4,4v2
	c-2.4,0-4.4-0.5-5.8-1.6c-2.9-2.3-3-6.8-3.2-11.5C34.9,27.8,34.7,22,30.8,18H44v2C44,22.2,45.8,24,48,24z"/>
</svg>
