<?xml version="1.0" encoding="utf-8"?>
<!-- Generator: Adobe Illustrator 22.0.0, SVG Export Plug-In . SVG Version: 6.00 Build 0)  -->
<svg version="1.1" id="图层_1" xmlns="http://www.w3.org/2000/svg" xmlns:xlink="http://www.w3.org/1999/xlink" x="0px" y="0px"
	 viewBox="0 0 64 64" style="enable-background:new 0 0 64 64;" xml:space="preserve">
<style type="text/css">
	.st0{fill:#FFFFFF;}
</style>
<path class="st0" d="M4.4,57.8c0.4,0.9,1.1,1.6,1.9,1.9C6.7,59.9,7.2,60,7.7,60h21c1.9,0,3.7-1.5,3.8-3.4c0.1-2-1.5-3.7-3.5-3.7
	H16.2L35,34.1c1.4-1.4,1.4-3.6,0-5l0,0c-1.4-1.4-3.6-1.4-5,0l0,0L11.2,47.9V35.1c0-2-1.6-3.6-3.6-3.5c-2,0-3.5,1.6-3.6,3.5v21.3
	C4.1,56.9,4.2,57.4,4.4,57.8z"/>
<path class="st0" d="M52.1,12v32h-7.9c-2.3,0-4.1,1.8-4.1,4.1c0,2.4,1.6,3.9,4,3.9h11.4c2.5,0,4.6-2.1,4.6-4.6V8.5
	C60.1,6.1,58,4,55.5,4H16.6C14.1,4,12,6.1,12,8.6v15.3c0,2.3,1.8,4.1,4.1,4.1c2.4,0,3.9-1.6,3.9-4V12H52.1"/>
</svg>
