<?xml version="1.0" encoding="utf-8"?>
<!-- Generator: Adobe Illustrator 22.0.0, SVG Export Plug-In . SVG Version: 6.00 Build 0)  -->
<svg version="1.1" id="图层_1" xmlns="http://www.w3.org/2000/svg" xmlns:xlink="http://www.w3.org/1999/xlink" x="0px" y="0px"
	 viewBox="0 0 64 64" style="enable-background:new 0 0 64 64;" xml:space="preserve">
<style type="text/css">
	.st0{fill:#BFBFBF;}
</style>
<path class="st0" d="M36.4,46h-8.8c-1.5,0-2.6-1.2-2.6-2.6V25h-9.6c-1.9,0-2.9-2.4-1.5-3.7L30.5,4.6c0.8-0.8,2.2-0.8,3,0l16.6,16.6
	c1.4,1.4,0.4,3.7-1.5,3.7H39v18.4C39,44.8,37.8,46,36.4,46z M60,45.1v12.3c0,1.5-1.2,2.6-2.6,2.6H6.6C5.2,60,4,58.8,4,57.4V45.1
	c0-1.5,1.2-2.6,2.6-2.6h14.9v0.9c0,3.4,2.7,6.1,6.1,6.1h8.8c3.4,0,6.1-2.7,6.1-6.1v-0.9h14.9C58.8,42.5,60,43.7,60,45.1z M46.4,54.8
	c0-1.2-1-2.2-2.2-2.2s-2.2,1-2.2,2.2s1,2.2,2.2,2.2S46.4,56,46.4,54.8z M53.4,54.8c0-1.2-1-2.2-2.2-2.2s-2.2,1-2.2,2.2
	s1,2.2,2.2,2.2S53.4,56,53.4,54.8z"/>
</svg>
