<?xml version="1.0" encoding="utf-8"?>
<!-- Generator: Adobe Illustrator 28.2.0, SVG Export Plug-In . SVG Version: 6.00 Build 0)  -->
<svg version="1.1" id="Layer_1" xmlns="http://www.w3.org/2000/svg" xmlns:xlink="http://www.w3.org/1999/xlink" x="0px" y="0px"
	 viewBox="0 0 64 64" style="enable-background:new 0 0 64 64;" xml:space="preserve">
<style type="text/css">
	.st0{fill:#BFBFBF;}
</style>
<path class="st0" d="M62,32.6v14.7h-3.4c-0.5-1.4-1.1-2.5-1.8-3.4c-2.6-3.4-7.2-4.3-11.2-5.1c-1.6-0.3-3.1-0.6-4.3-1.1
	c-0.5-0.2-0.9-0.4-1.1-0.5c1.3-1.4,2.3-3,3.1-4.9c1-2.3,1.5-4.8,1.5-7.2c0-3.7-0.2-8-2-11.4c-0.8-1.5-2-3.1-3.9-4.3
	c0.9-3.3,3-5.4,7.5-5.4c7,0,8.1,5.6,8.1,12.3c0,3.5-1.6,7.1-4,9.2c-0.2,0.2-0.4,0.5-0.4,0.8c0,0.8,0,1.9,0.3,2.3
	C52.5,31.3,57.9,31.4,62,32.6 M7.1,44c2.6-3.6,7.2-4.5,11.3-5.3c1.6-0.3,3.1-0.6,4.3-1c0.5-0.2,0.8-0.3,1.1-0.5
	c-1.3-1.4-2.3-3-3.1-4.8c-1-2.3-1.5-4.7-1.6-7.1c0-3.1,0.2-5.5,0.6-7.6c0.6-2.9,1.7-5.1,3.4-6.8c0.6-0.6,1.2-1,1.9-1.5
	c-0.9-3.3-3-5.4-7.4-5.4c-7.2,0-8.3,5.6-8.2,12.4c0,3.5,1.6,7,4,9.1c0.2,0.2,0.4,0.5,0.4,0.8c0,0.8-0.1,1.9-0.4,2.3
	c-1.9,2.6-7.4,2.7-11.5,3.9v14.8h3.4C5.9,46,6.5,44.9,7.1,44 M56.8,58.7c0,0.7-0.5,1.3-1.3,1.3h-47c-0.7,0-1.3-0.6-1.3-1.3
	c0.2-2.8,0.8-9.4,2.9-12.5c3.3-4.6,14.2-3,17.2-7.1c0.3-0.4,0.4-1.7,0.4-2.6c0-0.4-0.1-0.7-0.4-0.9c-2.6-2.3-4.4-6.3-4.4-10.2
	c-0.1-7.6,1.1-13.9,9.1-13.9c7.8,0,9,6.2,9,13.8c0,4-1.8,8-4.4,10.3c-0.3,0.2-0.4,0.6-0.4,0.9c0,0.9,0,2.2,0.4,2.6
	c3.1,4.1,13.7,2.6,17.2,7.1C56.1,49.2,56.7,55.9,56.8,58.7L56.8,58.7z"/>
</svg>
