<?xml version="1.0" encoding="utf-8"?>
<!-- Generator: Adobe Illustrator 22.0.0, SVG Export Plug-In . SVG Version: 6.00 Build 0)  -->
<svg version="1.1" id="图层_1" xmlns="http://www.w3.org/2000/svg" xmlns:xlink="http://www.w3.org/1999/xlink" x="0px" y="0px"
	 viewBox="0 0 64 64" style="enable-background:new 0 0 64 64;" xml:space="preserve">
<style type="text/css">
	.st0{fill:#FFFFFF;}
</style>
<path class="st0" d="M32,4C16.5,4,4,16.5,4,32s12.5,28,28,28s28-12.5,28-28l0,0C60,16.5,47.5,4,32,4z M32,12.4
	c4.6,0,8.4,3.8,8.4,8.4s-3.8,8.4-8.4,8.4s-8.4-3.8-8.4-8.4l0,0C23.6,16.2,27.3,12.4,32,12.4C32,12.4,32,12.4,32,12.4z M32,52.2
	c-6.8,0-13.1-3.4-16.8-9c0-5.6,11.2-8.6,16.8-8.6s16.7,3,16.8,8.6C45,48.8,38.7,52.2,32,52.2L32,52.2z"/>
</svg>
