<?xml version="1.0" encoding="utf-8"?>
<!-- Generator: Adobe Illustrator 24.0.1, SVG Export Plug-In . SVG Version: 6.00 Build 0)  -->
<svg version="1.1" id="Layer_1" xmlns="http://www.w3.org/2000/svg" xmlns:xlink="http://www.w3.org/1999/xlink" x="0px" y="0px"
	 viewBox="0 0 64 64" style="enable-background:new 0 0 64 64;" xml:space="preserve">
<style type="text/css">
	.st0{fill:#FFFFFF;}
</style>
<path class="st0" d="M20.4,4h23.3c5.1,0,9.1,1.4,11.9,4.4c3,3,4.4,6.8,4.4,11.9v23.3c0,5.1-1.4,9.1-4.4,12.1
	c-3,2.8-6.8,4.4-11.9,4.4H20.5c-5.1,0-9.1-1.4-12.1-4.4C5.6,52.8,4,48.8,4,43.5V20.3c0-5.1,1.4-9.1,4.4-12.1C11.4,5.4,15.4,4,20.4,4
	z M46.2,13.3h-28c-2.6,0-4.7,2.1-4.7,4.7v28c0,2.6,2.1,4.7,4.7,4.7h28c2.6,0,4.7-2.1,4.7-4.7V18C50.9,15.4,48.8,13.3,46.2,13.3z
	 M20.4,18h23.3c0.7,0,1.2,0.2,1.6,0.7c0.5,0.5,0.7,1,0.7,1.6v14c0,0.7-0.2,1.2-0.7,1.6c-0.5,0.5-1,0.7-1.6,0.7H20.5
	c-0.7,0-1.2-0.2-1.6-0.7c-0.5-0.5-0.7-1-0.7-1.6v-14c0-0.7,0.2-1.2,0.7-1.6C19.2,18.2,19.9,18,20.4,18z M22.9,22.7V32h18.7v-9.3
	H22.9z"/>
</svg>
