<?xml version="1.0" encoding="utf-8"?>
<!-- Generator: Adobe Illustrator 29.1.0, SVG Export Plug-In . SVG Version: 9.03 Build 55587)  -->
<svg version="1.0" id="图层_1" xmlns="http://www.w3.org/2000/svg" xmlns:xlink="http://www.w3.org/1999/xlink" x="0px" y="0px"
	 viewBox="0 0 64 64" style="enable-background:new 0 0 64 64;" xml:space="preserve">
<style type="text/css">
	.st0{fill:#3FFF7F;}
</style>
<path class="st0" d="M2,44.5c14.9,7.5,24.9,1.1,35.3-17.3L28,21.8c-0.7-0.4-1.1-1.1-1-1.9c0-0.2,0.1-0.5,0.2-0.7
	c0.2-0.4,0.6-0.7,1.1-0.9L55,8.1c1-0.3,2.1,0.4,2.4,1.4L61.9,38c0.2,0.7,0,1.5-0.6,2c-0.6,0.5-1.4,0.5-2.1,0.1l-9.5-5.6
	C39,53.2,24.2,65.4,2,46.6L2,44.5L2,44.5L2,44.5z"/>
</svg>
