<?xml version="1.0" encoding="utf-8"?>
<!-- Generator: Adobe Illustrator 22.0.0, SVG Export Plug-In . SVG Version: 6.00 Build 0)  -->
<svg version="1.1" id="图层_1" xmlns="http://www.w3.org/2000/svg" xmlns:xlink="http://www.w3.org/1999/xlink" x="0px" y="0px"
	 viewBox="0 0 64 64" style="enable-background:new 0 0 64 64;" xml:space="preserve">
<style type="text/css">
	.st0{fill:#ffbf7f;}
</style>
<path class="st0" d="M11,14.1h23.3c0,0,3.8,0.1,3.9,3.5c0.1,3.4-3.9,3.4-3.9,3.4H21.7c0,0-3-0.5-4.1,2.7c-0.5,1.2-4.4,12.3-5.9,17.1
	c-0.4,1.4,0.6,1.7,1.4,1.8c0.9,0,1.7,0,2.4,0c1,0,1.8-0.4,2.3-1.8c1-3,4.2-11,4.6-12c1.1-2.7,2.5-2.4,4-2.4c2.8,0,29.4,0,29.4,0
	c3.6,0,5,2,4,5.1l-4.4,22C54.1,56.9,50.7,60,47,60H11.1C7.3,60,4,56.7,4,53V20.9C4,17.2,7.3,14.1,11,14.1z M45.8,18.3
	c-1.7-0.1-2.1-0.2-0.5-1.8c1.1-1.2,2.5-2.3,2.5-2.3c0-0.1-1.1-2.9-5.7-4.9s-11.3,0-13.1,0.9c-0.9,0.7-3.4,1.2-1.1-1.3
	c4-3.8,9.6-6.1,15.7-4.4c5.7,1.6,8.3,5,8.5,5.4c0,0,0,0.1,0,0.1c0,0,0,0,0-0.1c0.1-0.2,1-0.8,2.4-2.1c1.2-1.3,1.6-1,1.8,0.6
	c0.2,2.9,0.1,11.3,0.1,11.3S48.6,18.8,45.8,18.3z"/>
</svg>
