<?xml version="1.0" encoding="utf-8"?>
<!-- Generator: Adobe Illustrator 29.1.0, SVG Export Plug-In . SVG Version: 9.03 Build 55587)  -->
<svg version="1.0" id="图层_1" xmlns="http://www.w3.org/2000/svg" xmlns:xlink="http://www.w3.org/1999/xlink" x="0px" y="0px"
	 viewBox="0 0 64 64" style="enable-background:new 0 0 64 64;" xml:space="preserve">
<style type="text/css">
	.st0{fill:#FFFF3F;}
</style>
<path class="st0" d="M2,19.5L2,19.5l0-2.1c22.2-18.9,37-6.6,47.7,12.1l9.5-5.6c0.7-0.4,1.5-0.4,2.1,0.1c0.6,0.5,0.9,1.2,0.6,2
	l-4.6,28.5c-0.3,1-1.3,1.6-2.4,1.4L28.4,45.7c-0.5-0.1-0.9-0.4-1.1-0.9c-0.1-0.2-0.2-0.5-0.2-0.7c-0.1-0.8,0.3-1.5,1-1.9l9.3-5.5
	C26.9,18.4,16.9,12,2,19.5L2,19.5z"/>
</svg>
