<?xml version="1.0" encoding="utf-8"?>
<!-- Generator: Adobe Illustrator 24.0.1, SVG Export Plug-In . SVG Version: 6.00 Build 0)  -->
<svg version="1.1" id="图层_1" xmlns="http://www.w3.org/2000/svg" xmlns:xlink="http://www.w3.org/1999/xlink" x="0px" y="0px"
	 viewBox="0 0 64 64" style="enable-background:new 0 0 64 64;" xml:space="preserve">
<style type="text/css">
	.st0{fill:#FFFF3F;}
</style>
<path class="st0" d="M40.9,18c-3.7,0.2-4.6,0.4-1.1,3.9c2.4,2.6,5.4,5,5.4,5c0,0.2-2.4,6.3-12.4,10.6s-24.5,0-28.4-1.9
	c-2-1.5-7.4-2.6-2.4,2.8c8.7,8.2,20.8,13.2,34.1,9.5c12.4-3.4,18-10.8,18.5-11.6v-0.2c0,0,0,0,0,0.2c0.2,0.4,2.2,1.7,5.2,4.5
	c2.6,2.8,3.5,2.2,3.9-1.3c0.4-6.3,0.2-24.4,0.2-24.4S47,16.9,40.9,18z"/>
</svg>
