<?xml version="1.0" encoding="utf-8"?>
<!-- Generator: Adobe Illustrator 28.2.0, SVG Export Plug-In . SVG Version: 6.00 Build 0)  -->
<svg version="1.1" id="Layer_1" xmlns="http://www.w3.org/2000/svg" xmlns:xlink="http://www.w3.org/1999/xlink" x="0px" y="0px"
	 viewBox="0 0 64 64" style="enable-background:new 0 0 64 64;" xml:space="preserve">
<style type="text/css">
	.st0{fill:#BFBFBF;}
</style>
<path class="st0" d="M60,49.1c0,3.8-3.1,6.9-7,6.9H11c-3.9,0-7-3.1-7-6.9V14.9C4,11.1,7.1,8,11,8h14c2.2,0,4.3,1,5.6,2.7l2.1,2.7
	c0.7,0.9,1.7,1.4,2.8,1.4H53c3.9,0,7,3.1,7,6.9V49.1z M29.4,44.9c0,1.4,1.2,2.6,2.6,2.6c1.5,0,2.6-1.1,2.6-2.6V38h7
	c1.5,0,2.6-1.1,2.6-2.6c0-1.4-1.2-2.6-2.6-2.6h-7V26c0-1.4-1.2-2.6-2.6-2.6s-2.6,1.1-2.6,2.6v6.9h-7c-1.5,0-2.6,1.1-2.6,2.6
	c0,1.4,1.2,2.6,2.6,2.6h7V44.9z"/>
</svg>
