<?xml version="1.0" encoding="utf-8"?>
<!-- Generator: Adobe Illustrator 22.0.0, SVG Export Plug-In . SVG Version: 6.00 Build 0)  -->
<svg version="1.1" id="图层_1" xmlns="http://www.w3.org/2000/svg" xmlns:xlink="http://www.w3.org/1999/xlink" x="0px" y="0px"
	 viewBox="0 0 64 64" style="enable-background:new 0 0 64 64;" xml:space="preserve">
<style type="text/css">
	.st0{fill:#BFBFBF;}
</style>
<path class="st0" d="M47.9,35.7c-6.7,0-12.1,5.4-12.1,12.1S41.1,60,47.9,60S60,54.6,60,47.9S54.6,35.7,47.9,35.7z M51.6,48.8h-2.8
	v2.8c0,0.6-0.4,0.9-0.9,0.9c-0.6,0-0.9-0.4-0.9-0.9v-2.8h-2.8c-0.6,0-0.9-0.4-0.9-0.9c0-0.6,0.4-0.9,0.9-0.9h2.8v-2.8
	c0-0.6,0.4-0.9,0.9-0.9c0.6,0,0.9,0.4,0.9,0.9v2.8h2.8c0.6,0,0.9,0.4,0.9,0.9S52.2,48.8,51.6,48.8z"/>
<path class="st0" d="M33.9,47.9c0-6.3,4.3-11.9,10.5-13.6c0.4-0.2,0.7-0.6,0.7-0.9V4.9c0-0.6-0.4-0.9-0.9-0.9H19.9h-0.2h-0.2
	c0,0-0.2,0.2-0.4,0.2L4.2,19.1c0,0.2-0.2,0.4-0.2,0.6v34c0,0.4,0.4,0.7,0.9,0.7h29.1c0.4,0,0.6-0.2,0.7-0.4c0.2-0.2,0.2-0.6,0-0.9
	C34.2,51.4,33.9,49.7,33.9,47.9z M18.9,7.2v11.8H7.2L18.9,7.2z"/>
</svg>
