<?xml version="1.0" encoding="utf-8"?>
<!-- Generator: Adobe Illustrator 28.2.0, SVG Export Plug-In . SVG Version: 6.00 Build 0)  -->
<svg version="1.1" id="Layer_1" xmlns="http://www.w3.org/2000/svg" xmlns:xlink="http://www.w3.org/1999/xlink" x="0px" y="0px"
	 viewBox="0 0 64 64" style="enable-background:new 0 0 64 64;" xml:space="preserve">
<style type="text/css">
	.st0{fill:#2F2F2F;}
	.st1{fill:#BFBFBF;}
</style>
<path class="st0" d="M49.5,11h-35c-2.1,0-4,1.2-5,3.1c-0.2,0.4-0.2,0.9,0,1.2c0.2,0.4,0.6,0.6,1,0.6h9.3c2.5,0,4.7,1.7,5.5,4.2
	l0.7,2.4c0.2,0.5,0.6,0.8,1.1,0.8h27c0.6,0,1.2-0.6,1.2-1.2v-4.9C55.3,13.8,52.7,11,49.5,11L49.5,11z"/>
<path class="st1" d="M56.5,25.8h-31c-0.5,0-0.9-0.3-1.1-0.8l-1.3-4c-0.5-1.5-1.8-2.5-3.3-2.5H7.5c-1.9,0-3.5,1.7-3.5,3.7
	c0,3.4,0.5,6.8,1.4,10l4.7,16.5c0.7,2.6,3,4.4,5.6,4.4h33c2.4,0,4.6-1.6,5.5-4l5-14.2c0.6-1.7,0.9-3.4,0.9-5.2
	C60,27.5,58.4,25.8,56.5,25.8L56.5,25.8z"/>
</svg>
