<?xml version="1.0" encoding="utf-8"?>
<!-- Generator: Adobe Illustrator 28.2.0, SVG Export Plug-In . SVG Version: 6.00 Build 0)  -->
<svg version="1.1" id="Layer_1" xmlns="http://www.w3.org/2000/svg" xmlns:xlink="http://www.w3.org/1999/xlink" x="0px" y="0px"
	 viewBox="0 0 64 64" style="enable-background:new 0 0 64 64;" xml:space="preserve">
<style type="text/css">
	.st0{fill:#474747;}
	.st1{fill:#BFBFBF;}
</style>
<path class="st0" d="M34.7,16.9l-1.1-2.3c-0.1-0.2-0.1-0.5,0-0.7s0.3-0.3,0.5-0.3H55c1.6,0,3,1.4,3,3.2v1.1c0,0.2-0.1,0.4-0.2,0.5
	c-0.1,0.1-0.3,0.2-0.5,0.2c-3.5,0-20.1-0.1-20.1-0.1C36.1,18.5,35.2,17.9,34.7,16.9L34.7,16.9z"/>
<path class="st1" d="M57.9,21.7c-0.3-0.1-0.6-0.2-0.9-0.2H37.1c-2.1,0-4-1.3-4.9-3.3l-1.8-3.9c-0.1-0.3-0.3-0.6-0.5-0.9
	c-1-1.6-2.7-2.5-4.5-2.5H7.1c-0.9,0-1.7,0.4-2.3,1.1c-0.6,0.7-0.9,1.6-0.8,2.6l2.6,35.3C6.8,51.7,8.1,53,9.7,53h45.5
	c1.6,0,2.8-1.3,3-3L60,25.1C60.1,23.6,59.3,22.2,57.9,21.7L57.9,21.7L57.9,21.7z"/>
</svg>
