<?xml version="1.0" encoding="utf-8"?>
<!-- Generator: Adobe Illustrator 29.1.0, SVG Export Plug-In . SVG Version: 9.03 Build 55587)  -->
<svg version="1.0" id="图层_1" xmlns="http://www.w3.org/2000/svg" xmlns:xlink="http://www.w3.org/1999/xlink" x="0px" y="0px"
	 viewBox="0 0 64 64" style="enable-background:new 0 0 64 64;" xml:space="preserve">
<style type="text/css">
	.st0{fill:#AFAFFF;}
</style>
<g>
	<path class="st0" d="M32,38c1.7,0,3,1.3,3,3h6c0-5-4-9-9-9c-5,0-9,4-9,9s4,9,9,9c1.7,0,3,1.3,3,3s-1.3,3-3,3s-3-1.3-3-3h-6
		c0,5,4,9,9,9c5,0,9-4,9-9s-4-9-9-9c-1.7,0-3-1.3-3-3S30.3,38,32,38z"/>
	<path class="st0" d="M14,53c0,1.7-1.3,3-3,3s-3-1.3-3-3v-3H2v3c0,5,4,9,9,9c5,0,9-4,9-9V32h-6V53z"/>
	<polygon class="st0" points="8,8 44.5,8 56,19.5 56,29 62,29 62,17 47,2 2,2 2,29 8,29 	"/>
	<polygon class="st0" points="51.4,54.6 62.2,36.7 62.2,32 43.8,32 43.8,38.4 53.6,38.4 42.8,56.4 42.8,61.1 62.3,61.1 62.3,54.6 	
		"/>
</g>
</svg>
