<?xml version="1.0" encoding="utf-8"?>
<!-- Generator: Adobe Illustrator 19.2.1, SVG Export Plug-In . SVG Version: 6.00 Build 0)  -->
<svg version="1.1" id="Layer_1" xmlns="http://www.w3.org/2000/svg" xmlns:xlink="http://www.w3.org/1999/xlink" x="0px" y="0px"
	 viewBox="0 0 240 240" enable-background="new 0 0 240 240" xml:space="preserve">
<rect fill-rule="evenodd" clip-rule="evenodd" fill="none" width="240" height="240"/>
<g>
	<polygon fill="#48AAB5" points="232.7,223.7 120,223.7 176.3,73.5 	"/>
	<path fill-rule="evenodd" clip-rule="evenodd" fill="#DDE4E7" d="M150.9,138.6l-0.2,0.1L178,73.3l27.2,76.2l0,0
		c0,0-5.4,27.2-21.8,10.9C166.2,143.2,150.9,138.6,150.9,138.6z"/>
	<g>
		<path fill="#1D1D1D" d="M177.1,84.9l50.6,134.8H126.6L177.1,84.9 M177.1,62.1L115,227.7h124.2L177.1,62.1L177.1,62.1z"/>
	</g>
	<polygon fill="#48AAB5" points="155.2,223.7 6.5,223.7 80.9,25.5 	"/>
	<path fill-rule="evenodd" clip-rule="evenodd" fill="#DDE4E7" d="M47.9,115.6l9.7-29.1l24.3-58.2l24.3,67.9l14.6,38.8
		c0,0-27.8-2.1-38.8-24.3C72.2,91.3,47.9,115.6,47.9,115.6z"/>
	<g>
		<path fill="#1D1D1D" d="M80.9,36.9l68.6,182.8H12.3L80.9,36.9 M80.9,14.1L0.8,227.7H161L80.9,14.1L80.9,14.1z"/>
	</g>
</g>
<g>
</g>
<g>
</g>
<g>
</g>
<g>
</g>
<g>
</g>
<g>
</g>
</svg>
