<?xml version="1.0" encoding="utf-8"?>
<!-- Generator: Adobe Illustrator 28.2.0, SVG Export Plug-In . SVG Version: 6.00 Build 0)  -->
<svg version="1.1" id="图层_1" xmlns="http://www.w3.org/2000/svg" xmlns:xlink="http://www.w3.org/1999/xlink" x="0px" y="0px"
	 viewBox="0 0 64 64" style="enable-background:new 0 0 64 64;" xml:space="preserve">
<style type="text/css">
	.st0{fill:#BFBFBF;}
	.st1{fill:#3FFF7F;}
</style>
<path class="st0" d="M33.9,47.9c0-6.3,4.3-11.9,10.5-13.6c0.4-0.2,0.7-0.6,0.7-0.9V4.9c0-0.6-0.4-0.9-0.9-0.9H19.9h-0.2h-0.2
	c0,0-0.2,0.2-0.4,0.2L4.2,19.1c0,0.2-0.2,0.4-0.2,0.6v34c0,0.4,0.4,0.7,0.9,0.7H34c0.4,0,0.6-0.2,0.7-0.4c0.2-0.2,0.2-0.6,0-0.9
	C34.2,51.4,33.9,49.7,33.9,47.9z M18.9,7.2V19H7.2L18.9,7.2z"/>
<path class="st1" d="M47.9,35.8c-6.7,0-12.1,5.4-12.1,12.1c0,6.7,5.4,12.1,12.1,12.1C54.6,60,60,54.6,60,47.9
	C60,41.2,54.9,35.8,47.9,35.8z M55.8,53.2c-0.7,0.7-1.7,0.7-2.4,0L47,50.4c-0.1-0.1-0.1-0.1-0.1-0.3c-0.3-0.3-0.6-0.6-0.6-1V38.5
	c0-0.8,0.7-1.4,1.7-1.4c1,0,1.7,0.7,1.7,1.4V48l6.2,2.7C56.5,51.4,56.5,52.5,55.8,53.2z"/>
</svg>
