<?xml version="1.0" encoding="utf-8"?>
<!-- Generator: Adobe Illustrator 28.2.0, SVG Export Plug-In . SVG Version: 6.00 Build 0)  -->
<svg version="1.1" id="Layer_1" xmlns="http://www.w3.org/2000/svg" xmlns:xlink="http://www.w3.org/1999/xlink" x="0px" y="0px"
	 viewBox="0 0 64 64" style="enable-background:new 0 0 64 64;" xml:space="preserve">
<style type="text/css">
	.st0{fill:#BFBFBF;}
</style>
<path class="st0" d="M60,44.2V11.8c-0.5-2.2-2.6-3.8-5-3.8H7.9c-1.2,0.4-2.3,1.2-2.9,2.2C4.2,11.3,3.9,12.7,4,14v30.2
	c0,1.6,0.9,3.2,2.4,4.1c1.2,0.4,2.5,0.6,3.8,0.5H30v3.6H14.6c-1,0-1.8,0.7-1.8,1.6l0,0c0,1,0.7,1.8,1.8,1.9h34.7
	c1-0.1,1.8-1,1.8-1.9c0-0.9-0.8-1.6-1.8-1.6l0,0H34.1v-3.6h22.4C58.6,48.2,60.1,46.3,60,44.2L60,44.2z"/>
</svg>
