<?xml version="1.0" encoding="utf-8"?>
<!-- Generator: Adobe Illustrator 19.2.1, SVG Export Plug-In . SVG Version: 6.00 Build 0)  -->
<svg version="1.1" id="Layer_1" xmlns="http://www.w3.org/2000/svg" xmlns:xlink="http://www.w3.org/1999/xlink" x="0px" y="0px"
	 viewBox="0 0 240 240" enable-background="new 0 0 240 240" xml:space="preserve">
<g>
	<g>
		<path fill-rule="evenodd" clip-rule="evenodd" fill="#BDBDBD" d="M219.2,150c-0.9,0-1.9-0.3-2.6-1l-51.4-44
			c-0.5-0.4-0.9-1-1.1-1.6v27.9c0,6.2-5.1,11.3-11.3,11.3H28.1c-6.3,0-11.3-5.1-11.3-11.3v-88c0-6.2,5.1-11.3,11.3-11.3h124.7
			c6.2,0,11.3,5.1,11.3,11.3v27.9c0.2-0.6,0.6-1.2,1.1-1.6l51.4-44c0.7-0.6,1.7-1,2.6-1c0.6,0,1.1,0.1,1.7,0.4
			c1.4,0.7,2.3,2.1,2.3,3.6V146c0,1.6-0.9,3-2.3,3.6C220.4,149.9,219.8,150,219.2,150z"/>
		<path fill="#1D1D1D" d="M219.2,28.7V146l-51.4-44V72.7L219.2,28.7 M152.8,36c4.1,0,7.3,3.3,7.3,7.3v88c0,4.1-3.3,7.3-7.3,7.3H28.1
			c-4.1,0-7.3-3.3-7.3-7.3v-88c0-4.1,3.3-7.3,7.3-7.3H152.8 M219.2,20.7c-1.9,0-3.7,0.7-5.2,1.9l-45.9,39.3V43.3
			c0-8.5-6.9-15.3-15.3-15.3H28.1c-8.5,0-15.3,6.9-15.3,15.3v88c0,8.5,6.9,15.3,15.3,15.3h124.7c8.5,0,15.3-6.9,15.3-15.3v-18.6
			l45.9,39.3c1.5,1.3,3.3,1.9,5.2,1.9c1.1,0,2.3-0.2,3.3-0.7c2.8-1.3,4.7-4.1,4.7-7.3V28.7c0-3.1-1.8-6-4.7-7.3
			C221.5,20.9,220.4,20.7,219.2,20.7L219.2,20.7z"/>
	</g>
	<g>
		<path fill-rule="evenodd" clip-rule="evenodd" fill="#BDBDBD" d="M140.9,215.3c-1.5,0-2.9-0.8-3.6-2.2l-11.5-22.6h-11.6
			l-11.5,22.6c-0.7,1.3-2.1,2.2-3.6,2.2H33.5c-2.2,0-4-1.8-4-4l-0.2-33.2h-8.4c-2.2,0-4-1.8-4-4v-12.4c0-1.1,0.4-2.1,1.2-2.8
			c0.8-0.8,1.8-1.2,2.8-1.2h198.4c1.1,0,2.1,0.4,2.8,1.2s1.2,1.8,1.2,2.8v12.4c0,2.2-1.8,4-4,4h-8.4v33.2c0,2.2-1.8,4-4,4H140.9z
			 M196.6,201.1v-29.2h-64.5l16,29.2H196.6z M92,201.1l16-29.2H43.5v29.2L92,201.1z"/>
		<path fill="#1D1D1D" d="M219.2,161.7v12.4h-12.4v37.2h-65.9l-12.6-24.8h-16.5l-12.6,24.8H33.5l-0.2-37.2H20.9v-12.4
			c0,0,53.7,0,101.5,0C170.7,161.7,219.2,161.7,219.2,161.7 M145.7,205.1h54.9v-37.2h-75.3L145.7,205.1 M94.4,205.1l20.4-37.2H39.5
			v37.2L94.4,205.1 M219.2,153.7C219.2,153.7,219.2,153.7,219.2,153.7l-96.9,0l-101.5,0c-2.1,0-4.2,0.8-5.7,2.3
			c-1.5,1.5-2.3,3.5-2.3,5.7v12.4c0,4.4,3.6,8,8,8h4.4l0.2,29.2c0,4.4,3.6,8,8,8h65.7c3,0,5.8-1.7,7.1-4.4l10.4-20.4h6.7l10.4,20.4
			c1.4,2.7,4.1,4.4,7.1,4.4h65.9c4.4,0,8-3.6,8-8v-29.2h4.4c4.4,0,8-3.6,8-8v-12.4c0-2.1-0.8-4.2-2.3-5.7
			C223.4,154.6,221.4,153.7,219.2,153.7L219.2,153.7z M138.9,175.9h53.8v21.2h-42.2L138.9,175.9L138.9,175.9z M47.5,175.9h53.8
			l-11.6,21.2l-42.2,0V175.9L47.5,175.9z"/>
	</g>
</g>
<g>
	<polygon fill-rule="evenodd" clip-rule="evenodd" fill="#BDBDBD" points="150.1,199.8 136,173.7 193.5,173.7 193.5,199.8 	"/>
	<path fill="#1D1D1D" d="M191.5,175.7v22.1h-40.1l-12-22.1H191.5 M195.5,171.7h-4h-52.1h-6.7l3.2,5.9l12,22.1l1.1,2.1h2.4h40.1h4v-4
		v-22.1V171.7L195.5,171.7z"/>
</g>
<g>
	<polygon fill-rule="evenodd" clip-rule="evenodd" fill="#48AAB5" points="46.3,199.8 46.3,173.7 103.8,173.7 89.7,199.8 	"/>
	<path fill="#1D1D1D" d="M100.5,175.7l-12,22.1H48.3v-22.1H100.5 M107.2,171.7h-6.7H48.3h-4v4v22.1v4h4h40.1h2.4l1.1-2.1l12-22.1
		L107.2,171.7L107.2,171.7z"/>
</g>
<rect fill-rule="evenodd" clip-rule="evenodd" fill="none" width="240" height="240"/>
<rect fill-rule="evenodd" clip-rule="evenodd" fill="none" width="240" height="240"/>
</svg>
