<?xml version="1.0" encoding="utf-8"?>
<!-- Generator: Adobe Illustrator 28.2.0, SVG Export Plug-In . SVG Version: 6.00 Build 0)  -->
<svg version="1.1" id="Layer_1" xmlns="http://www.w3.org/2000/svg" xmlns:xlink="http://www.w3.org/1999/xlink" x="0px" y="0px"
	 viewBox="0 0 64 64" style="enable-background:new 0 0 64 64;" xml:space="preserve">
<style type="text/css">
	.st0{fill:#BFBFBF;}
</style>
<path class="st0" d="M4,58v0.9C4,59.5,4.5,60,5.2,60h53.7c0.6,0,1.2-0.5,1.2-1.1V58c0-0.6-0.5-1.1-1.2-1.1h-2.5c0,0-0.6-0.5-0.6-1.1
	V5.1c0-0.6-0.5-1.1-1.2-1.1H42.1C41.5,4,41,4.5,41,5.1V56c0,0.6-0.4,1.1-1,1.1s-1-0.5-1-1.1V22c0-0.6-0.5-1.1-1.2-1.1H25.5
	c-0.6,0-1.2,0.5-1.2,1.1v33.9c0,0.6-0.4,1.1-1,1.1s-1-0.5-1-1.1V30.3c0-0.6-0.5-1.1-1.2-1.1H8.7c-0.6,0-1.2,0.5-1.2,1.1v25.6
	c0,0.6-0.1,1.1-0.2,1.1H5.2C4.5,57,4,57.4,4,58L4,58z M43.8,5.5h9C53.5,5.5,54,6,54,6.6v5.7c0,0.6-0.5,1.1-1.2,1.1h-9
	c-0.6,0-1.2-0.5-1.2-1.1V6.6C42.7,6,43.2,5.5,43.8,5.5z M27.1,22.5h9c0.6,0,1.2,0.5,1.2,1.1v17.1c0,0.6-0.5,1.1-1.2,1.1h-9
	c-0.6,0-1.2-0.5-1.2-1.1V23.5C26,22.9,26.5,22.5,27.1,22.5L27.1,22.5z M9.3,37.3v-5.4c0-0.6,0.5-1.1,1.2-1.1h9
	c0.6,0,1.2,0.5,1.2,1.1v5.4c0,0.6-0.5,1.1-1.2,1.1h-9C9.8,38.3,9.3,37.9,9.3,37.3z"/>
</svg>
