<?xml version="1.0" encoding="utf-8"?>
<!-- Generator: Adobe Illustrator 28.2.0, SVG Export Plug-In . SVG Version: 6.00 Build 0)  -->
<svg version="1.1" id="Layer_1" xmlns="http://www.w3.org/2000/svg" xmlns:xlink="http://www.w3.org/1999/xlink" x="0px" y="0px"
	 viewBox="0 0 64 64" style="enable-background:new 0 0 64 64;" xml:space="preserve">
<style type="text/css">
	.st0{fill:#BF0000;}
</style>
<path class="st0" d="M32,4C16.6,4,4,16.6,4,32s12.6,28,28,28s28-12.6,28-28S47.4,4,32,4z M52.3,32c0,4.2-1.3,8.1-3.5,11.3L20.7,15.2
	c3.2-2.2,7.1-3.5,11.3-3.5C43.2,11.7,52.3,20.8,52.3,32z M11.7,32c0-4.2,1.3-8.1,3.5-11.3l28.1,28.1c-3.2,2.2-7.1,3.5-11.3,3.5
	C20.8,52.3,11.7,43.2,11.7,32z"/>
</svg>
