<?xml version="1.0" encoding="utf-8"?>
<!-- Generator: Adobe Illustrator 19.2.1, SVG Export Plug-In . SVG Version: 6.00 Build 0)  -->
<svg version="1.1" id="Layer_1" xmlns="http://www.w3.org/2000/svg" xmlns:xlink="http://www.w3.org/1999/xlink" x="0px" y="0px"
	 viewBox="0 0 240 240" enable-background="new 0 0 240 240" xml:space="preserve">
<g>
	<g>
		<polygon fill-rule="evenodd" clip-rule="evenodd" fill="#BDBDBD" points="20.2,154.5 120.1,85.9 220,154.5 120.1,223.2 		"/>
	</g>
	<g>
		<path fill="#1D1D1D" d="M120.1,90.7l92.9,63.8l-92.9,63.8l-92.9-63.8L120.1,90.7 M120.1,81l-107,73.5l107,73.6l107-73.6L120.1,81
			L120.1,81z"/>
	</g>
</g>
<g>
	<polygon fill-rule="evenodd" clip-rule="evenodd" fill="#BDBDBD" points="20.2,118.5 120.1,49.9 220,118.5 120.1,187.2 	"/>
	<path fill="#1D1D1D" d="M120.1,54.7l92.9,63.8l-92.9,63.8l-92.9-63.8L120.1,54.7 M120.1,45l-107,73.5l107,73.6l107-73.6L120.1,45
		L120.1,45z"/>
</g>
<g id="XMLID_106_">
	<polygon fill-rule="evenodd" clip-rule="evenodd" fill="#BDBDBD" points="20.2,85.5 120.1,16.9 220,85.5 120.1,154.2 	"/>
	<g>
		<path fill="#1D1D1D" d="M120.1,21.7l92.9,63.8l-92.9,63.8L27.2,85.5L120.1,21.7 M120.1,12l-107,73.5l107,73.6l107-73.6L120.1,12
			L120.1,12z"/>
	</g>
</g>
<rect fill-rule="evenodd" clip-rule="evenodd" fill="none" width="240" height="240"/>
</svg>
