<?xml version="1.0" encoding="utf-8"?>
<!-- Generator: Adobe Illustrator 28.2.0, SVG Export Plug-In . SVG Version: 6.00 Build 0)  -->
<svg version="1.1" id="Layer_1" xmlns="http://www.w3.org/2000/svg" xmlns:xlink="http://www.w3.org/1999/xlink" x="0px" y="0px"
	 viewBox="0 0 64 64" style="enable-background:new 0 0 64 64;" xml:space="preserve">
<style type="text/css">
	.st0{fill:#BFBFBF;}
</style>
<path class="st0" d="M11.4,41.9C7.2,41.9,4,45,4,48.9S7.2,56,11.4,56s7.4-3.1,7.4-7.1C18.7,45.3,15.5,41.9,11.4,41.9L11.4,41.9z
	 M47.3,30.6c3.2,0,8.3,1.1,8.3,2.8V19.3c0-3.1-1.2-6.5-4.4-6.5H36.4l-5.9,14.1H20.2V16.5c0-0.8,0.3-1.7-0.6-2.3l-5.3-5.4
	c-1.2-1.1-2.7-1.1-3.8,0s-1.8,2.8-0.6,4l4.4,4.8v9.3h-1.5c-1.8,0-4.4,2.3-4.4,3.7v8.8c2.9,0,1.8-0.3,2.4-0.3c5.6,0,10.6,4,10.6,9.3
	c0,0.6,0.3,0.8,0.3,0.8h13.3c-0.9,0-1.5-3.1-1.5-5.1C33.2,36.5,39.4,30.6,47.3,30.6z M48.2,33.4c-6.5,0-11.8,5.1-11.8,11.3
	S41.7,56,48.2,56S60,50.9,60,44.7S54.7,33.4,48.2,33.4L48.2,33.4z"/>
</svg>
