<?xml version="1.0" encoding="utf-8"?>
<!-- Generator: Adobe Illustrator 22.0.0, SVG Export Plug-In . SVG Version: 6.00 Build 0)  -->
<svg version="1.1" id="图层_1" xmlns="http://www.w3.org/2000/svg" xmlns:xlink="http://www.w3.org/1999/xlink" x="0px" y="0px"
	 viewBox="0 0 64 64" style="enable-background:new 0 0 64 64;" xml:space="preserve">
<style type="text/css">
	.st0{fill:#BFBFBF;}
</style>
<path class="st0" d="M59.8,5.6c0.4,1,0.2,2.1-0.6,2.8L39.6,27.9v29.5c0,1-0.6,1.9-1.5,2.3c-0.3,0.1-0.7,0.2-1,0.2
	c-0.7,0-1.3-0.3-1.8-0.8L25.1,49.1c-0.5-0.5-0.8-1.1-0.8-1.8V27.9L4.8,8.3C4,7.6,3.8,6.5,4.2,5.6C4.6,4.6,5.5,4,6.6,4h50.9
	C58.5,4,59.4,4.6,59.8,5.6z"/>
</svg>
