<?xml version="1.0" encoding="utf-8"?>
<!-- Generator: Adobe Illustrator 28.2.0, SVG Export Plug-In . SVG Version: 6.00 Build 0)  -->
<svg version="1.1" id="Layer_1" xmlns="http://www.w3.org/2000/svg" xmlns:xlink="http://www.w3.org/1999/xlink" x="0px" y="0px"
	 viewBox="0 0 64 64" style="enable-background:new 0 0 64 64;" xml:space="preserve">
<style type="text/css">
	.st0{fill:#FFFFFF;stroke:#2F2F2F;stroke-width:4;stroke-linecap:round;stroke-miterlimit:10;}
	.st1{fill:#DF1F1F;}
	.st2{fill:#FFFFFF;}
</style>
<g>
	<path class="st0" d="M49.89,20.34c-11.15,2.68-22.37,2.47-33.6,0.43c-3.92-0.71-7.72-1.81-11.13-4.07
		c1.92,11.47,3.81,22.81,5.7,34.17c1.5,0.07,1.76,0.4,1.5,1.97c-0.04,0.24-0.02,0.5-0.11,0.73c-0.47,1.26,0.18,1.94,1.17,2.59
		c3.18,2.08,6.79,2.82,10.45,3.37c1.72,0.25,3.46,0.38,5.35,0.58c-0.19-1.14-0.33-2.02-0.48-2.87c0.81-0.47,1.23-0.29,1.36,0.56
		c0.05,0.36,0.21,0.71,0.25,1.08c0.13,1.17,0.78,1.39,1.87,1c-0.26-1.01-0.53-2.02-0.78-3c0.79-0.4,1.22-0.29,1.41,0.48
		c0.14,0.56,0.4,1.09,0.5,1.65c0.2,1.08,0.79,1.16,1.71,0.78c-0.32-1.18-0.63-2.3-0.92-3.38c0.84-0.45,1.2-0.24,1.4,0.49
		c0.2,0.75,0.44,1.5,0.77,2.2c0.13,0.29,0.57,0.65,0.83,0.62c4.41-0.48,8.67-1.42,12.33-4.15c1.17-0.87,1.89-2,2.14-3.46
		c1.63-9.75,3.3-19.49,4.94-29.23c0.3-1.8,0.58-3.6,0.83-5.23C54.87,18.57,52.45,19.73,49.89,20.34z"/>
	<path class="st0" d="M5.54,14.07c-0.08,0.14-0.16,0.28-0.24,0.43c0.84,0.64,1.6,1.4,2.52,1.88c3.2,1.68,6.71,2.4,10.23,3
		c8.51,1.46,17.07,1.53,25.62,0.46c3.99-0.5,7.94-1.26,11.59-3.11c1.26-0.64,1.83-1.48,1.33-2.93c-0.37,0.05-0.73,0.09-0.73,0.09
		c-0.42-0.47-0.64-0.93-0.96-1.02c-2.19-0.66-4.39-1.33-6.62-1.85C42.21,9.6,36.13,8.21,29.8,8.79c-5.95,0.55-11.96,0.67-17.76,2.39
		c-0.25,0.07-0.53,0.05-0.79,0.07c-0.04-0.12-0.09-0.23-0.13-0.35c0.94-0.42,1.88-0.84,2.82-1.26c-3.2,0.47-6.2,1.29-8.57,3.84
		c0.75,0.24,1.24,0.39,1.72,0.55c-0.02,0.05-0.03,0.1-0.05,0.15C6.54,14.15,6.04,14.11,5.54,14.07z"/>
</g>
<g>
	<g>
		<path class="st1" d="M49.89,20.34c-11.15,2.68-22.37,2.47-33.6,0.43c-3.92-0.71-7.72-1.81-11.13-4.07
			c1.92,11.47,3.81,22.81,5.7,34.17c1.5,0.07,1.76,0.4,1.5,1.97c-0.04,0.24-0.02,0.5-0.11,0.73c-0.47,1.26,0.18,1.94,1.17,2.59
			c3.18,2.08,6.79,2.82,10.45,3.37c1.72,0.25,3.46,0.38,5.35,0.58c-0.19-1.14-0.33-2.02-0.48-2.87c0.81-0.47,1.23-0.29,1.36,0.56
			c0.05,0.36,0.21,0.71,0.25,1.08c0.13,1.17,0.78,1.39,1.87,1c-0.26-1.01-0.53-2.02-0.78-3c0.79-0.4,1.22-0.29,1.41,0.48
			c0.14,0.56,0.4,1.09,0.5,1.65c0.2,1.08,0.79,1.16,1.71,0.78c-0.32-1.18-0.63-2.3-0.92-3.38c0.84-0.45,1.2-0.24,1.4,0.49
			c0.2,0.75,0.44,1.5,0.77,2.2c0.13,0.29,0.57,0.65,0.83,0.62c4.41-0.48,8.67-1.42,12.33-4.15c1.17-0.87,1.89-2,2.14-3.46
			c1.63-9.75,3.3-19.49,4.94-29.23c0.3-1.8,0.58-3.6,0.83-5.23C54.87,18.57,52.45,19.73,49.89,20.34z M12.53,33.84
			c-0.16,0.01-0.33,0.01-0.49,0.02c-0.12-0.9-0.24-1.8-0.35-2.7c-0.12-0.97-0.24-1.93-0.37-3.02c0.98-0.62,1.97-1.25,2.95-1.87
			c0.1,0.1,0.19,0.2,0.29,0.29C12.56,28.61,12.12,31.1,12.53,33.84z M13.57,32.62c0.05-1.01,0.25-2.01,0.42-3
			c0.4-2.33,1.42-2.89,3.64-2.05c0.41,0.16,0.89,0.14,1.34,0.21c0.02-0.14,0.05-0.28,0.07-0.42c-1.68-1.64-3.69-2.43-6.11-2.1
			c-0.03-0.1-0.07-0.2-0.1-0.29c0.56-0.42,1.11-0.84,1.72-1.29c-0.09-0.12-0.24-0.31-0.39-0.51c5.53-2.63,14.78,3.66,14.41,10.05
			c-0.8-1.14-1.48-2.1-2.15-3.06c-0.12,0.07-0.24,0.14-0.37,0.21c0.61,1.31,1.23,2.62,1.87,4c-1.19,0-2.21-0.07-3.22,0.02
			c-1.72,0.15-3.43,0.42-5.15,0.61c-0.27,0.03-0.62,0-0.81-0.16c-1.27-1.07-2.83-1.2-4.37-1.46C14.05,33.33,13.56,32.87,13.57,32.62
			z M17.85,42.37c0.76-1.2,1.49-1.6,2.66-1c0.37,0.19,1.09,0.1,1.44-0.15c1.03-0.73,1.85-0.91,2.66,0.28
			c0.21,0.31,0.63,0.48,1.17,0.87C23.03,42.37,20.52,42.37,17.85,42.37z M19.44,46.72c-0.08,0.09-0.15,0.17-0.23,0.26
			c-0.55-0.35-1.26-0.59-1.6-1.09c-0.72-1.02-1.28-2.16-1.81-3.29c-0.11-0.23,0.24-0.68,0.38-1.02c0.21,0.25,0.49,0.46,0.61,0.75
			c0.33,0.79,0.56,1.63,0.92,2.4c0.11,0.23,0.52,0.32,0.79,0.47c0.09-0.04,0.19-0.08,0.28-0.13C19,45.62,19.22,46.17,19.44,46.72z
			 M14.62,38.5c0.29-0.04,0.5-0.08,0.77-0.12c-0.46-0.65-0.87-1.22-1.35-1.9c1.78-0.03,3.51-1.02,4.63,1.09
			c-0.39,0.62-0.78,1.43-1.35,2.08c-0.81,0.92-1.45,0.82-2.16-0.21C14.98,39.18,14.84,38.88,14.62,38.5z M21.53,56.28
			c-1.88-0.03-3.76-0.06-5.63-0.1c-0.05,0-0.11-0.12-0.13-0.2c-0.47-1.89-0.68-3.8-0.4-6.07c1.3,2.1,2.41,3.88,3.52,5.66
			c0.13-0.07,0.27-0.14,0.4-0.21c-1.6-2.27-3.02-4.61-2.98-7.77c1.35,1.1,2.47,2.01,3.36,2.74c-0.33,0.46-0.87,0.87-0.88,1.3
			c-0.02,1.32,0.14,1.39,2.14,1.71c-0.16,0.45-0.31,0.9-0.57,1.67c0.52-0.56,0.78-0.89,1.09-1.17c0.29-0.26,0.63-0.47,0.95-0.7
			c0.12,0.07,0.23,0.13,0.35,0.2C22.34,54.32,21.93,55.3,21.53,56.28z M23.68,51.41c-2.48-1.18-3.48-3.01-2.89-5.63
			c0.12,0.03,0.31,0.08,0.85,0.21c-0.51-0.6-0.81-0.95-1.26-1.48c0.55-0.06,0.99-0.13,1.43-0.15c0.49-0.02,0.99,0.06,1.46-0.01
			c1.8-0.25,1.8-0.27,2.66,1.25c0.29-0.91,0.65-1.71,0.77-2.55c0.12-0.82-0.1-1.53-1.03-2.01c-0.92-0.47-1.66-1.27-2.64-2.04
			c-0.18,1.44-0.99,1.78-2.07,1.57c-1.09-0.21-1.65-1.09-1.59-2.25c0.02-0.49-0.11-0.99-0.04-1.46c0.05-0.39,0.3-0.75,0.46-1.12
			c0.32,0.2,0.67,0.35,0.94,0.6c0.23,0.21,0.38,0.51,0.65,0.89c0.2-0.29,0.33-0.49,0.5-0.73c1.36,0.18,2.8,0.37,4.43,0.59
			c-0.29,0.69-0.47,1.12-0.66,1.58c1.01-0.27,1.1-0.39,1.27-1.75c0.09-0.68,0-1.46,1.14-1.58c0.2,0.53,0.42,1.1,0.64,1.68
			c0.1-0.01,0.2-0.03,0.3-0.04c-0.02-0.26-0.05-0.51-0.04-0.77c0.01-0.21,0.08-0.42,0.12-0.62c0.23,0.11,0.56,0.17,0.65,0.35
			c0.16,0.32,0.27,0.72,0.21,1.06c-0.23,1.44-0.3,2.92-1.42,4.12c-0.32,0.34-0.22,1.16-0.16,1.75c0.25,2.12-0.27,3.92-2.03,5.22
			c-0.52,0.38-1.17,0.58-1.75,0.85C24.34,49.65,24.03,50.47,23.68,51.41z M32.88,55.84c-2.12,0.24-4.23,0.5-6.35,0.68
			c-0.27,0.02-0.7-0.33-0.85-0.62c-0.42-0.83-0.74-1.72-1.24-2.93c1.3,0.77,2.33,1.38,3.37,2c0.05-0.06,0.11-0.12,0.16-0.18
			c-0.54-0.49-1.07-0.99-1.74-1.6c0.77-0.18,1.75,0.2,1.61-1.13c-0.15-1.55-1.1-1.47-2.12-1.35c1.19-1.31,2.37-2.61,3.66-4.03
			c1.34,2.32,0.54,4.82,0.19,7.28c0.14,0.03,0.28,0.05,0.41,0.08c0.45-2.03,0.91-4.05,1.4-6.25c0.22,0.38,0.45,0.62,0.52,0.9
			c0.56,2.05,1.07,4.12,1.64,6.17C33.73,55.52,33.49,55.78,32.88,55.84z M39.01,55.2c-1.35-2.16-2.7-4.31-4.21-6.71
			c1.46-0.12,2.68-0.21,4.1-0.33c0.13,2.4,0.25,4.68,0.37,6.96C39.18,55.15,39.09,55.18,39.01,55.2z M40.83,40.71
			c-0.13,0.83-0.27,1.66-0.44,2.76c-0.59,0.06-1.42,0.15-2.03,0.21c0.52-2.34,1.02-4.58,1.52-6.82c-0.12-0.08-0.24-0.16-0.35-0.25
			c0.82-0.1,1.64-0.19,2.48-0.29c-0.3,1.07-0.57,2.02-0.83,2.98c0.1,0.05,0.2,0.09,0.29,0.14c0.79-1.07,2.18-1.71,2.22-3.42
			c0.73-0.18,1.51-0.38,2.55-0.64c-0.92,1.17-1.62,2.16-2.43,3.05c-0.63,0.68-0.72,1.28-0.21,2.05c0.42,0.64,0.76,1.33,1.14,2
			C42.61,43.76,41.97,41.97,40.83,40.71z M48.54,37.31c0.38-0.07,0.76-0.13,1.46-0.25c-0.3,0.56-0.4,1.13-0.73,1.33
			c-1.6,0.94-1.83,1.29-1.73,3.39c-0.59,0.19-1.12,0.36-1.9,0.61c0.58-2.47,1.12-4.73,1.74-7.34c0.87-0.35,2.18-0.87,3.61-1.43
			c0.03,0.98-0.01,1.69-1.19,1.85C48.88,35.58,48.38,36.2,48.54,37.31z M53.49,33.78c-1.07,0.35-1.96,3.04-1.46,4.12
			c0.16,0.35,0.77,0.49,1.32,0.81c-0.02,0.73-0.67,1.51-1.61,1.47c-1.13-0.05-1.27-0.91-1.23-1.76c0.12-2.45,1.22-4.45,3-6.09
			c0.22-0.2,0.55-0.27,1.05-0.5C54.5,32.86,54.48,33.45,53.49,33.78z"/>
		<path class="st1" d="M5.54,14.07c-0.08,0.14-0.16,0.28-0.24,0.43c0.84,0.64,1.6,1.4,2.52,1.88c3.2,1.68,6.71,2.4,10.23,3
			c8.51,1.46,17.07,1.53,25.62,0.46c3.99-0.5,7.94-1.26,11.59-3.11c1.26-0.64,1.83-1.48,1.33-2.93c-0.37,0.05-0.73,0.09-0.73,0.09
			c-0.42-0.47-0.64-0.93-0.96-1.02c-2.19-0.66-4.39-1.33-6.62-1.85C42.21,9.6,36.13,8.21,29.8,8.79
			c-5.95,0.55-11.96,0.67-17.76,2.39c-0.25,0.07-0.53,0.05-0.79,0.07c-0.04-0.12-0.09-0.23-0.13-0.35c0.94-0.42,1.88-0.84,2.82-1.26
			c-3.2,0.47-6.2,1.29-8.57,3.84c0.75,0.24,1.24,0.39,1.72,0.55c-0.02,0.05-0.03,0.1-0.05,0.15C6.54,14.15,6.04,14.11,5.54,14.07z
			 M30.39,13.75c1.46,0,3.31-0.27,5.05,0.06c3.07,0.58,6.04-0.17,9.05-0.2c0.8-0.01,1.61,0,2.41,0c0.02,0.16,0.04,0.32,0.06,0.49
			c-0.35,0.08-0.7,0.21-1.05,0.23c-1.43,0.06-2.86,0.06-4.29,0.15c-0.4,0.03-0.79,0.28-1.17,0.58c1.81,1.12,3.79,0.58,6.03,0.74
			c-0.45,0.28-0.65,0.51-0.84,0.5c-2.53-0.1-5.06-0.19-7.59-0.36c-0.76-0.05-1.37-0.42-0.7-1.48c-1.36,0-2.56,0-3.76,0
			c-0.01,0.08-0.02,0.16-0.03,0.24c0.84,0.04,1.67,0.09,2.51,0.13c0,0.14,0,0.28,0,0.43c-0.7,0.03-1.4,0.03-2.1,0.09
			c-0.71,0.06-1.68-0.32-1.68,0.99c-1.24,0-2.45,0-3.84,0C29.11,15.45,29.66,14.71,30.39,13.75z M18.45,13.74c0.81,0,2.07,0,3.51,0
			c-0.34,0.32-0.57,0.54-1.08,1.02c2.72-0.37,5.03-1.62,7.69-0.81c-1.39,0.33-2.65,0.62-4.31,1.01c1.13,0.48,1.94,0.83,2.76,1.18
			c0,0.1,0,0.2,0,0.31c-1.43-0.13-2.87-0.22-4.3-0.4c-0.51-0.07-1.02-0.3-1.5-0.52c-0.81-0.38-1.3-0.23-1.34,0.73
			c-1.44,0-2.82,0-4.09,0C16.56,15.52,17.38,14.75,18.45,13.74z"/>
	</g>
	<g>
		<path class="st2" d="M18.73,34.84c0.19,0.16,0.54,0.19,0.81,0.16c1.72-0.19,3.43-0.46,5.15-0.61c1.01-0.09,2.04-0.02,3.22-0.02
			c-0.65-1.38-1.26-2.69-1.87-4c0.12-0.07,0.24-0.14,0.37-0.21c0.67,0.96,1.34,1.91,2.15,3.06c0.37-6.39-8.87-12.68-14.41-10.05
			c0.16,0.2,0.3,0.39,0.39,0.51c-0.61,0.46-1.16,0.87-1.72,1.29c0.03,0.1,0.07,0.2,0.1,0.29c2.43-0.33,4.43,0.46,6.11,2.1
			c-0.02,0.14-0.05,0.28-0.07,0.42c-0.45-0.06-0.93-0.05-1.34-0.21c-2.22-0.84-3.24-0.28-3.64,2.05c-0.17,1-0.37,2-0.42,3
			c-0.01,0.25,0.48,0.71,0.79,0.76C15.9,33.64,17.46,33.77,18.73,34.84z"/>
		<path class="st2" d="M26.36,48.08c1.77-1.3,2.28-3.1,2.03-5.22c-0.07-0.58-0.16-1.41,0.16-1.75c1.12-1.19,1.18-2.67,1.42-4.12
			c0.05-0.34-0.05-0.75-0.21-1.06c-0.09-0.18-0.43-0.24-0.65-0.35c-0.04,0.21-0.11,0.41-0.12,0.62c-0.01,0.25,0.02,0.51,0.04,0.77
			c-0.1,0.01-0.2,0.03-0.3,0.04c-0.22-0.57-0.44-1.15-0.64-1.68c-1.14,0.12-1.06,0.9-1.14,1.58c-0.17,1.35-0.26,1.48-1.27,1.75
			c0.19-0.46,0.37-0.88,0.66-1.58c-1.62-0.22-3.06-0.41-4.43-0.59c-0.17,0.25-0.3,0.44-0.5,0.73c-0.27-0.38-0.41-0.69-0.65-0.89
			c-0.27-0.24-0.63-0.4-0.94-0.6c-0.16,0.37-0.41,0.73-0.46,1.12c-0.07,0.48,0.06,0.98,0.04,1.46c-0.06,1.16,0.51,2.04,1.59,2.25
			c1.08,0.21,1.89-0.12,2.07-1.57c0.97,0.77,1.72,1.57,2.64,2.04c0.92,0.48,1.14,1.18,1.03,2.01c-0.12,0.84-0.49,1.64-0.77,2.55
			c-0.86-1.52-0.86-1.5-2.66-1.25c-0.48,0.07-0.98-0.02-1.46,0.01c-0.44,0.02-0.88,0.09-1.43,0.15c0.45,0.53,0.75,0.88,1.26,1.48
			c-0.54-0.13-0.73-0.18-0.85-0.21c-0.59,2.62,0.4,4.45,2.89,5.63c0.35-0.94,0.66-1.76,0.93-2.48
			C25.18,48.65,25.84,48.46,26.36,48.08z"/>
		<path class="st2" d="M31.91,48.68c-0.08-0.28-0.3-0.52-0.52-0.9c-0.49,2.2-0.95,4.22-1.4,6.25c-0.14-0.03-0.28-0.05-0.41-0.08
			c0.35-2.47,1.15-4.97-0.19-7.28c-1.29,1.42-2.47,2.72-3.66,4.03c1.03-0.12,1.97-0.21,2.12,1.35c0.13,1.34-0.84,0.95-1.61,1.13
			c0.67,0.62,1.21,1.11,1.74,1.6c-0.05,0.06-0.11,0.12-0.16,0.18c-1.04-0.61-2.07-1.23-3.37-2c0.5,1.21,0.81,2.1,1.24,2.93
			c0.15,0.29,0.58,0.64,0.85,0.62c2.12-0.18,4.23-0.44,6.35-0.68c0.61-0.07,0.85-0.33,0.67-0.99C32.98,52.8,32.47,50.74,31.91,48.68
			z"/>
		<path class="st2" d="M21.44,53.84c-0.31,0.28-0.57,0.61-1.09,1.17c0.27-0.77,0.42-1.22,0.57-1.67c-2-0.33-2.16-0.39-2.14-1.71
			c0.01-0.42,0.55-0.84,0.88-1.3c-0.9-0.73-2.02-1.64-3.36-2.74c-0.05,3.16,1.38,5.49,2.98,7.77c-0.13,0.07-0.27,0.14-0.4,0.21
			c-1.11-1.78-2.21-3.56-3.52-5.66c-0.28,2.27-0.06,4.17,0.4,6.07c0.02,0.07,0.08,0.2,0.13,0.2c1.88,0.04,3.75,0.07,5.63,0.1
			c0.41-0.98,0.82-1.96,1.22-2.94c-0.12-0.07-0.23-0.13-0.35-0.2C22.08,53.37,21.74,53.58,21.44,53.84z"/>
		<path class="st2" d="M43.8,38.43c0.82-0.88,1.51-1.88,2.43-3.05c-1.05,0.26-1.82,0.46-2.55,0.64c-0.04,1.71-1.43,2.35-2.22,3.42
			c-0.1-0.05-0.2-0.09-0.29-0.14c0.27-0.96,0.54-1.91,0.83-2.98c-0.83,0.1-1.65,0.2-2.48,0.29c0.12,0.08,0.24,0.16,0.35,0.25
			c-0.5,2.24-1,4.48-1.52,6.82c0.62-0.06,1.44-0.15,2.03-0.21c0.18-1.1,0.31-1.93,0.44-2.76c1.13,1.26,1.77,3.05,3.89,1.77
			c-0.38-0.67-0.72-1.36-1.14-2C43.08,39.71,43.17,39.11,43.8,38.43z"/>
		<path class="st2" d="M49.8,35.46c1.17-0.15,1.21-0.87,1.19-1.85c-1.42,0.57-2.73,1.09-3.61,1.43c-0.62,2.61-1.16,4.87-1.74,7.34
			c0.77-0.25,1.31-0.42,1.9-0.61c-0.1-2.1,0.13-2.45,1.73-3.39c0.33-0.19,0.44-0.77,0.73-1.33c-0.71,0.12-1.08,0.18-1.46,0.25
			C48.38,36.2,48.88,35.58,49.8,35.46z"/>
		<path class="st2" d="M34.8,48.49c1.5,2.4,2.86,4.56,4.21,6.71c0.09-0.03,0.17-0.05,0.26-0.08c-0.12-2.28-0.24-4.57-0.37-6.96
			C37.47,48.27,36.25,48.37,34.8,48.49z"/>
		<path class="st2" d="M53.51,32.32c-1.78,1.64-2.88,3.64-3,6.09c-0.04,0.85,0.1,1.71,1.23,1.76c0.94,0.04,1.59-0.73,1.61-1.47
			c-0.56-0.32-1.16-0.46-1.32-0.81c-0.5-1.08,0.39-3.77,1.46-4.12c0.99-0.33,1.01-0.92,1.07-1.96
			C54.06,32.05,53.72,32.12,53.51,32.32z"/>
		<path class="st2" d="M17.32,39.65c0.57-0.65,0.95-1.46,1.35-2.08c-1.12-2.11-2.85-1.12-4.63-1.09c0.49,0.68,0.89,1.26,1.35,1.9
			c-0.27,0.04-0.49,0.08-0.77,0.12c0.22,0.38,0.36,0.67,0.55,0.94C15.87,40.47,16.51,40.57,17.32,39.65z"/>
		<path class="st2" d="M24.61,41.5c-0.8-1.19-1.63-1.01-2.66-0.28c-0.35,0.25-1.07,0.34-1.44,0.15c-1.17-0.6-1.9-0.19-2.66,1
			c2.66,0,5.18,0,7.93,0C25.24,41.98,24.82,41.81,24.61,41.5z"/>
		<path class="st2" d="M14.55,26.56c-0.1-0.1-0.19-0.2-0.29-0.29c-0.99,0.63-1.98,1.26-2.95,1.87c0.13,1.08,0.25,2.05,0.37,3.02
			c0.11,0.9,0.23,1.8,0.35,2.7c0.16-0.01,0.33-0.01,0.49-0.02C12.12,31.1,12.56,28.61,14.55,26.56z"/>
		<path class="st2" d="M17.71,44.73c-0.36-0.78-0.59-1.61-0.92-2.4c-0.12-0.28-0.4-0.5-0.61-0.75c-0.14,0.35-0.49,0.79-0.38,1.02
			c0.52,1.14,1.09,2.27,1.81,3.29c0.35,0.49,1.06,0.73,1.6,1.09c0.08-0.09,0.15-0.17,0.23-0.26c-0.22-0.55-0.44-1.1-0.67-1.65
			c-0.09,0.04-0.19,0.08-0.28,0.13C18.22,45.04,17.81,44.96,17.71,44.73z"/>
		<path class="st2" d="M36.07,14.82c-0.84-0.04-1.67-0.09-2.51-0.13c0.01-0.08,0.02-0.16,0.03-0.24c1.2,0,2.4,0,3.76,0
			c-0.68,1.06-0.06,1.43,0.7,1.48c2.53,0.17,5.06,0.27,7.59,0.36c0.19,0.01,0.39-0.22,0.84-0.5c-2.24-0.16-4.23,0.38-6.03-0.74
			c0.38-0.3,0.77-0.55,1.17-0.58c1.43-0.09,2.86-0.09,4.29-0.15c0.35-0.02,0.7-0.15,1.05-0.23c-0.02-0.16-0.04-0.32-0.06-0.49
			c-0.8,0-1.61-0.01-2.41,0c-3.01,0.03-5.98,0.78-9.05,0.2c-1.74-0.33-3.59-0.06-5.05-0.06c-0.72,0.97-1.28,1.71-1.93,2.58
			c1.39,0,2.61,0,3.84,0c0-1.32,0.97-0.94,1.68-0.99c0.7-0.06,1.4-0.06,2.1-0.09C36.08,15.1,36.07,14.96,36.07,14.82z"/>
		<path class="st2" d="M21.21,15.53c0.48,0.22,0.99,0.46,1.5,0.52c1.43,0.18,2.87,0.27,4.3,0.4c0-0.1,0-0.2,0-0.31
			c-0.81-0.35-1.63-0.7-2.76-1.18c1.66-0.39,2.92-0.69,4.31-1.01c-2.65-0.81-4.97,0.43-7.69,0.81c0.5-0.48,0.74-0.7,1.08-1.02
			c-1.44,0-2.7,0-3.51,0c-1.07,1.01-1.89,1.78-2.68,2.52c1.27,0,2.66,0,4.09,0C19.91,15.29,20.4,15.14,21.21,15.53z"/>
	</g>
</g>
</svg>
