<?xml version="1.0" encoding="utf-8"?>
<!-- Generator: Adobe Illustrator 28.2.0, SVG Export Plug-In . SVG Version: 6.00 Build 0)  -->
<svg version="1.1" id="Layer_1" xmlns="http://www.w3.org/2000/svg" xmlns:xlink="http://www.w3.org/1999/xlink" x="0px" y="0px"
	 viewBox="0 0 64 64" style="enable-background:new 0 0 64 64;" xml:space="preserve">
<style type="text/css">
	.st0{fill:#BFBFBF;}
</style>
<path class="st0" d="M5.4,20.2l25.5,11.6c0.7,0.3,1.6,0.3,2.3,0l25.5-11.6c1.8-0.8,1.8-3.6,0-4.4L33.2,4.3c-0.7-0.3-1.6-0.3-2.3,0
	L5.4,15.8C3.5,16.6,3.5,19.4,5.4,20.2z M58.6,29.8L52.3,27l-17.7,8c-0.8,0.4-1.7,0.6-2.6,0.6c-0.9,0-1.8-0.2-2.6-0.6l-17.7-8
	l-6.4,2.9c-1.8,0.8-1.8,3.6,0,4.4l25.5,11.5c0.7,0.3,1.6,0.3,2.3,0l25.5-11.5C60.5,33.4,60.5,30.7,58.6,29.8z M58.6,43.8L52.3,41
	l-17.7,8c-0.8,0.4-1.7,0.6-2.6,0.6c-0.9,0-1.8-0.2-2.6-0.6l-17.7-8l-6.3,2.9c-1.8,0.8-1.8,3.6,0,4.4l25.5,11.5
	c0.7,0.3,1.6,0.3,2.3,0l25.5-11.5C60.5,47.4,60.5,44.6,58.6,43.8z"/>
</svg>
