<?xml version="1.0" encoding="utf-8"?>
<!-- Generator: Adobe Illustrator 24.0.1, SVG Export Plug-In . SVG Version: 6.00 Build 0)  -->
<svg version="1.1" id="Layer_1" xmlns="http://www.w3.org/2000/svg" xmlns:xlink="http://www.w3.org/1999/xlink" x="0px" y="0px"
	 viewBox="0 0 64 64" style="enable-background:new 0 0 64 64;" xml:space="preserve">
<style type="text/css">
	.st0{fill:#FFFFFF;stroke:#5F5F5F;stroke-width:4;stroke-linecap:round;stroke-miterlimit:10;}
	.st1{fill:#47FFFF;}
	.st2{fill:#5F5F5F;}
</style>
<rect x="8" y="8" class="st0" width="48" height="48"/>
<g>
	<path class="st1" d="M32,49.6c-9.7,0-17.6-7.9-17.6-17.6S22.3,14.4,32,14.4S49.6,22.3,49.6,32S41.7,49.6,32,49.6z"/>
	<path class="st2" d="M32,15.6c9.1,0,16.4,7.4,16.4,16.4c0,9.1-7.4,16.4-16.4,16.4c-9.1,0-16.4-7.4-16.4-16.4
		C15.6,22.9,22.9,15.6,32,15.6 M32,13.2c-10.4,0-18.8,8.4-18.8,18.8S21.6,50.8,32,50.8S50.8,42.4,50.8,32S42.4,13.2,32,13.2L32,13.2
		z"/>
</g>
</svg>
