<?xml version="1.0" encoding="utf-8"?>
<!-- Generator: Adobe Illustrator 24.0.1, SVG Export Plug-In . SVG Version: 6.00 Build 0)  -->
<svg version="1.1" id="Layer_1" xmlns="http://www.w3.org/2000/svg" xmlns:xlink="http://www.w3.org/1999/xlink" x="0px" y="0px"
	 viewBox="0 0 64 64" style="enable-background:new 0 0 64 64;" xml:space="preserve">
<style type="text/css">
	.st0{fill:#FFFFFF;stroke:#5F5F5F;stroke-width:4;stroke-linecap:round;stroke-miterlimit:10;}
	.st1{fill:#47FFFF;}
	.st2{fill:#5F5F5F;}
</style>
<rect x="4" y="4" class="st0" width="56" height="56"/>
<g>
	<path class="st1" d="M32,52.6c-11.3,0-20.6-9.2-20.6-20.6S20.7,11.4,32,11.4S52.6,20.7,52.6,32S43.3,52.6,32,52.6z"/>
	<path class="st2" d="M32,12.8c10.6,0,19.2,8.7,19.2,19.2c0,10.6-8.7,19.2-19.2,19.2c-10.6,0-19.2-8.7-19.2-19.2
		C12.8,21.4,21.4,12.8,32,12.8 M32,10c-12.2,0-22,9.8-22,22s9.8,22,22,22s22-9.8,22-22S44.2,10,32,10L32,10z"/>
</g>
</svg>
