<?xml version="1.0" encoding="utf-8"?>
<!-- Generator: Adobe Illustrator 19.2.1, SVG Export Plug-In . SVG Version: 6.00 Build 0)  -->
<svg version="1.1" id="Layer_1" xmlns="http://www.w3.org/2000/svg" xmlns:xlink="http://www.w3.org/1999/xlink" x="0px" y="0px"
	 viewBox="0 0 240 240" enable-background="new 0 0 240 240" xml:space="preserve">
<g>
	<g id="XMLID_82_">
		<rect x="15.6" y="15.6" fill="#48AAB5" width="208.9" height="208.9"/>
	</g>
	<g>
		<polygon fill="#1D1D1D" points="226.8,49.8 191.8,15.3 154.5,15 190.4,50.8 154.5,86.7 191.8,86.4 226.8,51.9 196.1,50.8 		"/>
		<polygon fill="#1D1D1D" points="124.5,50.8 155.3,49.8 120.3,15.3 83,15 118.9,50.8 83,86.7 120.3,86.4 155.3,51.9 		"/>
		<polygon fill="#1D1D1D" points="54.5,50.8 85.3,49.8 50.3,15.3 13,15 48.9,50.8 13,86.7 50.3,86.4 85.3,51.9 		"/>
	</g>
	<g id="XMLID_41_">
		<path fill="#1D1D1D" d="M220,20v200H20V20H220 M228,12H12v216h216V12L228,12z"/>
	</g>
	
		<line fill="#48AAB5" stroke="#1D1D1D" stroke-width="8" stroke-linecap="round" stroke-miterlimit="10" x1="16.3" y1="85.7" x2="223.7" y2="85.7"/>
	
		<line fill="#48AAB5" stroke="#1D1D1D" stroke-width="8" stroke-linecap="round" stroke-miterlimit="10" x1="16.3" y1="50.7" x2="223.7" y2="50.7"/>
</g>
<rect fill-rule="evenodd" clip-rule="evenodd" fill="none" width="240" height="240"/>
<g>
	<polygon fill-rule="evenodd" clip-rule="evenodd" fill="#BDBDBD" points="91.4,187.8 159.5,144.4 227.6,187.8 159.5,231.3 	"/>
	<path fill="#1D1D1D" d="M159.5,149.2l60.6,38.7l-60.6,38.7l-60.6-38.7L159.5,149.2 M159.5,139.7L84,187.8l75.5,48.2l75.5-48.2
		L159.5,139.7L159.5,139.7z"/>
</g>
<g>
	<polygon opacity="0.5" fill-rule="evenodd" clip-rule="evenodd" fill="#BDBDBD" points="91.4,157.8 159.5,114.4 227.6,157.8 
		159.5,201.3 	"/>
	<path fill="#1D1D1D" d="M159.5,119.2l60.6,38.7l-60.6,38.7l-60.6-38.7L159.5,119.2 M159.5,109.7L84,157.8l75.5,48.2l75.5-48.2
		L159.5,109.7L159.5,109.7z"/>
</g>
<g>
</g>
<g>
</g>
<g>
</g>
<g>
</g>
<g>
</g>
<g>
</g>
</svg>
