<?xml version="1.0" encoding="utf-8"?>
<!-- Generator: Adobe Illustrator 29.1.0, SVG Export Plug-In . SVG Version: 9.03 Build 55587)  -->
<svg version="1.0" id="Layer_1" xmlns="http://www.w3.org/2000/svg" xmlns:xlink="http://www.w3.org/1999/xlink" x="0px" y="0px"
	 viewBox="0 0 64 64" style="enable-background:new 0 0 64 64;" xml:space="preserve">
<style type="text/css">
	.st0{fill:#BFBFBF;}
	.st1{fill:#FFFF3F;}
</style>
<path class="st0" d="M41,52.7c0-6.3,5.1-11.3,11.3-11.3c2.9,0,5.6,1.1,7.6,2.9V19.9c0.1-1.2-0.4-2.4-1.2-3.2L47.3,5.3
	c-0.8-0.8-2-1.3-3.2-1.3H6.2C5,4,4,5,4,6.2v51.5C4,59,5,60,6.2,60h37.5C42,58,41,55.5,41,52.7z M23,8.5h18v7.8H23V8.5z M32,47.3
	c-5.6,0-10.1-4.5-10.1-10.1c0-5.6,4.5-10.1,10.1-10.1s10.1,4.5,10.1,10.1C42.1,42.8,37.6,47.3,32,47.3z"/>
<path class="st1" d="M52.5,43.1c-5.5,0-9.9,4.5-9.9,9.9s4.5,9.9,9.9,9.9s9.9-4.5,9.9-9.9S58,43.1,52.5,43.1z M53.9,54.4V60H51v-5.7
	h-5.7v-2.9H51v-5.7h2.9v5.7h5.7v2.9H53.9z"/>
</svg>
