<?xml version="1.0" encoding="utf-8"?>
<!-- Generator: Adobe Illustrator 29.1.0, SVG Export Plug-In . SVG Version: 9.03 Build 55587)  -->
<svg version="1.0" id="Layer_1" xmlns="http://www.w3.org/2000/svg" xmlns:xlink="http://www.w3.org/1999/xlink" x="0px" y="0px"
	 viewBox="0 0 64 64" style="enable-background:new 0 0 64 64;" xml:space="preserve">
<style type="text/css">
	.st0{fill:#3FFF3F;}
	.st1{fill:#BFBFBF;}
</style>
<path class="st0" d="M63.6,63.8v-3.1l0,0l0,0V60l0,0l0.2-11.4l-3.9,0.2l-0.2,8.2L47,43.9l-3,3.1l12.9,13h-8.2l-0.2,3.8l11.2-0.2l0,0
	L63.6,63.8L63.6,63.8L63.6,63.8z"/>
<path class="st1" d="M41,52.7c0-6.3,5.1-11.3,11.3-11.3c2.9,0,5.6,1.1,7.6,2.9V19.9c0.1-1.2-0.4-2.4-1.2-3.2L47.3,5.3
	c-0.8-0.8-2-1.3-3.2-1.3H6.2C5,4,4,5,4,6.2v51.5C4,59,5,60,6.2,60h37.5C42,58,41,55.5,41,52.7z M23,8.5h18v7.8H23V8.5z M32,47.3
	c-5.6,0-10.1-4.5-10.1-10.1c0-5.6,4.5-10.1,10.1-10.1s10.1,4.5,10.1,10.1C42.1,42.8,37.6,47.3,32,47.3z"/>
</svg>
