<?xml version="1.0" encoding="utf-8"?>
<!-- Generator: Adobe Illustrator 28.2.0, SVG Export Plug-In . SVG Version: 6.00 Build 0)  -->
<svg version="1.1" id="Layer_1" xmlns="http://www.w3.org/2000/svg" xmlns:xlink="http://www.w3.org/1999/xlink" x="0px" y="0px"
	 viewBox="0 0 64 64" style="enable-background:new 0 0 64 64;" xml:space="preserve">
<style type="text/css">
	.st0{fill:#BFBFBF;}
</style>
<path class="st0" d="M58.7,16.7L47.3,5.3c-0.8-0.8-2-1.3-3.2-1.3H6.2C5,4,4,5,4,6.2v51.5C4,59,5,60,6.2,60h51.5c1.2,0,2.2-1,2.2-2.2
	V19.9C60,18.7,59.5,17.5,58.7,16.7L58.7,16.7z M23,8.5H41v7.8H23V8.5z M32,47.3c-5.6,0-10.1-4.5-10.1-10.1S26.4,27.1,32,27.1
	s10.1,4.5,10.1,10.1S37.6,47.3,32,47.3z M32,31.6c-3.1,0-5.6,2.5-5.6,5.6c0,3.1,2.5,5.6,5.6,5.6c3.1,0,5.6-2.5,5.6-5.6
	C37.6,34.1,35.1,31.6,32,31.6z"/>
</svg>
