<?xml version="1.0" encoding="utf-8"?>
<!-- Generator: Adobe Illustrator 28.2.0, SVG Export Plug-In . SVG Version: 6.00 Build 0)  -->
<svg version="1.1" id="Layer_1" xmlns="http://www.w3.org/2000/svg" xmlns:xlink="http://www.w3.org/1999/xlink" x="0px" y="0px"
	 viewBox="0 0 64 64" style="enable-background:new 0 0 64 64;" xml:space="preserve">
<style type="text/css">
	.st0{fill:#BFBFBF;}
	.st1{fill:#FFFF3F;}
</style>
<path class="st0" d="M50.9,14.9l-9.8-9.8C40.4,4.4,39.4,4,38.4,4H5.9C4.9,4,4,4.9,4,5.9v44.2C4,51.1,4.9,52,5.9,52h44.2
	c1.1,0,1.9-0.9,1.9-1.9V17.6C52,16.6,51.6,15.6,50.9,14.9L50.9,14.9z M20.3,7.8h15.4v6.7H20.3V7.8z M28,41.1c-4.8,0-8.6-3.9-8.6-8.6
	s3.9-8.6,8.6-8.6s8.6,3.9,8.6,8.6S32.8,41.1,28,41.1z M28,27.6c-2.7,0-4.8,2.1-4.8,4.8s2.1,4.8,4.8,4.8c2.7,0,4.8-2.1,4.8-4.8
	S30.7,27.6,28,27.6z"/>
<path class="st1" d="M53,43c-5.5,0-10,4.5-10,10s4.5,10,10,10s10-4.5,10-10S58.5,43,53,43z M54.4,54.4v5.7h-2.9v-5.7h-5.7v-2.9h5.7
	v-5.7h2.9v5.7h5.7v2.9H54.4z"/>
</svg>
