<?xml version="1.0" encoding="utf-8"?>
<!-- Generator: Adobe Illustrator 22.0.0, SVG Export Plug-In . SVG Version: 6.00 Build 0)  -->
<svg version="1.1" id="图层_1" xmlns="http://www.w3.org/2000/svg" xmlns:xlink="http://www.w3.org/1999/xlink" x="0px" y="0px"
	 viewBox="0 0 64 64" style="enable-background:new 0 0 64 64;" xml:space="preserve">
<style type="text/css">
	.st0{fill:#BFBFBF;}
</style>
<path class="st0" d="M7.5,60C5.6,60,4,58.4,4,56.5l0,0V41.4l11.5-11.6c1.4-1.4,3.6-1.4,4.9,0l0,0L50.6,60H7.5z"/>
<path class="st0" d="M60,56.5c0,0.4-0.1,0.9-0.2,1.3c-0.1,0.2-0.2,0.3-0.3,0.5c-0.1,0.1-0.2,0.3-0.3,0.4L40.4,39.9l3.1-3.1
	c1.4-1.4,3.6-1.4,4.9,0l0,0L60,48.4V56.5z"/>
<circle class="st0" cx="37.3" cy="16.2" r="5.3"/>
</svg>
