<?xml version="1.0" encoding="utf-8"?>
<!-- Generator: Adobe Illustrator 19.2.1, SVG Export Plug-In . SVG Version: 6.00 Build 0)  -->
<svg version="1.1" id="Layer_1" xmlns="http://www.w3.org/2000/svg" xmlns:xlink="http://www.w3.org/1999/xlink" x="0px" y="0px"
	 viewBox="0 0 240 240" enable-background="new 0 0 240 240" xml:space="preserve">
<rect fill-rule="evenodd" clip-rule="evenodd" fill="none" width="240" height="240"/>
<rect fill-rule="evenodd" clip-rule="evenodd" fill="none" width="240" height="240"/>
<g>
	<g>
		<g>
			<polygon fill-rule="evenodd" clip-rule="evenodd" fill="#BDBDBD" points="93.5,53.3 93.5,40 40.4,40 40.4,53.3 27.1,53.3 
				27.1,186 212.9,186 212.9,53.3 			"/>
		</g>
		<g>
			<polygon fill="none" stroke="#1D1D1D" stroke-width="8" stroke-miterlimit="10" points="93.5,53.3 93.5,40 40.4,40 40.4,53.3 
				27.1,53.3 27.1,186 212.9,186 212.9,53.3 			"/>
		</g>
	</g>
	<g>
		<path fill-rule="evenodd" clip-rule="evenodd" fill="#BDBDBD" d="M120,163.5c-24.2,0-43.8-19.7-43.8-43.8
			c0-24.2,19.7-43.8,43.8-43.8s43.8,19.7,43.8,43.8C163.8,143.8,144.2,163.5,120,163.5z"/>
		<path fill="#1D1D1D" d="M120,79.8c22,0,39.8,17.8,39.8,39.8S142,159.5,120,159.5s-39.8-17.8-39.8-39.8S98,79.8,120,79.8 M120,71.8
			c-26.4,0-47.8,21.5-47.8,47.8c0,26.4,21.5,47.8,47.8,47.8s47.8-21.5,47.8-47.8C167.8,93.3,146.4,71.8,120,71.8L120,71.8z"/>
	</g>
	<circle fill-rule="evenodd" clip-rule="evenodd" fill="#1D1D1D" cx="120" cy="119.6" r="26.5"/>
	<g>
		<rect x="167.1" y="72.5" fill-rule="evenodd" clip-rule="evenodd" fill="#1D1D1D" width="26.5" height="13.3"/>
	</g>
</g>
</svg>
