<?xml version="1.0" encoding="utf-8"?>
<!-- Generator: Adobe Illustrator 24.0.1, SVG Export Plug-In . SVG Version: 6.00 Build 0)  -->
<svg version="1.1" id="Layer_1" xmlns="http://www.w3.org/2000/svg" xmlns:xlink="http://www.w3.org/1999/xlink" x="0px" y="0px"
	 viewBox="0 0 64 64" style="enable-background:new 0 0 64 64;" xml:space="preserve">
<style type="text/css">
	.st0{fill:#DFDFDF;}
	.st1{fill:#DF3F7F;stroke:#000000;stroke-width:2;stroke-miterlimit:10;}
	.st2{fill:#FFDF3F;stroke:#000000;stroke-width:2;stroke-miterlimit:10;}
</style>
<polygon class="st0" points="22,16 22,60 10,60 10,16 4,16 16,4 28,16 "/>
<g>
	<path class="st1" d="M54.3,60l-6.8-2.4l5-14c0.1-0.4,0.2-0.8,0.2-1.1c0-0.7-0.3-1.3-0.8-1.8c-0.5-0.5-1.1-0.7-1.8-0.7
		c-0.7,0-1.3,0.2-1.8,0.7c-0.5,0.5-0.7,1.1-0.7,1.8c0,0.7,0.2,1.3,0.7,1.8c0.5,0.5,1.1,0.7,1.8,0.7c0.2,0,0.4,0,0.7-0.1l-3.1,7.4
		c-2.7-1.2-4.6-2.5-5.8-4c-1.2-1.5-1.8-3.4-1.8-5.6c0-2.8,1-5.1,2.9-7c1.9-1.9,4.3-2.9,7-2.9c2.6,0,4.9,1,6.9,2.9
		c2,1.9,2.9,4.2,2.9,6.7c0,1.2-0.5,3-1.4,5.6L54.3,60z"/>
	<path class="st2" d="M40.9,20.3v-5.6c0-3.3,0.8-5.9,2.5-7.8C45,5,47.3,4,50.1,4c2.8,0,5.1,1,6.7,2.9c1.7,1.9,2.5,4.5,2.5,7.8v5.6
		c0,3.3-0.8,5.9-2.5,7.8C55.2,30,53,31,50.1,31c-2.8,0-5.1-1-6.7-2.9C41.7,26.2,40.9,23.6,40.9,20.3z M48.3,13.1v8.7
		c0,1.6,0.6,2.4,1.8,2.4c1.2,0,1.9-0.8,1.9-2.4v-8.7c0-1.6-0.6-2.4-1.9-2.4C48.9,10.8,48.3,11.6,48.3,13.1z"/>
</g>
</svg>
