<?xml version="1.0" encoding="utf-8"?>
<!-- Generator: Adobe Illustrator 24.0.1, SVG Export Plug-In . SVG Version: 6.00 Build 0)  -->
<svg version="1.1" id="Layer_1" xmlns="http://www.w3.org/2000/svg" xmlns:xlink="http://www.w3.org/1999/xlink" x="0px" y="0px"
	 viewBox="0 0 64 64" style="enable-background:new 0 0 64 64;" xml:space="preserve">
<style type="text/css">
	.st0{fill:#DFDFDF;}
	.st1{fill:#DF3F7F;stroke:#000000;stroke-width:2;stroke-miterlimit:10;}
	.st2{fill:#FFDF3F;stroke:#000000;stroke-width:2;stroke-miterlimit:10;}
</style>
<polygon class="st0" points="22,48 22,4 10,4 10,48 4,48 16,60 28,48 "/>
<g>
	<path class="st1" d="M60,33.6l-8,18.3h7.9v7.4H40.5l8-18.3H40v-7.4H60z"/>
	<path class="st2" d="M50.5,17.4v6.8h-2.2v6.1h-7.7V14c0-3.2,0.9-5.6,2.6-7.4C44.9,4.9,47.4,4,50.5,4c3,0,5.3,0.8,6.7,2.4
		s2.2,4,2.2,7.4v16.6h-7.7V14.2c0-1-0.1-1.7-0.4-2.1c-0.2-0.4-0.7-0.6-1.3-0.6c-1.2,0-1.8,0.9-1.8,2.7v3.2H50.5z"/>
</g>
</svg>
