<?xml version="1.0" encoding="iso-8859-1"?>
<!-- Generator: Adobe Illustrator 19.2.1, SVG Export Plug-In . SVG Version: 6.00 Build 0)  -->
<svg version="1.1" id="Layer_1" xmlns="http://www.w3.org/2000/svg" xmlns:xlink="http://www.w3.org/1999/xlink" x="0px" y="0px"
	 viewBox="0 0 240 240" style="enable-background:new 0 0 240 240;" xml:space="preserve">
<circle style="fill-rule:evenodd;clip-rule:evenodd;fill:#D6806D;stroke:#1D1D1D;stroke-width:8;stroke-miterlimit:10;" cx="120" cy="120" r="56.75"/>
<g>
	<g>
		<path style="fill-rule:evenodd;clip-rule:evenodd;fill:#BDBDBD;" d="M120.425,222.801c-0.647,0-1.295-0.157-1.883-0.471
			L32.3,176.305c-1.303-0.695-2.117-2.053-2.117-3.529V69.195c0-1.478,0.815-2.835,2.119-3.53l86.317-45.99
			c0.588-0.313,1.234-0.47,1.881-0.47c0.647,0,1.293,0.157,1.881,0.47l86.316,45.99c1.305,0.695,2.119,2.052,2.119,3.53v103.581
			c0,1.478-0.814,2.835-2.119,3.53l-86.393,46.025C121.719,222.645,121.071,222.801,120.425,222.801z M110.747,195.524v-72.168
			L49.691,89.967v74.076L110.747,195.524z M130.255,195.523l61.053-31.48V89.967l-61.053,33.389V195.523z M120.5,104.93
			l60.606-32.719L120.5,39.765L59.894,72.211L120.5,104.93z"/>
	</g>
	<g>
		<path style="fill:#1D1D1D;" d="M120.501,23.205l86.316,45.989v103.58l-86.392,46.026l-86.242-46.026V69.195L120.501,23.205
			 M120.501,109.476l69.053-37.279l-69.053-36.969L51.446,72.197L120.501,109.476 M126.255,202.087l69.053-35.606v-83.26
			l-69.053,37.764V202.087 M114.747,202.087v-81.102L45.692,83.221v83.26L114.747,202.087 M120.501,15.205
			c-1.293,0-2.586,0.313-3.762,0.94L30.422,62.134c-2.609,1.39-4.238,4.105-4.238,7.06v103.58c0,2.954,1.628,5.667,4.233,7.058
			l86.242,46.026c1.177,0.628,2.472,0.942,3.767,0.942c1.293,0,2.586-0.313,3.761-0.939l86.392-46.026
			c2.609-1.39,4.238-4.105,4.238-7.061V69.195c0-2.956-1.63-5.671-4.238-7.06l-86.316-45.989
			C123.087,15.519,121.794,15.205,120.501,15.205L120.501,15.205z M68.341,72.226l52.16-27.924l52.158,27.924l-52.158,28.159
			L68.341,72.226L68.341,72.226z M53.692,161.605V96.714l53.055,29.014v63.233L53.692,161.605L53.692,161.605z M134.255,125.728
			l53.053-29.014v64.891l-53.053,27.356V125.728L134.255,125.728z"/>
	</g>
</g>
<rect style="fill-rule:evenodd;clip-rule:evenodd;fill:none;" width="240" height="240"/>
</svg>
