<?xml version="1.0" encoding="utf-8"?>
<!-- Generator: Adobe Illustrator 28.2.0, SVG Export Plug-In . SVG Version: 6.00 Build 0)  -->
<svg version="1.1" id="Layer_1" xmlns="http://www.w3.org/2000/svg" xmlns:xlink="http://www.w3.org/1999/xlink" x="0px" y="0px"
	 viewBox="0 0 64 64" style="enable-background:new 0 0 64 64;" xml:space="preserve">
<style type="text/css">
	.st0{fill:#BFBFBF;}
</style>
<path class="st0" d="M35.7,7h-7.4c-3.1,0.1-5.4,2.8-5.3,6c0.1,3,2.4,5.4,5.3,5.5h7.4c3,0,5.5-2.6,5.5-5.8C41.2,9.6,38.7,7,35.7,7z
	 M35.7,14.7h-7.4c-1,0-1.8-0.9-1.8-1.9c0-1.1,0.8-1.9,1.8-1.9h7.4c1,0,1.8,0.9,1.8,1.9C37.5,13.8,36.7,14.7,35.7,14.7z M35.7,26.2
	h-7.4c-3.1,0-5.5,2.6-5.5,5.8c0,3.2,2.5,5.8,5.5,5.8h7.4c3.1,0,5.5-2.6,5.5-5.8C41.2,28.8,38.7,26.2,35.7,26.2z M35.7,33.9h-7.4
	c-1,0-1.8-0.9-1.8-2c0-1,0.8-1.8,1.8-1.8h7.4c1,0,1.8,0.9,1.8,2C37.4,33.1,36.6,33.9,35.7,33.9z M35.7,45.5h-7.4
	c-3,0-5.5,2.6-5.5,5.8c0,3.2,2.5,5.8,5.5,5.8h7.4c3.1,0,5.5-2.6,5.5-5.8C41.2,48,38.7,45.5,35.7,45.5z M35.7,53.1h-7.4
	c-1,0-1.8-0.9-1.8-2c0-1,0.8-1.8,1.8-1.8h7.4c1,0,1.8,0.9,1.8,2C37.4,52.3,36.6,53.1,35.7,53.1z M15.4,49.3c-2,0-3.8-0.8-5.2-2.2
	C8.8,45.6,8,43.7,8,41.6c0-2.1,0.8-4,2.2-5.5c1.4-1.4,3.3-2.3,5.2-2.2h3.7v-3.8h-3.7C9.3,29.9,4.2,34.9,4,41.2
	c-0.2,6.4,4.6,11.7,10.7,11.9c0.2,0,0.5,0,0.7,0V57l5.5-5.8l-5.5-5.8L15.4,49.3L15.4,49.3z M48.6,10.9h-3.7v3.8h3.7
	c2,0,3.8,0.8,5.2,2.3s2.2,3.4,2.2,5.4c0,4.2-3.3,7.7-7.3,7.7c0,0,0,0,0,0v-3.8L43.1,32l5.5,5.8v-3.9c6.1,0.2,11.2-4.8,11.4-11.2
	s-4.6-11.7-10.7-11.9C49.1,10.8,48.8,10.8,48.6,10.9L48.6,10.9z"/>
</svg>
