<?xml version="1.0" encoding="utf-8"?>
<!-- Generator: Adobe Illustrator 24.0.1, SVG Export Plug-In . SVG Version: 6.00 Build 0)  -->
<svg version="1.1" id="Layer_1" xmlns="http://www.w3.org/2000/svg" xmlns:xlink="http://www.w3.org/1999/xlink" x="0px" y="0px"
	 viewBox="0 0 128 128" style="enable-background:new 0 0 128 128;" xml:space="preserve">
<style type="text/css">
	.st0{fill:#3F7FFF;stroke:#808080;stroke-miterlimit:10;}
	.st1{fill:#3FFF7F;stroke:#7F7F7F;stroke-miterlimit:10;}
	.st2{fill:#FF003F;stroke:#000000;stroke-miterlimit:10;}
	.st3{font-family:'MyriadPro-Regular';}
	.st4{font-size:6px;}
	.st5{font-size:8px;}
</style>
<ellipse id="intersection" class="st0" cx="64" cy="64" rx="16" ry="27.7"/>
<path id="addition_1_" class="st1" d="M80,32c-5.8,0-11.3,1.6-16,4.3c9.6,5.5,16,15.9,16,27.7c0,11.8-6.4,22.2-16,27.7
	c4.7,2.7,10.2,4.3,16,4.3c17.7,0,32-14.3,32-32C112,46.3,97.7,32,80,32z"/>
<path id="deletion" class="st2" d="M48,64c0-11.8,6.4-22.2,16-27.7C59.3,33.6,53.8,32,48,32c-17.7,0-32,14.3-32,32
	c0,17.7,14.3,32,32,32c5.8,0,11.3-1.6,16-4.3C54.4,86.2,48,75.8,48,64z"/>
<text transform="matrix(1 0 0 1 21.1721 64.9343)" class="st3 st4">deletion</text>
<text transform="matrix(1 0 0 1 36.9758 27.7611)" class="st3 st5">source</text>
<text transform="matrix(1 0 0 1 69.9078 27.7608)" class="st3 st5">target</text>
<text transform="matrix(1 0 0 1 85.3839 65.576)" class="st3 st4">addition</text>
<text transform="matrix(1 0 0 1 48.8794 65.5762)" class="st3 st4">intersection</text>
</svg>
