<?xml version="1.0" encoding="utf-8"?>
<!-- Generator: Adobe Illustrator 24.0.1, SVG Export Plug-In . SVG Version: 6.00 Build 0)  -->
<svg version="1.1" id="Layer_1" xmlns="http://www.w3.org/2000/svg" xmlns:xlink="http://www.w3.org/1999/xlink" x="0px" y="0px"
	 viewBox="0 0 64 64" style="enable-background:new 0 0 64 64;" xml:space="preserve">
<style type="text/css">
	.st0{fill:#1F1F1F;stroke:#1F1F1F;stroke-width:4;stroke-linecap:round;stroke-linejoin:round;stroke-miterlimit:10;}
	.st1{fill:#BFBFBF;}
	.st2{fill:#7F7F7F;}
	.st3{fill:#DFDFDF;}
	.st4{fill:none;stroke:#FFFFFF;stroke-linecap:round;stroke-linejoin:round;stroke-miterlimit:10;}
</style>
<g>
	<polygon class="st0" points="38,48 16,48 16,26 24,26 30,20 30,14 10,14 4,20 4,60 44,60 50,54 50,34 44,34 38,40 	"/>
	<g>
		<g>
			<polygon class="st1" points="44,48 16,48 16,20 30,20 30,14 10,14 10,54 50,54 50,34 44,34 			"/>
			<polygon class="st1" points="38,54 10,54 10,26 24,26 24,20 4,20 4,60 44,60 44,40 38,40 			"/>
		</g>
	</g>
	<g>
		<g>
			<g>
				<polygon class="st2" points="10,54 16,48 16,26 10,26 				"/>
				<polygon class="st2" points="24,20 24,26 30,20 30,14 				"/>
				<polygon class="st2" points="44,40 50,34 50,54 44,60 				"/>
			</g>
		</g>
	</g>
	<g>
		<g>
			<g>
				<polygon class="st3" points="4,20 10,14 30,14 24,20 				"/>
				<polygon class="st3" points="10,54 16,48 38,48 38,54 				"/>
				<polygon class="st3" points="44,34 38,40 44,40 50,34 				"/>
			</g>
		</g>
	</g>
</g>
<g>
	<polygon class="st0" points="40,16 34,10 40,4 60,4 60,24 54,30 48,24 32,40 24,40 24,32 	"/>
	<polygon class="st3" points="34,10 40,4 60,4 54,10 	"/>
	<polygon class="st2" points="54,10 60,4 60,24 54,30 	"/>
	<polygon class="st1" points="40,16 34,10 54,10 54,30 48,24 32,40 24,40 24,32 	"/>
</g>
<g>
	<g>
		<polyline class="st4" points="10,14 4,20 24,20 		"/>
		<polyline class="st4" points="44,34 38,40 44,40 		"/>
		<polyline class="st4" points="40,4 34,10 54,10 		"/>
		<polyline class="st4" points="40,16 24,32 24,40 		"/>
	</g>
	<g>
		<line class="st4" x1="4" y1="20" x2="4" y2="60"/>
		<polyline class="st4" points="38,40 38,54 10,54 		"/>
	</g>
</g>
</svg>
