<?xml version="1.0" encoding="utf-8"?>
<!-- Generator: Adobe Illustrator 24.0.1, SVG Export Plug-In . SVG Version: 6.00 Build 0)  -->
<svg version="1.1" id="loader" xmlns="http://www.w3.org/2000/svg" xmlns:xlink="http://www.w3.org/1999/xlink" x="0px" y="0px"
	 viewBox="0 0 64 64" style="enable-background:new 0 0 64 64;" xml:space="preserve">
<style type="text/css">
	.st0{fill:none;stroke:#1F1F1F;stroke-width:4;stroke-linecap:round;stroke-linejoin:round;stroke-miterlimit:10;}
	.st1{fill:#DFDFDF;}
	.st2{fill:#BFBFBF;}
	.st3{fill:#7F7F7F;}
	.st4{fill:none;stroke:#FFFFFF;stroke-linecap:round;stroke-linejoin:round;stroke-miterlimit:10;}
	.st5{fill:#FFA109;}
	.st6{fill:#FFB846;}
	.st7{fill:#805104;}
	.st8{fill:none;stroke:#1F1F1F;stroke-linecap:round;stroke-linejoin:round;stroke-miterlimit:10;}
	.st9{fill:#3F588C;}
	.st10{fill:#6F82A9;}
	.st11{fill:#1D2840;}
</style>
<polygon class="st0" points="36,4 13.4,4 4,13.4 4,36 5.4,36 4,37.4 4,60 26.6,60 28,58.6 28,60 50.6,60 60,50.6 60,28 37.4,28 
	36,29.4 36,28 34.6,28 36,26.6 "/>
<g>
	<polygon class="st1" points="4,37.4 13.4,28 36,28 36,50.6 26.6,60 4,60 	"/>
	<rect x="4" y="37.4" class="st2" width="22.6" height="22.6"/>
	<path class="st1" d="M36,28c-3.1,3.1-6.3,6.3-9.4,9.4H4c3.1-3.1,6.3-6.3,9.4-9.4C21,28,28.5,28,36,28z"/>
	<path class="st3" d="M36,28c-3.1,3.1-6.3,6.3-9.4,9.4V60c3.1-3.1,6.3-6.3,9.4-9.4C36,43,36,35.6,36,28z"/>
	<g>
		<polyline class="st4" points="13.4,28 4,37.4 4,60 		"/>
		<line class="st4" x1="26.6" y1="37.4" x2="4" y2="37.4"/>
	</g>
</g>
<g>
	<g>
		<g>
			<polygon class="st5" points="28,37.4 37.4,28 60,28 60,50.6 50.6,60 28,60 			"/>
			<g>
				<g>
					<path class="st5" d="M28,37.4V60h22.6V37.4H28z M45,54.3H33.7V43H45V54.3z"/>
				</g>
			</g>
		</g>
	</g>
	<g>
		<g>
			<g>
				<path class="st6" d="M60,28c-3.1,3.1-6.3,6.3-9.4,9.4H28c3.1-3.1,6.3-6.3,9.4-9.4C45,28,52.5,28,60,28z"/>
			</g>
			<polygon class="st6" points="45,43 33.7,54.3 45,54.3 			"/>
		</g>
	</g>
	<g>
		<g>
			<path class="st7" d="M60,28c-3.1,3.1-6.3,6.3-9.4,9.4V60c3.1-3.1,6.3-6.3,9.4-9.4C60,43,60,35.6,60,28z"/>
			<polygon class="st7" points="33.7,43 45,43 33.7,54.3 			"/>
		</g>
	</g>
	<g>
		<polyline class="st4" points="37.4,28 28,37.4 28,60 		"/>
		<line class="st4" x1="50.6" y1="37.4" x2="28" y2="37.4"/>
		<polyline class="st4" points="45,43 45,54.3 33.7,54.3 		"/>
		<polyline class="st8" points="37.4,28 28,37.4 28,60 		"/>
	</g>
</g>
<g>
	<g>
		<g>
			<polygon class="st9" points="4,13.4 13.4,4 36,4 36,26.6 26.6,36 4,36 			"/>
			<g>
				<g>
					<path class="st9" d="M4,13.4V36h22.6V13.4H4z M21,30.3H9.7V19H21V30.3z"/>
				</g>
			</g>
		</g>
	</g>
	<g>
		<g>
			<polygon class="st10" points="21,19 9.7,30.3 21,30.3 			"/>
			<path class="st10" d="M36,4c-3.1,3.1-6.3,6.3-9.4,9.4H4c3.1-3.1,6.3-6.3,9.4-9.4C21,4,28.5,4,36,4z"/>
		</g>
	</g>
	<g>
		<g>
			<path class="st11" d="M36,4c-3.1,3.1-6.3,6.3-9.4,9.4V36c3.1-3.1,6.3-6.3,9.4-9.4C36,19,36,11.6,36,4z"/>
			<polygon class="st11" points="9.7,19 21,19 9.7,30.3 			"/>
		</g>
	</g>
	<g>
		<polyline class="st4" points="13.4,4 4,13.4 4,36 		"/>
		<line class="st4" x1="26.6" y1="13.4" x2="4" y2="13.4"/>
		<polyline class="st8" points="4,36 26.6,36 36,26.6 		"/>
		<polyline class="st4" points="21,19 21,30.3 9.7,30.3 		"/>
	</g>
</g>
</svg>
