<?xml version="1.0" encoding="utf-8"?>
<!-- Generator: Adobe Illustrator 22.0.0, SVG Export Plug-In . SVG Version: 6.00 Build 0)  -->
<svg version="1.1" id="图层_1" xmlns="http://www.w3.org/2000/svg" xmlns:xlink="http://www.w3.org/1999/xlink" x="0px" y="0px"
	 viewBox="0 0 64 64" style="enable-background:new 0 0 64 64;" xml:space="preserve">
<style type="text/css">
	.st0{fill:#FFFFFF;}
</style>
<path class="st0" d="M44.6,27.8c-0.6,0-0.8,0-1.4-0.3L18,14.3c-1.4-0.8-1.6-2.3-1.2-3.6c0.8-1.3,2.6-1.5,4-1L46,23
	c1.4,0.8,1.6,2.3,1.2,3.6C46.6,27.3,45.4,27.8,44.6,27.8z"/>
<path class="st0" d="M32,59.7c-1.4,0-2.8-0.3-4.2-1L8.2,48.6C5.6,47.3,4,44.8,4,42V21.7c0-2.8,1.6-5.3,4.2-6.6L27.8,5
	c2.6-1.3,5.8-1.3,8.4,0l19.6,10.1c2.6,1.3,4.2,3.8,4.2,6.6V42c0,2.8-1.6,5.3-4.2,6.6L36.2,58.7C34.8,59.5,33.4,59.7,32,59.7z M32,9
	c-0.6,0-0.8,0-1.4,0.3L11,19.4c-0.8,0.5-1.4,1.3-1.4,2.3V42c0,1,0.6,1.8,1.4,2.3l19.6,10.1c0.8,0.5,2,0.5,2.8,0L53,44.3
	c0.8-0.5,1.4-1.3,1.4-2.3V21.7c0-1-0.6-1.8-1.4-2.3L33.4,9.3C32.8,9,32.6,9,32,9z"/>
<path class="st0" d="M32,34.4c-0.6,0-0.8,0-1.4-0.3L6.2,21.4c-1.4-1-2-2.5-1.2-3.6c0.8-1.3,2.6-1.8,4-1l23,12.3l23-12.2
	c1.4-0.8,3-0.3,4,1c0.8,1.3,0.2,2.8-1.2,3.6L33.4,34.1C32.8,34.4,32.6,34.4,32,34.4z"/>
<path class="st0" d="M32,60c-1.6,0-2.8-1-2.8-2.5V31.8c0-1.5,1.2-2.5,2.8-2.5c1.6,0,2.8,1,2.8,2.5v25.6C34.8,58.7,33.6,60,32,60z"/>
</svg>
