<?xml version="1.0" encoding="utf-8"?>
<!-- Generator: Adobe Illustrator 28.2.0, SVG Export Plug-In . SVG Version: 6.00 Build 0)  -->
<svg version="1.1" id="Layer_1" xmlns="http://www.w3.org/2000/svg" xmlns:xlink="http://www.w3.org/1999/xlink" x="0px" y="0px"
	 viewBox="0 0 64 64" style="enable-background:new 0 0 64 64;" xml:space="preserve">
<style type="text/css">
	.st0{fill:#FFA109;stroke:#1F1F1F;stroke-width:4;stroke-linecap:round;stroke-linejoin:round;stroke-miterlimit:10;}
	.st1{fill:#FFA109;}
	.st2{fill:#FFB846;}
	.st3{fill:#805104;}
	.st4{display:none;}
	.st5{display:inline;fill:none;stroke:#FFFFFF;stroke-width:2;stroke-linecap:round;stroke-linejoin:round;stroke-miterlimit:10;}
</style>
<g id="Layer_1_00000144322212980155221510000008784509303352977037_">
</g>
<g id="Layer_1_copy">
	<path class="st0" d="M53.9,35.5v-4.1c2.9-2,4.9-5.3,4.9-9.1c0-6-4.9-11-11-11c-3,0-5.8,1.2-7.8,3.2c-1.2,0.5-2.4,1.2-3.3,2.1
		C35.8,9.5,29.7,4,22.3,4c-3.8,0-7.2,1.4-9.8,3.8C7.5,10.1,4,15.2,4,21c0,5.6,3.2,10.5,7.8,12.9l-6.6,6.6V60h39l3.5-3.5l3.8,2.3
		L60,49V32L53.9,35.5z M33.7,27.7c0.3,1.1,0.8,2.1,1.4,3h-4.7C31.6,30,32.7,28.9,33.7,27.7z"/>
</g>
<g id="Layer_1_copy_2">
	<g>
		<rect x="5.2" y="40.5" class="st1" width="39" height="19.5"/>
		<polygon class="st2" points="5.2,40.5 15,30.8 53.9,30.8 44.2,40.5 		"/>
		<polygon class="st3" points="53.9,30.8 44.2,40.5 44.2,60 53.9,50.3 		"/>
		<g>
			<polygon class="st1" points="51.5,58.8 45.4,55.1 45.4,43 51.5,40.5 			"/>
			<polygon class="st2" points="45.4,43 51.5,36.9 60,32 51.5,40.5 			"/>
			<polygon class="st3" points="60,32 60,49 51.5,58.8 51.5,40.5 			"/>
		</g>
		<circle class="st3" cx="22.3" cy="18.6" r="14.6"/>
		<circle class="st3" cx="47.8" cy="22.3" r="11"/>
		<circle class="st1" cx="18.6" cy="21" r="14.6"/>
		<circle class="st1" cx="44.2" cy="24.7" r="11"/>
	</g>
</g>
<g id="Layer_2_00000036952018419991593760000005016340083454455936_" class="st4">
	<polyline class="st5" points="44.2,39.9 5.2,40.5 5.2,60 	"/>
	<line class="st5" x1="5.2" y1="40.5" x2="11.8" y2="34"/>
	<polyline class="st5" points="45.4,42.8 51.5,40.5 60,32 	"/>
</g>
</svg>
