<?xml version="1.0" encoding="utf-8"?>
<!-- Generator: Adobe Illustrator 24.0.1, SVG Export Plug-In . SVG Version: 6.00 Build 0)  -->
<svg version="1.1" id="Layer_1" xmlns="http://www.w3.org/2000/svg" xmlns:xlink="http://www.w3.org/1999/xlink" x="0px" y="0px"
	 viewBox="0 0 64 64" style="enable-background:new 0 0 64 64;" xml:space="preserve">
<style type="text/css">
	.st0{fill:none;stroke:#1F1F1F;stroke-width:4;stroke-linecap:round;stroke-linejoin:round;stroke-miterlimit:10;}
	.st1{fill:#3F588C;}
	.st2{fill:#1D2840;}
	.st3{fill:#6F82A9;}
	.st4{fill:#BC0F2D;}
	.st5{fill:#FFA109;}
	.st6{fill:#BFBFBF;}
	.st7{fill:#1F1F1F;}
	.st8{fill:none;stroke:#FFFFFF;stroke-width:0.9588;stroke-linecap:round;stroke-linejoin:round;stroke-miterlimit:10;}
	.st9{fill:none;stroke:#FFFFFF;stroke-width:0.9852;stroke-linecap:round;stroke-linejoin:round;stroke-miterlimit:10;}
	.st10{fill:none;stroke:#1F1F1F;stroke-linecap:round;stroke-linejoin:round;stroke-miterlimit:10;}
</style>
<polygon class="st0" points="21,4 21,10 15,10 15,16 9,16 9,39 4,44 4,60 44,60 60,44 60,28 55,28 55,4 "/>
<g>
	<rect x="4" y="44" class="st1" width="40" height="16"/>
	<polygon class="st2" points="44,60 44,44 60,28 60,44 	"/>
	<polygon class="st3" points="20,28 4,44 44,44 60,28 	"/>
	<polygon points="20.8,30 8.8,42 43.2,42 55.2,30 	"/>
</g>
<g>
	<polygon class="st4" points="21,4 21,10 49,10 49,36 55,30 55,4 	"/>
	<polygon class="st5" points="15,10 15,16 43,16 43,42 49,36 49,10 	"/>
	<rect x="9" y="16" class="st6" width="34" height="26"/>
</g>
<g>
	<rect x="16" y="23" class="st7" width="20" height="2"/>
	<rect x="16.3" y="28.5" class="st7" width="20" height="2"/>
	<rect x="16" y="33.6" class="st7" width="20" height="2"/>
</g>
<g>
	<polyline class="st8" points="9,39 4,44 44,44 	"/>
	<line class="st8" x1="4" y1="44" x2="4" y2="60"/>
</g>
<g>
	<polyline class="st9" points="43,16 9,16 9,42 	"/>
	<polyline class="st9" points="49,10 15,10 15,16 	"/>
	<polyline class="st9" points="55,4 21,4 21,10 	"/>
</g>
<g>
	<polyline class="st10" points="9,39 9,42 43,42 55,30 55,28 	"/>
	<line class="st10" x1="43" y1="16" x2="43" y2="42"/>
	<line class="st10" x1="49" y1="10" x2="49" y2="36"/>
</g>
</svg>
