<?xml version="1.0" encoding="utf-8"?>
<!-- Generator: Adobe Illustrator 24.0.1, SVG Export Plug-In . SVG Version: 6.00 Build 0)  -->
<svg version="1.1" id="group_x5F_1" xmlns="http://www.w3.org/2000/svg" xmlns:xlink="http://www.w3.org/1999/xlink" x="0px"
	 y="0px" viewBox="0 0 64 64" style="enable-background:new 0 0 64 64;" xml:space="preserve">
<style type="text/css">
	.st0{fill:#1F1F1F;stroke:#1F1F1F;stroke-width:4;stroke-linecap:round;stroke-linejoin:round;stroke-miterlimit:10;}
	.st1{fill:#ABDF7D;}
	.st2{fill:#536C3D;}
	.st3{fill:#C0E79D;}
	.st4{fill:none;stroke:#FFFFFF;stroke-linecap:round;stroke-linejoin:round;stroke-miterlimit:10;}
	.st5{fill:#3F588C;}
	.st6{fill:#6F82A9;}
	.st7{fill:#1D2840;}
	.st8{fill:none;stroke:#1F1F1F;stroke-linecap:round;stroke-linejoin:round;stroke-miterlimit:10;}
	.st9{fill:#FFA109;}
	.st10{fill:#805104;}
	.st11{fill:#FFB846;}
	.st12{fill:#D44F66;}
	.st13{fill:#591B26;}
	.st14{fill:#D58290;}
</style>
<polygon class="st0" points="13.4,4 4,13.4 4,36 5.4,36 4,37.4 4,60 26.6,60 28,58.6 28,60 50.6,60 60,50.6 60,28 58.6,28 60,26.6 
	60,4 37.4,4 36,5.4 36,4 "/>
<g>
	<g>
		<g>
			<g>
				<polygon class="st1" points="4,37.4 13.4,28 36,28 36,50.6 26.6,60 4,60 				"/>
				<path class="st1" d="M4,37.4V60h22.6V37.4H4z M21,54.3H9.7V43H21V54.3z"/>
			</g>
		</g>
	</g>
	<g>
		<g>
			<path class="st2" d="M36,28c-3.1,3.1-6.3,6.3-9.4,9.4V60c3.1-3.1,6.3-6.3,9.4-9.4C36,43,36,35.6,36,28z"/>
			<polygon class="st2" points="9.7,43 21,43 9.7,54.3 			"/>
		</g>
	</g>
	<g>
		<g>
			<path class="st3" d="M36,28c-3.1,3.1-6.3,6.3-9.4,9.4H4c3.1-3.1,6.3-6.3,9.4-9.4C21,28,28.5,28,36,28z"/>
			<polygon class="st3" points="21,43 9.7,54.3 21,54.3 			"/>
		</g>
	</g>
	<g>
		<polyline class="st4" points="13.4,28 4,37.4 4,60 		"/>
		<line class="st4" x1="26.6" y1="37.4" x2="4" y2="37.4"/>
		<polyline class="st4" points="21,43 21,54.3 9.7,54.3 		"/>
	</g>
</g>
<g>
	<g>
		<g>
			<polygon class="st5" points="28,37.4 37.4,28 60,28 60,50.6 50.6,60 28,60 			"/>
			<rect x="28" y="37.4" class="st5" width="22.6" height="22.6"/>
		</g>
	</g>
	<path class="st6" d="M60,28c-3.1,3.1-6.3,6.3-9.4,9.4H28c3.1-3.1,6.3-6.3,9.4-9.4C45,28,52.5,28,60,28z"/>
	<path class="st7" d="M60,28c-3.1,3.1-6.3,6.3-9.4,9.4V60c3.1-3.1,6.3-6.3,9.4-9.4C60,43,60,35.6,60,28z"/>
	<g>
		<polyline class="st4" points="37.4,28 28,37.4 28,60 		"/>
		<line class="st4" x1="50.6" y1="37.4" x2="28" y2="37.4"/>
		<polyline class="st8" points="28.4,36 27,37.4 27,60 		"/>
	</g>
</g>
<g>
	<g>
		<g>
			<polygon class="st9" points="4,13.4 13.4,4 36,4 36,26.6 26.6,36 4,36 			"/>
			<path class="st9" d="M4,13.4V36h22.6V13.4H4z M21,30.3H9.7V19H21V30.3z"/>
		</g>
	</g>
	<g>
		<g>
			<path class="st10" d="M36,4c-3.1,3.1-6.3,6.3-9.4,9.4V36c3.1-3.1,6.3-6.3,9.4-9.4C36,19,36,11.6,36,4z"/>
			<polygon class="st10" points="9.7,19 21,19 9.7,30.3 			"/>
		</g>
	</g>
	<g>
		<g>
			<path class="st11" d="M36,4c-3.1,3.1-6.3,6.3-9.4,9.4H4c3.1-3.1,6.3-6.3,9.4-9.4C21,4,28.5,4,36,4z"/>
			<polygon class="st11" points="21,19 9.7,30.3 21,30.3 			"/>
		</g>
	</g>
	<g>
		<polyline class="st4" points="13.4,4 4,13.4 4,36 		"/>
		<line class="st4" x1="26.6" y1="13.4" x2="4" y2="13.4"/>
		<polyline class="st4" points="21,19 21,30.3 9.7,30.3 		"/>
		<polyline class="st8" points="4,36 26.6,36 28,34.6 		"/>
	</g>
</g>
<g>
	<g>
		<g>
			<g>
				<polygon class="st12" points="28,13.4 37.4,4 60,4 60,26.6 50.6,36 28,36 				"/>
				<path class="st12" d="M28,13.4V36h22.6V13.4H28z M45,30.3H33.7V19H45V30.3z"/>
			</g>
		</g>
	</g>
	<g>
		<g>
			<polygon class="st13" points="33.7,19 45,19 33.7,30.3 			"/>
			<path class="st13" d="M60,4c-3.1,3.1-6.3,6.3-9.4,9.4V36c3.1-3.1,6.3-6.3,9.4-9.4C60,19,60,11.6,60,4z"/>
		</g>
	</g>
	<g>
		<g>
			<path class="st14" d="M60,4c-3.1,3.1-6.3,6.3-9.4,9.4H28c3.1-3.1,6.3-6.3,9.4-9.4C45,4,52.5,4,60,4z"/>
			<polygon class="st14" points="45,19 33.7,30.3 45,30.3 			"/>
		</g>
	</g>
	<g>
		<polyline class="st4" points="37.4,4 28,13.4 28,36 		"/>
		<line class="st4" x1="50.6" y1="13.4" x2="28" y2="13.4"/>
		<polyline class="st4" points="45,19 45,30.3 33.7,30.3 		"/>
		<polyline class="st8" points="60,26.6 50.6,36 28,36 		"/>
		<polyline class="st8" points="36.4,4 27,13.4 27,36 		"/>
	</g>
</g>
</svg>
