<?xml version="1.0" encoding="utf-8"?>
<!-- Generator: Adobe Illustrator 24.0.1, SVG Export Plug-In . SVG Version: 6.00 Build 0)  -->
<svg version="1.1" id="Layer_1" xmlns="http://www.w3.org/2000/svg" xmlns:xlink="http://www.w3.org/1999/xlink" x="0px" y="0px"
	 viewBox="0 0 64 64" style="enable-background:new 0 0 64 64;" xml:space="preserve">
<style type="text/css">
	.st0{fill:#FFFFFF;}
</style>
<g>
	<g>
		<path class="st0" d="M26.4,30.8l-2.4-1c-1.7-0.7-2.9-1.1-2.9-2.3c0-1.1,0.9-1.7,2.4-1.7c1.5,0,2.7,0.5,3.9,1.5l2.2-2.7
			C28,22.9,25.7,22,23.5,22c-3.9,0-6.7,2.6-6.7,5.7c0,2.8,1.9,4.4,3.8,5.3l2.5,1.1c1.7,0.7,2.7,1.1,2.7,2.3c0,1.1-0.9,1.9-2.7,1.9
			c-1.6,0-3.3-0.8-4.7-2l-2.5,3c1.9,1.8,4.5,2.8,7,2.8c4.5,0,7.1-2.8,7.1-6C30.1,33.3,28.7,31.7,26.4,30.8z"/>
	</g>
	<g>
		<path class="st0" d="M41.1,34.3h3.1v3.3c-0.5,0.4-1.2,0.6-2,0.6c-3.6,0-5.3-2.3-5.3-6.3c0-3.9,2.1-6.2,5-6.2
			c1.6,0,2.6,0.7,3.6,1.5l2.3-2.8c-1.3-1.3-3.2-2.5-6-2.5c-5.1,0-9.2,3.7-9.2,10.1c0,6.5,4.1,9.9,9.3,9.9c2.6,0,4.9-1,6.2-2.3v-8.9
			h-6.9V34.3z"/>
	</g>
	<g>
		<path class="st0" d="M32,4C16.5,4,4,16.5,4,32s12.5,28,28,28s28-12.5,28-28S47.5,4,32,4z M32,56C18.7,56,8,45.3,8,32S18.7,8,32,8
			s24,10.7,24,24S45.3,56,32,56z"/>
	</g>
</g>
</svg>
