<svg width="48" height="44" viewBox="0 0 48 44" fill="none" xmlns="http://www.w3.org/2000/svg">
<g clip-path="url(#clip0_715_3992)">
<path d="M48 43.9878L6.54916 43.9878C6.21261 43.9878 5.87937 43.9215 5.56844 43.7927C5.25752 43.6639 4.97501 43.4751 4.73704 43.2371C4.49908 42.9992 4.31032 42.7166 4.18154 42.4057C4.05277 42.0948 3.98651 41.7615 3.98653 41.425L3.98653 7.98479L48 7.98479L48 43.9878Z" fill="#36697F"/>
<path d="M7.97949 0H41.3999C42.0795 0 42.7313 0.26999 43.2119 0.750577C43.6925 1.23116 43.9625 1.88298 43.9625 2.56263V35.9754H7.97949V0Z" fill="#37A5CC"/>
<path d="M0 40.5013L7.97947 35.9756V0L0 4.86368V40.5013Z" fill="#7DC6DD"/>
<path d="M17.7637 21.4646H22.3708C22.4822 23.0279 22.9851 24.479 25.8891 24.479C28.0668 24.479 28.7367 23.5024 28.7367 22.5807V21.9947C28.7367 20.5994 27.9828 20.2634 25.3306 19.4265L22.6217 18.533C19.6903 17.6112 18.4052 16.0473 18.4052 13.6183V12.9201C18.4052 10.3519 20.5283 7.58789 25.9165 7.58789C30.3 7.58789 33.316 9.57016 33.4834 13.5915H28.9885C28.9879 13.208 28.9058 12.8291 28.7476 12.4798C28.5894 12.1305 28.3587 11.8188 28.0709 11.5654C27.7831 11.312 27.4447 11.1226 27.0782 11.0099C26.7117 10.8972 26.3254 10.8637 25.9449 10.9117C23.8229 10.9117 23.2651 11.8052 23.2651 12.6704V13.0609C23.2651 13.9829 23.9067 14.5408 26.2249 15.267L28.8771 16.1331C32.1169 17.1663 33.6238 18.7011 33.6238 21.4658V22.3025C33.6238 25.5133 30.832 28.0267 25.8899 28.0267C20.9745 28.0265 18.0147 25.7347 17.7637 21.4646Z" fill="white"/>
</g>
<defs>
<clipPath id="clip0_715_3992">
<rect width="48" height="43.9879" fill="white"/>
</clipPath>
</defs>
</svg>
