<?xml version="1.0" encoding="utf-8"?>
<!-- Generator: Adobe Illustrator 28.2.0, SVG Export Plug-In . SVG Version: 6.00 Build 0)  -->
<svg version="1.1" id="Layer_1" xmlns="http://www.w3.org/2000/svg" xmlns:xlink="http://www.w3.org/1999/xlink" x="0px" y="0px"
	 viewBox="0 0 64 64" style="enable-background:new 0 0 64 64;" xml:space="preserve">
<style type="text/css">
	.st0{fill:#1F1F1F;}
	.st1{fill:#40598D;}
	.st2{fill:#6F82AA;}
	.st3{fill:#1E2940;}
	.st4{fill:#AED57F;}
	.st5{fill:#C2DE9D;}
	.st6{fill:#546D3E;}
	.st7{fill:#D55167;}
	.st8{fill:#D58290;}
	.st9{fill:#5A1C27;}
</style>
<g>
	<g>
		<path class="st0" d="M19,59c-0.55,0-1-0.45-1-1v-0.59l-1.29,1.29C16.52,58.89,16.27,59,16,59H6c-1.65,0-3-1.35-3-3V46
			c0-0.27,0.11-0.52,0.29-0.71l4-4C7.48,41.11,7.73,41,8,41h12c0.55,0,1,0.45,1,1v0.59l1.29-1.29C22.48,41.11,22.73,41,23,41h38
			c0.55,0,1,0.45,1,1v12c0,0.27-0.11,0.52-0.29,0.71l-4,4C57.52,58.89,57.27,59,57,59H19z"/>
		<path class="st0" d="M61,42v12l-4,4H19v-3l-3,3H6c-1.1,0-2-0.9-2-2V46l4-4h12v3l3-3H61 M61,40H23c-0.53,0-1.04,0.21-1.41,0.59
			l-0.09,0.09C21.13,40.26,20.6,40,20,40H8c-0.53,0-1.04,0.21-1.41,0.59l-4,4C2.21,44.96,2,45.47,2,46v10c0,2.21,1.79,4,4,4h10
			c0.53,0,1.04-0.21,1.41-0.59l0.09-0.09C17.87,59.74,18.4,60,19,60h38c0.53,0,1.04-0.21,1.41-0.59l4-4C62.79,55.04,63,54.53,63,54
			V42C63,40.9,62.1,40,61,40L61,40z"/>
	</g>
	<g>
		<path class="st0" d="M19,41c-0.55,0-1-0.45-1-1v-0.59l-1.29,1.29C16.52,40.89,16.27,41,16,41H4c-0.55,0-1-0.45-1-1V28
			c0-0.27,0.11-0.52,0.29-0.71l4-4C7.48,23.11,7.73,23,8,23h12c0.55,0,1,0.45,1,1v0.59l1.29-1.29C22.48,23.11,22.73,23,23,23h38
			c0.55,0,1,0.45,1,1v12c0,0.27-0.11,0.52-0.29,0.71l-4,4C57.52,40.89,57.27,41,57,41H19z"/>
		<path class="st0" d="M61,24v12l-4,4H19v-3l-3,3H4V28l4-4h12v3l3-3H61 M61,22H23c-0.53,0-1.04,0.21-1.41,0.59l-0.09,0.09
			C21.13,22.26,20.6,22,20,22H8c-0.53,0-1.04,0.21-1.41,0.59l-4,4C2.21,26.96,2,27.47,2,28v12c0,1.1,0.9,2,2,2h12
			c0.53,0,1.04-0.21,1.41-0.59l0.09-0.09C17.87,41.74,18.4,42,19,42h38c0.53,0,1.04-0.21,1.41-0.59l4-4C62.79,37.04,63,36.53,63,36
			V24C63,22.9,62.1,22,61,22L61,22z"/>
	</g>
	<g>
		<path class="st0" d="M19,23c-0.55,0-1-0.45-1-1v-0.59l-1.29,1.29C16.52,22.89,16.27,23,16,23H4c-0.55,0-1-0.45-1-1V12
			c0-0.78,0.31-1.53,0.86-2.09c0.03-0.04,0.06-0.07,0.09-0.1l3.93-3.93C8.44,5.31,9.2,5,10,5h10c0.55,0,1,0.45,1,1v0.59l1.29-1.29
			C22.48,5.11,22.73,5,23,5h38c0.55,0,1,0.45,1,1v12c0,0.27-0.11,0.52-0.29,0.71l-4,4C57.52,22.89,57.27,23,57,23H19z"/>
		<path class="st0" d="M61,6v12l-4,4H19v-3l-3,3H4V12c0-0.62,0.29-1.17,0.74-1.54c-0.03,0.02-0.06,0.03-0.08,0.05l3.93-3.93
			C8.96,6.21,9.47,6,10,6h10v3l3-3H61 M61,4H23c-0.53,0-1.04,0.21-1.41,0.59L21.5,4.67C21.13,4.26,20.6,4,20,4H10
			C8.93,4,7.93,4.42,7.17,5.17L3.24,9.1C3.19,9.15,3.15,9.2,3.11,9.25C2.4,9.99,2,10.97,2,12v10c0,1.1,0.9,2,2,2h12
			c0.53,0,1.04-0.21,1.41-0.59l0.09-0.09C17.87,23.74,18.4,24,19,24h38c0.53,0,1.04-0.21,1.41-0.59l4-4C62.79,19.04,63,18.53,63,18
			V6C63,4.9,62.1,4,61,4L61,4z"/>
	</g>
</g>
<g>
	<g>
		<g>
			<path class="st1" d="M16,58H6c-1.1,0-2-0.9-2-2V46h12V58z"/>
			<polygon class="st2" points="4,46 8,42 20,42 16,46 			"/>
			<polygon class="st3" points="20,42 20,54 16,58 16,46 			"/>
		</g>
		<g>
			<rect x="19" y="46" class="st1" width="38" height="12"/>
			<polygon class="st2" points="19,46 23,42 61,42 57,46 			"/>
			<polygon class="st3" points="61,42 61,54 57,58 57,46 			"/>
		</g>
		<g>
			<polygon class="st2" points="13,49 13,55 7,55 			"/>
			<polyline class="st3" points="7,55 13,49 7,49 7,55 13,49 			"/>
		</g>
	</g>
	<g>
		<g>
			<rect x="4" y="28" class="st4" width="12" height="12"/>
			<polygon class="st5" points="4,28 8,24 20,24 16,28 			"/>
			<polygon class="st6" points="20,24 20,36 16,40 16,28 			"/>
		</g>
		<g>
			<rect x="19" y="28" class="st4" width="38" height="12"/>
			<polygon class="st5" points="19,28 23,24 61,24 57,28 			"/>
			<polygon class="st6" points="61,24 61,36 57,40 57,28 			"/>
		</g>
		<g>
			<polygon class="st5" points="13,31 13,37 7,37 			"/>
			<polyline class="st6" points="7,37 13,31 7,31 7,37 13,31 			"/>
		</g>
	</g>
	<g>
		<g>
			<path class="st7" d="M16,22H4V12c0-1.1,0.9-2,2-2h10V22z"/>
			<path class="st8" d="M4.66,10.51l3.93-3.93C8.96,6.21,9.47,6,10,6h10l-4,4c-3.33,0-6.67,0-10,0C5.67,10,5.03,10.2,4.66,10.51z"/>
			<polygon class="st9" points="20,6 20,18 16,22 16,10 			"/>
			<g>
				<polygon class="st8" points="13,13 13,19 7,19 				"/>
				<polyline class="st9" points="7,19 13,13 7,13 7,19 13,13 				"/>
			</g>
		</g>
		<g>
			<rect x="19" y="10" class="st7" width="38" height="12"/>
			<polygon class="st8" points="19,10 23,6 61,6 57,10 			"/>
			<polygon class="st9" points="61,6 61,18 57,22 57,10 			"/>
		</g>
	</g>
</g>
</svg>
