<?xml version="1.0" encoding="utf-8"?>
<!-- Generator: Adobe Illustrator 24.0.1, SVG Export Plug-In . SVG Version: 6.00 Build 0)  -->
<svg version="1.1" id="Layer_1" xmlns="http://www.w3.org/2000/svg" xmlns:xlink="http://www.w3.org/1999/xlink" x="0px" y="0px"
	 viewBox="0 0 64 64" style="enable-background:new 0 0 64 64;" xml:space="preserve">
<style type="text/css">
	.st0{fill:#1F1F1F;stroke:#1F1F1F;stroke-width:4;stroke-linecap:round;stroke-linejoin:round;stroke-miterlimit:10;}
	.st1{fill:#BFBFBF;}
	.st2{fill:#6E8DF9;}
	.st3{fill:#DFDFDF;}
	.st4{fill:#7F7F7F;}
	.st5{fill:#0B4A0B;}
	.st6{fill:#5A985A;}
	.st7{fill:none;stroke:#1F1F1F;stroke-linecap:round;stroke-linejoin:round;stroke-miterlimit:10;}
	.st8{fill:none;stroke:#FFFFFF;stroke-linecap:round;stroke-linejoin:round;stroke-miterlimit:10;}
</style>
<g>
	<polygon class="st0" points="7,30 33,4 57,4 57,50 47,60 7,60 	"/>
	<path class="st1" d="M23,14h24c0,15.3,0,30.7,0,46c-13.3,0-26.7,0-40,0c0-10,0-20,0-30L23,14z"/>
	<path class="st2" d="M23.2,15H46c0,14.7,0,29.3,0,44c-12.7,0-25.3,0-38,0c0-9.6,0-19.1,0-28.7L23.2,15z"/>
	<polygon class="st1" points="23,30 7,30 23,14 	"/>
	<polygon class="st3" points="23,14 33,4 57,4 47,14 	"/>
	<polygon class="st4" points="47,14 57,4 57,50 47,60 	"/>
	<polygon class="st5" points="8,39 28,59 8,59 	"/>
	<polygon class="st6" points="8,59 46,21 46,59 	"/>
</g>
<line class="st7" x1="46" y1="21" x2="8" y2="59"/>
<line class="st7" x1="8" y1="39" x2="18" y2="49"/>
<g>
	<polyline class="st8" points="33,4 7,30 7,60 	"/>
	<line class="st8" x1="47" y1="14" x2="23" y2="14"/>
</g>
<polygon class="st7" points="23,15 23,30 8,30 8,59 46,59 46,15 "/>
</svg>
