<?xml version="1.0" encoding="utf-8"?>
<!-- Generator: Adobe Illustrator 22.0.0, SVG Export Plug-In . SVG Version: 6.00 Build 0)  -->
<svg version="1.1" id="图层_1" xmlns="http://www.w3.org/2000/svg" xmlns:xlink="http://www.w3.org/1999/xlink" x="0px" y="0px"
	 viewBox="0 0 64 64" style="enable-background:new 0 0 64 64;" xml:space="preserve">
<style type="text/css">
	.st0{fill:#BFBFBF;}
</style>
<path class="st0" d="M10.7,25.2c3.7,0,6.8,3,6.8,6.7s-3,6.8-6.7,6.8S4,35.7,4,32l0,0C4,28.3,7,25.3,10.7,25.2L10.7,25.2z M32,25.2
	c3.7,0,6.8,3,6.8,6.7s-3,6.8-6.7,6.8s-6.8-3-6.8-6.7l0,0C25.3,28.3,28.3,25.3,32,25.2z M53.3,25.2c3.7,0,6.7,3.1,6.7,6.8
	s-3,6.8-6.7,6.8s-6.8-3-6.8-6.7l0,0C46.5,28.3,49.5,25.3,53.3,25.2L53.3,25.2z"/>
</svg>
