<?xml version="1.0" encoding="utf-8"?>
<!-- Generator: Adobe Illustrator 22.0.0, SVG Export Plug-In . SVG Version: 6.00 Build 0)  -->
<svg version="1.1" id="图层_1" xmlns="http://www.w3.org/2000/svg" xmlns:xlink="http://www.w3.org/1999/xlink" x="0px" y="0px"
	 viewBox="0 0 64 64" style="enable-background:new 0 0 64 64;" xml:space="preserve">
<style type="text/css">
	.st0{fill:#BFBFBF;}
</style>
<path class="st0" d="M32,4C16.5,4,4,16.5,4,32s12.5,28,28,28s28-12.5,28-28S47.5,4,32,4z M51.8,28.3L37.7,42.5l-2.8,2.8
	c-0.4,0.4-0.8,0.7-1.3,0.9s-1,0.3-1.5,0.3c-0.3,0-0.5,0-0.8-0.1c-0.5-0.1-1-0.3-1.4-0.6c-0.2-0.1-0.4-0.3-0.6-0.5l-2.8-2.8
	L12.2,28.3c-1.6-1.6-1.6-4.1,0-5.7c1.6-1.6,4.1-1.6,5.7,0L32,36.8l14.1-14.1c1.6-1.6,4.1-1.6,5.7,0C53.4,24.2,53.4,26.8,51.8,28.3z"
	/>
</svg>
