<?xml version="1.0" encoding="utf-8"?>
<!-- Generator: Adobe Illustrator 24.0.1, SVG Export Plug-In . SVG Version: 6.00 Build 0)  -->
<svg version="1.1" id="Layer_1" xmlns="http://www.w3.org/2000/svg" xmlns:xlink="http://www.w3.org/1999/xlink" x="0px" y="0px"
	 viewBox="0 0 64 64" style="enable-background:new 0 0 64 64;" xml:space="preserve">
<style type="text/css">
	.st0{fill:#FF003F;}
</style>
<path class="st0" d="M54.6,12.6l-3.2-3.2c-0.8-0.8-2-0.8-2.8,0L32.1,26L15.5,9.4c-0.8-0.8-2-0.8-2.8,0l-3.2,3.2
	c-0.8,0.8-0.8,2,0,2.8L26.1,32L9.4,48.6c-0.8,0.8-0.8,2,0,2.8l3.2,3.2c0.8,0.8,2,0.8,2.8,0L32.1,38l16.5,16.5c0.8,0.8,2,0.8,2.8,0
	l3.2-3.2c0.8-0.8,0.8-2,0-2.8L38.1,32l16.5-16.5C55.4,14.7,55.4,13.4,54.6,12.6z"/>
</svg>
