<?xml version="1.0" encoding="utf-8"?>
<!-- Generator: Adobe Illustrator 28.2.0, SVG Export Plug-In . SVG Version: 6.00 Build 0)  -->
<svg version="1.1" id="Layer_1" xmlns="http://www.w3.org/2000/svg" xmlns:xlink="http://www.w3.org/1999/xlink" x="0px" y="0px"
	 viewBox="0 0 64 64" style="enable-background:new 0 0 64 64;" xml:space="preserve">
<style type="text/css">
	.st0{fill:#3FFF7F;}
</style>
<path class="st0" d="M62,22.6c0,11.4-9.2,20.6-20.6,20.6c-1.3,0-2.6-0.1-3.8-0.4l-2.8,3.2c-0.5,0.6-1.3,0.9-2.1,0.9h-4.4v4.7
	c0,1.6-1.3,2.8-2.8,2.8h-4.7v4.7c0,1.6-1.3,2.8-2.8,2.8H4.8C3.3,62,2,60.7,2,59.2V50c0-0.7,0.3-1.5,0.8-2l19-19c-0.7-2-1-4.2-1-6.5
	C20.8,11.2,30,2,41.4,2C52.8,2,62,11.2,62,22.6z M41.4,17c0,3.1,2.5,5.6,5.6,5.6s5.6-2.5,5.6-5.6s-2.5-5.6-5.6-5.6
	S41.4,13.9,41.4,17z"/>
</svg>
