<?xml version="1.0" encoding="utf-8"?>
<!-- Generator: Adobe Illustrator 29.1.0, SVG Export Plug-In . SVG Version: 9.03 Build 55587)  -->
<svg version="1.0" id="图层_1" xmlns="http://www.w3.org/2000/svg" xmlns:xlink="http://www.w3.org/1999/xlink" x="0px" y="0px"
	 viewBox="0 0 64 64" style="enable-background:new 0 0 64 64;" xml:space="preserve">
<style type="text/css">
	.st0{fill:#DFDFDF;}
	.st1{fill:#BFBFFF;}
</style>
<path class="st0" d="M53.9,10.6C53.9,10.6,53.9,10.6,53.9,10.6c-0.1-0.3-0.3-0.5-0.5-0.6c-0.1,0-0.2,0-0.3,0c0,0,0,0-0.1,0H43
	c-0.6,0-1,0.4-1,1c0,0.6,0.4,1,1,1h7.6L26.2,36.4c-0.4,0.4-0.4,1,0,1.4C26.4,38,26.8,38,27,38c0.2,0,0.6,0,0.8-0.2L52,13.4V21
	c0,0.6,0.4,1,1,1c0.6,0,1-0.4,1-1V11C54,10.9,54,10.8,53.9,10.6z"/>
<g>
	<path class="st1" d="M61,2H21c-0.6,0-1,0.4-1,1v40c0,0.6,0.4,1,1,1h40c0.6,0,1-0.4,1-1V3C62,2.4,61.6,2,61,2z M60,42H22V4h38V42z"
		/>
	<path class="st1" d="M25,32h4c0.6,0,1-0.4,1-1c0-0.6-0.4-1-1-1h-4c-0.6,0-1,0.4-1,1C24,31.6,24.4,32,25,32z"/>
	<path class="st1" d="M33,46H21c-1.6,0-3-1.4-3-3V31c0-0.6-0.4-1-1-1H3c-0.6,0-1,0.4-1,1v30c0,0.6,0.4,1,1,1h30c0.6,0,1-0.4,1-1V47
		C34,46.4,33.6,46,33,46z"/>
	<path class="st1" d="M33,40c0.6,0,1-0.4,1-1v-4c0-0.6-0.4-1-1-1c-0.6,0-1,0.4-1,1v4C32,39.6,32.4,40,33,40z"/>
</g>
</svg>
