<?xml version="1.0" encoding="utf-8"?>
<!-- Generator: Adobe Illustrator 28.2.0, SVG Export Plug-In . SVG Version: 6.00 Build 0)  -->
<svg version="1.1" id="Layer_1" xmlns="http://www.w3.org/2000/svg" xmlns:xlink="http://www.w3.org/1999/xlink" x="0px" y="0px"
	 viewBox="0 0 64 64" style="enable-background:new 0 0 64 64;" xml:space="preserve">
<style type="text/css">
	.st0{opacity:0.97;fill:#FFFF3F;}
	.st1{opacity:0.97;fill:#BFBFFF;}
</style>
<polygon class="st0" points="55.3,48.7 62,48.7 62,55.3 55.3,55.3 55.3,62 48.7,62 48.7,55.3 42,55.3 42,48.7 48.7,48.7 48.7,42 
	55.3,42 "/>
<path class="st1" d="M28.7,2L2,17.3V42l26.7,15.3l10-5.7v-7.3L32,48V36.7L48.7,27v11.3l-0.3,0.3h7V17.3L28.7,2z M28.7,9.3l5.7,3.3
	L15.7,23.3L10,20L28.7,9.3z M25.3,48L8.7,38.3V27l16.7,9.7V48z M28.7,31l-6.3-3.7L41,16.7l6.3,3.7L28.7,31z"/>
</svg>
