<?xml version="1.0" encoding="utf-8"?>
<!-- Generator: Adobe Illustrator 28.2.0, SVG Export Plug-In . SVG Version: 6.00 Build 0)  -->
<svg version="1.1" id="Layer_1" xmlns="http://www.w3.org/2000/svg" xmlns:xlink="http://www.w3.org/1999/xlink" x="0px" y="0px"
	 viewBox="0 0 64 64" style="enable-background:new 0 0 64 64;" xml:space="preserve">
<style type="text/css">
	.st0{fill:#BFBFBF;}
</style>
<path class="st0" d="M50.7,4c5.2,0,9.3,4.2,9.3,9.3v37.3c0,5.2-4.2,9.3-9.3,9.3H13.3C8.2,60,4,55.8,4,50.7V13.3C4,8.2,8.2,4,13.3,4
	H50.7L50.7,4z M9.7,46.3c0,4,3.2,7.1,7.1,7.1c3.9,0,7-3.1,7.1-7.1V26.7l23-2.6v12c-1.2-0.9-2.7-1.4-4.2-1.4c-4,0-7.1,3.2-7.1,7.1
	c0,4,3.2,7.1,7.1,7.1c1.8,0,3.7-0.7,5-2c1.4-1.3,2.1-3,2.1-5V15.3c0-1.4-1.2-2.5-2.5-2.4H47l-23.6,2.8c-1.3,0-2.4,1.1-2.4,2.5
	l0,22.5c-1.3-0.9-2.6-1.2-4.2-1.2C12.8,39.4,9.7,42.3,9.7,46.3z"/>
</svg>
