<?xml version="1.0" standalone="no"?><!DOCTYPE svg PUBLIC "-//W3C//DTD SVG 1.1//EN" "http://www.w3.org/Graphics/SVG/1.1/DTD/svg11.dtd"><svg t="1668590032495" class="icon" viewBox="0 0 1280 1024" version="1.1" xmlns="http://www.w3.org/2000/svg" p-id="4480" xmlns:xlink="http://www.w3.org/1999/xlink" width="40" height="32"><path d="M192 672V256H96c-53.02 0-96 42.98-96 96v576c0 53.02 42.98 96 96 96h832c53.02 0 96-42.98 96-96v-96H352c-88.22 0-160-71.78-160-160zM1184 128H800L672 0H352c-53.02 0-96 42.98-96 96v576c0 53.02 42.98 96 96 96h832c53.02 0 96-42.98 96-96V224c0-53.02-42.98-96-96-96z" p-id="4481" fill="#BFBFBF"></path></svg>