<?xml version="1.0" encoding="utf-8"?>
<!-- Generator: Adobe Illustrator 28.2.0, SVG Export Plug-In . SVG Version: 6.00 Build 0)  -->
<svg version="1.1" id="Layer_1" xmlns="http://www.w3.org/2000/svg" xmlns:xlink="http://www.w3.org/1999/xlink" x="0px" y="0px"
	 viewBox="0 0 64 64" style="enable-background:new 0 0 64 64;" xml:space="preserve">
<style type="text/css">
	.st0{fill:#BFBFBF;}
</style>
<g>
	<path class="st0" d="M31.1,12.7c1.4,3.2,5.1,4.7,8.3,3.4c3.2-1.3,4.8-5,3.4-8.3c-1.4-3.2-5.1-4.7-8.3-3.4
		C31.3,5.8,29.8,9.5,31.1,12.7C31.1,12.7,31.1,12.7,31.1,12.7z"/>
	<path class="st0" d="M57,28.1l-0.3-2.5c-0.2-1.1-1.2-1.9-2.4-1.7l-9.8,1.5c-0.2-0.4-0.5-1.1-1.1-2.1c-1.3-2-4-4.7-11.4-6
		c-7.3-1.3-12.2,3.9-12.2,3.9c-0.1,0.1-0.2,0.2-0.3,0.4l-6.9,10.9c-0.6,1-0.3,2.2,0.6,2.8l2.2,1.4c1,0.6,2.2,0.3,2.9-0.6l6.7-10.5
		c2.6-0.1,1.4,2.1,1.4,2.1l-6,18.5c0,0-0.7,0-1,0.1l-7.5-3.7c-1.4-0.7-3-0.1-3.7,1.3l-0.9,1.8c-0.7,1.4-0.1,3,1.3,3.6L20.7,55
		c0.9,0.5,2,0.3,2.8-0.2c0.2,0.3,0.6-0.4,0.6-0.4c2.2-2.4,4.5-6.1,6.5-10c0,0.1-0.1,0.2-0.1,0.2c3.8-0.3,5.7,0.6,6.7,1.4l3.2,11.5
		c0.5,1.8,2.4,2.9,4.2,2.4l1.3-0.3c1.8-0.5,2.9-2.3,2.4-4.1l0,0l-3.2-11.6c-0.1-0.3-0.2-0.5-0.3-0.7c-0.1-0.8-0.5-1.9-1.4-3.2
		c-1.6-2.1-6.6-3.4-8.9-3.5c2-4.6,3.3-8.1,3.3-8.1c0.7,2,2.6,3.1,2.6,3.1c0.4,0.7,1.3,1.2,2.1,1.1l12.9-1.9
		C56.4,30.3,57.1,29.2,57,28.1z"/>
</g>
</svg>
