<?xml version="1.0" encoding="utf-8"?>
<!-- Generator: Adobe Illustrator 22.0.0, SVG Export Plug-In . SVG Version: 6.00 Build 0)  -->
<svg version="1.1" id="图层_1" xmlns="http://www.w3.org/2000/svg" xmlns:xlink="http://www.w3.org/1999/xlink" x="0px" y="0px"
	 viewBox="0 0 64 64" style="enable-background:new 0 0 64 64;" xml:space="preserve">
<style type="text/css">
	.st0{fill:#BFBFBF;}
</style>
<g>
	<path class="st0" d="M27.9,1H50c2.2,0,4,1.8,4,4v48c0,2.2-1.8,4-4,4H10c-2.2,0-4-1.8-4-4V22.9L27.9,1z M10,25h20V5h-0.1L10,25
		L10,25z"/>
	<path class="st0" d="M56,7c2.2,0,4,1.8,4,4v48c0,2.2-1.8,4-4,4H16c-2.2,0-4-1.8-4-4h44V7z"/>
</g>
</svg>
