<?xml version="1.0" encoding="utf-8"?>
<!-- Generator: Adobe Illustrator 22.0.0, SVG Export Plug-In . SVG Version: 6.00 Build 0)  -->
<svg version="1.1" id="layer" xmlns="http://www.w3.org/2000/svg" xmlns:xlink="http://www.w3.org/1999/xlink" x="0px" y="0px"
	 viewBox="0 0 64 64" style="enable-background:new 0 0 64 64;" xml:space="preserve">
<style type="text/css">
	.st0{fill:#BFBFBF;}
	.st1{fill:#FF7F3F;}
	.st2{display:none;fill:#FF7F3F;}
</style>
<g>
	<path class="st0" d="M56,4H28c-2.2,0-4,1.8-4,4v8c0,2.2,1.8,4,4,4h28c2.2,0,4-1.8,4-4V8C60,5.8,58.2,4,56,4z M58,16
		c0,1.1-0.9,2-2,2H28c-1.1,0-2-0.9-2-2V8c0-1.1,0.9-2,2-2h28c1.1,0,2,0.9,2,2V16z"/>
	<path class="st0" d="M16,4H8C5.8,4,4,5.8,4,8v8c0,2.2,1.8,4,4,4h8c2.2,0,4-1.8,4-4V8C20,5.8,18.2,4,16,4z"/>
</g>
<g>
	<path class="st0" d="M56,24H28c-2.2,0-4,1.8-4,4v8c0,2.2,1.8,4,4,4h28c2.2,0,4-1.8,4-4v-8C60,25.8,58.2,24,56,24z M58,36
		c0,1.1-0.9,2-2,2H28c-1.1,0-2-0.9-2-2v-8c0-1.1,0.9-2,2-2h28c1.1,0,2,0.9,2,2V36z"/>
	<path class="st0" d="M16,24H8c-2.2,0-4,1.8-4,4v8c0,2.2,1.8,4,4,4h8c2.2,0,4-1.8,4-4v-8C20,25.8,18.2,24,16,24z"/>
</g>
<g>
	<path class="st0" d="M56,44H28c-2.2,0-4,1.8-4,4v8c0,2.2,1.8,4,4,4h28c2.2,0,4-1.8,4-4v-8C60,45.8,58.2,44,56,44z M58,56
		c0,1.1-0.9,2-2,2H28c-1.1,0-2-0.9-2-2v-8c0-1.1,0.9-2,2-2h28c1.1,0,2,0.9,2,2V56z"/>
	<path class="st0" d="M16,44H8c-2.2,0-4,1.8-4,4v8c0,2.2,1.8,4,4,4h8c2.2,0,4-1.8,4-4v-8C20,45.8,18.2,44,16,44z"/>
</g>
<path class="st1" d="M58,16c0,1.1-0.9,2-2,2H28c-1.1,0-2-0.9-2-2V8c0-1.1,0.9-2,2-2h28c1.1,0,2,0.9,2,2V16z"/>
<path class="st2" d="M58,36c0,1.1-0.9,2-2,2H28c-1.1,0-2-0.9-2-2v-8c0-1.1,0.9-2,2-2h28c1.1,0,2,0.9,2,2V36z"/>
<path class="st2" d="M58,56c0,1.1-0.9,2-2,2H28c-1.1,0-2-0.9-2-2v-8c0-1.1,0.9-2,2-2h28c1.1,0,2,0.9,2,2V56z"/>
</svg>
