<?xml version="1.0" encoding="utf-8"?>
<!-- Generator: Adobe Illustrator 28.2.0, SVG Export Plug-In . SVG Version: 6.00 Build 0)  -->
<svg version="1.1" id="Layer_1" xmlns="http://www.w3.org/2000/svg" xmlns:xlink="http://www.w3.org/1999/xlink" x="0px" y="0px"
	 viewBox="0 0 64 64" style="enable-background:new 0 0 64 64;" xml:space="preserve">
<style type="text/css">
	.st0{fill:#BFBFBF;}
</style>
<path class="st0" d="M53.7,17.1c-7.2,0-14.5,0-21.7,0v0H10.3c-0.7,0-1.5-0.1-1.3,1c1.1,6,2.1,12.1,3.1,18.1c1,6,2.2,11.9,3,17.9
	c0.4,3.1,3.4,6,7.4,6c6.2-0.1,12.5,0,18.7,0c4.2,0,6.9-2.2,7.5-5.9c1.2-7.4,2.5-14.9,3.8-22.3c0.8-4.5,1.5-9,2.4-13.5
	C55.1,17.2,54.7,17.1,53.7,17.1L53.7,17.1z M33.8,25.4c0,9,0,18,0,27h-3.5c0-4.5,0-9,0-13.5h0c0-4.6,0-9.2,0-13.8c0-0.1,0-0.3,0-0.4
	h3.4C33.7,25,33.8,25.2,33.8,25.4L33.8,25.4z M15.6,24.8h3.5c0.1,0.2,0.1,0.5,0.2,0.8c0.9,6.4,1.9,12.7,2.9,19.1
	c0.4,2.6,0.9,5.2,1.2,7.8h-3.5c-0.9-6-1.9-12.1-2.8-18.1c-0.5-3.2-0.9-6.3-1.4-9.5L15.6,24.8L15.6,24.8z M46.6,36
	c-0.9,5.5-1.8,11-2.5,16.5h-3.5c1.4-9,2.8-18.1,4.2-27.2c0-0.2,0-0.3,0-0.5h3.6c0,0.2-0.1,0.5-0.1,0.7C47.7,29,47.2,32.5,46.6,36
	L46.6,36z M59.8,12.8c-0.7-1.4-1.8-2.6-3-3.7c-1.4-1.2-2.9-1.8-4.9-1.8c-3.8,0.1-7.6,0-11.5,0c-0.8,0-1.3-0.1-1.5-0.9
	C38.3,4.7,37.1,4,35.1,4c-2.1,0-4.3,0-6.4,0c-1.9,0-3.1,0.8-3.6,2.4c-0.2,0.8-0.6,1-1.5,1c-3.8-0.1-7.6-0.1-11.5,0
	c-3.4,0-7.3,3-8.1,5.9c-0.2,0.9,0.1,1.4,1.1,1.6c0.5,0.1,1,0.1,1.5,0.1c8.4,0,16.8,0,25.2,0h11.5l11.6,0c1.1,0,2.3,0,3.4-0.1
	C59.9,14.8,60.3,14.1,59.8,12.8L59.8,12.8z"/>
</svg>
