<?xml version="1.0" encoding="utf-8"?>
<!-- Generator: Adobe Illustrator 28.2.0, SVG Export Plug-In . SVG Version: 6.00 Build 0)  -->
<svg version="1.1" id="Layer_1" xmlns="http://www.w3.org/2000/svg" xmlns:xlink="http://www.w3.org/1999/xlink" x="0px" y="0px"
	 viewBox="0 0 64 64" style="enable-background:new 0 0 64 64;" xml:space="preserve">
<style type="text/css">
	.st0{fill:#BFBFBF;}
</style>
<path class="st0" d="M29.4,4.6c1.6-0.8,3.5-0.8,5.1,0l23.9,11C59.4,16,60,17,60,18c0,1-0.6,2-1.5,2.4l-23.9,11
	c-1.6,0.8-3.5,0.8-5.1,0l-23.9-11C4.6,19.9,4,19,4,18c0-1,0.6-2,1.5-2.4L29.4,4.6z M52.7,26.9l5.8,2.7C59.4,30,60,31,60,32
	c0,1-0.6,2-1.5,2.4l-23.9,11c-1.6,0.8-3.5,0.8-5.1,0l-23.9-11C4.6,33.9,4,33,4,32c0-1,0.6-2,1.5-2.4l5.8-2.7L28,34.6
	c2.6,1.2,5.5,1.2,8.1,0L52.7,26.9L52.7,26.9z M36,48.6l16.6-7.7l5.8,2.7C59.4,44,60,45,60,46s-0.6,2-1.5,2.4l-23.9,11
	c-1.6,0.8-3.5,0.8-5.1,0l-23.9-11C4.6,47.9,4,47,4,46c0-1,0.6-2,1.5-2.4l5.8-2.7L28,48.6C30.5,49.8,33.5,49.8,36,48.6L36,48.6z"/>
</svg>
