<?xml version="1.0" encoding="utf-8"?>
<!-- Generator: Adobe Illustrator 28.2.0, SVG Export Plug-In . SVG Version: 6.00 Build 0)  -->
<svg version="1.1" id="Layer_1" xmlns="http://www.w3.org/2000/svg" xmlns:xlink="http://www.w3.org/1999/xlink" x="0px" y="0px"
	 viewBox="0 0 64 64" style="enable-background:new 0 0 64 64;" xml:space="preserve">
<style type="text/css">
	.st0{fill:#BFBFBF;}
</style>
<path class="st0" d="M39.3,4H12.4C11.1,4,10,5.1,10,6.5v50.9c0,1.4,1.1,2.5,2.4,2.5h39.1c1.4,0,2.4-1.1,2.4-2.5V19.3
	C48.3,13.3,45.1,10,39.3,4z M31.3,52.4c-1.4,0-2.4-1.1-2.4-2.5c0-1.4,1.1-2.5,2.4-2.5c1.4,0,2.4,1.1,2.4,2.5
	C33.7,51.2,32.6,52.4,31.3,52.4z M36.3,38.1c-1.5,0.8-2.4,1.4-2.8,1.9c-0.5,0.7-1,1.6-1,2.2c0,0.7,0,2.5,0,2.5h-2.9v-2.5
	c0-2.2,0.5-2.9,1-3.8c0.4-0.7,1.1-1.3,1.9-1.9c1.9-1.2,3.1-1.9,3.5-2.2c1.3-1.1,1.9-2.5,1.9-4.1c0-2.3-1-3.9-3-4.8
	c-0.9-0.4-1.9-0.6-2.9-0.6c-2.8,0-4.8,1.4-5.9,4.1l-0.5,1.7c-0.1,0.2-0.1,0.5-0.1,0.8l-3.2-0.7c0.6-4.1,2.6-6.9,5.8-8.2
	c1.2-0.5,2.6-0.8,4.2-0.8c3.1,0,5.6,1,7.4,2.9l0.9,1.1c0.8,1.3,1.2,2.8,1.3,4.5C41.8,33.4,39.9,36.1,36.3,38.1z M39.3,19.3V9.1
	l9.8,10.2H39.3z"/>
</svg>
