<?xml version="1.0" encoding="utf-8"?>
<!-- Generator: Adobe Illustrator 28.2.0, SVG Export Plug-In . SVG Version: 6.00 Build 0)  -->
<svg version="1.1" id="Layer_1" xmlns="http://www.w3.org/2000/svg" xmlns:xlink="http://www.w3.org/1999/xlink" x="0px" y="0px"
	 viewBox="0 0 64 64" style="enable-background:new 0 0 64 64;" xml:space="preserve">
<style type="text/css">
	.st0{fill:#BFBFBF;}
</style>
<path class="st0" d="M48.5,19.5c0-4.1-3.4-7.5-7.6-7.5H11.6C7.4,12,4,15.3,4,19.5v25.1c0,4.1,3.4,7.5,7.6,7.5h29.3
	c4.2,0,7.6-3.3,7.6-7.5c0-0.5,0.4-0.8,0.8-0.8c0.1,0,0.2,0,0.2,0l6.4,1.9c1.6,0.5,3.3-0.4,3.8-2C60,43.3,60,43,60,42.7V21.2
	c0-1.7-1.4-3-3.1-3c-0.3,0-0.6,0-0.9,0.1l-6.5,1.9c-0.4,0.1-0.8-0.1-0.9-0.5C48.5,19.6,48.5,19.5,48.5,19.5z M20.2,38.6v-13
	c0-1.7,1.4-3,3.1-3c0.6,0,1.2,0.2,1.6,0.5l10.4,6.5c1.4,0.9,1.9,2.8,1,4.2c-0.2,0.4-0.6,0.7-1,0.9l-10.4,6.5
	c-1.4,0.9-3.3,0.5-4.2-0.9C20.3,39.8,20.2,39.2,20.2,38.6L20.2,38.6z"/>
</svg>
