<?xml version="1.0" encoding="utf-8"?>
<!-- Generator: Adobe Illustrator 24.0.1, SVG Export Plug-In . SVG Version: 6.00 Build 0)  -->
<svg version="1.1" id="Layer_1" xmlns="http://www.w3.org/2000/svg" xmlns:xlink="http://www.w3.org/1999/xlink" x="0px" y="0px"
	 viewBox="0 0 64 64" style="enable-background:new 0 0 64 64;" xml:space="preserve">
<style type="text/css">
	.st0{opacity:0.5;fill:#1F1F1F;enable-background:new    ;}
	.st1{fill:#5F5F5F;}
	.st2{fill:#BFBFBF;}
	.st3{fill:#FFFFFF;}
	.st4{fill:#6F6F6F;}
	.st5{fill:#DFDFDF;}
	.st6{display:none;fill:#FFFFFF;}
</style>
<polygon id="shadow" class="st0" points="64,64 64,12 24,12 16,20 16,64 "/>
<g>
	<g>
		<path class="st1" d="M54,58H6c-1.1,0-2-0.9-2-2V12c0-0.5,0.2-1,0.6-1.4l10-10C15,0.2,15.5,0,16,0h40c1.1,0,2,0.9,2,2v52
			c0,0.5-0.2,1-0.6,1.4l-2,2C55,57.8,54.5,58,54,58z M8,54h45.2l0.8-0.8V4H16.8L8,12.8V54z"/>
	</g>
	<g>
		<polygon class="st2" points="54,56 54,4 14,4 6,12 6,56 		"/>
		<polygon class="st3" points="14,12 6,12 14,4 		"/>
		<polygon class="st4" points="54,4 56,2 56,54 54,56 		"/>
		<polygon class="st5" points="14,4 16,2 56,2 54,4 		"/>
		<polyline class="st3" points="54,4 54,5 14,5 7,12 7,56 6,56 6,12 16,2 17,2 15,4 		"/>
	</g>
</g>
<rect x="10" y="19" class="st6" width="40" height="30"/>
</svg>
