<?xml version="1.0" encoding="utf-8"?>
<!-- Generator: Adobe Illustrator 24.0.1, SVG Export Plug-In . SVG Version: 6.00 Build 0)  -->
<svg version="1.1" id="Layer_1" xmlns="http://www.w3.org/2000/svg" xmlns:xlink="http://www.w3.org/1999/xlink" x="0px" y="0px"
	 viewBox="0 0 64 64" style="enable-background:new 0 0 64 64;" xml:space="preserve">
<style type="text/css">
	.st0{fill:#BFBFBF;}
	.st1{fill:#5F5F5F;}
	.st2{fill:#DFDFDF;}
	.st3{fill:#AFAFAF;}
	.st4{fill:#9F9F9F;}
	.st5{fill:#878787;}
	.st6{fill:#A7A7A7;}
	.st7{fill:#676767;}
	.st8{display:none;opacity:0.5;fill:#FFFFFF;}
	.st9{fill:#777777;}
	.st10{fill:#FFFFFF;}
</style>
<g>
	<polygon class="st0" points="60,54 60,15 50,5 10,5 10,2 6,2 2,6 2,62 4,62 6,62 58,62 62,58 62,54 	"/>
	<path class="st1" d="M58,64H2c-1.1,0-2-0.9-2-2V6c0-0.5,0.2-1,0.6-1.4l4-4C5,0.2,5.5,0,6,0h4c1.1,0,2,0.9,2,2v1h38
		c0.5,0,1,0.2,1.4,0.6l10,10C61.8,14,62,14.5,62,15v37c1.1,0,2,0.9,2,2v4c0,0.5-0.2,1-0.6,1.4l-4,4C59,63.8,58.5,64,58,64z M4,60
		h53.2l2.8-2.8V56c-1.1,0-2-0.9-2-2V15.8L49.2,7H10C8.9,7,8,6.1,8,5V4H6.8L4,6.8V60z"/>
</g>
<g>
	<g>
		<polygon class="st2" points="9,5 50,5 48,7 7,7 		"/>
		<rect x="52.6" y="3.9" transform="matrix(0.7071 -0.7071 0.7071 0.7071 8.0524 41.37)" class="st3" width="2.8" height="14.1"/>
		<polygon class="st4" points="58,17 60,15 60,55 58,57 		"/>
		<polygon class="st0" points="7,7 48,7 58,17 58,57 7,57 		"/>
	</g>
	<g>
		<circle class="st5" cx="30" cy="34" r="20"/>
		<circle class="st5" cx="30" cy="34" r="18"/>
		<polygon class="st0" points="21,16 21,52 50,35 		"/>
	</g>
	<g>
		<polygon class="st6" points="2,6 6,2 10,2 6,6 		"/>
		<polygon class="st7" points="58,58 62,54 62,58 58,62 		"/>
		<polygon class="st7" points="10,2 10,5 9,5 7,7 7,49 6,50 6,6 		"/>
		<polygon class="st6" points="14,58 15,57 58,57 60,55 60,54 62,54 58,58 		"/>
		<polygon class="st5" points="14,58 6,50 6,6 2,6 2,62 4,62 6,62 58,62 58,58 		"/>
	</g>
</g>
<rect x="10" y="19" class="st8" width="40" height="30"/>
<rect x="9.8" y="47.8" transform="matrix(0.7071 -0.7071 0.7071 0.7071 -34.7548 23.0944)" class="st9" width="1.4" height="11.3"/>
<polygon class="st10" points="6,6 3,6 7,2 6,2 2,6 2,62 3,61 3,7 6,7 "/>
<polygon class="st10" points="48,7 49,8 7,8 7,7 "/>
<polygon class="st10" points="14,58 15,59 58,59 58,58 "/>
</svg>
