<?xml version="1.0" encoding="utf-8"?>
<!-- Generator: Adobe Illustrator 24.0.1, SVG Export Plug-In . SVG Version: 6.00 Build 0)  -->
<svg version="1.1" id="Layer_1" xmlns="http://www.w3.org/2000/svg" xmlns:xlink="http://www.w3.org/1999/xlink" x="0px" y="0px"
	 viewBox="0 0 64 64" style="enable-background:new 0 0 64 64;" xml:space="preserve">
<style type="text/css">
	.st0{fill:#FFFFFF;}
	.st1{fill:#5F5F5F;}
	.st2{fill:#878787;}
	.st3{fill:#A7A7A7;}
	.st4{fill:#676767;}
	.st5{fill:#BFBFBF;}
	.st6{fill:#9F9F9F;}
	.st7{fill:#DFDFDF;}
	.st8{fill:#AFAFAF;}
	.st9{display:none;fill:#FFFFFF;}
</style>
<g>
	<path class="st0" d="M56,20.1L56,20.1L56,20.1l-4-4l-2,2l0,0l2-2h-9L54,5l1-1l2-2H43h-1l-2,2L28,16h-3L36,5l1-1l2-2H25h-1l-2,2
		L10,16l-2,2l-1,1v27l1,1l2,2v2H9H8l-2,2l1,1l8,8l8-8l1-1l1,1l8,8l8-8l1-1l2-2h-4v-1h13l1-1l2-2V20.1L56,20.1L56,20.1z M22,51v-1h6
		v1h-1h-1H22z"/>
	<path class="st1" d="M33,64c-0.5,0-1-0.2-1.4-0.6L24,55.8l-7.6,7.6c-0.8,0.8-2,0.8-2.8,0l-9-9c-0.8-0.8-0.8-2,0-2.8l2-2
		c0.2-0.2,0.4-0.4,0.7-0.5l-1.7-1.7C5.2,47,5,46.5,5,46V19c0-0.5,0.2-1,0.6-1.4l17-17C23,0.2,23.5,0,24,0h15c0.6,0,1.1,0.3,1.5,0.7
		l0.1-0.1C41,0.2,41.5,0,42,0h15c0.8,0,1.5,0.5,1.8,1.2C59.2,2,59,2.8,58.4,3.4L47.8,14H52c0.7,0,1.3,0.4,1.7,0.9l3.5,3.5
		c0.4,0.3,0.7,0.7,0.8,1.1c0.1,0.2,0.1,0.4,0.1,0.6c0,0.1,0,0.2,0,0.3V47c0,0.5-0.2,1-0.6,1.4l-3,3C54,51.8,53.5,52,53,52h-7.3
		c-0.1,0.1-0.2,0.3-0.3,0.4l-11,11C34,63.8,33.5,64,33,64z M26.8,53l6.2,6.2l6.3-6.3c-0.8-0.3-1.3-1-1.3-1.9v-1c0-1.1,0.9-2,2-2
		h12.2l1.8-1.8V20.9l-2-2l-0.5,0.6c-0.8,0.7-2.1,0.8-2.8,0C48.2,19.1,48,18.5,48,18h-5c-0.8,0-1.5-0.5-1.8-1.2
		c-0.3-0.7-0.1-1.6,0.4-2.2L52.2,4h-9.3L29.4,17.4C29,17.8,28.5,18,28,18h-3c-0.8,0-1.5-0.5-1.8-1.2c-0.3-0.7-0.1-1.6,0.4-2.2
		L34.2,4h-9.3L9,19.8v25.3l2.4,2.4C11.8,48,12,48.5,12,49v2c0,1.1-0.9,2-2,2H8.8l6.2,6.2l6.3-6.3c-0.8-0.3-1.3-1-1.3-1.9v-1
		c0-1.1,0.9-2,2-2h6c1.1,0,2,0.9,2,2v1c0,1.1-0.9,2-2,2H26.8z"/>
</g>
<g>
	<g>
		<polygon class="st2" points="20,21 20,53 24,53 15,62 6,53 10,53 10,16 22,4 37,4 		"/>
		<polygon class="st3" points="22,4 24,2 39,2 37,4 		"/>
		<polygon class="st4" points="20,21 22,19 22,51 20,53 		"/>
		<polygon class="st3" points="26,51 24,53 20,53 22,51 		"/>
		<polygon class="st3" points="10,51 10,53 6,53 8,51 		"/>
		<polygon class="st0" points="24,2 25,2 23,4 37,4 36,5 22,5 11,16 10,16 		"/>
		<polygon class="st0" points="20,53 24,53 23,54 20,54 		"/>
		<polyline class="st0" points="10,46 10,53 7,53 9,51 8,51 6,53 7,54 11,54 11,47 		"/>
	</g>
	<g>
		<polygon class="st2" points="38,21 38,53 42,53 33,62 24,53 28,53 28,16 40,4 55,4 		"/>
		<polygon class="st3" points="40,4 42,2 57,2 55,4 		"/>
		<polygon class="st4" points="38,21 40,19 40,51 38,53 		"/>
		<polygon class="st3" points="44,51 42,53 38,53 40,51 		"/>
		<polygon class="st3" points="28,51 28,53 24,53 26,51 		"/>
		<polygon class="st0" points="42,2 43,2 41,4 55,4 54,5 40,5 29,16 28,16 		"/>
		<polygon class="st0" points="38,53 42,53 41,54 38,54 		"/>
		<polyline class="st0" points="28,46 28,53 25,53 27,51 26,51 24,53 25,54 29,54 29,47 		"/>
	</g>
	<g>
		<polygon class="st5" points="11,50 7,46 7,19 8,18 50,18 54,22 54,49 53,50 		"/>
		<polygon class="st6" points="56,20 54,22 54,49 56,47 		"/>
		<polygon class="st7" points="8,18 10,16 52,16 50,18 		"/>
		<polygon class="st8" points="50,18 52,16 56,20.1 54,22.1 		"/>
		<polygon class="st0" points="10,16 11,16 9,18 50,18 49,19 8,19 8,47 7,46 7,19 		"/>
	</g>
</g>
<rect x="10" y="19" class="st9" width="40" height="30"/>
</svg>
