<?xml version="1.0" encoding="utf-8"?>
<!-- Generator: Adobe Illustrator 24.0.1, SVG Export Plug-In . SVG Version: 6.00 Build 0)  -->
<svg version="1.1" id="Layer_1" xmlns="http://www.w3.org/2000/svg" xmlns:xlink="http://www.w3.org/1999/xlink" x="0px" y="0px"
	 viewBox="0 0 64 64" style="enable-background:new 0 0 64 64;" xml:space="preserve">
<style type="text/css">
	.st0{fill:#BFBFBF;}
	.st1{fill:#5F5F5F;}
	.st2{fill:#DFDFDF;}
	.st3{fill:#6F6F6F;}
	.st4{fill:#9F9F9F;}
	.st5{fill:#FFFFFF;}
	.st6{fill:#777777;}
	.st7{fill:#878787;}
	.st8{fill:#676767;}
	.st9{fill:#A7A7A7;}
	.st10{display:none;fill:#FFFFFF;}
</style>
<g>
	<polygon class="st0" points="45,2 44,2 42,4 48,10 46,12 38,4 38,4 9,4 8,4 4,8 4,38 5,39 12,46 11,47 11,47 10,48 5,43 4,42 2,44 
		2,62 3,62 20,62 22,60 16,54 17,53 12,48 12,48 17.1,53 18,52 26,60 56,60 60,56 60,26 56,30 56,30 60,26 52,18 54,16 60,22 62,20 
		62,2 	"/>
	<path class="st1" d="M20,64H2c-1.1,0-2-0.9-2-2V44c0-0.5,0.2-1,0.6-1.4l2-2c0.2-0.2,0.5-0.4,0.7-0.5l-0.7-0.7C2.2,39,2,38.5,2,38V8
		c0-0.5,0.2-1,0.6-1.4l4-4C7,2.2,7.5,2,8,2h29.8c0.6-0.1,1.2,0.1,1.7,0.6l0.7,0.7c0.1-0.3,0.2-0.5,0.5-0.7l2-2C43,0.2,43.5,0,44,0
		h18c1.1,0,2,0.9,2,2v18c0,0.5-0.2,1-0.6,1.4l-2,2c-0.2,0.2-0.4,0.4-0.7,0.5l0.7,0.7c0.3,0.3,0.4,0.6,0.5,0.9c0,0.2,0.1,0.3,0.1,0.5
		v30c0,0.5-0.2,1-0.6,1.4l-4,4C57,61.8,56.5,62,56,62H26c-0.5,0-1-0.2-1.4-0.6l-0.7-0.7c-0.1,0.3-0.3,0.5-0.5,0.7l-2,2
		C21,63.8,20.5,64,20,64z M4,60h15.2l-4.6-4.6c-0.6-0.6-0.8-1.6-0.4-2.4l-3.3-3.3c-0.8,0.4-1.7,0.3-2.4-0.4L4,44.8V60z M26.8,58
		h28.3l2.8-2.8V30.8l-0.6,0.6c-0.8,0.8-2,0.8-2.8,0c-0.8-0.8-0.8-2.1,0-2.9l2.6-2.6l-6.6-6.6C50.2,19,50,18.5,50,18s0.2-1,0.6-1.4
		l2-2c0.8-0.8,2-0.8,2.8,0l4.6,4.6V4H44.8l4.6,4.6c0.8,0.8,0.8,2,0,2.8l-2,2c-0.8,0.8-2,0.8-2.8,0L37.2,6H8.8L6,8.8v28.3l7.4,7.4
		c0.6,0.6,0.8,1.6,0.4,2.3l3.3,3.3c0.3-0.1,0.6-0.2,0.9-0.2c0.5,0,1.1,0.2,1.4,0.6L26.8,58z"/>
</g>
<g>
	<g>
		<polygon class="st0" points="56,60 26,60 4,38 4,8 34,8 56,30 		"/>
		<polygon class="st2" points="4,8 8,4 38,4 34,8 		"/>
		<polygon class="st3" points="56,60 60,56 60,26 56,30 		"/>
		<rect x="44.1" y="1.4" transform="matrix(0.7071 -0.7071 0.7071 0.7071 1.7535 38.192)" class="st4" width="5.7" height="31.1"/>
		<polygon class="st5" points="34,8 5,8 9,4 8,4 4,8 4,38 5,39 5,9 35,9 		"/>
	</g>
	<g>
		
			<rect x="4.6" y="41.8" transform="matrix(0.7071 -0.7071 0.7071 0.7071 -30.7696 17.7157)" class="st6" width="2.8" height="8.5"/>
		
			<rect x="16.6" y="53.8" transform="matrix(0.7071 -0.7071 0.7071 0.7071 -35.7401 29.7157)" class="st6" width="2.8" height="8.5"/>
		<polygon class="st7" points="14,56 17,53 11,47 8,50 2,44 2,62 20,62 		"/>
		<polygon class="st6" points="11,47 13,45 19,51 17.1,53 		"/>
		<polygon class="st5" points="8,50 13,45 14,46 9,51 		"/>
		<polygon class="st5" points="2,44 2,62 3,62 3,45 		"/>
		<polyline class="st5" points="4,42 2,44 3,45 5,43 		"/>
	</g>
	<g>
		<polygon class="st7" points="60,22 54,16 52,18 46,12 48,10 42,4 60,4 		"/>
		<polygon class="st8" points="62,2 60,4 60,22 62,20 		"/>
		<polygon class="st9" points="42,4 44,2 62,2 60,4 		"/>
		<polyline class="st5" points="60,4 43,4 45,2 44,2 42,4 48,10 46,12 47,12 49,10 44,5 60,5 		"/>
	</g>
</g>
<rect x="10" y="19" class="st10" width="40" height="30"/>
</svg>
