<?xml version="1.0" encoding="utf-8"?>
<!-- Generator: Adobe Illustrator 24.0.1, SVG Export Plug-In . SVG Version: 6.00 Build 0)  -->
<svg version="1.1" id="Layer_1" xmlns="http://www.w3.org/2000/svg" xmlns:xlink="http://www.w3.org/1999/xlink" x="0px" y="0px"
	 viewBox="0 0 64 64" style="enable-background:new 0 0 64 64;" xml:space="preserve">
<style type="text/css">
	.st0{fill:#BFBFBF;}
	.st1{fill:#5F5F5F;}
	.st2{fill:#878787;}
	.st3{fill:#777777;}
	.st4{fill:#A7A7A7;}
	.st5{fill:#FFFFFF;}
	.st6{display:none;fill:#FFFFFF;}
	.st7{fill:#9F9F9F;}
	.st8{fill:#AFAFAF;}
	.st9{fill:#DFDFDF;}
	.st10{fill:#676767;}
</style>
<g>
	<path class="st0" d="M60,11l2-2l-7-7l-2,2v1H21h-1l-2,2l-8,8l-4,4v23l1,1l3.5,3.5L9,48l-7,7l7,7v-3h35l7-7l1-1l2-2l4-4V22l-4.5-4.5
		L54,17L60,11z M11,49v-2l2,2H11z M51,15h2v2L51,15z"/>
	<path class="st1" d="M9,64c-0.5,0-1-0.2-1.4-0.6l-7-7c-0.8-0.8-0.8-2,0-2.8l7.1-7.1l-3.1-3.1C4.2,43,4,42.5,4,42V19
		c0-0.5,0.2-1,0.6-1.4l14-14C19,3.2,19.5,3,20,3h31.3c0.1-0.1,0.2-0.3,0.3-0.4l2-2c0.8-0.8,2-0.8,2.8,0l7,7c0.8,0.8,0.8,2,0,2.8
		l-7.1,7.1l3.1,3.1C59.8,21,60,21.5,60,22v23c0,0.5-0.2,1-0.6,1.4l-14,14C45,60.8,44.5,61,44,61H11v1c0,0.8-0.5,1.5-1.2,1.8
		C9.5,64,9.3,64,9,64z M4.8,55l2.7,2.7C7.9,57.3,8.4,57,9,57h34.2L56,44.2V22.8l-3.9-3.9c-0.1-0.1-0.2-0.2-0.2-0.3
		c-0.1-0.1-0.2-0.1-0.3-0.2l-2-2c-0.6-0.6-0.7-1.4-0.4-2.2c0.3-0.7,1-1.2,1.8-1.2h2c0.6,0,1.1,0.3,1.5,0.7L59.2,9L55,4.8V5
		c0,1.1-0.9,2-2,2H20.8L8,19.8v21.3l3.9,3.9c0.1,0.1,0.2,0.2,0.2,0.3c0.1,0.1,0.2,0.1,0.3,0.2l2,2c0.6,0.6,0.7,1.4,0.4,2.2
		c-0.3,0.7-1,1.2-1.8,1.2h-2c-0.6,0-1.1-0.3-1.5-0.7L4.8,55z M53,4L53,4L53,4z"/>
</g>
<g>
	<g>
		<polygon class="st2" points="18,7 53,7 53,4 60,11 53,18 53,15 10,15 		"/>
		<rect x="56.1" y="1.6" transform="matrix(0.7071 -0.7071 0.7071 0.7071 12.2452 42.5624)" class="st3" width="2.8" height="9.9"/>
		<polygon class="st4" points="18,7 20,5 53,5 53,7 		"/>
		<rect x="53.1" y="2.8" transform="matrix(0.7071 -0.7071 0.7071 0.7071 13.4875 39.5622)" class="st5" width="2.8" height="1.4"/>
	</g>
	<g>
		<rect x="6" y="19" class="st6" width="48" height="30"/>
		<polygon class="st7" points="54,49 58,45 58,22 54,26 		"/>
		<polygon class="st0" points="6,19 47,19 54,26 54,49 13,49 6,42 		"/>
		<rect x="49.7" y="15.6" transform="matrix(0.7071 -0.7071 0.7071 0.7071 0.8812 43.1274)" class="st8" width="5.7" height="9.9"/>
		<polygon class="st9" points="6,19 10,15 51,15 47,19 		"/>
		<polygon class="st5" points="47,19 7,19 11,15 10,15 6,19 6,42 7,43 7,20 48,20 		"/>
	</g>
	<g>
		<polygon class="st2" points="44,59 9,59 9,62 2,55 9,48 9,51 52,51 		"/>
		<polygon class="st4" points="9,51 11,49 54,49 52,51 		"/>
		<polygon class="st10" points="9,48 11,46 11,49 9,51 		"/>
		<polygon class="st5" points="53,7 19,7 21,5 20,5 10,15 11,15 18,8 54,8 54,5 53,4 		"/>
		<polygon class="st5" points="53,15 54,15 54,17 53,18 		"/>
		<polygon class="st5" points="52,51 9,51 9,52 51,52 		"/>
		<polygon class="st5" points="9,48 2,55 3,55 9,49 11,47 11,46 		"/>
	</g>
</g>
<rect x="10" y="19" class="st6" width="40" height="30"/>
</svg>
