<?xml version="1.0" encoding="utf-8"?>
<!-- Generator: Adobe Illustrator 24.0.1, SVG Export Plug-In . SVG Version: 6.00 Build 0)  -->
<svg version="1.1" id="Layer_1" xmlns="http://www.w3.org/2000/svg" xmlns:xlink="http://www.w3.org/1999/xlink" x="0px" y="0px"
	 viewBox="0 0 64 64" style="enable-background:new 0 0 64 64;" xml:space="preserve">
<style type="text/css">
	.st0{fill:#BFBFBF;}
	.st1{fill:#5F5F5F;}
	.st2{fill:#777777;}
	.st3{fill:#676767;}
	.st4{fill:#878787;}
	.st5{fill:#FFFFFF;}
	.st6{fill:#9F9F9F;}
	.st7{fill:#DFDFDF;}
	.st8{fill:#AFAFAF;}
	.st9{display:none;fill:#FFFFFF;}
</style>
<g>
	<polygon class="st0" points="51.5,4.5 60,12.9 62,10.9 53,1.9 51,3.9 51,4 51,4 42,13 43,13 46,13 46,16 40,16 40,13 42,13 
		33.5,4.5 33.5,4.5 42,12.9 44,10.9 35,1.9 33,3.9 33,4 33,4 24,13 25,13 28,13 28,16 11,16 10,16 8,18 7,19 7,46 8,47 11,50 20,50 
		8,62 9,62 23,62 35,50 38,50 26,62 27,62 41,62 53,50 54,49 56,47 58,45 58,13 60,13 	"/>
	<path class="st1" d="M41,64H26c-0.6,0-1.1-0.3-1.5-0.7l-0.1,0.1C24,63.8,23.5,64,23,64H8c-0.8,0-1.5-0.5-1.8-1.2
		C5.8,62,6,61.2,6.6,60.6l8.6-8.6H11c-0.5,0-1-0.2-1.4-0.6l-4-4C5.2,47,5,46.5,5,46V19c0-0.5,0.2-1,0.6-1.4l3-3C9,14.2,9.5,14,10,14
		h12.3c0-0.1-0.1-0.2-0.1-0.2c-0.3-0.7-0.1-1.6,0.4-2.2l8.7-8.7c0.1-0.1,0.2-0.2,0.3-0.3l2-2c0.8-0.8,2.1-0.8,2.8,0L44,8.2l5.3-5.3
		c0.1-0.1,0.2-0.2,0.3-0.3l2-2c0.8-0.8,2-0.8,2.8,0l9,9C63.8,10,64,10.5,64,11s-0.2,1-0.6,1.4L61.8,14c-0.3,0.6-1,1-1.8,1v30
		c0,0.5-0.2,1-0.6,1.4l-17,17C42,63.8,41.5,64,41,64z M30.8,60h9.3L56,44.2V13c0-0.3,0.1-0.7,0.2-0.9L51,6.8l-4.3,4.3
		c0.8,0.3,1.3,1,1.3,1.9v3c0,1.1-0.9,2-2,2h-6c-1.1,0-2-0.9-2-2v-3c0-0.3,0.1-0.7,0.2-0.9L33,6.8l-4.3,4.3c0.8,0.3,1.3,1,1.3,1.9v3
		c0,1.1-0.9,2-2,2H10.8L9,19.8v25.3l2.8,2.8H20c0.8,0,1.5,0.5,1.8,1.2s0.1,1.6-0.4,2.2L12.8,60h9.3l11.4-11.4c0.5-0.4,1-0.6,1.5-0.6
		h3c0.8,0,1.5,0.5,1.8,1.2s0.1,1.6-0.4,2.2L30.8,60z"/>
</g>
<g>
	<g>
		<rect x="37.1" y="1.1" transform="matrix(0.7071 -0.7071 0.7071 0.7071 5.9731 29.4203)" class="st2" width="2.8" height="12.7"/>
		<polygon class="st3" points="38,47 40,45 40,13 38,13 		"/>
		<polygon class="st4" points="28,42 28,13 24,13 33,4 42,13 38,13 38,47 23,62 8,62 		"/>
		<rect x="28" y="13" class="st5" width="1" height="3"/>
		<polygon class="st5" points="24,13 35,2 35,3 25,13 		"/>
		<polygon class="st5" points="20,50 21,50 9,62 8,62 		"/>
	</g>
	<g>
		
			<rect x="55.1" y="1.1" transform="matrix(0.7071 -0.7071 0.7071 0.7071 11.2452 42.1482)" class="st2" width="2.8" height="12.7"/>
		<polygon class="st3" points="56,47 58,45 58,13 56,13 		"/>
		<polygon class="st4" points="46,42 46,13 42,13 51,4 60,13 56,13 56,47 41,62 26,62 		"/>
		<rect x="46" y="13" class="st5" width="1" height="3"/>
		<polygon class="st5" points="42,13 53,2 53,3 43,13 		"/>
		<polygon class="st5" points="38,50 39,50 27,62 26,62 		"/>
	</g>
	<g>
		<polygon class="st0" points="11,50 7,46 7,19 8,18 50,18 54,22 54,49 53,50 		"/>
		<polygon class="st6" points="56,20 54,22 54,49 56,47 		"/>
		<polygon class="st7" points="8,18 10,16 52,16 50,18 		"/>
		<polygon class="st8" points="50,18 52,16 56,20.1 54,22.1 		"/>
		<polygon class="st5" points="10,16 11,16 9,18 50,18 49,19 8,19 8,47 7,46 7,19 		"/>
	</g>
</g>
<rect x="10" y="19" class="st9" width="40" height="30"/>
</svg>
