<?xml version="1.0" encoding="utf-8"?>
<!-- Generator: Adobe Illustrator 24.0.1, SVG Export Plug-In . SVG Version: 6.00 Build 0)  -->
<svg version="1.1" id="Layer_1" xmlns="http://www.w3.org/2000/svg" xmlns:xlink="http://www.w3.org/1999/xlink" x="0px" y="0px"
	 viewBox="0 0 64 64" style="enable-background:new 0 0 64 64;" xml:space="preserve">
<style type="text/css">
	.st0{fill:#BFBFBF;}
	.st1{fill:#5F5F5F;}
	.st2{fill:#9F9F9F;}
	.st3{fill:#AFAFAF;}
	.st4{fill:#FFFFFF;}
	.st5{fill:#676767;}
	.st6{fill:#878787;}
	.st7{fill:#A7A7A7;}
	.st8{display:none;fill:#FFFFFF;}
</style>
<g>
	<path class="st0" d="M62,5V2H7H6L2,6v13l1,1l4,4l-5,5v20v13h1h12h13h13h13h4l4-4v-3h-1v-6l1-1v-3l-5-5l1-1l4-4V15v-3h-1V6L62,5z
		 M51,55h-3v-3h3V55z M38,55h-3v-3h3V55z M25,55h-3v-3h3V55z M12,12H9V9h3V12z M25,12h-3V9h3V12z M38,12h-3V9h3V12z M51,12h-3V9h3
		V12z M12,55H9v-3h3V55z"/>
	<path class="st1" d="M58,64H2c-1.1,0-2-0.9-2-2V29c0-0.5,0.2-1,0.6-1.4L4.2,24l-3.6-3.6C0.2,20,0,19.5,0,19V6c0-0.5,0.2-1,0.6-1.4
		l4-4C5,0.2,5.5,0,6,0h56c1.1,0,2,0.9,2,2v3c0,0.5-0.2,1-0.6,1.4L63,6.8v3.4c0.6,0.3,1,1,1,1.7v23c0,0.5-0.2,1-0.6,1.4L59.8,40
		l3.6,3.6C63.8,44,64,44.5,64,45v3c0,0.5-0.2,1-0.6,1.4L63,49.8v3.4c0.6,0.3,1,1,1,1.7v3c0,0.5-0.2,1-0.6,1.4l-4,4
		C59,63.8,58.5,64,58,64z M4,60h53.2l2.8-2.8v-0.4c-0.6-0.3-1-1-1-1.7v-6c0-0.5,0.2-1,0.6-1.4l0.4-0.4v-1.3l-4.4-4.4
		c-0.8-0.8-0.8-2,0-2.8l4.4-4.4V13.7c-0.6-0.3-1-1-1-1.7V6c0-0.5,0.2-1,0.6-1.4L60,4.2V4H6.8L4,6.8v11.3l4.4,4.4
		c0.8,0.8,0.8,2,0,2.8L4,29.8V60z M62,5L62,5L62,5z M51,57h-3c-1.1,0-2-0.9-2-2v-3c0-1.1,0.9-2,2-2h3c1.1,0,2,0.9,2,2v3
		C53,56.1,52.1,57,51,57z M38,57h-3c-1.1,0-2-0.9-2-2v-3c0-1.1,0.9-2,2-2h3c1.1,0,2,0.9,2,2v3C40,56.1,39.1,57,38,57z M25,57h-3
		c-1.1,0-2-0.9-2-2v-3c0-1.1,0.9-2,2-2h3c1.1,0,2,0.9,2,2v3C27,56.1,26.1,57,25,57z M12,57H9c-1.1,0-2-0.9-2-2v-3c0-1.1,0.9-2,2-2h3
		c1.1,0,2,0.9,2,2v3C14,56.1,13.1,57,12,57z M51,14h-3c-1.1,0-2-0.9-2-2V9c0-1.1,0.9-2,2-2h3c1.1,0,2,0.9,2,2v3
		C53,13.1,52.1,14,51,14z M38,14h-3c-1.1,0-2-0.9-2-2V9c0-1.1,0.9-2,2-2h3c1.1,0,2,0.9,2,2v3C40,13.1,39.1,14,38,14z M25,14h-3
		c-1.1,0-2-0.9-2-2V9c0-1.1,0.9-2,2-2h3c1.1,0,2,0.9,2,2v3C27,13.1,26.1,14,25,14z M12,14H9c-1.1,0-2-0.9-2-2V9c0-1.1,0.9-2,2-2h3
		c1.1,0,2,0.9,2,2v3C14,13.1,13.1,14,12,14z"/>
</g>
<g>
	<g>
		<polygon class="st0" points="30,19 2,19 7,24 2,29 2,49 30,49 58,49 53,44 58,39 58,19 		"/>
		<polygon class="st2" points="58,19 62,15 62,35 58,39 		"/>
		<rect x="54.7" y="41" transform="matrix(0.7071 -0.7071 0.7071 0.7071 -14.6249 53.6924)" class="st3" width="5.7" height="7.1"/>
		<polygon class="st4" points="7,24 7,25 3,29 3,49 2,49 2,29 		"/>
	</g>
	<g>
		<polygon class="st5" points="62,55 58,59 58,62 62,58 		"/>
		<polygon class="st5" points="62,45 58,49 58,51 57,52 57,59 61,55 61,49 62,48 		"/>
		<path class="st6" d="M58,52v-3h-4H41H28H15H2v13h13h13h13h13h4v-3h-1v-7H58z M12,59H5v-7h7V59z M25,59h-7v-7h7V59z M38,59h-7v-7h7
			V59z M51,59h-7v-7h7V59z"/>
		<polygon class="st7" points="57,59 61,55 62,55 58,59 		"/>
		<g>
			<polygon class="st7" points="5,59 12,59 12,55 9,55 			"/>
			<polygon class="st5" points="18,59 22,55 22,52 18,52 			"/>
			<polygon class="st7" points="18,59 25,59 25,55 22,55 			"/>
			<polygon class="st5" points="31,59 35,55 35,52 31,52 			"/>
			<polygon class="st7" points="31,59 38,59 38,55 35,55 			"/>
			<polygon class="st5" points="44,59 48,55 48,52 44,52 			"/>
			<polygon class="st7" points="44,59 51,59 51,55 48,55 			"/>
		</g>
		<polygon class="st5" points="5,59 9,55 9,52 5,52 		"/>
		<polygon class="st4" points="12,52 13,51 13,60 4,60 5,59 12,59 		"/>
		<polygon class="st4" points="25,52 26,51 26,60 17,60 18,59 25,59 		"/>
		<polygon class="st4" points="38,52 39,51 39,60 30,60 31,59 38,59 		"/>
		<polygon class="st4" points="51,52 52,51 52,60 43,60 44,59 51,59 		"/>
		<rect x="2" y="49" class="st4" width="1" height="13"/>
		<rect x="57" y="59" class="st4" width="1" height="1"/>
	</g>
	<g>
		<polygon class="st5" points="62,12 58,16 58,19 62,15 		"/>
		<polygon class="st5" points="62,2 58,6 58,8 57,9 57,16 61,12 61,6 62,5 		"/>
		<path class="st6" d="M58,9V6h-4H41H28H15H2v13h13h13h13h13h4v-3h-1V9H58z M12,16H5V9h7V16z M25,16h-7V9h7V16z M38,16h-7V9h7V16z
			 M51,16h-7V9h7V16z"/>
		<polygon class="st7" points="57,16 61,12 62,12 58,16 		"/>
		<g>
			<polygon class="st7" points="5,16 12,16 12,12 9,12 			"/>
			<polygon class="st5" points="18,16 22,12 22,9 18,9 			"/>
			<polygon class="st7" points="18,16 25,16 25,12 22,12 			"/>
			<polygon class="st5" points="31,16 35,12 35,9 31,9 			"/>
			<polygon class="st7" points="31,16 38,16 38,12 35,12 			"/>
			<polygon class="st5" points="44,16 48,12 48,9 44,9 			"/>
			<polygon class="st7" points="44,16 51,16 51,12 48,12 			"/>
		</g>
		<polygon class="st7" points="2,6 6,2 62,2 58,6 		"/>
		<polygon class="st5" points="5,16 9,12 9,9 5,9 		"/>
		<polygon class="st4" points="12,9 13,8 13,17 4,17 5,16 12,16 		"/>
		<polygon class="st4" points="25,9 26,8 26,17 17,17 18,16 25,16 		"/>
		<polygon class="st4" points="38,9 39,8 39,17 30,17 31,16 38,16 		"/>
		<polygon class="st4" points="51,9 52,8 52,17 43,17 44,16 51,16 		"/>
		<polygon class="st4" points="58,6 3,6 7,2 6,2 2,6 2,19 3,20 3,7 58,7 		"/>
		<rect x="57" y="16" class="st4" width="1" height="1"/>
	</g>
</g>
<rect x="10" y="19" class="st8" width="40" height="30"/>
</svg>
