<?xml version="1.0" encoding="utf-8"?>
<!-- Generator: Adobe Illustrator 24.0.1, SVG Export Plug-In . SVG Version: 6.00 Build 0)  -->
<svg version="1.1" id="Layer_1" xmlns="http://www.w3.org/2000/svg" xmlns:xlink="http://www.w3.org/1999/xlink" x="0px" y="0px"
	 viewBox="0 0 64 64" style="enable-background:new 0 0 64 64;" xml:space="preserve">
<style type="text/css">
	.st0{fill:#BFBFBF;}
	.st1{fill:#5F5F5F;}
	.st2{fill:#777777;}
	.st3{fill:#676767;}
	.st4{fill:#878787;}
	.st5{fill:#FFFFFF;}
	.st6{fill:#A7A7A7;}
	.st7{fill:#9F9F9F;}
	.st8{fill:#DFDFDF;}
	.st9{fill:#AFAFAF;}
	.st10{display:none;fill:#FFFFFF;}
</style>
<g>
	<polygon class="st0" points="60,12.9 62,10.9 53,2 51,4 42,13 43,13 46,13 46,16 24,16 35,5 36,4 38,2 24,2 23,2 21,4 9,16 9,19 
		9,46 9,51 8,51 7,51 5,53 6,54 14,62 22,54 23,53 25,51 21,51 21,50 38,50 26,62 27,62 41,62 56,47 58,45 58,13 60,13 51.5,4.5 
		51.5,4.5 	"/>
	<path class="st1" d="M41,64H26c-0.8,0-1.5-0.5-1.8-1.2c-0.3-0.7-0.1-1.6,0.4-2.2l8.6-8.6h-6.4c-0.1,0.1-0.2,0.3-0.3,0.4l-11,11
		c-0.8,0.8-2,0.8-2.8,0l-9-9c-0.8-0.8-0.8-2,0-2.8l2-2C6,49.2,6.5,49,7,49V16c0-0.5,0.2-1,0.6-1.4l14-14C22,0.2,22.5,0,23,0h15
		c0.8,0,1.5,0.5,1.8,1.2C40.2,2,40,2.8,39.4,3.4L28.8,14h11.4c0-0.1-0.1-0.2-0.1-0.2c-0.3-0.7-0.1-1.6,0.4-2.2l11-11
		c0.8-0.8,2-0.8,2.8,0l9,8.9c0.4,0.4,0.6,0.9,0.6,1.4c0,0.5-0.2,1-0.6,1.4L61.7,14c-0.4,0.6-1,1-1.7,1v30c0,0.5-0.2,1-0.6,1.4
		l-17,17C42,63.8,41.5,64,41,64z M30.8,60h9.3L56,44.2V13c0-0.3,0.1-0.7,0.2-0.9L51,6.8l-4.3,4.3c0.8,0.3,1.3,1,1.3,1.9v3
		c0,1.1-0.9,2-2,2H24c-0.8,0-1.5-0.5-1.8-1.2c-0.3-0.7-0.1-1.6,0.4-2.2L33.2,4h-9.3L11,16.8V51c0,1.1-0.9,2-2,2H7.8l6.2,6.2l6.3-6.3
		c-0.8-0.3-1.3-1-1.3-1.9v-1c0-1.1,0.9-2,2-2h17c0.8,0,1.5,0.5,1.8,1.2c0.3,0.7,0.1,1.6-0.4,2.2L30.8,60z"/>
</g>
<g>
	<g>
		<polygon class="st2" points="51,4 53,2 62,10.9 60,12.9 		"/>
		<polygon class="st3" points="56,47 58,45 58,13 56,13 		"/>
		<polygon class="st4" points="46,42 46,13 42,13 51,4 60,13 56,13 56,47 41,62 26,62 		"/>
		<rect x="46" y="13" class="st5" width="1" height="3"/>
		<polygon class="st5" points="42,13 53,2 53,3 43,13 		"/>
		<polygon class="st5" points="38,50 39,50 27,62 26,62 		"/>
	</g>
	<g>
		<polygon class="st4" points="19,21 19,53 23,53 14,62 5,53 9,53 9,16 21,4 36,4 		"/>
		<polygon class="st6" points="21,4 23,2 38,2 36,4 		"/>
		<polygon class="st3" points="19,21 21,19 21,51 19,53 		"/>
		<polygon class="st6" points="25,51 23,53 19,53 21,51 		"/>
		<polygon class="st6" points="9,51 9,53 5,53 7,51 		"/>
		<polygon class="st5" points="23,2 24,2 22,4 36,4 35,5 21,5 10,16 10,18 9,19 9,16 		"/>
		<polygon class="st5" points="19,53 23,53 22,54 19,54 		"/>
		<polyline class="st5" points="9,46 9,53 6,53 8,51 7,51 5,53 6,54 10,54 10,47 		"/>
	</g>
	<g>
		<polygon class="st0" points="13,50 9,46 9,19 10,18 47,18 51,22 51,49 50,50 		"/>
		<polygon class="st7" points="53,20 51,22 51,49 53,47 		"/>
		<polygon class="st8" points="10,18 12,16 49,16 47,18 		"/>
		<rect x="48.6" y="16.2" transform="matrix(0.7071 -0.7071 0.7071 0.7071 1.1655 40.9551)" class="st9" width="2.8" height="5.7"/>
		<polygon class="st5" points="12,16 13,16 11,18 47,18 46,19 10,19 10,47 9,46 9,19 		"/>
	</g>
</g>
<rect x="10" y="19" class="st10" width="40" height="30"/>
</svg>
