<?xml version="1.0" encoding="utf-8"?>
<!-- Generator: Adobe Illustrator 24.0.1, SVG Export Plug-In . SVG Version: 6.00 Build 0)  -->
<svg version="1.1" id="Layer_1" xmlns="http://www.w3.org/2000/svg" xmlns:xlink="http://www.w3.org/1999/xlink" x="0px" y="0px"
	 viewBox="0 0 64 64" style="enable-background:new 0 0 64 64;" xml:space="preserve">
<style type="text/css">
	.st0{fill:#BFBFBF;}
	.st1{fill:#5F5F5F;}
	.st2{fill:#FFFFFF;}
	.st3{fill:#6F6F6F;}
	.st4{fill:#DFDFDF;}
	.st5{fill:#878787;}
	.st6{fill:#676767;}
	.st7{fill:#A7A7A7;}
	.st8{display:none;fill:#FFFFFF;}
</style>
<g>
	<polygon class="st0" points="58,44 58,3 19,3 18,3 14,7 6,15 6,51 3,54 3,62 4,62 56,62 62,56 62,44 	"/>
	<path class="st1" d="M56,64H3c-1.1,0-2-0.9-2-2v-8c0-0.5,0.2-1,0.6-1.4L4,50.2V15c0-0.5,0.2-1,0.6-1.4l12-12C17,1.2,17.5,1,18,1h40
		c1.1,0,2,0.9,2,2v39h2c1.1,0,2,0.9,2,2v12c0,0.5-0.2,1-0.6,1.4l-6,6C57,63.8,56.5,64,56,64z M5,60h50.2l4.8-4.8V46h-2
		c-1.1,0-2-0.9-2-2V5H18.8L8,15.8V51c0,0.5-0.2,1-0.6,1.4L5,54.8V60z"/>
</g>
<g>
	<g>
		<polygon class="st0" points="54,59 54,7 14,7 6,15 6,59 		"/>
		<polygon class="st2" points="14,15 6,15 14,7 		"/>
		<polygon class="st3" points="54,7 58,3 58,55 54,59 		"/>
		<polygon class="st4" points="14,7 18,3 58,3 54,7 		"/>
		<polyline class="st2" points="54,7 54,8 14,8 7,15 7,59 6,59 6,15 18,3 19,3 15,7 		"/>
	</g>
	<g>
		<polygon class="st5" points="56,50 31,50 27,54 3,54 3,62 56,62 		"/>
		<polygon class="st6" points="56,50 62,44 62,56 56,62 		"/>
		<polygon class="st7" points="6,53 28,53 27,54 3,54 6,51 		"/>
		<polygon class="st7" points="58,44 58,45 54,49 32,49 31,50 56,50 62,44 		"/>
		<polygon class="st2" points="56,50 32,50 33,49 32,49 31,50 27,54 4,54 6,52 6,51 3,54 3,62 4,62 4,55 27,55 31,51 56,51 		"/>
	</g>
</g>
<rect x="10" y="19" class="st8" width="40" height="30"/>
</svg>
