<?xml version="1.0" encoding="utf-8"?>
<!-- Generator: Adobe Illustrator 24.0.1, SVG Export Plug-In . SVG Version: 6.00 Build 0)  -->
<svg version="1.1" id="Layer_1" xmlns="http://www.w3.org/2000/svg" xmlns:xlink="http://www.w3.org/1999/xlink" x="0px" y="0px"
	 viewBox="0 0 64 64" style="enable-background:new 0 0 64 64;" xml:space="preserve">
<style type="text/css">
	.st0{fill:#BFBFBF;}
	.st1{fill:#5F5F5F;}
	.st2{fill:#7F7F7F;}
	.st3{fill:#DFDFDF;}
	.st4{fill:#FFFFFF;}
	.st5{display:none;fill:#FFFFFF;}
</style>
<g>
	<path class="st0" d="M15,3h-1l-8,8v42c0,1.1,0.9,2,2,2h6v4c0,1.1,0.9,2,2,2h44c1.1,0,2-0.9,2-2V3H15z"/>
	<path class="st1" d="M60,63H16c-2.2,0-4-1.8-4-4v-2H8c-2.2,0-4-1.8-4-4V11c0-0.5,0.2-1,0.6-1.4l8-8C13,1.2,13.5,1,14,1h48
		c1.1,0,2,0.9,2,2v56C64,61.2,62.2,63,60,63z M8,11.8V53h6c1.1,0,2,0.9,2,2v4h44V5H14.8L8,11.8z"/>
</g>
<g>
	<path class="st2" d="M60,61H16c-1.1,0-2-0.9-2-2V3h48v56C62,60.1,61.1,61,60,61z"/>
	<polygon class="st3" points="6,11 14,3 62,3 54,11 	"/>
	<path class="st0" d="M6,11h48v42c0,1.1-0.9,2-2,2H8c-1.1,0-2-0.9-2-2V11z"/>
	<polygon class="st4" points="54,11 7,11 15,3 14,3 6,11 6,53 7,52 7,12 54,12 	"/>
</g>
<rect x="10" y="19" class="st5" width="40" height="30"/>
</svg>
