<?xml version="1.0" encoding="iso-8859-1"?>
<!-- Generator: Adobe Illustrator 19.2.1, SVG Export Plug-In . SVG Version: 6.00 Build 0)  -->
<svg version="1.1" id="Layer_1" xmlns="http://www.w3.org/2000/svg" xmlns:xlink="http://www.w3.org/1999/xlink" x="0px" y="0px"
	 viewBox="0 0 240 240" style="enable-background:new 0 0 240 240;" xml:space="preserve">
<circle style="fill-rule:evenodd;clip-rule:evenodd;fill:#D6806D;stroke:#1D1D1D;stroke-width:8;stroke-miterlimit:10;" cx="120" cy="120" r="76.5"/>
<g>
	<path style="fill-rule:evenodd;clip-rule:evenodd;fill:#BDBDBD;" d="M108.227,223.535l-1.195-1.371
		c-3.489-4.001-20.892-25.81-20.892-62.35c0-27.242,12.548-52.198,17.906-62.855c0.866-1.722,1.842-3.664,2.08-4.314l0.293-1.823
		h-0.373V73.55c0-2.669-1.654-7.629-3.113-12.006c-1.812-5.435-3.523-10.569-3.523-14.536c0-20.267,6.927-30.543,20.589-30.543
		s20.589,10.276,20.589,30.543c0,3.967-1.711,9.101-3.523,14.536c-1.459,4.377-3.112,9.337-3.112,12.006v17.271h-0.373l0.294,1.823
		c0.237,0.65,1.214,2.591,2.079,4.313c5.358,10.657,17.907,35.613,17.907,62.856c0,36.544-17.404,58.35-20.893,62.35l-1.195,1.371
		H108.227z"/>
	<path style="fill:#1D1D1D;" d="M120,20.465c9.954,0,16.589,6.636,16.589,26.543c0,6.636-6.636,19.907-6.636,26.543h-19.907
		c0-6.636-6.636-19.907-6.636-26.543C103.411,27.101,110.047,20.465,120,20.465 M129.954,80.186v6.636h-19.907v-6.636H129.954
		 M129.954,93.457c0.538,3.347,19.907,33.178,19.907,66.357c0,33.178-15.15,54.266-19.907,59.721h-19.907
		c-4.757-5.455-19.907-26.543-19.907-59.721c0-33.178,19.368-63.01,19.907-66.357H129.954 M120,12.465
		c-10.024,0-15.637,5.013-18.581,9.219c-4.043,5.776-6.008,14.059-6.008,25.324c0,4.616,1.811,10.049,3.728,15.801
		c1.227,3.681,2.907,8.722,2.907,10.741v8v5.271v5.163c-0.386,0.815-1.007,2.05-1.574,3.178
		c-5.486,10.91-18.333,36.461-18.333,64.651c0,37.97,18.224,60.79,21.878,64.979l2.391,2.742h3.638h19.907h3.638l2.391-2.742
		c3.653-4.189,21.878-27.01,21.878-64.979c0-28.19-12.847-53.741-18.333-64.651c-0.567-1.128-1.188-2.363-1.574-3.178v-5.163v-6.636
		V73.55c0-2.02,1.68-7.061,2.907-10.741c1.917-5.752,3.728-11.185,3.728-15.801c0-11.265-1.965-19.549-6.008-25.324
		C135.637,17.478,130.024,12.465,120,12.465L120,12.465z"/>
</g>
<rect style="fill-rule:evenodd;clip-rule:evenodd;fill:none;" width="240" height="240"/>
</svg>
