<?xml version="1.0" encoding="utf-8"?>
<!-- Generator: Adobe Illustrator 19.2.1, SVG Export Plug-In . SVG Version: 6.00 Build 0)  -->
<svg version="1.1" id="Layer_1" xmlns="http://www.w3.org/2000/svg" xmlns:xlink="http://www.w3.org/1999/xlink" x="0px" y="0px"
	 viewBox="0 0 240 240" enable-background="new 0 0 240 240" xml:space="preserve">
<circle fill-rule="evenodd" clip-rule="evenodd" fill="#BDBDBD" stroke="#1D1D1D" stroke-width="8" stroke-linecap="round" stroke-miterlimit="10" cx="120" cy="120" r="57.2"/>
<circle fill-rule="evenodd" clip-rule="evenodd" fill="#1D1D1D" cx="156.7" cy="83.3" r="17.5"/>
<rect fill-rule="evenodd" clip-rule="evenodd" fill="none" width="240" height="240"/>
<path fill="#BDBDBD" stroke="#1D1D1D" stroke-width="8" stroke-linecap="round" stroke-miterlimit="10" d="M120,16.3
	C62.7,16.3,16.3,62.7,16.3,120c0,57.3,46.4,103.7,103.7,103.7S223.7,177.3,223.7,120C223.7,62.7,177.3,16.3,120,16.3z M120,207.4
	c-48.3,0-87.4-39.1-87.4-87.4S71.7,32.6,120,32.6s87.4,39.1,87.4,87.4S168.3,207.4,120,207.4z"/>
<g>
	<path fill="#AE9CDB" d="M155.4,111.3c-6.8,0-13.7-3-18.9-8.2c-5.2-5.2-8.2-12.1-8.2-18.8c0-5.6,2-10.7,5.7-14.4l26.5-26.5
		c3.7-3.7,8.8-5.7,14.4-5.7c1.1,0,2.1,0.1,3.2,0.2c-1.3-1.7-2.1-3.8-2.1-6.1c0-2.7,1-5.1,2.9-7L190,14c3.7-3.7,8.8-5.7,14.4-5.7
		c6.8,0,13.7,3,18.9,8.2c5.2,5.2,8.2,12.1,8.2,18.8c0,5.6-2,10.7-5.7,14.4l-26.5,26.5c-3.7,3.7-8.8,5.7-14.4,5.7c0,0,0,0,0,0
		c-1.1,0-2.1-0.1-3.2-0.2c1.3,1.7,2.1,3.9,2.1,6.1c0,2.7-1,5.1-2.9,7l-11,10.8C166.1,109.3,160.9,111.3,155.4,111.3L155.4,111.3z
		 M148.2,83.8c-0.2,0.7,0.1,3.1,2.3,5.3c1.7,1.7,3.7,2.4,4.8,2.4c0.3,0,0.4,0,0.5-0.1l10.9-10.7c1.3-1.3,3-2.2,4.8-2.6
		c-2-1.2-3.9-2.7-5.6-4.3c-1.4-1.4-2.3-3.1-2.7-4.9L148.2,83.8z M188.3,41.5c2,1.2,3.9,2.7,5.6,4.3c1.4,1.4,2.3,3.1,2.7,4.9l15-15
		c0.2-0.7-0.1-3.1-2.3-5.3c-1.7-1.7-3.7-2.4-4.8-2.4c-0.3,0-0.4,0-0.5,0.1L193,38.9C191.7,40.2,190.1,41.1,188.3,41.5z"/>
	<path fill="#1D1D1D" d="M204.4,12.3c5.5,0,11.4,2.4,16,7c8.3,8.3,9.4,20.7,2.4,27.6l-26.5,26.5c-3.1,3.1-7.2,4.6-11.6,4.6
		c-5.5,0-11.4-2.4-16-7c-2.3-2.3-2.3-6.1,0-8.4c1.2-1.2,2.7-1.7,4.2-1.7c1.5,0,3,0.6,4.2,1.7c2.4,2.4,5.3,3.5,7.6,3.5
		c1.3,0,2.5-0.4,3.2-1.1l26.5-26.5c2-2,1.4-7-2.4-10.8c-2.4-2.4-5.3-3.5-7.6-3.5c-1.3,0-2.5,0.4-3.2,1.1l-11,10.8
		c-1.2,1.2-2.7,1.7-4.2,1.7c-1.5,0-3-0.6-4.2-1.7c-2.3-2.3-2.3-6.1,0-8.4l11-10.8C195.9,13.8,200,12.3,204.4,12.3 M175,41.7
		c5.5,0,11.4,2.4,16,7c2.3,2.3,2.3,6.1,0,8.4c-1.2,1.2-2.7,1.7-4.2,1.7c-1.5,0-3-0.6-4.2-1.7c-2.4-2.4-5.3-3.5-7.6-3.5
		c-1.3,0-2.5,0.4-3.2,1.1l-26.5,26.5c-2,2-1.4,7,2.4,10.8c2.4,2.4,5.3,3.5,7.6,3.5c1.3,0,2.5-0.4,3.2-1.1l11-10.8
		c1.2-1.2,2.7-1.7,4.2-1.7c1.5,0,3,0.6,4.2,1.7c2.3,2.3,2.3,6.1,0,8.4l-11,10.8c-3.1,3.1-7.2,4.6-11.6,4.6c-5.5,0-11.4-2.4-16-7
		c-8.3-8.3-9.4-20.7-2.4-27.6l26.5-26.5C166.5,43.2,170.6,41.7,175,41.7 M204.4,4.3c-6.6,0-12.8,2.4-17.2,6.9l-11,10.8l0,0l0,0
		c-2.6,2.6-4.1,6.1-4.1,9.9c0,0.7,0,1.3,0.1,2c-5.6,0.6-10.7,2.9-14.5,6.8l-26.5,26.5c-4.5,4.5-6.9,10.6-6.9,17.2
		c0,7.8,3.4,15.7,9.3,21.7c5.9,5.9,13.8,9.3,21.7,9.3c6.6,0,12.8-2.4,17.2-6.9l11-10.8l0,0l0,0c2.6-2.6,4.1-6.1,4.1-9.9
		c0-0.7,0-1.3-0.1-2c5.6-0.6,10.7-2.9,14.5-6.8l26.5-26.5c4.5-4.5,6.9-10.6,6.9-17.2c0-7.8-3.4-15.7-9.3-21.7
		C220.2,7.7,212.3,4.3,204.4,4.3L204.4,4.3z M195.9,41.7l9.4-9.2c0.3,0.2,0.7,0.5,1.1,0.9c0.4,0.4,0.7,0.8,0.8,1.1l-9.7,9.6
		c-0.3-0.4-0.6-0.7-0.9-1c-0.4-0.4-0.7-0.7-1.1-1C195.7,41.9,195.8,41.8,195.9,41.7L195.9,41.7z M152.5,85.2l9.6-9.6
		c0.3,0.4,0.6,0.7,0.9,1c0.4,0.4,0.7,0.7,1.1,1c-0.1,0.1-0.2,0.2-0.3,0.3l-9.4,9.2c-0.3-0.2-0.7-0.5-1.1-0.9
		C153,85.9,152.7,85.5,152.5,85.2L152.5,85.2z"/>
</g>
<circle fill-rule="evenodd" clip-rule="evenodd" fill="#BDBDBD" stroke="#1D1D1D" stroke-width="8" stroke-linecap="round" stroke-miterlimit="10" cx="51.7" cy="188.3" r="27.9"/>
</svg>
